<?xml version="1.0" encoding="UTF-8"?>
<svg id="Layer_2" xmlns="http://www.w3.org/2000/svg" viewBox="0 0 117 42">
  <defs>
    <style>
      .cls-1 {
        fill: #facb0f;
      }
    </style>
  </defs>
  <g id="Layer_1-2" data-name="Layer_1">
    <path class="cls-1" d="M112,16h-41.13c-.55-.89-.87-1.92-.87-3s.31-2.11.87-3h23.13c2.76,0,5-2.24,5-5s-2.24-5-5-5H5C2.24,0,0,2.24,0,5s2.24,5,5,5h50.13c.55.89.87,1.92.87,3s-.31,2.11-.87,3h-11.13c-2.76,0-5,2.24-5,5s2.24,5,5,5h39.13c.55.89.87,1.92.87,3s-.31,2.11-.87,3h-5.13c-2.76,0-5,2.24-5,5s2.24,5,5,5h26c2.76,0,5-2.24,5-5s-2.24-5-5-5h-5.13c-.55-.89-.87-1.92-.87-3s.31-2.11.87-3h13.13c2.76,0,5-2.24,5-5s-2.24-5-5-5Z"/>
  </g>
</svg>