<?xml version="1.0" encoding="UTF-8"?>
<svg id="Layer_2" xmlns="http://www.w3.org/2000/svg" viewBox="0 0 96 74">
  <defs>
    <style>
      .cls-1 {
        fill: #facb0f;
      }
    </style>
  </defs>
  <g id="Layer_1-2" data-name="Layer_1">
    <path class="cls-1" d="M91,16h-20.13c-.55-.89-.87-1.92-.87-3s.31-2.11.87-3h5.13c2.76,0,5-2.24,5-5s-2.24-5-5-5h-26c-2.76,0-5,2.24-5,5h0c0,2.76,2.24,5,5,5h5.13c.55.89.87,1.92.87,3s-.31,2.11-.87,3H23c-2.76,0-5,2.24-5,5s2.24,5,5,5h18.13c.55.89.87,1.92.87,3s-.31,2.11-.87,3H5c-2.76,0-5,2.24-5,5s2.24,5,5,5h17.13c.55.89.87,1.92.87,3s-.31,2.11-.87,3h-8.13c-2.76,0-5,2.24-5,5s2.24,5,5,5h32.13c.55.89.87,1.92.87,3s-.31,2.11-.87,3h-5.13c-2.76,0-5,2.24-5,5s2.24,5,5,5h26c2.76,0,5-2.24,5-5s-2.24-5-5-5h-5.13c-.55-.89-.87-1.92-.87-3s.31-2.11.87-3h20.13c2.76,0,5-2.24,5-5s-2.24-5-5-5h-44.13c-.55-.89-.87-1.92-.87-3s.31-2.11.87-3h35.13c2.76,0,5-2.24,5-5s-2.24-5-5-5h-16.13c-.55-.89-.87-1.92-.87-3s.31-2.11.87-3h34.13c2.76,0,5-2.24,5-5s-2.24-5-5-5Z"/>
  </g>
</svg>