<?xml version="1.0" encoding="UTF-8"?>
<svg id="Layer_2" xmlns="http://www.w3.org/2000/svg" viewBox="0 0 116.3 116.3">
  <defs>
    <style>
      .cls-1 {
        stroke-width: 3.76px;
      }

      .cls-1, .cls-2 {
        fill: none;
        stroke: #facb0f;
        stroke-miterlimit: 10;
      }

      .cls-2 {
        stroke-width: 3.76px;
      }
    </style>
  </defs>
  <g id="Layer_1-2" data-name="Layer_1">
    <g>
      <g>
        <line class="cls-2" x1="59.41" y1="116.26" x2="58.56" y2="76.82"/>
        <line class="cls-2" x1="17.95" y1="100.13" x2="45.24" y2="71.64"/>
        <line class="cls-2" x1=".04" y1="59.41" x2="39.48" y2="58.56"/>
        <line class="cls-2" x1="16.17" y1="17.95" x2="44.66" y2="45.24"/>
        <line class="cls-2" x1="56.88" y1=".04" x2="57.74" y2="39.48"/>
        <line class="cls-2" x1="98.34" y1="16.17" x2="71.06" y2="44.66"/>
        <line class="cls-2" x1="116.26" y1="56.88" x2="76.82" y2="57.74"/>
        <line class="cls-2" x1="100.13" y1="98.34" x2="71.64" y2="71.06"/>
      </g>
      <g>
        <g id="_x3C_Radial_Repeat_x3E_">
          <line class="cls-1" x1="47.26" y1="89.07" x2="51.45" y2="75.57"/>
          <line class="cls-1" x1="39.38" y1="114.16" x2="43.57" y2="100.66"/>
        </g>
        <g id="_x3C_Radial_Repeat_x3E_-2" data-name="_x3C_Radial_Repeat_x3E_">
          <line class="cls-1" x1="28.58" y1="72.32" x2="41.1" y2="65.73"/>
          <line class="cls-1" x1="5.27" y1="84.49" x2="17.78" y2="77.9"/>
        </g>
        <g id="_x3C_Radial_Repeat_x3E_-3" data-name="_x3C_Radial_Repeat_x3E_">
          <line class="cls-1" x1="27.22" y1="47.26" x2="40.73" y2="51.45"/>
          <line class="cls-1" x1="2.13" y1="39.38" x2="15.64" y2="43.57"/>
        </g>
        <g id="_x3C_Radial_Repeat_x3E_-4" data-name="_x3C_Radial_Repeat_x3E_">
          <line class="cls-1" x1="43.98" y1="28.58" x2="50.57" y2="41.1"/>
          <line class="cls-1" x1="31.81" y1="5.27" x2="38.4" y2="17.78"/>
        </g>
        <g id="_x3C_Radial_Repeat_x3E_-5" data-name="_x3C_Radial_Repeat_x3E_">
          <line class="cls-1" x1="69.03" y1="27.22" x2="64.84" y2="40.73"/>
          <line class="cls-1" x1="76.92" y1="2.13" x2="72.73" y2="15.64"/>
        </g>
        <g id="_x3C_Radial_Repeat_x3E_-6" data-name="_x3C_Radial_Repeat_x3E_">
          <line class="cls-1" x1="87.71" y1="43.98" x2="75.2" y2="50.57"/>
          <line class="cls-1" x1="111.03" y1="31.81" x2="98.52" y2="38.4"/>
        </g>
        <g id="_x3C_Radial_Repeat_x3E_-7" data-name="_x3C_Radial_Repeat_x3E_">
          <line class="cls-1" x1="89.07" y1="69.03" x2="75.57" y2="64.84"/>
          <line class="cls-1" x1="114.16" y1="76.92" x2="100.66" y2="72.73"/>
        </g>
        <g id="_x3C_Radial_Repeat_x3E_-8" data-name="_x3C_Radial_Repeat_x3E_">
          <line class="cls-1" x1="72.32" y1="87.71" x2="65.73" y2="75.2"/>
          <line class="cls-1" x1="84.49" y1="111.03" x2="77.9" y2="98.52"/>
        </g>
      </g>
    </g>
  </g>
</svg>