<?xml version="1.0" encoding="UTF-8"?>
<svg id="Layer_2" xmlns="http://www.w3.org/2000/svg" viewBox="0 0 97.14 95.38">
  <defs>
    <style>
      .cls-1 {
        fill: #fff;
      }

      .cls-2 {
        fill: #e40002;
      }
    </style>
  </defs>
  <g id="Layer_1-2" data-name="Layer_1">
    <g>
      <path class="cls-2" d="M97.07,38.24c-.85-7.43-8.76-12.25-14.71-13.24-4.44-.73-9.19.44-13.61,3.19,2.98-3.94,4.58-8.29,4.44-12.6-.15-4.81-2.52-12.01-8.56-14.63-6.86-2.97-14.99,1.46-18.82,6.12-2.85,3.47-4.21,8.18-4.04,13.38-1.92-4.55-4.89-8.11-8.69-10.15-4.24-2.27-11.66-3.82-16.95.1-6,4.45-6.23,13.71-4.11,19.36,1.58,4.21,4.98,7.74,9.57,10.19-4.9-.61-9.47.18-13.13,2.45C4.37,44.95-.68,50.6.07,57.14c.85,7.43,8.76,12.25,14.71,13.24,4.44.73,9.19-.44,13.6-3.19-2.98,3.94-4.58,8.28-4.44,12.6.15,4.81,2.52,12.01,8.56,14.63,6.86,2.97,14.99-1.46,18.82-6.12,2.85-3.47,4.21-8.18,4.04-13.38,1.92,4.55,4.89,8.11,8.69,10.15,4.24,2.27,11.66,3.82,16.95-.1,6-4.45,6.23-13.71,4.11-19.36-1.58-4.21-4.98-7.74-9.56-10.19,4.9.61,9.46-.18,13.13-2.45,4.09-2.54,9.14-8.19,8.39-14.73Z"/>
      <g>
        <g id="_x3C_Radial_Repeat_x3E_">
          <circle class="cls-1" cx="44.45" cy="61.12" r="2.36"/>
        </g>
        <g id="_x3C_Radial_Repeat_x3E_-2" data-name="_x3C_Radial_Repeat_x3E_">
          <circle class="cls-1" cx="37.81" cy="56.71" r="2.36"/>
        </g>
        <g id="_x3C_Radial_Repeat_x3E_-3" data-name="_x3C_Radial_Repeat_x3E_">
          <circle class="cls-1" cx="34.63" cy="49.39" r="2.36"/>
        </g>
        <g id="_x3C_Radial_Repeat_x3E_-4" data-name="_x3C_Radial_Repeat_x3E_">
          <circle class="cls-1" cx="35.95" cy="41.52" r="2.36"/>
        </g>
        <g id="_x3C_Radial_Repeat_x3E_-5" data-name="_x3C_Radial_Repeat_x3E_">
          <circle class="cls-1" cx="41.35" cy="35.64" r="2.36"/>
        </g>
        <g id="_x3C_Radial_Repeat_x3E_-6" data-name="_x3C_Radial_Repeat_x3E_">
          <circle class="cls-1" cx="49.07" cy="33.65" r="2.36"/>
        </g>
        <g id="_x3C_Radial_Repeat_x3E_-7" data-name="_x3C_Radial_Repeat_x3E_">
          <circle class="cls-1" cx="56.64" cy="36.19" r="2.36"/>
        </g>
        <g id="_x3C_Radial_Repeat_x3E_-8" data-name="_x3C_Radial_Repeat_x3E_">
          <circle class="cls-1" cx="61.6" cy="42.44" r="2.36"/>
        </g>
        <g id="_x3C_Radial_Repeat_x3E_-9" data-name="_x3C_Radial_Repeat_x3E_">
          <circle class="cls-1" cx="62.36" cy="50.38" r="2.36"/>
        </g>
        <g id="_x3C_Radial_Repeat_x3E_-10" data-name="_x3C_Radial_Repeat_x3E_">
          <circle class="cls-1" cx="58.67" cy="57.45" r="2.36"/>
        </g>
        <g id="_x3C_Radial_Repeat_x3E_-11" data-name="_x3C_Radial_Repeat_x3E_">
          <circle class="cls-1" cx="51.72" cy="61.38" r="2.36"/>
        </g>
      </g>
    </g>
  </g>
</svg>