<?xml version="1.0" encoding="UTF-8"?>
<svg id="Layer_2" xmlns="http://www.w3.org/2000/svg" viewBox="0 0 68.8 41">
  <defs>
    <style>
      .cls-1 {
        fill: #fef2c3;
      }

      .cls-2 {
        fill: #facb0f;
      }
    </style>
  </defs>
  <g id="Layer_1-2" data-name="Layer_1">
    <g>
      <path class="cls-1" d="M37.33,14.64c10.19-.55,13.69-5.07,23.42-2.93,2.75.6,4.91,1.5,6.3,2.15-10.88,5.25-21.77,10.49-32.65,15.74L1.97,13.75c1.98-.66,5.1-1.56,9.01-2.04,12.61-1.54,15.17,3.53,26.35,2.93Z"/>
      <circle class="cls-2" cx="34.4" cy="20.5" r="20.5"/>
      <path class="cls-2" d="M.73,14.64c3.53-4.5,15.93,6.27,35.14,5.86,17.75-.38,28.87-10.04,32.21-5.86,2.47,3.1-2.08,10.36-2.93,11.71-8.58,13.67-27.13,14.57-29.28,14.64-1.08.04-22.77.45-32.21-14.64-.93-1.49-5.37-8.59-2.93-11.71Z"/>
    </g>
  </g>
</svg>