<?xml version="1.0" encoding="UTF-8"?>
<svg id="Layer_2" xmlns="http://www.w3.org/2000/svg" xmlns:xlink="http://www.w3.org/1999/xlink" viewBox="0 0 67 243">
  <defs>
    <style>
      .cls-1, .cls-2 {
        stroke-width: 2px;
      }

      .cls-1, .cls-2, .cls-3 {
        fill: none;
        stroke-miterlimit: 10;
      }

      .cls-1, .cls-3 {
        stroke: #e40002;
      }

      .cls-2 {
        stroke: #a90909;
      }

      .cls-3 {
        stroke-width: 4px;
      }

      .cls-4 {
        fill: #a90909;
      }

      .cls-5 {
        clip-path: url(#clippath);
      }

      .cls-6 {
        fill: #e40002;
      }
    </style>
    <clipPath id="clippath">
      <circle class="cls-6" cx="33.5" cy="92.5" r="33.5"/>
    </clipPath>
  </defs>
  <g id="Layer_1-2" data-name="Layer_1">
    <g>
      <line class="cls-3" x1="33.5" y1="177" x2="33.5" y2="132"/>
      <path class="cls-4" d="M44,66h-21v-11c2.16-.85,5.63-1.92,10-2,4.89-.09,8.74,1.11,11,2v11Z"/>
      <path class="cls-4" d="M23,120h21v11c-2.16.85-5.63,1.92-10,2-4.89.09-8.74-1.11-11-2v-11Z"/>
      <g>
        <circle class="cls-6" cx="33.5" cy="92.5" r="33.5"/>
        <g class="cls-5">
          <path class="cls-2" d="M34.33,131c-3.36-6.71-8.8-19.75-9-37-.22-18.36,5.6-32.22,9-39"/>
          <path class="cls-2" d="M34.33,128c-1.71-1.15-18.26-12.73-19-34-.81-23.13,17.82-36.2,19-37"/>
          <path class="cls-2" d="M32.33,127c-14.53-4.66-24.58-17.97-25-33-.44-15.73,9.77-30.1,25-35"/>
          <path class="cls-2" d="M33.33,127C15.31,125.9,1.08,111.33.33,94c-.79-18.4,13.84-34.79,33-36"/>
          <path class="cls-2" d="M32.3,131c3.36-6.71,8.8-19.75,9-37,.22-18.36-5.6-32.22-9-39"/>
          <path class="cls-2" d="M32.3,128c1.71-1.15,18.26-12.73,19-34,.81-23.13-17.82-36.2-19-37"/>
          <path class="cls-2" d="M34.3,127c14.53-4.66,24.58-17.97,25-33,.44-15.73-9.77-30.1-25-35"/>
          <path class="cls-2" d="M33.3,127c18.02-1.1,32.26-15.67,33-33,.79-18.4-13.84-34.79-33-36"/>
        </g>
      </g>
      <line class="cls-3" x1="33.5" y1="53" x2="33.5" y2="8"/>
      <line class="cls-3" x1="33.5" y1="195" x2="33.5" y2="187"/>
      <path class="cls-4" d="M39.5,179.25v-.22c0-1.12-.91-2.03-2.03-2.03h-7.94c-1.12,0-2.03.91-2.03,2.03v.22c-2.76-.41-5,1.7-5,3.75s2.24,4.16,5,3.75v.22c0,1.12.91,2.03,2.03,2.03h7.94c1.12,0,2.03-.91,2.03-2.03v-.22c2.76.41,5-1.7,5-3.75s-2.24-4.16-5-3.75Z"/>
      <g>
        <g>
          <line class="cls-1" x1="28.5" y1="243" x2="28.5" y2="198"/>
          <line class="cls-1" x1="38.5" y1="243" x2="38.5" y2="198"/>
          <line class="cls-1" x1="31.83" y1="243" x2="31.83" y2="198"/>
          <line class="cls-1" x1="35.17" y1="243" x2="35.17" y2="198"/>
        </g>
        <path class="cls-4" d="M27.5,195h12v3c0,3.31-2.69,6-6,6h0c-3.31,0-6-2.69-6-6v-3h0Z"/>
      </g>
      <circle class="cls-6" cx="33.5" cy="5" r="5"/>
    </g>
  </g>
</svg>