<?xml version="1.0" encoding="UTF-8"?>
<svg id="Layer_2" xmlns="http://www.w3.org/2000/svg" viewBox="0 0 67 243">
  <defs>
    <style>
      .cls-1, .cls-2, .cls-3 {
        stroke: #a90909;
        stroke-miterlimit: 10;
      }

      .cls-1, .cls-4 {
        fill: #a90909;
      }

      .cls-1, .cls-3 {
        stroke-width: 4px;
      }

      .cls-2 {
        stroke-width: 2px;
      }

      .cls-2, .cls-3 {
        fill: none;
      }
    </style>
  </defs>
  <g id="Layer_1-2" data-name="Layer_1">
    <g>
      <circle class="cls-4" cx="33.5" cy="92.5" r="33.5"/>
      <path class="cls-4" d="M44,66h-21v-11c2.16-.85,5.63-1.92,10-2,4.89-.09,8.74,1.11,11,2v11Z"/>
      <path class="cls-4" d="M23,120h21v11c-2.16.85-5.63,1.92-10,2-4.89.09-8.74-1.11-11-2v-11Z"/>
      <line class="cls-3" x1="33.5" y1="53" x2="33.5" y2="8"/>
      <line class="cls-1" x1="33.5" y1="177" x2="33.5" y2="132"/>
      <line class="cls-3" x1="33.5" y1="195" x2="33.5" y2="187"/>
      <path class="cls-4" d="M39.5,179.25v-.22c0-1.12-.91-2.03-2.03-2.03h-7.94c-1.12,0-2.03.91-2.03,2.03v.22c-2.76-.41-5,1.7-5,3.75s2.24,4.16,5,3.75v.22c0,1.12.91,2.03,2.03,2.03h7.94c1.12,0,2.03-.91,2.03-2.03v-.22c2.76.41,5-1.7,5-3.75s-2.24-4.16-5-3.75Z"/>
      <g>
        <line class="cls-2" x1="28.5" y1="243" x2="28.5" y2="198"/>
        <line class="cls-2" x1="38.5" y1="243" x2="38.5" y2="198"/>
        <line class="cls-2" x1="31.83" y1="243" x2="31.83" y2="198"/>
        <line class="cls-2" x1="35.17" y1="243" x2="35.17" y2="198"/>
      </g>
      <path class="cls-4" d="M27.5,195h12v3c0,3.31-2.69,6-6,6h0c-3.31,0-6-2.69-6-6v-3h0Z"/>
      <circle class="cls-4" cx="33.5" cy="5" r="5"/>
    </g>
  </g>
</svg>