<?xml version="1.0" encoding="UTF-8"?>
<svg id="Layer_2" xmlns="http://www.w3.org/2000/svg" viewBox="0 0 90 351">
  <defs>
    <style>
      .cls-1 {
        fill: #fff;
      }

      .cls-2 {
        fill: #facb0f;
      }
    </style>
  </defs>
  <g id="Layer_1-2" data-name="Layer_1">
    <g>
      <g>
        <rect class="cls-2" x="39.17" y="306" width="2" height="45"/>
        <rect class="cls-2" x="49.17" y="306" width="2" height="45"/>
        <rect class="cls-2" x="42.5" y="306" width="2" height="45"/>
        <rect class="cls-2" x="45.83" y="306" width="2" height="45"/>
      </g>
      <path class="cls-2" d="M39.17,300h12v3c0,3.31-2.69,6-6,6h0c-3.31,0-6-2.69-6-6v-3h0Z" transform="translate(90.33 609) rotate(180)"/>
      <circle class="cls-2" cx="45" cy="276" r="5"/>
      <g>
        <rect class="cls-1" x="12" y="19" width="66" height="161"/>
        <path class="cls-2" d="M80,182H10V17h70v165ZM14,178h62V21H14v157Z"/>
      </g>
      <polygon class="cls-2" points="90 178 87 178 87 175 4 175 4 178 0 178 0 192 4 192 4 197 87 197 87 192 90 192 90 178"/>
      <polygon class="cls-2" points="90 3 87 3 87 0 4 0 4 3 0 3 0 17 4 17 4 22 87 22 87 17 90 17 90 3"/>
      <rect class="cls-2" x="43" y="192" width="4" height="33"/>
      <rect class="cls-2" x="43" y="251" width="4" height="20"/>
      <rect class="cls-2" x="43" y="281" width="4" height="20"/>
      <path class="cls-2" d="M71.57,236.75l-.02-.13c-.26-1.34-.88-2.61-1.78-3.67-1.17-1.38-2.83-2.18-4.66-2.25-1.88-.08-3.69.64-5.01,1.96l-2.25,2.25-3.22-2.87,4.02-4.02c2.21-2.18,2.56-5.69.82-8.16-1.49-2.11-4.21-3.07-6.78-2.4-.99.26-1.92.8-2.78,1.62l-4.5,4.29-4.5-4.29c-.85-.82-1.79-1.36-2.78-1.62-2.57-.67-5.29.29-6.78,2.4-1.75,2.48-1.4,5.98.8,8.15l3.92,3.92-3.35,2.99-2.25-2.25c-1.32-1.32-3.13-2.03-5.01-1.96-1.83.07-3.48.87-4.66,2.25-.9,1.06-1.52,2.33-1.78,3.68l-.02.12c-.49,2.75.78,5.41,3.25,6.79,2.54,1.42,5.57,1.1,7.73-.82l2.59-2.31,3.86,3.86c-.42.4-.83.79-1.21,1.14-3.06,2.87-5.27,4.94-5.32,7.66-.03,1.58.71,3.09,2.26,4.64,1.2,1.2,2.4,1.73,3.64,1.73,2.76,0,5.74-2.63,9.49-6.33,2.31,2.29,4.14,4,5.83,5.05,1.29.8,2.5,1.2,3.63,1.2,1.33,0,2.56-.55,3.66-1.66,1.55-1.55,2.29-3.06,2.26-4.64-.04-2.72-2.26-4.79-5.32-7.66-.38-.36-.79-.75-1.21-1.14l3.86-3.86,2.59,2.31c2.15,1.92,5.19,2.24,7.73.82,2.46-1.38,3.74-4.04,3.25-6.78ZM27.33,239.72c-1.04.93-2.29.77-3.11.31-.37-.21-1.55-1-1.25-2.66.13-.67.44-1.31.9-1.85.44-.52,1.07-.82,1.77-.84.04,0,.07,0,.11,0,.71,0,1.4.29,1.91.79l2.09,2.09-2.42,2.15ZM52.67,221.96c.35-.34.71-.56,1.03-.65.94-.25,1.97.1,2.49.84.63.89.48,2.19-.37,3.02l-4.16,4.16-3.36-3.21,4.36-4.16ZM48.72,232.03l-3.43,3.43-3.31-3.31,3.43-3.27,3.3,3.15ZM34.99,225.16c-.83-.82-.99-2.11-.35-3.01.52-.74,1.55-1.09,2.49-.84.32.08.68.31,1.03.65l4.36,4.16-3.36,3.21-.08-.08h0s-4.09-4.09-4.09-4.09ZM38.92,234.75l3.54,3.54-3.17,3.17-3.72-3.72,3.35-2.99ZM45.29,247.46l-3.17-3.17,3.17-3.17,3.17,3.17-3.17,3.17ZM35,254.88c-.5-.5-1.1-1.21-1.09-1.75.02-1.02,1.98-2.86,4.05-4.8.41-.39.85-.8,1.31-1.23l3.19,3.19c-4.73,4.65-6.33,5.73-7.46,4.6ZM52.62,248.33c2.08,1.94,4.04,3.78,4.05,4.81,0,.54-.59,1.25-1.09,1.75-.46.47-.83.83-2.35-.11-1.34-.84-3.05-2.44-5.12-4.48l3.19-3.19c.45.43.9.85,1.31,1.23ZM51.29,241.46l-3.17-3.17,3.54-3.54,3.35,2.99-3.72,3.72ZM66.37,240.04c-.82.46-2.07.62-3.11-.31l-2.42-2.15,2.09-2.09c.53-.53,1.27-.82,2.02-.79.7.03,1.33.33,1.77.84.46.54.77,1.18.91,1.91.29,1.59-.89,2.39-1.26,2.59Z"/>
    </g>
  </g>
</svg>