<?xml version="1.0" encoding="UTF-8"?>
<svg id="Layer_2" xmlns="http://www.w3.org/2000/svg" xmlns:xlink="http://www.w3.org/1999/xlink" viewBox="0 0 139.81 84.1">
  <defs>
    <style>
      .cls-1 {
        fill: #65524d;
      }

      .cls-2 {
        fill: #facb0f;
      }

      .cls-3 {
        clip-path: url(#clippath);
      }

      .cls-4 {
        fill: #85d6ff;
      }
    </style>
    <clipPath id="clippath">
      <path class="cls-4" d="M139.45,26.39c-2.18-10.37-14.07-18.32-24.47-18.92-12.88-.75-24.32,9.71-39.27,23.39-2.68,2.45-4.81,4.58-6.3,6.11-1.37-1.54-3.19-3.51-5.42-5.76C49.73,16.8,38.82,5.79,25.92,5.9,15.5,5.99,3.24,13.34.55,23.59c-3.7,14.1,11.97,28.99,25.39,34.15,5.73,2.2,10.93,2.58,14.35,2.56-9.76,5.78-14.39,13.62-12.49,18.14,2,4.73,10.93,5.25,15.83,4.67,14.53-1.7,23.02-16.41,25.62-21.61,2.65,5.8,10.35,19.88,24.24,22.21,4.86.81,13.81.74,16.04-3.89,2.13-4.42-2.12-12.48-11.58-18.73,3.42.19,8.63.07,14.46-1.85,13.65-4.49,30.04-18.58,27.04-32.85Z"/>
    </clipPath>
  </defs>
  <g id="Layer_1-2" data-name="Layer_1">
    <g>
      <path class="cls-1" d="M70.47,42.46c-.41-5.27-.06-13.37,3.91-22.03,4.37-9.53,11.07-15.36,15.92-18.58l1.42,2.15c-4.57,3.03-10.89,8.53-15.01,17.51-3.74,8.16-4.07,15.79-3.68,20.76l-2.57.2Z"/>
      <path class="cls-1" d="M70.84,45.07c-2.33-4.75-5-12.4-4.52-21.91.53-10.47,4.6-18.37,7.92-23.15l2.12,1.47c-3.13,4.51-6.96,11.96-7.46,21.81-.46,8.96,2.06,16.17,4.26,20.65l-2.31,1.14Z"/>
      <g>
        <path class="cls-4" d="M139.45,26.39c-2.18-10.37-14.07-18.32-24.47-18.92-12.88-.75-24.32,9.71-39.27,23.39-2.68,2.45-4.81,4.58-6.3,6.11-1.37-1.54-3.19-3.51-5.42-5.76C49.73,16.8,38.82,5.79,25.92,5.9,15.5,5.99,3.24,13.34.55,23.59c-3.7,14.1,11.97,28.99,25.39,34.15,5.73,2.2,10.93,2.58,14.35,2.56-9.76,5.78-14.39,13.62-12.49,18.14,2,4.73,10.93,5.25,15.83,4.67,14.53-1.7,23.02-16.41,25.62-21.61,2.65,5.8,10.35,19.88,24.24,22.21,4.86.81,13.81.74,16.04-3.89,2.13-4.42-2.12-12.48-11.58-18.73,3.42.19,8.63.07,14.46-1.85,13.65-4.49,30.04-18.58,27.04-32.85Z"/>
        <g class="cls-3">
          <path class="cls-2" d="M107.75,36.11c-1.18-6.57-7.63-11.61-13.27-11.99-6.98-.48-13.19-.84-21.29,7.83-1.45,1.55-2.61,2.9-3.42,3.87-.74-.97-1.73-2.22-2.94-3.65-7.73-9.13-13.65-9.11-20.64-9.04-5.65.06-12.3,4.72-13.76,11.22-2,8.94,6.49,18.38,13.77,21.64,3.11,1.4,5.93,1.63,7.78,1.62-5.29,3.67-7.81,8.64-6.77,11.5,1.08,3,5.93,3.32,8.58,2.96,7.88-1.08,11.6-6.13,13.01-9.42,1.44,3.68,6.49,8.33,14.02,9.8,2.64.52,7.49.47,8.7-2.46,1.15-2.8-1.15-7.91-6.28-11.87,1.85.12,4.68.04,7.84-1.17,7.4-2.84,16.29-11.78,14.66-20.82Z"/>
        </g>
      </g>
    </g>
  </g>
</svg>