<?xml version="1.0" encoding="UTF-8"?>
<svg id="Layer_2" xmlns="http://www.w3.org/2000/svg" viewBox="0 0 70.2 73.32">
  <defs>
    <style>
      .cls-1 {
        fill: #880906;
      }

      .cls-2 {
        fill: #b80c09;
      }
    </style>
  </defs>
  <g id="Layer_1-2" data-name="Layer_1">
    <g>
      <g>
        <path class="cls-1" d="M30.1,19.32c-1.85,1.88-7.92,7.56-17,8-3.2.16-5.94-.38-8-1C3.88,24.99.7,21.15.1,15.32-.76,7.05,4.24,1.28,5.1.32,7.5-.02,10.58-.18,14.1.32c7.78,1.1,13.27,4.83,16,7v12Z"/>
        <path class="cls-1" d="M40.1,19.32c1.85,1.88,7.92,7.56,17,8,3.2.16,5.94-.38,8-1,1.22-1.33,4.4-5.16,5-11,.85-8.27-4.14-14.04-5-15-2.4-.34-5.49-.5-9,0-7.78,1.1-13.27,4.83-16,7v12Z"/>
      </g>
      <path class="cls-2" d="M41.31,21.17c1.25-.38,2.16-1.52,2.16-2.89v-9.93c0-1.68-1.36-3.04-3.04-3.04h-9.93c-1.68,0-3.04,1.36-3.04,3.04v9.93c0,1.14.63,2.12,1.56,2.64L4.6,64.32l16-13,6,22,8.5-51,8.5,51,6-22,16,13-24.29-43.14Z"/>
    </g>
  </g>
</svg>