<?xml version="1.0" encoding="UTF-8"?>
<svg id="Layer_2" xmlns="http://www.w3.org/2000/svg" xmlns:xlink="http://www.w3.org/1999/xlink" viewBox="0 0 44.32 63.12">
  <defs>
    <style>
      .cls-1 {
        fill: #fff;
      }

      .cls-2 {
        fill: #65524d;
      }

      .cls-3 {
        fill: none;
        stroke: #fff;
        stroke-miterlimit: 10;
        stroke-width: 2px;
      }

      .cls-4 {
        clip-path: url(#clippath);
      }
    </style>
    <clipPath id="clippath">
      <path class="cls-2" d="M35.16,43c-.42-.6-3.33-4.7-2-8,1.57-3.88,7.33-2.47,10-7,1.44-2.45,1.64-6.03,0-8-2-2.39-6.18-1.74-11-1-1.13.17-2.2.39-3.2.63,2.55-2.01,4.2-5.13,4.2-8.63,0-6.08-4.92-11-11-11s-11,4.92-11,11c0,3.51,1.65,6.62,4.2,8.63-1-.24-2.07-.46-3.2-.63-4.82-.74-9-1.39-11,1-1.64,1.97-1.44,5.55,0,8,2.67,4.53,8.43,3.12,10,7,1.33,3.3-1.58,7.4-2,8-2.46,3.48-4.89,2.74-7,6-.2.31-2.97,4.72-1,9,1.73,3.76,6.28,5.63,10,5,4.13-.7,6.34-4.29,8-7,2.31-3.76,2.85-7.42,3-9.44.15,2.02.69,5.68,3,9.44,1.66,2.71,3.87,6.3,8,7,3.72.63,8.27-1.24,10-5,1.97-4.28-.8-8.69-1-9-2.11-3.26-4.54-2.52-7-6Z"/>
    </clipPath>
  </defs>
  <g id="Layer_1-2" data-name="Layer_1">
    <g>
      <g>
        <path class="cls-2" d="M35.16,43c-.42-.6-3.33-4.7-2-8,1.57-3.88,7.33-2.47,10-7,1.44-2.45,1.64-6.03,0-8-2-2.39-6.18-1.74-11-1-1.13.17-2.2.39-3.2.63,2.55-2.01,4.2-5.13,4.2-8.63,0-6.08-4.92-11-11-11s-11,4.92-11,11c0,3.51,1.65,6.62,4.2,8.63-1-.24-2.07-.46-3.2-.63-4.82-.74-9-1.39-11,1-1.64,1.97-1.44,5.55,0,8,2.67,4.53,8.43,3.12,10,7,1.33,3.3-1.58,7.4-2,8-2.46,3.48-4.89,2.74-7,6-.2.31-2.97,4.72-1,9,1.73,3.76,6.28,5.63,10,5,4.13-.7,6.34-4.29,8-7,2.31-3.76,2.85-7.42,3-9.44.15,2.02.69,5.68,3,9.44,1.66,2.71,3.87,6.3,8,7,3.72.63,8.27-1.24,10-5,1.97-4.28-.8-8.69-1-9-2.11-3.26-4.54-2.52-7-6Z"/>
        <g class="cls-4">
          <path class="cls-3" d="M1.6,32c3.39-.65,4.41-1.69,4.67-2.59.52-1.86-2.19-3.32-1.67-5.41.5-2.01,3.35-1.97,4-4,.39-1.2-.1-2.81-2-5"/>
          <path class="cls-3" d="M37.73,16.61c-2.27,2.6-2.43,4.06-2.07,4.92.73,1.79,3.77,1.26,4.65,3.23.85,1.9-1.42,3.62-.68,5.62.44,1.18,1.81,2.16,4.66,2.7"/>
          <path class="cls-3" d="M45.05,56.06c-2.6-2.27-4.06-2.43-4.92-2.07-1.79.73-1.26,3.77-3.23,4.65-1.9.85-3.62-1.42-5.62-.68-1.18.44-2.16,1.81-2.7,4.66"/>
          <path class="cls-3" d="M-1.41,56.06c2.6-2.27,4.06-2.43,4.92-2.07,1.79.73,1.26,3.77,3.23,4.65,1.9.85,3.62-1.42,5.62-.68,1.18.44,2.16,1.81,2.7,4.66"/>
        </g>
      </g>
      <circle class="cls-1" cx="22.16" cy="24.39" r="1.98"/>
      <g>
        <circle class="cls-1" cx="18.57" cy="9.39" r="1.98"/>
        <circle class="cls-1" cx="25.57" cy="9.39" r="1.98"/>
      </g>
      <circle class="cls-1" cx="22.16" cy="31.39" r="1.98"/>
      <circle class="cls-1" cx="22.16" cy="38.39" r="1.98"/>
      <path class="cls-3" d="M18.16,14c.52,1.77,2.15,3,4,3s3.48-1.23,4-3"/>
    </g>
  </g>
</svg>