<?xml version="1.0" encoding="UTF-8"?>
<svg id="Layer_2" xmlns="http://www.w3.org/2000/svg" viewBox="0 0 196.5 29.48">
  <defs>
    <style>
      .cls-1 {
        fill: #fff;
      }

      .cls-2 {
        fill: none;
        stroke: #053225;
        stroke-miterlimit: 10;
        stroke-width: 2px;
      }
    </style>
  </defs>
  <g id="Layer_1-2" data-name="Layer_1">
    <g>
      <path class="cls-2" d="M-.4.92c62.94,27.24,134.35,27.24,197.29,0"/>
      <g>
        <g>
          <path class="cls-2" d="M21.13,9.6c-.83,2.54-1.65,5.07-2.48,7.61"/>
          <path class="cls-1" d="M25.68,22.41c-.57-1.75-1.83-3.1-3.15-4.13-2.16-1.67-4.9-2.57-7.64-2.49-1.68.05-3.5.4-4.99,1.48-3.77,2.7-4.76,9.66-.21,16.83,1.28,2.02,4.05,2.92,6.27,2.04,7.88-3.13,11.16-9.33,9.73-13.73Z"/>
        </g>
        <g>
          <path class="cls-2" d="M59.32,18.78c-.42,2.63-.83,5.27-1.25,7.9"/>
          <path class="cls-1" d="M65.76,30.71c-.83-1.63-2.27-2.78-3.73-3.58-2.38-1.31-5.19-1.76-7.86-1.25-1.63.31-3.36.95-4.66,2.25-3.27,3.27-3.16,10.29,2.39,16.65,1.56,1.79,4.41,2.24,6.45,1.02,7.24-4.34,9.5-10.98,7.41-15.09Z"/>
        </g>
        <g>
          <path class="cls-2" d="M98.25,21.85v8"/>
          <path class="cls-1" d="M106.45,32.62c-1.07-1.48-2.67-2.39-4.23-2.95-2.55-.92-5.39-.92-7.94,0-1.56.57-3.16,1.47-4.23,2.95-2.7,3.74-1.51,10.65,4.94,16.07,1.82,1.52,4.7,1.52,6.51,0,6.46-5.41,7.65-12.32,4.94-16.07Z"/>
        </g>
        <g>
          <path class="cls-2" d="M137.18,18.78c.42,2.63.83,5.27,1.25,7.9"/>
          <path class="cls-1" d="M146.99,28.14c-1.29-1.3-3.03-1.94-4.66-2.25-2.67-.51-5.49-.07-7.86,1.25-1.45.8-2.9,1.94-3.73,3.58-2.09,4.12.17,10.76,7.41,15.09,2.04,1.22,4.89.77,6.45-1.02,5.55-6.36,5.66-13.38,2.39-16.65Z"/>
        </g>
        <g>
          <path class="cls-2" d="M175.37,9.6c.83,2.54,1.65,5.07,2.48,7.61"/>
          <path class="cls-1" d="M186.61,17.26c-1.49-1.08-3.32-1.43-4.99-1.48-2.74-.08-5.48.82-7.64,2.49-1.32,1.03-2.58,2.38-3.15,4.13-1.43,4.4,1.84,10.6,9.73,13.73,2.22.88,4.99-.03,6.27-2.04,4.54-7.18,3.56-14.13-.21-16.83Z"/>
        </g>
      </g>
    </g>
  </g>
</svg>