<?xml version="1.0" encoding="UTF-8"?>
<svg id="Layer_2" xmlns="http://www.w3.org/2000/svg" viewBox="0 0 393.5 29.48">
  <defs>
    <style>
      .cls-1 {
        fill: #fff;
      }

      .cls-2 {
        fill: none;
        stroke: #053225;
        stroke-miterlimit: 10;
        stroke-width: 2px;
      }
    </style>
  </defs>
  <g id="Layer_1-2" data-name="Layer_1">
    <g>
      <path class="cls-2" d="M-.4.92c125.79,54.44,268.5,54.44,394.29,0"/>
      <g>
        <path class="cls-2" d="M19.22,9.45c-.95,2.49-1.91,4.98-2.86,7.47"/>
        <path class="cls-1" d="M22.94,22.48c-.43-1.78-1.59-3.2-2.82-4.3-2.03-1.79-4.69-2.81-7.4-2.83-1.66-.01-3.47.28-4.98,1.31-3.82,2.6-4.98,9.5-1.05,16.74,1.11,2.04,3.68,3.02,5.87,2.24,7.75-2.78,11.48-8.69,10.38-13.17Z"/>
      </g>
      <g>
        <path class="cls-2" d="M56.58,22.07c-.75,2.56-1.5,5.12-2.26,7.68"/>
        <path class="cls-1" d="M61.27,34.75c-.57-1.73-1.82-3.06-3.13-4.05-2.15-1.62-4.87-2.42-7.55-2.22-1.64.12-3.42.56-4.83,1.71-3.58,2.9-4.2,9.87.25,16.76,1.25,1.94,3.88,2.71,5.99,1.76,7.47-3.39,10.71-9.58,9.28-13.96Z"/>
      </g>
      <path class="cls-2" d="M326.48,25.02c.7,2.57,1.39,5.15,2.09,7.72"/>
      <g>
        <path class="cls-2" d="M364.04,13.24c.9,2.51,1.8,5.02,2.69,7.53"/>
        <path class="cls-1" d="M375.34,20.71c-1.49-1.06-3.29-1.4-4.94-1.42-2.7-.04-5.38.92-7.45,2.66-1.26,1.07-2.44,2.47-2.91,4.23-1.19,4.46,2.41,10.45,10.08,13.4,2.16.83,4.75-.1,5.9-2.11,4.08-7.15,3.07-14.07-.69-16.76Z"/>
      </g>
    </g>
  </g>
</svg>