<?xml version="1.0" encoding="UTF-8"?>
<svg id="Layer_2" xmlns="http://www.w3.org/2000/svg" xmlns:xlink="http://www.w3.org/1999/xlink" viewBox="0 0 117.11 82.27">
  <defs>
    <style>
      .cls-1 {
        fill: #f73e3b;
      }

      .cls-2 {
        clip-path: url(#clippath-1);
      }

      .cls-3 {
        fill: #b80c09;
      }

      .cls-4 {
        fill: none;
        stroke: #0d1b2a;
        stroke-miterlimit: 10;
        stroke-width: 2px;
      }
    </style>
    <clipPath id="clippath-1">
      <rect class="cls-1" x="2.75" y="38.27" width="111.61" height="44"/>
    </clipPath>
  </defs>
  <g id="Layer_1-2" data-name="Layer_1">
    <g>
      <path class="cls-4" d="M57.74,23.27c-1.21-2.12-5.87-9.67-14-11-1.68-.27-4.58-.7-7,1-3.56,2.51-4.57,8.59-2,12,1.82,2.41,4.89,2.76,7,3,7.44.84,13.47-3.1,16-5Z"/>
      <path class="cls-4" d="M58.03,22.98c.63-2.36,2.65-11-2.2-17.67-1-1.38-2.76-3.73-5.67-4.22-4.29-.72-9.3,2.88-9.87,7.11-.41,2.99,1.53,5.41,2.86,7.06,4.69,5.84,11.75,7.29,14.88,7.72Z"/>
      <path class="cls-4" d="M58.55,23.27c1.21-2.12,5.87-9.67,14-11,1.68-.27,4.58-.7,7,1,3.56,2.51,4.57,8.59,2,12-1.82,2.41-4.89,2.76-7,3-7.44.84-13.47-3.1-16-5Z"/>
      <path class="cls-4" d="M58.26,22.98c-.63-2.36-2.65-11,2.2-17.67,1-1.38,2.76-3.73,5.67-4.22,4.29-.72,9.3,2.88,9.87,7.11.41,2.99-1.53,5.41-2.86,7.06-4.69,5.84-11.75,7.29-14.88,7.72Z"/>
      <g>
        <rect class="cls-1" y="21.27" width="117.11" height="17"/>
        <g>
          <rect class="cls-1" x="2.75" y="38.27" width="111.61" height="44"/>
          <g class="cls-2">
            <rect class="cls-3" x="1.36" y="36.27" width="115" height="9"/>
          </g>
        </g>
      </g>
      <line class="cls-4" x1="58.74" y1="21.27" x2="58.74" y2="82.27"/>
      <line class="cls-4" x1="114.74" y1="51.77" x2="2.74" y2="51.77"/>
    </g>
  </g>
</svg>