<?xml version="1.0" encoding="UTF-8"?>
<svg id="Layer_2" xmlns="http://www.w3.org/2000/svg" xmlns:xlink="http://www.w3.org/1999/xlink" viewBox="0 0 116.02 60.27">
  <defs>
    <style>
      .cls-1 {
        fill: #0a5c46;
      }

      .cls-2 {
        clip-path: url(#clippath-1);
      }

      .cls-3 {
        fill: none;
        stroke: #c63b2f;
        stroke-miterlimit: 10;
        stroke-width: 2px;
      }

      .cls-4 {
        fill: #053225;
      }
    </style>
    <clipPath id="clippath-1">
      <rect class="cls-1" x="2.72" y="33.58" width="110.57" height="26.69"/>
    </clipPath>
  </defs>
  <g id="Layer_1-2" data-name="Layer_1">
    <g>
      <g>
        <path class="cls-3" d="M57.46,23.27c-1.21-2.12-5.87-9.67-14-11-1.68-.27-4.58-.7-7,1-3.56,2.51-4.57,8.59-2,12,1.82,2.41,4.89,2.76,7,3,7.44.84,13.47-3.1,16-5Z"/>
        <path class="cls-3" d="M57.76,22.98c.63-2.36,2.65-11-2.2-17.67-1-1.38-2.76-3.73-5.67-4.22-4.29-.72-9.3,2.88-9.87,7.11-.41,2.99,1.53,5.41,2.86,7.06,4.69,5.84,11.75,7.29,14.88,7.72Z"/>
        <path class="cls-3" d="M58.28,23.27c1.21-2.12,5.87-9.67,14-11,1.68-.27,4.58-.7,7,1,3.56,2.51,4.57,8.59,2,12-1.82,2.41-4.89,2.76-7,3-7.44.84-13.47-3.1-16-5Z"/>
        <path class="cls-3" d="M57.98,22.98c-.63-2.36-2.65-11,2.2-17.67,1-1.38,2.76-3.73,5.67-4.22,4.29-.72,9.3,2.88,9.87,7.11.41,2.99-1.53,5.41-2.86,7.06-4.69,5.84-11.75,7.29-14.88,7.72Z"/>
      </g>
      <g>
        <rect class="cls-1" y="23.27" width="116.02" height="10.31"/>
        <g>
          <rect class="cls-1" x="2.72" y="33.58" width="110.57" height="26.69"/>
          <g class="cls-2">
            <rect class="cls-4" x="1.35" y="32.37" width="113.93" height="5.46"/>
          </g>
        </g>
      </g>
      <line class="cls-3" x1="58.02" y1="22.27" x2="58.02" y2="60.27"/>
    </g>
  </g>
</svg>