<?xml version="1.0" encoding="UTF-8"?>
<svg id="Layer_2" xmlns="http://www.w3.org/2000/svg" xmlns:xlink="http://www.w3.org/1999/xlink" viewBox="0 0 114.75 100.04">
  <defs>
    <style>
      .cls-1 {
        clip-path: url(#clippath-1);
      }

      .cls-2 {
        fill: #018e42;
      }

      .cls-3 {
        fill: #013d1d;
      }

      .cls-4 {
        fill: #c63b2f;
      }
    </style>
    <clipPath id="clippath-1">
      <rect class="cls-2" x="4.5" y="39.04" width="105.25" height="61"/>
    </clipPath>
  </defs>
  <g id="Layer_1-2" data-name="Layer_1">
    <g>
      <g>
        <rect class="cls-2" y="22.04" width="114.75" height="17"/>
        <g>
          <rect class="cls-2" x="4.5" y="39.04" width="105.25" height="61"/>
          <g class="cls-1">
            <rect class="cls-3" x="-2.25" y="37.04" width="115" height="9"/>
          </g>
        </g>
        <rect class="cls-4" x="51.11" y="22.04" width="14" height="78"/>
      </g>
      <path class="cls-4" d="M78.11,7.04c-.91-.55-1.87,1.04-6,2-2.57.59-3.38.25-5,1-2.06.95-3.29,2.69-4,4,.55-1.42,2.02-5.8,0-10-.52-1.09-1.73-3.61-4-4-.34-.06-.67-.05-1-.01-.33-.04-.66-.05-1,.01-2.27.39-3.48,2.91-4,4-2.02,4.2-.55,8.58,0,10-.71-1.31-1.94-3.05-4-4-1.62-.75-2.43-.41-5-1-4.13-.96-5.09-2.55-6-2-1.82,1.11-1.03,9.36,4,13,1.43,1.04,4.28,1.79,10,2,2.41.09,4.36.17,6,.22,1.64-.05,3.59-.13,6-.22,5.72-.21,8.57-.96,10-2,5.03-3.64,5.82-11.89,4-13Z"/>
    </g>
  </g>
</svg>