<?xml version="1.0" encoding="UTF-8"?>
<svg id="Layer_2" xmlns="http://www.w3.org/2000/svg" xmlns:xlink="http://www.w3.org/1999/xlink" viewBox="0 0 89 98.13">
  <defs>
    <style>
      .cls-1 {
        clip-path: url(#clippath-1);
      }

      .cls-2 {
        fill: #2d3f62;
      }

      .cls-3 {
        fill: #1b263b;
      }

      .cls-4 {
        fill: #c63b2f;
      }
    </style>
    <clipPath id="clippath-1">
      <rect class="cls-2" x="4.5" y="37.13" width="80" height="61"/>
    </clipPath>
  </defs>
  <g id="Layer_1-2" data-name="Layer_1">
    <g>
      <g>
        <rect class="cls-2" y="20.13" width="89" height="17"/>
        <g>
          <rect class="cls-2" x="4.5" y="37.13" width="80" height="61"/>
          <g class="cls-1">
            <rect class="cls-3" x="-2.25" y="35.13" width="93.75" height="9"/>
          </g>
        </g>
        <rect class="cls-4" x="37.75" y="20.13" width="14" height="78"/>
      </g>
      <path class="cls-4" d="M28.75,19.13c-1.39-1.69-2.07-4.42-1-6,1.33-1.97,5.46-2.33,10,0-.76-1.51-1.74-3.92-2-7-.16-1.9-.45-5.31,1-6,1.67-.8,4.71,2.36,6,4,2.03,2.59,2.73,5.32,3,7,.74-1.56,2.21-4.08,5-6,2.06-1.42,5.81-3.2,7-2,.95.95-.03,3.49-1,6-.65,1.69-1.4,3.04-2,4,.72-.1,1.76-.17,3,0,1.41.2,3.79.51,4.25,1.89.55,1.64-1.97,3.87-2.25,4.11-2.94,2.53-6.34,2.14-14,2-12.07-.23-14.93.52-17-2Z"/>
    </g>
  </g>
</svg>