<?xml version="1.0" encoding="UTF-8"?>
<svg id="Layer_2" xmlns="http://www.w3.org/2000/svg" viewBox="0 0 88 56.3">
  <defs>
    <style>
      .cls-1 {
        fill: #fff;
      }

      .cls-2 {
        fill: #b80c09;
      }
    </style>
  </defs>
  <g id="Layer_1-2" data-name="Layer_1">
    <g>
      <circle class="cls-1" cx="79.08" cy="38.42" r="8.92"/>
      <path class="cls-2" d="M7.19,31.5l12.55-16.49c.4-.53,1-.87,1.66-.95l11.5-1.39c.35-.04.68-.16.98-.34C35.31,10.39,43.56-.51,54.42.02c2.09.1,3.72.59,5.25,1.05,1.56.47,13.64,4.28,15.54,13.23.3,1.41.28,2.65.2,3.57-.61,1.2-3.7,7.58-1.05,14.69,1.41,3.8,3.85,6.18,5.25,7.35.03.06.58,1.09,0,2.1-.42.73-1.24,1.14-2.1,1.05-.87.08-3,.16-5.25-1.05-1.66-.89-2.65-2.09-3.15-2.78-.13-.09-.88-.58-1.88-.37-.63.13-1.2.5-1.57,1.09l-3.31,5.21c-6.17.84-15.67,1.38-26.82-1.05-13.29-2.9-22.9-8.71-28.33-12.59Z"/>
      <path class="cls-1" d="M67.97,52.67c-.28,1.42-1.43,2.51-2.86,2.71-7.85,1.08-19.36,1.7-32.81-1-7.33-1.47-18.52-4.59-30.6-11.71-1.26-.74-1.93-2.19-1.64-3.63l1.68-8.38c.46-2.27,2.99-3.44,5.01-2.31,6.79,3.79,16.46,8.14,28.65,10.59,6.94,1.39,17.64,2.76,30.54,1.29,2.29-.26,4.16,1.81,3.71,4.06l-1.68,8.38Z"/>
    </g>
  </g>
</svg>