<?xml version="1.0" encoding="UTF-8"?>
<svg id="Layer_2" xmlns="http://www.w3.org/2000/svg" viewBox="0 0 85 72.69">
  <defs>
    <style>
      .cls-1 {
        fill: #fff;
      }

      .cls-2 {
        fill: #b80c09;
      }
    </style>
  </defs>
  <g id="Layer_1-2" data-name="Layer_1">
    <g>
      <circle class="cls-1" cx="76.08" cy="63.77" r="8.92"/>
      <path class="cls-2" d="M8,48.02c-.3-3.73-.39-9.37,1-16,1.38-6.62,3.48-16.63,12-24C30.36-.07,41.83-.09,45,.02c15.42.56,29.07,11.27,35,25,6.95,16.11,1.01,31.15-1.81,36.8-.63,1.25-2.42,1.41-3.17.23l-.02-.03c-1.87-2.96-.14-5.89,0-10,.25-7.1-4.43-12.37-5-13-2.55-2.8-5.61-4.24-8-5-.44.93-.92,2.3-1,4-.19,4.22,2.3,7.21,3,8-18.67.67-37.33,1.33-56,2Z"/>
      <path class="cls-1" d="M.03,51.31c-.18-1.43.56-2.83,1.85-3.47,7.1-3.52,17.81-7.77,31.42-9.48,7.42-.94,19.02-1.54,32.74,1.37,1.43.3,2.53,1.47,2.71,2.92l1.07,8.48c.29,2.3-1.74,4.21-4.01,3.78-7.64-1.44-18.19-2.49-30.53-.93-7.02.89-17.6,2.99-29.37,8.49-2.09.98-4.52-.39-4.81-2.67L.03,51.31Z"/>
    </g>
  </g>
</svg>