<?xml version="1.0" encoding="UTF-8"?>
<svg id="Layer_2" xmlns="http://www.w3.org/2000/svg" viewBox="0 0 69.64 93.79">
  <defs>
    <style>
      .cls-1 {
        fill: #fff;
      }

      .cls-2 {
        fill: #b80c09;
      }
    </style>
  </defs>
  <g id="Layer_1-2" data-name="Layer_1">
    <g>
      <path class="cls-2" d="M8.37,89.17c1.03-4.92,2.13-12.7,1-22-1.72-14.09-7.04-19.07-7-28,.03-7.03,3.39-17.34,20-30-.5,5.59-.29,13.58,4,21,8.62,14.91,25.63,13.54,34,27,3.39,5.45,6.08,14.49,2,30-5.79-1.97-15.22-4.41-27-4-11.97.41-21.34,3.59-27,6Z"/>
      <circle class="cls-1" cx="22.45" cy="8.92" r="8.92"/>
      <path class="cls-1" d="M69.16,78.19c-.08-1.44-1.06-2.69-2.44-3.09-7.62-2.19-18.92-4.43-32.62-3.67-7.46.41-18.99,1.91-31.96,7.24-1.35.56-2.22,1.9-2.14,3.36l.47,8.53c.13,2.31,2.47,3.83,4.63,2.99,7.26-2.79,17.45-5.72,29.87-6.41,7.06-.39,17.85-.23,30.42,3.07,2.23.58,4.37-1.2,4.25-3.49l-.47-8.53Z"/>
    </g>
  </g>
</svg>