<?xml version="1.0" encoding="UTF-8"?>
<svg id="Layer_2" xmlns="http://www.w3.org/2000/svg" viewBox="0 0 76.53 101.73">
  <defs>
    <style>
      .cls-1 {
        fill: #fff;
      }

      .cls-2 {
        fill: #b80c09;
      }
    </style>
  </defs>
  <g id="Layer_1-2" data-name="Layer_1">
    <g>
      <circle class="cls-1" cx="13.34" cy="92.81" r="8.92"/>
      <path class="cls-2" d="M73.26,32.06c-2.4-6.61-7.71-18.01-19-26C50.41,3.33,45.33-.52,39.26.06c-.92.09-3.28.73-8,2-2.63.71-4.78,1.34-7,3-.88.66-1.57,1.31-1.93,1.68-2.16,2.21-2.77,4.29-8.07,9.32-4.47,4.24-6.25,4.86-8,8-2.2,3.94-2.28,8.12-2,11l69-3Z"/>
      <path class="cls-1" d="M76.05,34.08c-.08-1.44-1.06-2.69-2.44-3.09-7.62-2.19-18.92-4.43-32.62-3.67-7.46.41-18.99,1.91-31.96,7.24-1.35.56-2.22,1.9-2.14,3.36l.47,8.53c.13,2.31,2.47,3.83,4.63,2.99,7.26-2.79,17.45-5.72,29.87-6.41,7.06-.39,17.85-.23,30.42,3.07,2.23.58,4.37-1.2,4.25-3.49l-.47-8.53Z"/>
      <path class="cls-2" d="M15.26,89.06c6.74-6.03,2.99-21.48,2-27-2.14-11.89-.96-30.11,15-57-2.22,1.28-5.64,3.14-10,5-5.63,2.41-6.91,2.3-10,4-1.09.6-7.92,4.45-11,11-1.44,3.06-1.9,6.36,0,18,4.14,25.39,9.19,27.27,8,39-.27,2.68-1.08,7.96,1,9,1.77.89,4.72-1.75,5-2Z"/>
    </g>
  </g>
</svg>