<?xml version="1.0" encoding="UTF-8"?>
<svg id="Layer_2" xmlns="http://www.w3.org/2000/svg" viewBox="0 0 117.49 57.99">
  <defs>
    <style>
      .cls-1 {
        fill: #fff;
      }

      .cls-2 {
        fill: #b80c09;
      }
    </style>
  </defs>
  <g id="Layer_1-2" data-name="Layer_1">
    <g>
      <circle class="cls-1" cx="8.92" cy="39.77" r="8.92"/>
      <path class="cls-2" d="M109.84,35.02c-2-7.67-4-15.33-6-23C100.79,8.88,91.81.5,78.84.02c-16.48-.61-27.62,11.94-33,18-9.2,10.36-12.61,21.58-14,28-1.61-.41-4.06-1.06-7-2-8.79-2.81-13.7-5.55-15-4-.65.78-.19,2.38,0,3,.49,1.58,1.49,2.56,2,3,8.6,6.93,16.6,9.16,21,10,4,.77,7.72,1.42,12,0,8.7-2.9,12.25-11.95,13-14,17.33-2.33,34.67-4.67,52-7Z"/>
      <path class="cls-1" d="M116.03,35.26c-.24-1.43-1.35-2.55-2.77-2.8-7.81-1.33-19.29-2.32-32.82-.05-7.37,1.24-18.66,3.99-30.96,10.72-1.28.7-2,2.13-1.76,3.57l1.41,8.43c.38,2.28,2.87,3.53,4.93,2.47,6.9-3.57,16.71-7.61,28.98-9.66,6.98-1.17,17.72-2.19,30.57-.31,2.28.33,4.21-1.67,3.83-3.94l-1.41-8.43Z"/>
    </g>
  </g>
</svg>