<?xml version="1.0" encoding="UTF-8"?>
<svg id="Layer_2" xmlns="http://www.w3.org/2000/svg" viewBox="0 0 78.11 74.92">
  <defs>
    <style>
      .cls-1 {
        fill: #fff;
      }

      .cls-2 {
        fill: #b80c09;
      }
    </style>
  </defs>
  <g id="Layer_1-2" data-name="Layer_1">
    <g>
      <circle class="cls-1" cx="8.92" cy="66" r="8.92"/>
      <path class="cls-2" d="M71.84,24.25c.15-2.2.76-13.71-7-20-3.89-3.15-8.03-3.68-15-4-10.61-.49-21.31-.98-32,6-2.56,1.67-9.8,6.54-14,16-1,2.24-3.19,7.35-3,14,.18,6.25,2.27,6.57,4,16,1.5,8.15.98,13.54,3,14,1.3.29,2.74-1.65,3-2,2.07-2.79,1.2-6,1-10-.16-3.2.56-6.8,2-14,.62-3.12,1.64-7.47,3.33-12.63,18.22-1.12,36.44-2.25,54.67-3.37Z"/>
      <path class="cls-1" d="M77.63,26.28c-.08-1.44-1.06-2.69-2.44-3.09-7.62-2.19-18.92-4.43-32.62-3.67-7.46.41-18.99,1.91-31.96,7.24-1.35.56-2.22,1.9-2.14,3.36l.47,8.53c.13,2.31,2.47,3.83,4.63,2.99,7.26-2.79,17.45-5.72,29.87-6.41,7.06-.39,17.85-.23,30.42,3.07,2.23.58,4.37-1.2,4.25-3.49l-.47-8.53Z"/>
    </g>
  </g>
</svg>