<?xml version="1.0" encoding="UTF-8"?>
<svg id="Layer_2" xmlns="http://www.w3.org/2000/svg" viewBox="0 0 82.48 86.2">
  <defs>
    <style>
      .cls-1 {
        fill: #fff;
      }

      .cls-2 {
        fill: #b80c09;
      }
    </style>
  </defs>
  <g id="Layer_1-2" data-name="Layer_1">
    <g>
      <circle class="cls-1" cx="8.92" cy="77.28" r="8.92"/>
      <path class="cls-2" d="M78.84,26.53c-1.3-2.48-3.27-6-6-10-5.54-8.12-8.58-12.56-14-15-4.52-2.03-8.49-1.67-16-1-7.68.68-13.86,2.5-18,4-1.44,4.15-2.94,9.75-3.5,16.5-.51,6.12-.11,11.41.5,15.5l57-10Z"/>
      <path class="cls-1" d="M81.05,25.86c-.23-1.43-1.34-2.56-2.76-2.8-7.81-1.35-19.29-2.37-32.82-.14-7.38,1.22-18.67,3.94-30.99,10.64-1.29.7-2,2.13-1.77,3.57l1.39,8.43c.38,2.29,2.86,3.54,4.92,2.48,6.91-3.56,16.73-7.56,29-9.59,6.98-1.15,17.72-2.15,30.57-.22,2.28.34,4.22-1.66,3.84-3.93l-1.39-8.43Z"/>
      <path class="cls-2" d="M7.84,74.53c-1.09-15.91-1.21-29.44-1-40,.19-9.63.65-17.05,6-23,3.8-4.23,8.62-6.1,12-7,.91,5.72,1.67,13.63,1,23-.09,1.24-.48,6.42-2,14-2.9,14.5-9.48,35.56-14,35-.54-.07-1.26-.47-2-2Z"/>
    </g>
  </g>
</svg>