<?xml version="1.0" encoding="UTF-8"?>
<svg id="Layer_2" xmlns="http://www.w3.org/2000/svg" viewBox="0 0 92.11 57.78">
  <defs>
    <style>
      .cls-1 {
        fill: #fff;
      }

      .cls-2 {
        fill: #b80c09;
      }
    </style>
  </defs>
  <g id="Layer_1-2" data-name="Layer_1">
    <g>
      <path class="cls-2" d="M28.84,44.11c.81-1.36,4.23-7.41,2-14-.98-2.91-3.52-7.25-6-7-2.41.24-2.91,4.63-7,12-2.1,3.78-4.19,6.63-5.56,8.37h-5.56c2.75-4.73,4.25-8.99,5.11-12.37,1.62-6.35.92-9.22,3-14,2.32-5.34,6.12-8.46,8-10C32.18-.56,46.78-1.68,57.84,2.11c14.96,5.14,25.68,20.05,27.33,37.83-18.78,1.39-37.56,2.78-56.33,4.17Z"/>
      <circle class="cls-1" cx="8.92" cy="48.86" r="8.92"/>
      <path class="cls-1" d="M91.63,39.13c-.08-1.44-1.06-2.69-2.44-3.09-7.62-2.19-18.92-4.43-32.62-3.67-7.46.41-18.99,1.91-31.96,7.24-1.35.56-2.22,1.9-2.14,3.36l.47,8.53c.13,2.31,2.47,3.83,4.63,2.99,7.26-2.79,17.45-5.72,29.87-6.41,7.06-.39,17.85-.23,30.42,3.07,2.23.58,4.37-1.2,4.25-3.49l-.47-8.53Z"/>
    </g>
  </g>
</svg>