<?xml version="1.0" encoding="UTF-8"?>
<svg id="Layer_2" xmlns="http://www.w3.org/2000/svg" viewBox="0 0 76.11 96.89">
  <defs>
    <style>
      .cls-1 {
        fill: #fff;
      }

      .cls-2 {
        fill: #b80c09;
      }
    </style>
  </defs>
  <g id="Layer_1-2" data-name="Layer_1">
    <g>
      <circle class="cls-1" cx="67.19" cy="87.97" r="8.92"/>
      <g>
        <path class="cls-2" d="M6.27,27.22c.33-2.7,1.74-11.36,9.07-18.5.65-.63,10.87-10.28,24.5-8.5,4.88.64,10.09,4.26,20.5,11.5,11.21,7.8,13.04,11.13,13.93,13.5.76,2.04,1.23,4.43.07,14.5-1.44,12.52-2.82,14.58-4,24-1.68,13.34-.62,22.86-2,23-.22.02-.77-.17-2-4-2.63-8.23-2.66-15.42-2.5-21.5.31-11.8,1.12-12.59.43-18-.7-5.44-2.18-9.79-3.33-12.63-18.22-1.12-36.44-2.25-54.67-3.37Z"/>
        <path class="cls-1" d="M.48,29.24c.08-1.44,1.06-2.69,2.44-3.09,7.62-2.19,18.92-4.43,32.62-3.67,7.46.41,18.99,1.91,31.96,7.24,1.35.56,2.22,1.9,2.14,3.36l-.47,8.53c-.13,2.31-2.47,3.83-4.63,2.99-7.26-2.79-17.45-5.72-29.87-6.41-7.06-.39-17.85-.23-30.42,3.07C2.02,41.85-.12,40.07,0,37.78l.47-8.53Z"/>
      </g>
    </g>
  </g>
</svg>