<?xml version="1.0" encoding="UTF-8"?>
<svg id="Layer_2" xmlns="http://www.w3.org/2000/svg" xmlns:xlink="http://www.w3.org/1999/xlink" viewBox="0 0 74 106.12">
  <defs>
    <style>
      .cls-1 {
        fill: #016530;
      }

      .cls-2 {
        fill: #ab3428;
      }

      .cls-3 {
        fill: #fff;
      }

      .cls-4 {
        clip-path: url(#clippath-1);
      }

      .cls-5 {
        fill: #0d1b2a;
      }

      .cls-6 {
        clip-path: url(#clippath-3);
      }

      .cls-7 {
        fill: #f5853f;
      }

      .cls-8 {
        fill: #018e42;
      }

      .cls-9 {
        clip-path: url(#clippath-2);
      }

      .cls-10 {
        clip-path: url(#clippath);
      }

      .cls-11 {
        fill: #74231b;
      }
    </style>
    <clipPath id="clippath">
      <circle class="cls-3" cx="37.2" cy="80.62" r="25.5"/>
    </clipPath>
    <clipPath id="clippath-1">
      <path class="cls-11" d="M61,64.12c-4.58,2.04-13.04,5.09-24,5-10.42-.09-18.48-2.99-23-5v-10c9.71,5.44,18.8,6,23,6s13.29-.56,23-6c.33,3.33.67,6.67,1,10Z"/>
    </clipPath>
    <clipPath id="clippath-2">
      <path class="cls-2" d="M49,98.12c-.29-6.05-1.25-14.03-4-23-2.86-9.34-6.72-16.73-10-22,3.33-1,6.67-2,10-3,3.22,4.93,7.27,12.33,10,22,2.6,9.21,3.09,17.26,3,23l-9,3Z"/>
    </clipPath>
    <clipPath id="clippath-3">
      <path d="M65.93,30.07c-1.65-1.58-15.43-7.37-16.74-7.91L55.52,0H19.44l6.32,22.16c-1.21.51-15.17,6.4-16.74,7.91-.02.02-.07.06-.07.12-.03,1.08,14.05,2.92,26.97,3.04,14.69.14,30.1-1.91,30.07-3.04,0-.06-.05-.1-.07-.12Z"/>
    </clipPath>
  </defs>
  <g id="Layer_1-2" data-name="Layer_1">
    <g>
      <polygon points="15.68 69.39 9.24 63.41 10.96 57.39 9.04 56.85 7.62 61.83 5.71 54.19 3.77 54.68 4.95 59.43 1.68 56.39 .32 57.85 4.92 62.12 0 62.12 0 64.12 7.07 64.12 14.32 70.85 15.68 69.39"/>
      <polygon points="58.32 69.39 64.76 63.41 63.04 57.39 64.96 56.85 66.38 61.83 68.29 54.19 70.23 54.68 69.05 59.43 72.32 56.39 73.68 57.85 69.08 62.12 74 62.12 74 64.12 66.93 64.12 59.68 70.85 58.32 69.39"/>
      <g>
        <circle class="cls-3" cx="37.2" cy="80.62" r="25.5"/>
        <g class="cls-10">
          <g>
            <path class="cls-11" d="M61,64.12c-4.58,2.04-13.04,5.09-24,5-10.42-.09-18.48-2.99-23-5v-10c9.71,5.44,18.8,6,23,6s13.29-.56,23-6c.33,3.33.67,6.67,1,10Z"/>
            <g class="cls-4">
              <polygon class="cls-1" points="17.33 57.84 30.2 69.12 24.37 60.38 26.24 59.59 24.58 57.13 30.93 57.13 30.93 56.12 17 56.12 17 57.13 19.07 57.13 17.33 57.84"/>
              <polygon class="cls-1" points="32.33 57.84 45.2 69.12 39.37 60.38 41.24 59.59 39.58 57.13 45.93 57.13 45.93 56.12 32 56.12 32 57.13 34.07 57.13 32.33 57.84"/>
              <polygon class="cls-1" points="47.33 57.84 60.2 69.12 54.37 60.38 56.24 59.59 54.58 57.13 60.93 57.13 60.93 56.12 47 56.12 47 57.13 49.07 57.13 47.33 57.84"/>
            </g>
          </g>
        </g>
      </g>
      <circle class="cls-5" cx="37.5" cy="77.62" r="3.5"/>
      <circle class="cls-5" cx="37.5" cy="89.62" r="3.5"/>
      <g>
        <path class="cls-2" d="M49,98.12c-.29-6.05-1.25-14.03-4-23-2.86-9.34-6.72-16.73-10-22,3.33-1,6.67-2,10-3,3.22,4.93,7.27,12.33,10,22,2.6,9.21,3.09,17.26,3,23l-9,3Z"/>
        <g class="cls-9">
          <polygon class="cls-8" points="48.84 53.61 42 69.31 48.56 61.09 49.87 62.64 51.72 60.31 53.65 66.36 54.61 66.06 50.38 52.77 49.42 53.08 50.05 55.05 48.84 53.61"/>
          <polygon class="cls-8" points="53.39 67.91 46.55 83.6 53.11 75.39 54.43 76.93 56.27 74.6 58.2 80.66 59.16 80.35 54.93 67.07 53.97 67.37 54.6 69.35 53.39 67.91"/>
          <polygon class="cls-8" points="57.94 82.2 51.1 97.89 57.66 89.68 58.98 91.22 60.82 88.89 62.75 94.95 63.72 94.64 59.49 81.36 58.52 81.67 59.15 83.64 57.94 82.2"/>
        </g>
      </g>
      <g>
        <circle class="cls-3" cx="37" cy="44.12" r="19"/>
        <g>
          <circle class="cls-5" cx="27.68" cy="49.34" r="1.98"/>
          <circle class="cls-5" cx="31.65" cy="53.31" r="1.98"/>
          <circle class="cls-5" cx="46.72" cy="49.34" r="1.98"/>
          <circle class="cls-5" cx="42.75" cy="53.31" r="1.98"/>
          <circle class="cls-5" cx="37.2" cy="54.9" r="1.98"/>
        </g>
        <circle class="cls-5" cx="30.5" cy="40.62" r="3.5"/>
        <circle class="cls-5" cx="44.5" cy="40.62" r="3.5"/>
        <path class="cls-7" d="M51,47.12s-12.25-2-12.5-2c-1.38,0-2.5,1.12-2.5,2.5s1.12,2.5,2.5,2.5c.4,0,12.5-3,12.5-3Z"/>
      </g>
      <g>
        <path d="M65.93,30.07c-1.65-1.58-15.43-7.37-16.74-7.91L55.52,0H19.44l6.32,22.16c-1.21.51-15.17,6.4-16.74,7.91-.02.02-.07.06-.07.12-.03,1.08,14.05,2.92,26.97,3.04,14.69.14,30.1-1.91,30.07-3.04,0-.06-.05-.1-.07-.12Z"/>
        <g class="cls-6">
          <path class="cls-3" d="M53.34,20.57c-3.18,1.33-8.72,3.17-15.83,3.17-3.45,0-9.27-.43-15.83-3.17v-3.17c4.28.86,9.64,1.58,15.83,1.58,4.36,0,9.76-.36,15.83-1.58v3.17Z"/>
        </g>
      </g>
    </g>
  </g>
</svg>