<?xml version="1.0" encoding="UTF-8"?>
<svg id="Layer_2" xmlns="http://www.w3.org/2000/svg" viewBox="0 0 71.34 78">
  <defs>
    <style>
      .cls-1 {
        fill: #3bf;
      }
    </style>
  </defs>
  <g id="Layer_1-2" data-name="Layer_1">
    <polygon class="cls-1" points="71.34 49.59 69.31 46.14 62.13 50.36 56.59 47.47 64.73 42.77 62.73 39.31 52.39 45.28 39.99 38.81 54.32 31.34 64.66 37.3 66.66 33.84 58.52 29.14 61.4 27.64 68.58 31.86 70.6 28.41 65.58 25.46 71.25 22.5 69.4 18.96 63.73 21.91 64.18 16.11 60.2 15.8 59.55 24.1 56.67 25.6 57.48 16.24 53.49 15.89 52.47 27.79 37.67 35.51 37.67 19.1 47.74 12.69 45.59 9.31 37.67 14.36 37.67 11.11 44.73 6.7 42.61 3.3 37.67 6.39 37.67 0 33.67 0 33.67 6.39 28.73 3.3 26.61 6.7 33.67 11.11 33.67 14.36 25.74 9.31 23.59 12.69 33.67 19.1 33.67 35.51 18.87 27.79 17.85 15.89 13.86 16.24 14.67 25.6 11.79 24.1 11.14 15.8 7.15 16.11 7.61 21.91 1.94 18.96 .09 22.5 5.76 25.46 .73 28.41 2.76 31.86 9.94 27.64 12.82 29.14 4.68 33.84 6.68 37.3 17.02 31.34 31.34 38.81 18.95 45.28 8.6 39.31 6.61 42.77 14.74 47.47 9.2 50.36 2.03 46.14 0 49.59 5.02 52.54 .24 55.03 2.09 58.58 6.87 56.09 6.42 61.89 10.41 62.2 11.05 53.9 16.59 51.01 15.79 60.37 19.77 60.72 20.8 48.82 33.67 42.11 33.67 56.9 23.59 63.31 25.74 66.69 33.67 61.64 33.67 67.89 26.61 72.3 28.73 75.7 33.67 72.61 33.67 78 37.67 78 37.67 72.61 42.61 75.7 44.73 72.3 37.67 67.89 37.67 61.64 45.59 66.69 47.74 63.31 37.67 56.9 37.67 42.11 50.54 48.82 51.56 60.72 55.55 60.37 54.74 51.01 60.28 53.9 60.93 62.2 64.92 61.89 64.46 56.09 69.25 58.58 71.09 55.03 66.31 52.54 71.34 49.59"/>
  </g>
</svg>