<?xml version="1.0" encoding="UTF-8"?>
<svg id="Layer_2" xmlns="http://www.w3.org/2000/svg" viewBox="0 0 71.12 78">
  <defs>
    <style>
      .cls-1 {
        fill: #3bf;
      }
    </style>
  </defs>
  <g id="Layer_1-2" data-name="Layer_1">
    <polygon class="cls-1" points="69.81 30.88 70.83 29.16 65.28 25.88 71.12 22.86 69.28 19.3 63.44 22.32 63.96 15.89 61.97 15.73 61.35 23.41 54.75 26.82 55.59 17.46 51.6 17.1 50.54 29 37.56 35.71 37.56 19.1 47.63 12.69 45.48 9.31 37.56 14.36 37.56 9.93 44.09 5.85 43.03 4.15 37.56 7.57 37.56 0 33.56 0 33.56 7.57 28.09 4.15 27.03 5.85 33.56 9.93 33.56 14.36 25.63 9.31 23.48 12.69 33.56 19.1 33.56 36.53 19.34 28.28 18.85 16.35 14.85 16.52 15.24 25.9 11.41 23.68 11.15 15.99 9.15 16.05 9.37 22.5 2.82 18.7 .81 22.16 7.36 25.96 1.66 28.97 2.59 30.74 9.4 27.14 13.23 29.36 4.89 33.69 6.73 37.24 17.33 31.74 30.48 39.37 16.96 46.37 6.64 40.37 4.63 43.83 12.75 48.55 8.82 50.58 2.19 46.66 1.17 48.38 6.72 51.67 0 55.14 1.84 58.7 8.56 55.22 8.04 61.65 10.03 61.81 10.66 54.13 14.59 52.1 13.75 61.46 17.74 61.81 18.8 49.92 33.56 42.29 33.56 56.9 23.48 63.31 25.63 66.69 33.56 61.64 33.56 69.07 27.03 73.15 28.09 74.85 33.56 71.43 33.56 78 37.56 78 37.56 71.43 43.03 74.85 44.09 73.15 37.56 69.07 37.56 61.64 45.48 66.69 47.63 63.31 37.56 56.9 37.56 43.48 50.03 50.71 50.52 62.64 54.52 62.48 54.13 53.09 60.56 56.82 60.81 64.52 62.81 64.45 62.59 58 68.28 61.3 70.29 57.84 64.6 54.54 70.3 51.53 69.37 49.76 62.56 53.36 56.14 49.63 64.48 45.31 62.64 41.76 52.04 47.25 38.8 39.57 52.38 32.55 62.7 38.55 64.71 35.09 56.59 30.37 63.19 26.96 69.81 30.88"/>
  </g>
</svg>