<?xml version="1.0" encoding="UTF-8"?>
<svg id="Layer_2" xmlns="http://www.w3.org/2000/svg" viewBox="0 0 70.14 78">
  <defs>
    <style>
      .cls-1 {
        fill: #0083e0;
      }
    </style>
  </defs>
  <g id="Layer_1-2" data-name="Layer_1">
    <polygon class="cls-1" points="69.14 47.17 61.46 51.63 53.83 47.6 63.58 42.05 62.59 40.31 51.74 46.5 37.21 38.83 53.74 30.1 64.59 36.29 65.58 34.55 55.84 28.99 60.81 26.37 68.49 30.83 69.49 29.1 62.9 25.27 70.14 21.44 69.21 19.67 61.96 23.5 62.52 15.89 60.52 15.74 59.88 24.6 54.9 27.23 55.81 16.05 53.82 15.88 52.81 28.33 36.07 37.17 36.07 18.55 46.61 11.84 45.53 10.16 36.07 16.18 36.07 10.55 43.6 5.85 42.54 4.15 36.07 8.2 36.07 0 34.07 0 34.07 8.2 27.6 4.15 26.54 5.85 34.07 10.55 34.07 16.18 24.61 10.16 23.53 11.84 34.07 18.55 34.07 37.17 17.34 28.33 16.33 15.88 14.33 16.05 15.24 27.23 10.27 24.6 9.62 15.74 7.63 15.89 8.18 23.5 .93 19.67 0 21.44 7.25 25.27 .65 29.1 1.66 30.83 9.33 26.37 14.31 28.99 4.56 34.55 5.55 36.29 16.4 30.1 32.93 38.83 18.41 46.5 7.56 40.31 6.57 42.05 16.31 47.6 8.68 51.63 1.01 47.17 0 48.9 6.6 52.73 .23 56.09 1.17 57.86 7.53 54.5 6.98 62.11 8.97 62.26 9.62 53.4 17.24 49.37 16.34 60.55 18.33 60.71 19.34 48.27 34.07 40.49 34.07 57.45 23.53 64.16 24.61 65.84 34.07 59.82 34.07 68.45 26.54 73.15 27.6 74.85 34.07 70.8 34.07 78 36.07 78 36.07 70.8 42.54 74.85 43.6 73.15 36.07 68.45 36.07 59.82 45.53 65.84 46.61 64.16 36.07 57.45 36.07 40.49 50.8 48.27 51.81 60.71 53.81 60.55 52.9 49.37 60.53 53.4 61.17 62.26 63.17 62.11 62.61 54.5 68.98 57.86 69.91 56.09 63.55 52.73 70.14 48.9 69.14 47.17"/>
  </g>
</svg>