<?xml version="1.0" encoding="UTF-8"?>
<svg id="Layer_2" xmlns="http://www.w3.org/2000/svg" xmlns:xlink="http://www.w3.org/1999/xlink" viewBox="0 0 85 173.27">
  <defs>
    <style>
      .cls-1 {
        clip-path: url(#clippath-4);
      }

      .cls-2 {
        fill: #016530;
      }

      .cls-3 {
        fill: #ab3428;
      }

      .cls-4 {
        fill: #fff;
      }

      .cls-5 {
        clip-path: url(#clippath-1);
      }

      .cls-6 {
        fill: #0d1b2a;
      }

      .cls-7 {
        clip-path: url(#clippath-3);
      }

      .cls-8 {
        fill: #f5853f;
      }

      .cls-9 {
        fill: #018e42;
      }

      .cls-10 {
        clip-path: url(#clippath-2);
      }

      .cls-11 {
        fill: #74231b;
      }
    </style>
    <clipPath id="clippath-1">
      <circle class="cls-4" cx="42.2" cy="80.62" r="25.5"/>
    </clipPath>
    <clipPath id="clippath-2">
      <path class="cls-11" d="M66,64.12c-4.58,2.04-13.04,5.09-24,5-10.42-.09-18.48-2.99-23-5v-10c9.71,5.44,18.8,6,23,6s13.29-.56,23-6c.33,3.33.67,6.67,1,10Z"/>
    </clipPath>
    <clipPath id="clippath-3">
      <path class="cls-3" d="M55,105.12c-.29-6.05-1.25-14.03-4-23-2.86-9.34-6.72-16.73-10-22,3.33-1,6.67-2,10-3,3.22,4.93,7.27,12.33,10,22,2.6,9.21,3.09,17.26,3,23l-9,3Z"/>
    </clipPath>
    <clipPath id="clippath-4">
      <path d="M70.93,30.07c-1.65-1.58-15.43-7.37-16.74-7.91L60.52,0H24.44l6.32,22.16c-1.21.51-15.17,6.4-16.74,7.91-.02.02-.07.06-.07.12-.03,1.08,14.05,2.92,26.97,3.04,14.69.14,30.1-1.91,30.07-3.04,0-.06-.05-.1-.07-.12Z"/>
    </clipPath>
  </defs>
  <g id="Layer_1-2" data-name="Layer_1">
    <g>
      <circle class="cls-4" cx="42.35" cy="134.62" r="38.65"/>
      <polygon points="64 69.12 75.76 58.41 74.04 52.39 75.96 51.85 77.38 56.83 79.29 49.19 81.23 49.68 80.05 54.43 83.32 51.39 84.68 52.85 80.08 57.12 85 57.12 85 59.12 77.93 59.12 65 71.12 64 69.12"/>
      <polygon points="21 69.12 9.24 58.41 10.96 52.39 9.04 51.85 7.62 56.83 5.71 49.19 3.77 49.68 4.95 54.43 1.68 51.39 .32 52.85 4.92 57.12 0 57.12 0 59.12 7.07 59.12 20 71.12 21 69.12"/>
      <g>
        <circle class="cls-4" cx="42.2" cy="80.62" r="25.5"/>
        <g class="cls-5">
          <g>
            <path class="cls-11" d="M66,64.12c-4.58,2.04-13.04,5.09-24,5-10.42-.09-18.48-2.99-23-5v-10c9.71,5.44,18.8,6,23,6s13.29-.56,23-6c.33,3.33.67,6.67,1,10Z"/>
            <g class="cls-10">
              <polygon class="cls-2" points="22.33 57.84 35.2 69.12 29.37 60.38 31.24 59.59 29.58 57.13 35.93 57.13 35.93 56.12 22 56.12 22 57.13 24.07 57.13 22.33 57.84"/>
              <polygon class="cls-2" points="37.33 57.84 50.2 69.12 44.37 60.38 46.24 59.59 44.58 57.13 50.93 57.13 50.93 56.12 37 56.12 37 57.13 39.07 57.13 37.33 57.84"/>
              <polygon class="cls-2" points="52.33 57.84 65.2 69.12 59.37 60.38 61.24 59.59 59.58 57.13 65.93 57.13 65.93 56.12 52 56.12 52 57.13 54.07 57.13 52.33 57.84"/>
            </g>
          </g>
        </g>
      </g>
      <circle class="cls-6" cx="43" cy="75.12" r="2"/>
      <circle class="cls-6" cx="43" cy="82.62" r="2"/>
      <circle class="cls-6" cx="43" cy="90.12" r="2"/>
      <g>
        <path class="cls-3" d="M55,105.12c-.29-6.05-1.25-14.03-4-23-2.86-9.34-6.72-16.73-10-22,3.33-1,6.67-2,10-3,3.22,4.93,7.27,12.33,10,22,2.6,9.21,3.09,17.26,3,23l-9,3Z"/>
        <g class="cls-7">
          <polygon class="cls-9" points="54.84 60.61 48 76.31 54.56 68.09 55.87 69.64 57.72 67.31 59.65 73.36 60.61 73.06 56.38 59.77 55.42 60.08 56.05 62.05 54.84 60.61"/>
          <polygon class="cls-9" points="59.39 74.91 52.55 90.6 59.11 82.39 60.43 83.93 62.27 81.6 64.2 87.66 65.16 87.35 60.93 74.07 59.97 74.37 60.6 76.35 59.39 74.91"/>
          <polygon class="cls-9" points="63.94 89.2 57.1 104.89 63.66 96.68 64.98 98.22 66.82 95.89 68.75 101.95 69.72 101.64 65.49 88.36 64.52 88.67 65.15 90.64 63.94 89.2"/>
        </g>
      </g>
      <g>
        <circle class="cls-4" cx="42" cy="44.12" r="19"/>
        <g>
          <circle class="cls-6" cx="32.68" cy="49.34" r="1.98"/>
          <circle class="cls-6" cx="36.65" cy="53.31" r="1.98"/>
          <circle class="cls-6" cx="51.72" cy="49.34" r="1.98"/>
          <circle class="cls-6" cx="47.75" cy="53.31" r="1.98"/>
          <circle class="cls-6" cx="42.2" cy="54.9" r="1.98"/>
        </g>
        <circle class="cls-6" cx="35.5" cy="39.62" r="3.5"/>
        <circle class="cls-6" cx="49.5" cy="39.62" r="3.5"/>
        <path class="cls-8" d="M64,45.95s-20.42-3.33-20.83-3.33c-2.3,0-4.17,1.87-4.17,4.17s1.87,4.17,4.17,4.17c.66,0,20.83-5,20.83-5Z"/>
      </g>
      <g>
        <path d="M70.93,30.07c-1.65-1.58-15.43-7.37-16.74-7.91L60.52,0H24.44l6.32,22.16c-1.21.51-15.17,6.4-16.74,7.91-.02.02-.07.06-.07.12-.03,1.08,14.05,2.92,26.97,3.04,14.69.14,30.1-1.91,30.07-3.04,0-.06-.05-.1-.07-.12Z"/>
        <g class="cls-1">
          <path class="cls-4" d="M58.34,20.57c-3.18,1.33-8.72,3.17-15.83,3.17-3.45,0-9.27-.43-15.83-3.17v-3.17c4.28.86,9.64,1.58,15.83,1.58,4.36,0,9.76-.36,15.83-1.58v3.17Z"/>
        </g>
      </g>
    </g>
  </g>
</svg>