<?xml version="1.0" encoding="UTF-8"?>
<svg id="Layer_2" xmlns="http://www.w3.org/2000/svg" xmlns:xlink="http://www.w3.org/1999/xlink" viewBox="0 0 57.04 33.24">
  <defs>
    <style>
      .cls-1 {
        fill: #fff;
      }

      .cls-2 {
        clip-path: url(#clippath);
      }
    </style>
    <clipPath id="clippath">
      <path d="M56.97,30.07c-1.65-1.58-15.43-7.37-16.74-7.91L46.56,0H10.48l6.32,22.16c-1.21.51-15.17,6.4-16.74,7.91-.02.02-.07.06-.07.12-.03,1.08,14.05,2.92,26.97,3.04,14.69.14,30.1-1.91,30.07-3.04,0-.06-.05-.1-.07-.12Z"/>
    </clipPath>
  </defs>
  <g id="Layer_1-2" data-name="Layer_1">
    <g>
      <path d="M56.97,30.07c-1.65-1.58-15.43-7.37-16.74-7.91L46.56,0H10.48l6.32,22.16c-1.21.51-15.17,6.4-16.74,7.91-.02.02-.07.06-.07.12-.03,1.08,14.05,2.92,26.97,3.04,14.69.14,30.1-1.91,30.07-3.04,0-.06-.05-.1-.07-.12Z"/>
      <g class="cls-2">
        <path class="cls-1" d="M44.38,20.57c-3.18,1.33-8.72,3.17-15.83,3.17-3.45,0-9.27-.43-15.83-3.17v-3.17c4.28.86,9.64,1.58,15.83,1.58,4.36,0,9.76-.36,15.83-1.58v3.17Z"/>
      </g>
    </g>
  </g>
</svg>