<?xml version="1.0" encoding="UTF-8"?>
<svg id="Layer_2" xmlns="http://www.w3.org/2000/svg" viewBox="0 0 57.91 54.27">
  <defs>
    <style>
      .cls-1 {
        fill: #f45d01;
      }
    </style>
  </defs>
  <g id="Layer_1-2" data-name="Layer_1">
    <path class="cls-1" d="M48.54.92c-8.67-2-16.13-.21-19.34.5-.34.08-.61.15-.86.22-5.48,1.49-12.34,5.32-16.59,12.26-.62,1.01-8.27,13.96-1.44,25.24.29.48,1.29,2.08,3.02,3.84-.84,1.26-1.9,2.54-3.25,3.74-3.77,3.34-7.93,4.38-10.08,4.7l.43,2.85c3.01-.45,7.45-1.76,11.56-5.4,1.43-1.27,2.59-2.62,3.52-3.96,2.01,1.56,4.59,2.98,7.79,3.6,10.84,2.12,19.07-6.72,20.19-7.93,3.94-4.23,7.4-10.89,7.93-18.03.37-4.96-.72-9.18,2.16-13.7,1.35-2.12,3.06-3.49,4.33-4.33-3.71-2.05-7.02-3.06-9.38-3.61Z"/>
  </g>
</svg>