<?xml version="1.0" encoding="UTF-8"?>
<svg id="Layer_2" xmlns="http://www.w3.org/2000/svg" viewBox="0 0 62.21 63.44">
  <defs>
    <style>
      .cls-1 {
        fill: #678c03;
      }
    </style>
  </defs>
  <g id="Layer_1-2" data-name="Layer_1">
    <path class="cls-1" d="M56.15,25.24c-.79-1.68-.41-3.78.97-5.26-.98.04-1.95.09-2.93.13.43-.53,1.84-2.4,1.82-5.15-.03-3.25-2.05-5.31-2.45-5.71-.79,2.4-2.83,4.16-5.26,4.5-3.18.45-5.37-1.75-5.59-1.98-.34,9.56-1.27,11.81-2.12,11.91-1.21.14-2.67-4.06-3.15-5.73-1.22-4.19-.86-7.89-.44-10.14-1.02.24-2.49.41-4.1-.05-5.01-1.42-6.41-7.48-6.47-7.76-.04,1.17-.33,5.24-3.51,8.71-2.2,2.4-4.74,3.36-5.98,3.74,2.38,1.65,6.9,5.31,7.66,10.78.14,1.02.52,3.69-.83,4.62-1.84,1.27-5.59-1.6-6-1.93-2.65-2.07-3.75-4.88-4.23-6.55-.9.64-2.76,1.76-5.34,1.99-4.41.38-7.54-2.16-8.2-2.73.9.93,3.33,3.67,3.52,7.68.06,1.29-.12,2.41-.35,3.3,4.4,1.91,7.09,4.12,6.74,5.52-.18.71-1.11,1.14-2.14,1.41-1.17.31-2.12.44-2.69.41,1.13,1.17,2.91,2.77,5.42,4.1,5.21,2.76,9.92,2.41,10.12,3.87.07.53-.43,1.37-3.26,2.69,3.43,2.13,5.89,2.23,7.57,1.85,2.26-.51,3.02-1.87,5.38-2.52,2.1-.58,4.16-.24,5.89.37-.37,6.12-2.08,11.11-3.62,14.46l3.63,1.67c1.87-4.05,3.96-10.3,4.05-17.99,1.76-1.41,3.2-1.72,4.29-1.67,1.88.09,2.81,1.27,5.09,1.33,2.22.06,4.05-.99,5.25-1.87-4.18-1.47-5.04-2.62-5.02-3.41.05-1.93,5.46-2.13,9.33-6.55,1.75-2,2.58-4.16,3.01-5.71-2.46.85-5.08-.26-6.05-2.34Z"/>
  </g>
</svg>