<?xml version="1.0" encoding="UTF-8"?>
<svg id="Layer_2" xmlns="http://www.w3.org/2000/svg" viewBox="0 0 43.34 65.01">
  <defs>
    <style>
      .cls-1 {
        fill: #65524d;
      }
    </style>
  </defs>
  <g id="Layer_1-2" data-name="Layer_1">
    <path class="cls-1" d="M39.64,12.49c-.4-5.23-.02-9.59.37-12.49-2.96,1.89-7.56,4.45-13.59,6.24-8.97,2.67-12.96,1.24-18,4.78C2.29,15.32.69,22.69.34,24.61c-1.6,8.87,2.51,18.24,10.4,24.4-.81,6.58-.4,12.25.13,16l3.96-.57c-.45-3.17-.8-7.8-.31-13.19,7.11,3.5,14.82,3.75,20.35.17,7.86-5.09,8.36-15.98,8.45-18,.34-7.48-2.85-10.21-3.67-20.94Z"/>
  </g>
</svg>