<?xml version="1.0" encoding="UTF-8"?>
<svg id="Layer_2" xmlns="http://www.w3.org/2000/svg" viewBox="0 0 666.67 91.38">
  <defs>
    <style>
      .cls-1 {
        fill: #fcdc5f;
      }

      .cls-2 {
        fill: #333;
      }

      .cls-3 {
        fill: #facb0f;
      }
    </style>
  </defs>
  <g id="Layer_1-2" data-name="Layer_1">
    <polygon class="cls-1" points="91.33 58 0 58 21.33 30 0 0 91.33 0 91.33 58"/>
    <polygon class="cls-2" points="74.33 9 91.33 0 91.33 13 74.33 9"/>
    <polygon class="cls-1" points="575.33 58 666.67 58 645.33 30 666.67 0 575.33 0 575.33 58"/>
    <polygon class="cls-2" points="592.33 9 575.33 0 575.33 13 592.33 9"/>
    <path class="cls-3" d="M602.03,70.24c-178.02,28.2-359.38,28.2-537.4,0,3.23-20.41,6.47-40.82,9.7-61.24,171.6,27.18,346.4,27.18,518,0,3.23,20.41,6.47,40.82,9.7,61.24Z"/>
  </g>
</svg>