<?xml version="1.0" encoding="UTF-8"?>
<svg id="Layer_2" xmlns="http://www.w3.org/2000/svg" viewBox="0 0 121.62 194.14">
  <defs>
    <style>
      .cls-1 {
        fill: #678c03;
      }
    </style>
  </defs>
  <g id="Layer_1-2" data-name="Layer_1">
    <path class="cls-1" d="M68.94,0c2.51.76,16.07,5.1,19.88,17.65,3.6,11.84-4.02,22.64-5.72,24.95-2.74-.83-15.31-4.92-19.52-16.56-4.46-12.33,3.8-23.93,5.36-26.04Z"/>
    <path class="cls-1" d="M121.62,47.93c-2.17-1.27-14.08-7.99-25.41-2.48-10.69,5.2-13.33,17.62-13.84,20.32,2.37,1.39,13.46,7.58,24.4,2.94,11.6-4.91,14.37-18.3,14.84-20.77Z"/>
    <path class="cls-1" d="M108.39,131.85c-2.81-2.14-18.24-13.52-34.94-7.78-15.77,5.41-21.55,22.25-22.72,25.92,3.06,2.34,17.44,12.84,33.47,8.25,16.98-4.86,23.12-23.02,24.2-26.39Z"/>
    <path class="cls-1" d="M0,121.4c3.16-1.59,20.44-9.89,35.78-1.15,14.48,8.25,17.03,25.87,17.5,29.69-3.44,1.73-19.52,9.37-34.42,1.88C3.09,143.89.43,124.91,0,121.4Z"/>
    <path class="cls-1" d="M81.69,65.71c-.38-2.49-2.66-15.97-14.07-21.3-10.77-5.03-22.08.74-24.5,2.05.41,2.72,2.59,15.22,13.08,20.81,11.12,5.92,23.27-.36,25.48-1.55Z"/>
    <path class="cls-1" d="M113.43,96.67c-2.21-1.96-14.38-12.39-28.66-8.63-13.48,3.55-19.33,17.24-20.53,20.23,2.41,2.14,13.76,11.77,27.4,8.92,14.45-3.01,20.69-17.78,21.79-20.52Z"/>
    <path class="cls-1" d="M70.69,107.91c.13-2.95.56-18.98-11.35-27.7-11.24-8.23-25.56-4.16-28.64-3.21-.14,3.22-.48,18.1,10.32,26.91,11.44,9.33,26.84,4.87,29.67,4Z"/>
    <path class="cls-1" d="M61.46,194.14c-12.89-28.29-15.49-52.59-7.72-72.22,2.53-6.41,5.81-11.54,9.29-16.97,5.04-7.89,10.25-16.04,13.88-29.24,3.18-11.58,4.23-23.84,3.12-36.44l3.98-.35c1.15,13.08.06,25.82-3.25,37.85-3.79,13.78-9.41,22.58-14.37,30.33-3.37,5.27-6.54,10.24-8.94,16.29-7.35,18.58-4.78,41.83,7.64,69.09l-3.64,1.66Z"/>
  </g>
</svg>