<?xml version="1.0" encoding="UTF-8"?>
<svg id="Layer_2" xmlns="http://www.w3.org/2000/svg" viewBox="0 0 85.71 190.67">
  <defs>
    <style>
      .cls-1 {
        fill: #97cc04;
      }
    </style>
  </defs>
  <g id="Layer_1-2" data-name="Layer_1">
    <path class="cls-1" d="M28.27,34.93c.43-1.23,5.39-16.24-3.55-26.64C19.56,2.28,9.71-2.25,5.18,1.19c-4.67,3.54-2.44,14.59,1.78,21.31,6.58,10.51,19.09,12.17,21.31,12.43Z"/>
    <path class="cls-1" d="M40.9,52.39c-.89-.96-11.81-12.37-25.19-9.37C7.97,44.77-.65,51.34.26,56.95c.94,5.78,11.74,9,19.65,8.43,12.37-.88,19.71-11.14,20.98-12.99Z"/>
    <path class="cls-1" d="M37.8,52.87c1.28.27,16.79,3.28,25.98-6.91,5.31-5.89,8.55-16.23,4.57-20.28-4.1-4.18-14.78-.56-20.92,4.47-9.58,7.86-9.65,20.48-9.63,22.72Z"/>
    <path class="cls-1" d="M51.55,82.59c-.89-.96-11.81-12.37-25.19-9.37-7.73,1.74-16.35,8.31-15.44,13.92.94,5.78,11.74,9,19.65,8.43,12.37-.88,19.71-11.14,20.98-12.99Z"/>
    <path class="cls-1" d="M48.45,83.07c1.28.27,16.79,3.28,25.98-6.91,5.31-5.89,8.55-16.23,4.57-20.28-4.1-4.18-14.78-.56-20.92,4.47-9.58,7.86-9.65,20.48-9.63,22.72Z"/>
    <path class="cls-1" d="M54.2,122.26c-.77-1.05-10.35-13.62-23.99-12.13-7.88.86-17.18,6.43-16.9,12.1.28,5.85,10.66,10.26,18.59,10.58,12.39.51,20.83-8.87,22.3-10.56Z"/>
    <path class="cls-1" d="M51.07,122.38c1.24.41,16.32,5.14,26.59-3.95,5.93-5.25,10.31-15.17,6.81-19.64-3.61-4.61-14.63-2.22-21.28,2.1-10.41,6.74-11.88,19.27-12.11,21.5Z"/>
    <path class="cls-1" d="M39.85,162.21c-.51-1.2-6.89-15.66-20.5-17.38-7.86-1-18.2,2.25-19.26,7.83-1.09,5.76,7.98,12.46,15.61,14.62,11.93,3.38,22.32-3.77,24.15-5.07Z"/>
    <path class="cls-1" d="M36.77,161.61c1.11.69,14.67,8.8,26.78,2.35,7-3.73,13.56-12.35,11.2-17.52-2.44-5.33-13.71-5.56-21.19-2.92-11.69,4.13-16.05,15.97-16.79,18.09Z"/>
    <path class="cls-1" d="M18.92,190.67l-2.6-2.42c10.55-11.34,34.9-42.56,33.27-87.53-1.18-32.65-15.86-56.78-24.51-68.27l2.84-2.14c8.9,11.82,24.01,36.66,25.22,70.27,1.68,46.3-23.37,78.42-34.22,90.08Z"/>
  </g>
</svg>