<?xml version="1.0" encoding="UTF-8"?>
<svg id="Layer_2" xmlns="http://www.w3.org/2000/svg" viewBox="0 0 112.92 145.31">
  <defs>
    <style>
      .cls-1 {
        fill: #facb0f;
      }
    </style>
  </defs>
  <g id="Layer_1-2" data-name="Layer_1">
    <g>
      <path class="cls-1" d="M84.59,0c-2.51.76-16.07,5.1-19.88,17.65-3.6,11.84,4.02,22.64,5.72,24.95,2.74-.83,15.31-4.92,19.52-16.56,4.46-12.33-3.8-23.93-5.36-26.04Z"/>
      <path class="cls-1" d="M112.92,62.67c-2.21-1.96-14.38-12.39-28.66-8.63-13.48,3.55-19.33,17.24-20.53,20.23,2.41,2.14,13.76,11.77,27.4,8.92,14.45-3.01,20.69-17.78,21.79-20.52Z"/>
      <path class="cls-1" d="M105.88,102.24c-2.67-2.04-17.32-12.84-33.18-7.39-14.97,5.14-20.46,21.13-21.57,24.62,2.91,2.22,16.56,12.19,31.78,7.83,16.12-4.62,21.96-21.86,22.98-25.06Z"/>
      <path class="cls-1" d="M0,92.31c3-1.51,19.41-9.39,33.98-1.09,13.76,7.83,16.18,24.56,16.62,28.2-3.27,1.64-18.54,8.9-32.68,1.79C2.93,113.67.41,95.64,0,92.31Z"/>
      <path class="cls-1" d="M63.18,72.91c.13-2.95.56-18.98-11.35-27.7-11.24-8.23-25.56-4.16-28.64-3.21-.14,3.22-.48,18.1,10.32,26.91,11.44,9.33,26.84,4.87,29.67,4Z"/>
      <path class="cls-1" d="M49.26,145.31c-.78-7.85-.78-15.79,0-23.6,1.24-12.53,4.14-21.2,7.5-31.24,1.81-5.4,3.85-11.52,5.85-18.9,3-11.14,5.23-22.81,6.6-34.67l3.3.38c-1.4,12.02-3.65,23.85-6.7,35.15-2.02,7.48-4.08,13.65-5.9,19.09-3.3,9.85-6.14,18.35-7.35,30.51-.75,7.6-.75,15.32,0,22.95l-3.31.33Z"/>
    </g>
  </g>
</svg>