<?xml version="1.0" encoding="UTF-8"?>
<svg id="Layer_2" xmlns="http://www.w3.org/2000/svg" viewBox="0 0 59.07 139.02">
  <defs>
    <style>
      .cls-1 {
        fill: #facb0f;
      }

      .cls-2 {
        fill: none;
        stroke: #facb0f;
        stroke-miterlimit: 10;
        stroke-width: 2.53px;
      }
    </style>
  </defs>
  <g id="Layer_1-2" data-name="Layer_1">
    <g>
      <path class="cls-2" d="M58.24,138.07c-4.01-3.54-7.67-7.48-11.06-11.62-3.36-4.16-6.5-8.52-9.18-13.15l-1.04-1.72-.94-1.77-1.88-3.55-1.67-3.65-.84-1.82-.72-1.87-1.44-3.75c-.45-1.26-.8-2.55-1.21-3.83-.37-1.29-.85-2.54-1.13-3.85l-.91-3.91-.45-1.96c-.13-.66-.21-1.32-.32-1.98l-.61-3.97c-.25-1.32-.31-2.66-.42-3.99l-.3-4c-.15-1.33-.07-2.67-.09-4.01.01-1.34-.04-2.68.02-4.01.2-2.67.24-5.35.65-8,.56-5.33,1.74-10.57,3.19-15.72,1.44-5.16,3.41-10.16,5.67-15"/>
      <path class="cls-1" d="M28.82,9.58c-.69,1.31-1.81,3.74-2.07,6.89-.09,1.59,0,3.33.53,5.2.55,1.87,1.48,3.83,2.96,5.79,2.32-.44,4.2-1.18,5.73-2.09,1.56-.89,2.82-1.93,3.79-3,1.01-1.05,1.78-2.12,2.33-3.06.57-.93.98-1.72,1.22-2.21.55-1.15,1.59-3.15,2.03-5.94.43-2.81.31-6.41-1.38-11.09-4.68-.47-8.33,1.36-10.78,3.58-2.49,2.22-3.81,4.79-4.36,5.93Z"/>
      <path class="cls-1" d="M34.97,33.68c-1.35.58-3.6,1.71-5.69,3.86-1,1.08-1.87,2.44-2.54,4.06-.35.81-.57,1.7-.69,2.66-.13.96-.18,1.98-.12,3.06,4.81,1.16,9.05.51,12.3-.34,3.21-.88,5.62-2.02,6.67-2.51,1.22-.58,3.37-1.56,5.31-3.13.47-.39.93-.83,1.33-1.31.42-.48.84-1,1.18-1.58.34-.58.62-1.22.82-1.92.24-.7.41-1.46.48-2.32-4.44-2.2-8.59-2.75-12.01-2.45-3.36.29-5.9,1.4-7.04,1.91Z"/>
      <path class="cls-1" d="M8.73,35.65c-.73-1.45-2.05-4.11-2.36-7.64-.09-.88-.12-1.82-.09-2.81.05-.98.22-1.99.45-3.05.24-1.05.58-2.14,1.03-3.25.49-1.09,1.1-2.2,1.84-3.32,4.72,1.5,7.82,4.61,9.95,7.45,2.16,2.88,3.38,5.58,3.91,6.76.61,1.38,1.88,3.85,2.39,6.8.3,1.49.49,3.14.31,4.88-.1.87-.22,1.78-.44,2.72-.22.94-.54,1.92-.99,2.93-4.95-.42-8.68-2.49-11.31-4.98-2.68-2.47-4.07-5.25-4.69-6.5Z"/>
      <path class="cls-1" d="M30.3,57.42c-1.09.91-3.18,2.58-4.47,5.2-.66,1.31-1.27,2.84-1.42,4.58-.12,1.73.07,3.67.74,5.73,4.94-.15,8.87-1.89,11.8-3.57,1.46-.85,2.67-1.71,3.61-2.44.47-.37.88-.7,1.22-.99.36-.3.66-.54.89-.73,1.06-.88,2.94-2.39,4.28-4.38,1.52-2.01,2.41-4.45,1.87-7.74-4.86-.98-9-.47-12.21.69-3.26,1.13-5.33,2.86-6.3,3.64Z"/>
      <path class="cls-1" d="M5.45,66.19c-1.06-1.21-2.96-3.44-4.3-6.78-1.16-3.32-1.83-7.83-.04-12.97,4.95.24,8.75,2.46,11.54,4.68,2.74,2.23,4.71,4.54,5.53,5.54,1,1.18,2.67,3.23,4.1,5.95.71,1.36,1.19,2.9,1.54,4.63.38,1.73.48,3.64.13,5.83-4.88.9-9.02-.11-12.2-1.82-3.15-1.68-5.44-3.99-6.29-5.04Z"/>
      <path class="cls-1" d="M31.99,81.52c-.81,1.16-2.25,3.3-2.97,6.21-.29,1.43-.35,3.04-.09,4.78.15.86.33,1.77.71,2.65.39.89.88,1.78,1.5,2.68,4.73-1.46,8.04-4.16,10.37-6.55,2.33-2.41,3.87-4.61,4.49-5.56.77-1.12,2.06-3.05,2.99-5.36.44-1.15.7-2.39.66-3.69.07-1.33-.19-2.73-.95-4.23-4.95.34-8.79,1.92-11.57,3.88-2.78,1.94-4.52,4.19-5.16,5.18Z"/>
      <path class="cls-1" d="M10.4,96.55c-1.36-.88-3.9-2.49-5.92-5.41-1.03-1.45-2.02-3.2-2.72-5.28-.59-2.1-.93-4.52-.81-7.23,4.83-1.08,9.1.07,12.39,1.46,3.29,1.42,5.61,3.16,6.76,3.89,1.28.87,3.56,2.38,5.49,4.66,1.04,1.13,2.04,2.44,2.79,4.03.39.79.66,1.66.97,2.58.31.92.54,1.92.68,3.01-4.46,2.16-8.76,2.29-12.31,1.5-3.54-.76-6.12-2.47-7.32-3.22Z"/>
      <path class="cls-1" d="M40,104.35c-.47,1.33-1.33,3.79-1.24,6.77.09,1.46.41,3.05,1.09,4.67.71,1.59,1.87,3.17,3.47,4.62,4.22-2.57,6.78-6.02,8.47-8.95.84-1.47,1.45-2.83,1.9-3.95.48-1.14.8-2.04.99-2.6.23-.64.55-1.54.82-2.57.14-.52.26-1.06.37-1.64.13-.59.23-1.2.28-1.82.13-1.25,0-2.52-.32-3.83-.3-1.32-.98-2.6-2.1-3.89-2.32.82-4.35,1.86-6.03,3.03-1.67,1.17-3.02,2.47-4.1,3.78-2.13,2.59-3.23,5.23-3.61,6.37Z"/>
      <path class="cls-1" d="M22.95,124.38c-.77-.25-1.84-.61-3.08-1.17-.62-.28-1.29-.61-1.96-1.02-.66-.41-1.34-.89-2.02-1.45-1.35-1.12-2.78-2.51-3.92-4.34-1.12-1.85-2.12-4.05-2.68-6.67,2.2-1.17,4.37-1.73,6.47-1.97,2.1-.24,4.09-.14,5.87.1,3.58.48,6.25,1.56,7.53,1.97,1.47.5,4.03,1.38,6.52,3.06,1.29.82,2.56,1.86,3.67,3.22,1.15,1.33,2.21,2.94,2.98,5.01-3.81,3.19-7.91,4.36-11.5,4.48-1.79.06-3.44-.12-4.82-.37-1.34-.28-2.41-.62-3.06-.84Z"/>
    </g>
  </g>
</svg>