<?xml version="1.0" encoding="UTF-8"?>
<svg id="Layer_2" xmlns="http://www.w3.org/2000/svg" viewBox="0 0 94.81 330.27">
  <defs>
    <style>
      .cls-1 {
        fill: #678c03;
      }
    </style>
  </defs>
  <g id="Layer_1-2" data-name="Layer_1">
    <g>
      <path class="cls-1" d="M26.21,34.56c.4-1.24,5.07-16.34-4.07-26.57C16.86,2.08,6.93-2.26,2.47,1.27-2.12,4.9.32,15.9,4.66,22.54c6.78,10.38,19.32,11.8,21.55,12.02Z"/>
      <path class="cls-1" d="M37.16,56.94c1.3-.06,17.07-1.05,23.4-13.22,3.66-7.03,4.19-17.86-.69-20.78-5.02-3.01-14.45,3.18-19.12,9.59-7.3,10.02-4.18,22.25-3.6,24.41Z"/>
      <path class="cls-1" d="M44.08,68.99c-.79-1.04-10.57-13.45-24.18-11.74-7.87.99-17.07,6.7-16.71,12.37.38,5.84,10.82,10.08,18.75,10.28,12.39.31,20.69-9.2,22.13-10.91Z"/>
      <path class="cls-1" d="M51.16,94.94c1.3-.06,17.07-1.05,23.4-13.22,3.66-7.03,4.19-17.86-.69-20.78-5.02-3.01-14.45,3.18-19.12,9.59-7.3,10.02-4.18,22.25-3.6,24.41Z"/>
      <path class="cls-1" d="M58.08,106.99c-.79-1.04-10.57-13.45-24.18-11.74-7.87.99-17.07,6.7-16.71,12.37.38,5.84,10.82,10.08,18.75,10.28,12.39.31,20.69-9.2,22.13-10.91Z"/>
      <path class="cls-1" d="M62.16,135.94c1.3-.06,17.07-1.05,23.4-13.22,3.66-7.03,4.19-17.86-.69-20.78-5.02-3.01-14.45,3.18-19.12,9.59-7.3,10.02-4.18,22.25-3.6,24.41Z"/>
      <path class="cls-1" d="M65.08,144.99c-.79-1.04-10.57-13.45-24.18-11.74-7.87.99-17.07,6.7-16.71,12.37.38,5.84,10.82,10.08,18.75,10.28,12.39.31,20.69-9.2,22.13-10.91Z"/>
      <path class="cls-1" d="M67.16,176.94c1.3-.06,17.07-1.05,23.4-13.22,3.66-7.03,4.19-17.86-.69-20.78-5.02-3.01-14.45,3.18-19.12,9.59-7.3,10.02-4.18,22.25-3.6,24.41Z"/>
      <path class="cls-1" d="M68.08,185.99c-.79-1.04-10.57-13.45-24.18-11.74-7.87.99-17.07,6.7-16.71,12.37.38,5.84,10.82,10.08,18.75,10.28,12.39.31,20.69-9.2,22.13-10.91Z"/>
      <path class="cls-1" d="M64.23,224.59c1.29.17,16.99,1.98,25.37-8.88,4.84-6.28,7.28-16.84,3-20.57-4.41-3.85-14.78.57-20.51,6.06-8.95,8.57-8.05,21.16-7.85,23.39Z"/>
      <path class="cls-1" d="M64.08,229.99c-.79-1.04-10.57-13.45-24.18-11.74-7.87.99-17.07,6.7-16.71,12.37.38,5.84,10.82,10.08,18.75,10.28,12.39.31,20.69-9.2,22.13-10.91Z"/>
      <path class="cls-1" d="M53.51,271.4c1.24.42,16.27,5.29,26.62-3.7,5.98-5.2,10.45-15.07,6.99-19.58-3.57-4.65-14.6-2.35-21.3,1.9-10.47,6.64-12.06,19.16-12.31,21.38Z"/>
      <path class="cls-1" d="M53.08,270.99c-.79-1.04-10.57-13.45-24.18-11.74-7.87.99-17.07,6.7-16.71,12.37.38,5.84,10.82,10.08,18.75,10.28,12.39.31,20.69-9.2,22.13-10.91Z"/>
      <path class="cls-1" d="M26.65,330.27l-3.4-2.11c21.34-34.47,34.7-71.89,39.72-111.2,10.65-83.54-20.32-150.34-39.73-182.72l3.43-2.06c19.68,32.83,51.08,100.55,40.27,185.28-5.09,39.89-18.64,77.84-40.28,112.8Z"/>
    </g>
  </g>
</svg>