<?xml version="1.0" encoding="UTF-8"?>
<svg id="Layer_2" xmlns="http://www.w3.org/2000/svg" viewBox="0 0 75.73 139.39">
  <defs>
    <style>
      .cls-1 {
        fill: #facb0f;
      }

      .cls-2 {
        fill: none;
        stroke: #facb0f;
        stroke-miterlimit: 10;
        stroke-width: 2.53px;
      }
    </style>
  </defs>
  <g id="Layer_1-2" data-name="Layer_1">
    <g>
      <path class="cls-2" d="M67.18,138.01c-13.91-12.49-24.42-28.77-29.93-46.63-2.76-8.93-4.14-18.27-4.25-27.61-.05-9.34,1.16-18.71,3.79-27.68"/>
      <path class="cls-1" d="M36.77,11.29c-.7,1.5-1.99,4.21-2.28,7.71-.3,3.48.4,7.72,3.45,11.85,4.65-1.34,7.64-3.85,9.73-6.32,2.06-2.47,3.24-4.92,3.76-6.03.32-.64.76-1.52,1.18-2.64.45-1.1.86-2.43,1.15-3.96.58-3.08.64-6.95-.86-11.88-4.87-.23-8.75,1.97-11.4,4.53-2.65,2.58-4.1,5.48-4.73,6.75Z"/>
      <path class="cls-1" d="M52.8,35.09c-.66.29-1.6.71-2.64,1.33-.99.63-2.09,1.46-3.13,2.55-2.06,2.17-3.73,5.51-3.45,9.94,4.81,1.15,9.06.48,12.31-.37,3.2-.89,5.65-2,6.68-2.48.62-.28,1.44-.67,2.38-1.17.96-.5,2-1.11,2.94-1.88.91-.78,1.9-1.68,2.55-2.83.31-.58.67-1.19.89-1.89.25-.69.36-1.47.5-2.31-4.38-2.31-8.55-2.98-11.92-2.71-1.69.12-3.21.44-4.42.8-1.19.37-2.12.77-2.68,1.02Z"/>
      <path class="cls-1" d="M9.27,32.67c-.32-.85-.81-2.06-1.19-3.57-.36-1.5-.66-3.32-.73-5.41-.1-2.1.21-4.4.83-6.92.3-1.27.8-2.53,1.38-3.84.6-1.3,1.26-2.66,2.17-3.97,4.73,1.54,7.57,5,9.54,8.28.97,1.64,1.67,3.24,2.22,4.61.57,1.38.94,2.51,1.17,3.2.27.81.65,1.93.99,3.28.39,1.37.75,2.97.93,4.74.38,3.57.2,7.8-1.69,12.77-4.96-.32-8.65-2.69-11.2-5.58-2.61-2.88-3.84-6.12-4.42-7.6Z"/>
      <path class="cls-1" d="M48.01,59.1c-.54.47-1.38,1.13-2.12,2.02-.77.89-1.57,2-2.25,3.34-.32.67-.69,1.4-.86,2.18-.19.78-.33,1.62-.39,2.5-.09,1.77-.03,3.76.89,5.8,2.48-.15,4.66-.72,6.58-1.44,1.93-.73,3.54-1.62,5.03-2.52,2.93-1.8,4.83-3.56,5.67-4.32.92-.89,2.85-2.44,4.2-4.43.63-1,1.3-2.11,1.62-3.36.17-.63.23-1.29.26-2,.05-.71.01-1.46-.15-2.28-4.86-.95-9-.43-12.23.76-3.2,1.17-5.28,2.94-6.25,3.75Z"/>
      <path class="cls-1" d="M5.68,69.51c-1.21-1.44-3.11-4.08-4.46-8.07C.5,59.44.1,57.12.02,54.49c-.03-1.31-.03-2.7.17-4.14.21-1.44.54-2.94,1-4.5,4.97.12,8.72,2.67,11.48,5.25,2.77,2.61,4.71,5.36,5.52,6.55.51.7,1.12,1.67,1.91,2.86.77,1.2,1.58,2.63,2.27,4.28.36.82.62,1.7.96,2.64.32.93.6,1.92.8,2.98.44,2.1.44,4.46.41,7.11-2.41.57-4.69.58-6.78.17-2.08-.4-4.04-1.2-5.62-2.21-3.21-1.99-5.45-4.74-6.44-5.98Z"/>
      <path class="cls-1" d="M50.48,83.37c-.86,1.24-2.06,3.43-2.59,6.41-.3,1.5-.22,3.12.17,4.86.2.87.48,1.76.88,2.66.45.88,1.02,1.76,1.7,2.64,4.63-1.75,7.75-4.69,9.92-7.22,2.22-2.58,3.57-4.85,4.14-5.83.36-.58.77-1.36,1.32-2.31.53-.95,1.05-2.03,1.4-3.18.18-.58.3-1.17.38-1.78.13-.62.19-1.26.17-1.9-.02-1.3-.49-2.63-1.15-4.1-4.89.52-8.8,2.26-11.48,4.33-2.63,2.04-4.19,4.37-4.87,5.43Z"/>
      <path class="cls-1" d="M13.11,105.82c-.74-.53-1.86-1.23-2.99-2.29-1.14-1.05-2.41-2.39-3.64-4.1-.61-.85-1.23-1.79-1.79-2.83-.52-1.05-1-2.2-1.42-3.45-.82-2.49-1.52-5.35-1.44-8.62,4.81-1.36,9.05-.01,12.5,1.64,3.49,1.67,6.07,3.74,7.21,4.64,1.27,1.08,3.86,2.84,6.11,5.58,1.09,1.39,2.32,2.95,3.31,4.84.5.94.94,1.97,1.34,3.09.45,1.09.83,2.27,1.14,3.57-4.28,2.51-8.69,2.64-12.44,1.72-3.69-.93-6.59-2.91-7.9-3.79Z"/>
      <path class="cls-1" d="M60.03,106.01c-.19.7-.45,1.69-.64,2.89-.19,1.2-.2,2.56-.02,4.07.1.75.23,1.54.49,2.32.26.78.6,1.57,1.03,2.36.83,1.6,2.17,3.09,3.94,4.45,3.99-2.92,6.19-6.6,7.62-9.69,1.37-3.07,2.04-5.69,2.31-6.81.29-1.3,1.01-3.7.96-6.17,0-1.26-.11-2.58-.6-3.83-.46-1.27-1.12-2.56-2.38-3.75-4.57,1.93-7.67,4.7-9.63,7.5-.98,1.39-1.71,2.77-2.19,3.94-.46,1.16-.73,2.13-.9,2.73Z"/>
      <path class="cls-1" d="M30.38,137.99c-1.75-.53-4.76-1.64-8.06-4.13-1.62-1.26-3.24-2.92-4.77-4.98-1.51-2.07-2.78-4.67-3.79-7.67,4.18-2.67,8.73-2.71,12.47-2.15,1.88.29,3.55.76,4.96,1.2,1.42.43,2.54.85,3.22,1.11.8.3,1.9.71,3.16,1.3,1.25.59,2.75,1.29,4.22,2.28.75.48,1.47,1.05,2.23,1.66.76.6,1.52,1.28,2.25,2.05,1.43,1.56,2.9,3.37,4.16,5.7-3.46,3.58-7.65,4.89-11.46,5-3.84.17-7.1-.91-8.59-1.38Z"/>
    </g>
  </g>
</svg>