<?xml version="1.0" encoding="UTF-8"?>
<svg id="Layer_2" xmlns="http://www.w3.org/2000/svg" viewBox="0 0 123.36 114.47">
  <defs>
    <style>
      .cls-1 {
        fill: #c0a9b0;
      }
    </style>
  </defs>
  <g id="Layer_1-2" data-name="Layer_1">
    <path class="cls-1" d="M123.24,33.28c-.76-4.37-4.79-7.59-8.38-8.52-5.44-1.4-11.57,1.44-17.1,7.35-1.05-.99-2.15-1.98-3.39-2.93-6.82-5.22-13.67-7.2-17.96-8.02V6.73h4.49V0h-40.4v6.73h6.73v14.43c-4.29.81-11.13,2.8-17.96,8.02-1.3,1-2.45,2.03-3.54,3.07-5.56-6-11.75-8.9-17.23-7.49-3.59.93-7.62,4.16-8.38,8.52-1.09,6.27,4.84,13.31,15.68,19.28v20.09c0,1.35.33,2.67.98,3.86,3,5.47,8.25,13.21,16.97,20.01,4.8,3.73,9.48,6.27,13.47,8.03v3.11h-1.5l-9.73,6.82h52.74l-9.73-6.82h-2.62v-3.11c3.98-1.76,8.67-4.3,13.47-8.03,8.73-6.79,13.97-14.53,16.97-20.01.65-1.19.98-2.5.98-3.86v-20.25c10.66-5.94,16.49-12.91,15.41-19.12ZM4.55,34.05c.41-2.38,2.91-4.38,5.08-4.94,3.44-.89,8.27,1.23,13.01,6.4-3.05,3.62-4.97,7.11-6.13,9.59-.35.75-.52,1.55-.61,2.36-8.17-4.91-11.95-9.96-11.35-13.4ZM107.71,47.29c-.1-.76-.27-1.5-.6-2.2-1.17-2.51-3.13-6.07-6.26-9.74,4.7-5.06,9.47-7.13,12.87-6.25,2.17.56,4.67,2.57,5.08,4.94.59,3.4-3.11,8.38-11.1,13.24Z"/>
  </g>
</svg>