<?xml version="1.0" encoding="UTF-8"?>
<svg id="Layer_2" xmlns="http://www.w3.org/2000/svg" viewBox="0 0 96.51 141.4">
  <defs>
    <style>
      .cls-1 {
        fill: #facb0f;
      }
    </style>
  </defs>
  <g id="Layer_1-2" data-name="Layer_1">
    <path class="cls-1" d="M96.51,84.17c0-14.53-5.38-27.69-14.07-37.23,10.49-18.41,9.25-35.29,1.09-41.53-6.67-5.09-16.47-2.66-22.92-.1V0h-31.42v11.22h6.73v21.95C15.24,39.13,0,59.7,0,84.17c0,21.72,12.02,40.37,29.18,48.45v8.78h38.16v-8.78c17.16-8.08,29.18-26.73,29.18-48.45ZM78.08,12.54c3.59,2.74,4.93,14.06-2.48,28.17-4.51-3.39-9.56-5.97-15-7.54V15.13c6.16-3.03,14.18-5.1,17.48-2.58Z"/>
  </g>
</svg>