<?xml version="1.0" encoding="UTF-8"?>
<svg id="Layer_2" xmlns="http://www.w3.org/2000/svg" viewBox="0 0 119.88 195.27">
  <defs>
    <style>
      .cls-1 {
        fill: #facb0f;
      }
    </style>
  </defs>
  <g id="Layer_1-2" data-name="Layer_1">
    <path class="cls-1" d="M113.63,57.61c-2.28-2.45-5.01-5.05-8.22-7.61l-.03-32.34c-1.31-7.96-5.83-14.18-11.8-16.22-4.17-1.43-9.2-.83-13.8,1.65-2.66,1.43-5,3.42-6.98,5.79V0h-26.93v7.55c-1.71-1.78-3.66-3.3-5.8-4.46C35.49.62,30.46.02,26.29,1.45c-5.97,2.04-10.49,8.26-11.8,16.22l-.03,32.34c-3.21,2.55-5.94,5.16-8.22,7.61-4.07,4.36-6.25,10.15-6.25,16.11v20.63c0,2.28.33,4.53.96,6.72,3.77,13.11,9.92,29.56,20.24,47.05,8.14,13.81,16.88,24.88,24.69,33.47v6.93h-2.24v6.73h31.42v-6.73h-2.24v-5.65c8.1-8.76,17.31-20.24,25.86-34.75,10.31-17.49,16.46-33.94,20.24-47.05.63-2.19.96-4.45.96-6.72v-20.63c0-5.96-2.18-11.75-6.25-16.11ZM25.69,42.64c-2.42,1.29-4.65,2.67-6.73,4.08v-28.5c1.06-6.15,4.5-11.06,8.79-12.53,3-1.03,6.72-.53,10.21,1.35,3.28,1.77,6,4.56,7.93,7.99v20.38c-5.55,1.12-12.64,3.2-20.2,7.23ZM94.2,42.64c-8.11-4.32-15.67-6.39-21.38-7.45v-17.74c1.9-4.53,5.09-8.24,9.11-10.4,3.5-1.88,7.21-2.38,10.21-1.35,4.29,1.47,7.73,6.38,8.79,12.53v28.5c-2.08-1.42-4.31-2.79-6.73-4.08Z"/>
  </g>
</svg>