<?xml version="1.0" encoding="UTF-8"?>
<svg id="Layer_2" xmlns="http://www.w3.org/2000/svg" viewBox="0 0 102.52 88.63">
  <defs>
    <style>
      .cls-1 {
        fill: #fff;
      }
    </style>
  </defs>
  <g id="Layer_1-2" data-name="Layer_1">
    <path class="cls-1" d="M100.76,43.57c-4.38-11.2-18.73-20.13-33-20-2.33.02-18.29.17-27.5,10.5-3,3.37-6.79,9.5-12.5,9.5-1.69,0-3.07-.54-4-1,1.19-.52,23.41-10.58,24-28,.07-2.05.24-7.08-2-8-4.93-2.03-17.65,17.48-28,35-.36-8.99,1.06-15.81,2.5-20.5,1.43-4.66,3.09-7.86,2-12C20.94,4.09,16.07-.63,13.26.07c-3.38.84-5.92,10.04-3,45-1.86,1.69-4.46,4.47-6.5,8.5-1,1.98-6.53,12.79-2,18,4.01,4.62,13.99,2.61,14.5,2.5,3.71-.79,4.47-2.08,6.5-1.5,3.89,1.11,3.15,6.25,8,11,4.46,4.37,11.26,6.03,12.5,4.5.66-.82-.01-2.84-1-4-1.31-1.55-2.93-1.27-4-3-.45-.73-.96-2.05-.5-2.5.88-.87,4.2,2.67,10,4,.39.09,6.52,1.45,7.5-.5.54-1.08-.54-3.09-2-4-1.67-1.04-3.01-.12-5-1-1.54-.68-2.46-1.99-3-3,1.73.05,6.1-.02,10.77-2.48-.36,1.02-.47,2.03-.27,2.98.02.11.49,2.22,2,3,2.22,1.14,5.82-1.06,9.25-3.99.95.84,1.85,1.31,2.25,1.49-4.62,2.63-7.15,6.37-6.5,9.5.02.11.49,2.22,2,3,4.74,2.43,15.74-10.34,18-13-3.35-4.06-3.53-6.5-3-8,1.1-3.09,5.51-3.02,10.5-7.5,2.19-1.97,3.62-4.02,4.5-5.5,1.47.91,4.72,2.71,6.5,1.5,2.51-1.7.7-8.42-.5-11.5Z"/>
  </g>
</svg>