<?xml version="1.0" encoding="UTF-8"?>
<svg id="Layer_2" xmlns="http://www.w3.org/2000/svg" viewBox="0 0 72.07 108.6">
  <defs>
    <style>
      .cls-1 {
        fill: #fff;
      }
    </style>
  </defs>
  <g id="Layer_1-2" data-name="Layer_1">
    <path class="cls-1" d="M13.96,108.6h58c.09-.44.37-1.98-.5-3.5-1.39-2.44-4.36-2.5-4.5-2.5,4.81-9.96,3.06-19.02-1.5-21.5-.56-.3-3.37-1.72-8.5.5-.58-3.54-2.21-10.53-7.5-17.5-4.61-6.06-9.91-9.38-13-11,.4-1.13,1.17-3.76.5-7-.8-3.87-3.14-6.22-4-7,2.2-1.62,5.34-3.99,9-7,9.83-8.08,11.4-10.83,12-12,3.01-5.83,3.54-13.77,1-15-2.8-1.35-8.66,5.42-10,7,.37-2.41,1.57-10.96-1-12-2.45-.99-7.45,5.52-10,10-.81,1.42-2.17,4.05-5,14-1.36,4.78-2.35,8.76-3,11.5-1.52-1.06-7.52-4.96-15-3.5-1.89.37-6.34,1.24-9,5-4.05,5.73-.66,13.49,0,15,4.12,9.42,14.38,12.1,16,12.5-1.77,4.17-4.92,13.28-3,24.5.94,5.5,2.83,9.9,4.5,13-.61.2-1.3.52-2,1-2.53,1.76-3.28,4.52-3.5,5.5Z"/>
  </g>
</svg>