<?xml version="1.0" encoding="UTF-8"?>
<svg id="Layer_2" xmlns="http://www.w3.org/2000/svg" viewBox="0 0 69.23 109">
  <defs>
    <style>
      .cls-1 {
        fill: #fff;
      }
    </style>
  </defs>
  <g id="Layer_1-2" data-name="Layer_1">
    <path class="cls-1" d="M56.87,109H24.09c-2.14-1.19-9.51-5.63-11.79-14.26-2.11-8,.7-17.56,3.57-17.83,1-.09,2.44.89,4.46,5.35l16.05-21.39v-16.94c-2.86-.06-24.17-.81-32.98-16.05-1.87-3.23-4.73-9.8-2.67-11.59,4.64-4.03,31.37,18.75,32.09,17.83.5-.63-16.41-10.64-17.83-25.85-.12-1.3-.64-6.81,1.78-8.02,3.86-1.95,13.41,7.98,18.72,16.94,3.64,6.14,5.36,11.94,6.24,16.05,2.08-.89,4.16-1.78,6.24-2.67,8.22-2.3,15.51,3.17,16.05,8.91.43,4.65-3.51,10.02-9.81,11.59l6.24,13.37c1.84.83,6.32,3.19,8.02,8.02.7,1.97,1.32,5.45,0,6.24-1.26.76-4.09-1.08-7.13-4.46,1.01.87,4.93,4.45,4.46,8.91-.05.46-.33,3.12-1.78,3.57-1.26.39-3.18-.97-4.46-3.57-.59,3.27-1.19,6.54-1.78,9.81-.89,2.38-1.78,4.75-2.67,7.13,4.82-.35,8.05,2.4,8.02,4.46-.02,1.81-2.58,3.98-6.24,4.46Z"/>
  </g>
</svg>