<?xml version="1.0" encoding="UTF-8"?>
<svg id="Layer_2" xmlns="http://www.w3.org/2000/svg" xmlns:xlink="http://www.w3.org/1999/xlink" viewBox="0 0 74.02 62.51">
  <defs>
    <style>
      .cls-1 {
        fill: #f3b9ba;
      }

      .cls-2 {
        fill: none;
        stroke: #fff;
        stroke-miterlimit: 10;
        stroke-width: 4px;
      }

      .cls-3 {
        clip-path: url(#clippath);
      }
    </style>
    <clipPath id="clippath">
      <path class="cls-1" d="M43.95,2.4c-1.01-.67-1.98-1.21-2.86-1.65-1.97-.99-4.31-.99-6.28,0-.88.44-1.85.99-2.86,1.65C15.37,13.33,8.28,43.9,20.95,56.4c1.87,1.84,6.7,5.79,17,6.11,10.3-.32,15.13-4.27,17-6.11,12.67-12.49,5.58-43.06-11-54Z"/>
    </clipPath>
  </defs>
  <g id="Layer_1-2" data-name="Layer_1">
    <g>
      <path class="cls-1" d="M43.95,2.4c-1.01-.67-1.98-1.21-2.86-1.65-1.97-.99-4.31-.99-6.28,0-.88.44-1.85.99-2.86,1.65C15.37,13.33,8.28,43.9,20.95,56.4c1.87,1.84,6.7,5.79,17,6.11,10.3-.32,15.13-4.27,17-6.11,12.67-12.49,5.58-43.06-11-54Z"/>
      <g class="cls-3">
        <polyline class="cls-2" points=".95 27.4 13.95 20.4 25.95 27.4 36.95 20.4 48.95 27.4 61.95 20.4 72.95 27.4"/>
        <polyline class="cls-2" points=".95 36.9 13.95 29.9 25.95 36.9 36.95 29.9 48.95 36.9 61.95 29.9 72.95 36.9"/>
        <polyline class="cls-2" points=".95 46.4 13.95 39.4 25.95 46.4 36.95 39.4 48.95 46.4 61.95 39.4 72.95 46.4"/>
      </g>
    </g>
  </g>
</svg>