<?xml version="1.0" encoding="UTF-8"?>
<svg id="Layer_2" xmlns="http://www.w3.org/2000/svg" xmlns:xlink="http://www.w3.org/1999/xlink" viewBox="0 0 76.04 62.51">
  <defs>
    <style>
      .cls-1 {
        stroke-width: 8px;
      }

      .cls-1, .cls-2 {
        fill: none;
        stroke: #fff;
        stroke-miterlimit: 10;
      }

      .cls-3 {
        fill: #ec9192;
      }

      .cls-2 {
        stroke-width: 4px;
      }

      .cls-4 {
        clip-path: url(#clippath);
      }
    </style>
    <clipPath id="clippath">
      <path class="cls-3" d="M44.9,2.4c-1.01-.67-1.98-1.21-2.86-1.65-1.97-.99-4.31-.99-6.28,0-.88.44-1.85.99-2.86,1.65-16.58,10.94-23.67,41.51-11,54,1.87,1.84,6.7,5.79,17,6.11,10.3-.32,15.13-4.27,17-6.11,12.67-12.49,5.58-43.06-11-54Z"/>
    </clipPath>
  </defs>
  <g id="Layer_1-2" data-name="Layer_1">
    <g>
      <path class="cls-3" d="M44.9,2.4c-1.01-.67-1.98-1.21-2.86-1.65-1.97-.99-4.31-.99-6.28,0-.88.44-1.85.99-2.86,1.65-16.58,10.94-23.67,41.51-11,54,1.87,1.84,6.7,5.79,17,6.11,10.3-.32,15.13-4.27,17-6.11,12.67-12.49,5.58-43.06-11-54Z"/>
      <g class="cls-4">
        <polyline class="cls-2" points="1.9 33.4 14.9 26.4 26.9 33.4 37.9 26.4 49.9 33.4 62.9 26.4 73.9 33.4"/>
        <polyline class="cls-1" points="1.9 45.4 14.9 38.4 26.9 45.4 37.9 38.4 49.9 45.4 62.9 38.4 73.9 45.4"/>
      </g>
    </g>
  </g>
</svg>