<?xml version="1.0" encoding="UTF-8"?>
<svg id="Layer_2" xmlns="http://www.w3.org/2000/svg" viewBox="0 0 152.5 126.57">
  <defs>
    <style>
      .cls-1 {
        fill: #1f1f1f;
      }
    </style>
  </defs>
  <g id="Layer_1-2" data-name="Layer_1">
    <path class="cls-1" d="M87.42,62.42c8.88-13.51,22.06-30.11,41.08-45.62,8.31-6.77,16.45-12.29,24.01-16.79-1.04,1.53-4.9,7.56-3.29,14.82.48,2.17,1.33,3.93,2.17,5.27-2.51,3.03-7.76,10.23-9,20.77-.75,6.39.24,11.69,1.17,15.07-6.4.55-10.8,2.69-13.46,4.4-11.69,7.47-17.1,23.68-14.41,41.3,1.28,3.8,2.56,7.61,3.84,11.41-2.51-1.2-6.43-2.89-11.41-4.22-6.39-1.72-27.54-7.39-42.79,4.32-2.58,1.98-6.59,5.68-9.87,12.21-3.84-1.45-10.92-3.52-19.78-2.68-6.18.59-11.09,2.39-14.33,3.9-1.46-1.24-4.33-3.32-8.49-4.28-6.13-1.41-11.11.53-12.84,1.3,5.51-7.7,14-17.71,26.37-26.96,18.34-13.72,36.53-19.3,47.58-21.74-1.3-1.6-3.04-4.15-4.28-7.63-1.48-4.17-1.56-7.82-1.44-10.04,1.84-.43,5.8-1.09,10.5.25,4.42,1.26,7.32,3.67,8.68,4.97Z"/>
  </g>
</svg>