<?xml version="1.0" encoding="UTF-8"?>
<svg id="Layer_2" xmlns="http://www.w3.org/2000/svg" viewBox="0 0 264.5 41.94">
  <defs>
    <style>
      .cls-1 {
        fill: #1f1f1f;
      }
    </style>
  </defs>
  <g id="Layer_1-2" data-name="Layer_1">
    <path class="cls-1" d="M115.5,14.94l4-3V0l6,2.94h5l6.94-2.94,1.06,10.94,4.94,4c5.16-1.22,12.79-2.99,22.06-5,12.11-2.62,28.61-5.99,35-7,12.05-1.9,32.89-2.5,64,9-3.47-.45-11.37-.99-20,3-5.94,2.75-9.84,6.54-12,9-1.34-.93-9.39-6.29-20-4-9.96,2.15-15.02,9.51-16,11-3.21-1.78-15.27-7.99-31-5-15.72,2.99-24.67,13.17-27,16,.13-4.78-3.57-8.75-8-9-4.78-.27-9.12,3.83-9,9-2.42-2.79-10.42-11.28-24-14-15.27-3.06-27.06,3.3-30,5-1.05-1.42-7.43-9.71-19-11-10.02-1.12-17.25,3.75-19,5-1.6-2.18-5.08-6.29-11-9-8.33-3.81-16-2.32-18.5-1.72C23.92,5.41,42.08,4.56,54.5,5.94c7.53.84,15.55,2.8,38,6,9.69,1.38,17.68,2.37,23,3Z"/>
  </g>
</svg>