<?xml version="1.0" encoding="UTF-8"?>
<svg id="Layer_2" xmlns="http://www.w3.org/2000/svg" viewBox="0 0 150.5 136">
  <defs>
    <style>
      .cls-1 {
        fill: #1f1f1f;
      }
    </style>
  </defs>
  <g id="Layer_1-2" data-name="Layer_1">
    <path class="cls-1" d="M16,0c11.47,7.99,16.78,16.35,19.5,22.5,5.58,12.61,2.9,21.8,7,46,1.49,8.8,3.25,15.91,4.5,20.5,2.56-1.17,8.19-3.28,15-2,2.4.45,4.41,1.22,6,2-.17,1.16-.56,2.77-1.5,4.5-1.72,3.17-4.27,4.82-5.5,5.5,5.07.56,12.61.92,21.5-.5,12.86-2.06,18.51-6.26,26-8,8.91-2.07,22.39-1.12,42,13-6.13-2.22-12.73-1.08-17,3-3.65,3.49-4.33,7.95-4.5,9.5-1.4-.63-9-3.91-17.5-.5-10.8,4.34-13.31,15.59-13.5,16.5-6.17-2.74-17.66-6.87-32.5-6.5-17.59.44-30.52,6.97-36.5,10.5-.5-4.83-1-9.67-1.5-14.5-5.5-.17-11-.33-16.5-.5,1.87-7.23,4.63-22.15-.5-39.5-2.78-9.41-7.02-16.61-10.5-21.5,1.36-.57,10.3-4.51,13.5-14.5,2.58-8.07.45-17.06-5.5-23.5,4.78-.73,8.81-3.98,10.5-8.5,1.72-4.6.76-9.8-2.5-13.5Z"/>
  </g>
</svg>