<?xml version="1.0" encoding="UTF-8"?>
<svg id="Layer_2" xmlns="http://www.w3.org/2000/svg" viewBox="0 0 30.41 16.34">
  <defs>
    <style>
      .cls-1 {
        fill: #fff;
      }
    </style>
  </defs>
  <g id="Layer_1-2" data-name="Layer_1">
    <path class="cls-1" d="M5.14,6.07c6.33,2.33,12.67,4.67,19,7,.03.22.35,2.29,2,3,.17.07,1.3.56,2,0,.64-.52.75-1.79,0-3,.84.04,1.61-.34,2-1,.39-.66.33-1.51,0-2-.65-.97-2.71-1.12-5,0L5.14,2.52C4.68.59,3.04-.27,2.14.07c-.76.29-1.31,1.57-1,3C.23,4.1-.26,5.34.14,6.07c.52.97,2.69,1.35,5,0Z"/>
  </g>
</svg>