<?xml version="1.0" encoding="UTF-8"?>
<svg id="Layer_2" xmlns="http://www.w3.org/2000/svg" viewBox="0 0 24.36 13.47">
  <defs>
    <style>
      .cls-1 {
        fill: #fff;
      }
    </style>
  </defs>
  <g id="Layer_1-2" data-name="Layer_1">
    <path class="cls-1" d="M7.28,10.3l13-5h3c.82-.27,1.27-1.18,1-2s-1.18-1.27-2-1c.45-.74.42-1.57,0-2-.61-.62-1.75-.11-2,0-1.58.7-1.95,2.69-2,3-4.33,1.67-8.67,3.33-13,5-2.87-1.46-4.27-1.91-5-1-.37.46-.39,1.35,0,2,.6,1.02,1.93,1,2,1-.39,1.28.1,2.55,1,3,1.32.67,2.8-.79,3-1,.72-.74.93-1.6,1-2Z"/>
  </g>
</svg>