<?xml version="1.0" encoding="UTF-8"?>
<svg id="Layer_2" xmlns="http://www.w3.org/2000/svg" viewBox="0 0 26 7.07">
  <defs>
    <style>
      .cls-1 {
        fill: #fff;
      }
    </style>
  </defs>
  <g id="Layer_1-2" data-name="Layer_1">
    <path class="cls-1" d="M3.47,1.87h19.07c0-.95.78-1.73,1.73-1.73s1.73.78,1.73,1.73-.78,1.73-1.73,1.73c.95,0,1.73.78,1.73,1.73s-.78,1.73-1.73,1.73-1.73-.78-1.73-1.73H3.47c0,.95-.78,1.73-1.73,1.73S0,6.29,0,5.34s.78-1.73,1.73-1.73C.73,3.36.02,2.62,0,1.87-.04.67,1.72-.39,2.7.14c.77.42.77,1.66.77,1.73Z"/>
  </g>
</svg>