<?xml version="1.0" encoding="UTF-8"?>
<svg id="Layer_2" xmlns="http://www.w3.org/2000/svg" viewBox="0 0 26.57 62">
  <defs>
    <style>
      .cls-1 {
        fill: #9381ff;
      }
    </style>
  </defs>
  <g id="Layer_1-2" data-name="Layer_1">
    <path class="cls-1" d="M26.57,31c0-7.96-3.36-14.79-8.14-17.7L24.93,0l-7.22,2.95C16.95,1.18,15.21.01,13.29,0c-1.89-.01-3.62,1.08-4.43,2.79L2.95,0l5.3,13.25C3.41,16.11,0,22.98,0,31s3.3,14.67,8.02,17.62l-6.54,13.38,7.22-2.95c.76,1.78,2.51,2.94,4.43,2.95,1.89.01,3.62-1.08,4.43-2.79l5.9,2.79-5.27-13.17c4.91-2.82,8.39-9.73,8.39-17.83Z"/>
  </g>
</svg>