<?xml version="1.0" encoding="UTF-8"?>
<svg id="Layer_2" xmlns="http://www.w3.org/2000/svg" viewBox="0 0 112.04 144.58">
  <defs>
    <style>
      .cls-1 {
        fill: #fff;
      }

      .cls-2 {
        fill: #1f1f1f;
      }
    </style>
  </defs>
  <g id="Layer_1-2" data-name="Layer_1">
    <g>
      <path class="cls-1" d="M45.25,144.44c-6.35,2.15-21.89-19.48-32.06-45.42C4.26,76.25-8.43,43.89,7.85,18.86,9.36,16.53,21.65-1.91,34.56.16c17.64,2.83,9.96,39.69,40.08,72.14,18.08,19.48,37.3,23.92,37.4,40.08.05,8.36-5.02,17.9-10.69,18.7-7.23,1.03-12.97-12.52-18.7-10.69-4.52,1.44-2.45,10.34-8.02,13.36-6.55,3.55-14.37-6.07-21.37-2.67-6.06,2.94-4.19,12.07-8.02,13.36Z"/>
      <ellipse class="cls-2" cx="10.99" cy="33.08" rx="4" ry="6.5"/>
      <ellipse class="cls-2" cx="23.99" cy="33.08" rx="4" ry="6.5"/>
    </g>
  </g>
</svg>