<?xml version="1.0" encoding="UTF-8"?>
<svg id="Layer_2" xmlns="http://www.w3.org/2000/svg" viewBox="0 0 132.19 154.72">
  <defs>
    <style>
      .cls-1 {
        fill: #fff;
      }

      .cls-2 {
        fill: #1f1f1f;
      }
    </style>
  </defs>
  <g id="Layer_1-2" data-name="Layer_1">
    <g>
      <path class="cls-1" d="M0,146.46c22.5-18.31,28.46-34.81,30-46,3.91-28.38-18.84-44.63-10-72,1.46-4.53,7.24-20.06,22-26,14.05-5.66,32.73-1.23,42,10,14.47,17.52-5.79,37.28,6,65,11.81,27.78,45,38.14,42,44-1.58,3.09-12.1,2.73-19,1-6.68-1.67-8.91-4.33-12-3-5.28,2.28-2.43,11.65-8,15-5.13,3.09-9.92-3.44-18-1-7.24,2.19-6.61,8.39-13,10-9.05,2.27-15.61-8.84-22-6-5.24,2.33-2.91,10.72-8,15-4.08,3.44-12.72,4.05-32-6Z"/>
      <ellipse class="cls-2" cx="47" cy="29.96" rx="4" ry="6.5"/>
      <ellipse class="cls-2" cx="60" cy="29.96" rx="4" ry="6.5"/>
    </g>
  </g>
</svg>