<?xml version="1.0" encoding="UTF-8"?>
<svg id="Layer_2" xmlns="http://www.w3.org/2000/svg" viewBox="0 0 90.28 143.57">
  <defs>
    <style>
      .cls-1 {
        fill: #fff;
      }

      .cls-2 {
        fill: #1f1f1f;
      }
    </style>
  </defs>
  <g id="Layer_1-2" data-name="Layer_1">
    <path class="cls-1" d="M.28,117.34c-3.12-14.63,20.31-20.13,31.6-44.11,13.96-29.65-6.19-54.64,9.4-67.89,7.88-6.7,20.13-6.35,28-3,15.88,6.75,21.05,28.71,21,43-.1,28.44-20.92,35.5-16,58,3.09,14.12,13.93,23.38,9,32-1.65,2.89-5.14,5.81-9,6-8.76.44-13.55-13.44-19-12-4.72,1.25-3.3,12.22-9,14-4.4,1.37-9.71-3.76-11-5-7.2-6.94-6.04-15.25-10-16-4.05-.77-6.3,7.69-12,8-5.26.29-11.61-6.46-13-13Z"/>
    <ellipse class="cls-2" cx="61.28" cy="32.84" rx="4" ry="6.5"/>
    <ellipse class="cls-2" cx="74.28" cy="32.84" rx="4" ry="6.5"/>
  </g>
</svg>