<?xml version="1.0" encoding="UTF-8"?>
<svg id="Layer_2" xmlns="http://www.w3.org/2000/svg" viewBox="0 0 103.79 148.01">
  <defs>
    <style>
      .cls-1 {
        fill: #fff;
      }

      .cls-2 {
        fill: #1f1f1f;
      }
    </style>
  </defs>
  <g id="Layer_1-2" data-name="Layer_1">
    <g>
      <path class="cls-1" d="M20.89,16.01C24.26,12.35,35.23.42,51.23.01c15.29-.39,26.41,9.97,29.66,13,6.54,6.09,13.65,15.81,21,86,2.72,26.01,3.36,40.11-3.85,43.89-4.54,2.38-12.28.8-17.25-2.46-7.87-5.16-8.84-12.72-12.32-12.32-3.55.41-2.71,8.29-9.85,14.78-1.48,1.34-6.7,6.09-12.32,4.93-5.13-1.06-8.06-6.51-9.85-9.85-3.79-7.06-2.77-11.82-4.93-12.32-3.08-.71-5.09,9.04-14.78,14.78-1.48.88-8.12,4.5-12.32,2.46-6.88-3.34-4.39-20.59-1.53-42.89C10.96,37.08,9.94,27.92,20.89,16.01Z"/>
      <ellipse class="cls-2" cx="43.89" cy="33.51" rx="4" ry="6.5"/>
      <ellipse class="cls-2" cx="56.89" cy="33.51" rx="4" ry="6.5"/>
    </g>
  </g>
</svg>