<?xml version="1.0" encoding="UTF-8"?>
<svg id="Layer_2" xmlns="http://www.w3.org/2000/svg" viewBox="0 0 109.86 108.38">
  <defs>
    <style>
      .cls-1 {
        fill: #1f1f1f;
      }

      .cls-2 {
        fill: #f5853f;
      }

      .cls-3 {
        fill: #5a2a27;
      }
    </style>
  </defs>
  <g id="Layer_1-2" data-name="Layer_1">
    <g>
      <polygon class="cls-3" points="39.47 29.57 47.5 13.43 52.33 11.81 57.02 1.13 65.95 0 79.26 3.35 81.31 19.55 69.97 23.68 63.13 17.49 69.32 10.66 70.33 18.6 76.16 16.85 75.89 6.8 62.74 6.46 57.79 15.15 64.03 32.5 39.47 29.57"/>
      <path class="cls-2" d="M28.04,34.96c1.79-1.51,10.22-8.29,22.5-7.5,10.23.66,16.95,6.17,19,8,.38-.86,1.84-3.91,5-5,4.02-1.39,9.27.91,12,6,.43-1.43,1.29-3.38,3-4,3.2-1.16,7.27,3.17,9,5,7.66,8.13,18.31,32.4,5,50-7.68,10.16-19.3,12.77-23.5,13.5-.79,1.05-4.25,5.37-10.5,6.5-5.13.93-9.14-.83-10.5-1.5-.93.52-2.47,1.23-4.5,1.5-2.45.32-4.43-.15-5.5-.5-1.26.54-6.44,2.59-12.5.5-4.92-1.7-7.6-5.15-8.5-6.43-1.4-.49-23.75-8.64-27.5-28.57C-3.34,51.86,14.76,29.88,23.54,31.46c2.01.36,3.48,1.96,4.5,3.5Z"/>
      <ellipse class="cls-1" cx="41.04" cy="55.96" rx="9.5" ry="7.5" transform="translate(-9.66 8.58) rotate(-10.69)"/>
      <ellipse class="cls-1" cx="69.04" cy="56.96" rx="7.5" ry="9.5" transform="translate(1.09 115.21) rotate(-80.14)"/>
      <path class="cls-1" d="M86.63,69.96l-11,2v4s-6,1-6,1v-4c-4.13.56-8.83.96-14,1-4.77.04-9.12-.24-13-.67,0,1.41,0,2.81,0,4.22l-5-.56v-4s-12.59-3-12.59-3c1.8,3.33,6.72,11.3,16.59,16,2.6,1.24,17.05,7.74,31,0,8.94-4.96,12.77-13.04,14-16Z"/>
    </g>
  </g>
</svg>