<?xml version="1.0" encoding="UTF-8"?>
<svg id="Layer_2" xmlns="http://www.w3.org/2000/svg" viewBox="0 0 96.05 100.1">
  <defs>
    <style>
      .cls-1 {
        fill: #1f1f1f;
      }

      .cls-2 {
        fill: #f5853f;
      }

      .cls-3 {
        fill: #5a2a27;
      }
    </style>
  </defs>
  <g id="Layer_1-2" data-name="Layer_1">
    <g>
      <path class="cls-3" d="M25.08,28C37.08,10.22,43.95,6.11,48.08,6c1.1-.03,5.85.12,9-3,1.07-1.06,1.67-2.21,2-3l3,3c-.94,2.37-2.27,4.03-4,5-3.11,1.74-5.48.09-9,2-1.92,1.04-4.38,3.24-4,5,.46,2.17,4.93,2.16,10,4,3.51,1.27,8.17,3.73,13,9-9.33,1-18.67,2-28,3l-15-3Z"/>
      <path class="cls-2" d="M21.08,96c-8.51-1.84-12.89-5.68-15-8-15.57-17.11,2.86-49.72,10-58,1.8-2.08,5.99-6.94,10-6,1.45.34,2.44,1.33,3,2,1.84-2.3,4.77-3.45,7.67-3,4.48.69,6.24,4.78,6.33,5,.29-.54,2.16-3.96,6.33-5,4.7-1.17,8.28,1.68,8.67,2,.67-1.26,1.89-3.08,4-4,4.44-1.94,9.67,1.48,12,3,14,9.15,31.29,48.86,16,63-2.36,2.18-6.5,4.68-14,5-.83,1.03-2.55,2.87-5.33,4-4.68,1.9-8.94.41-10,0-1.03.95-4.04,3.47-8.67,4-5.83.67-10.05-2.29-11-3-1.03.74-5.2,3.59-11,3-4.8-.49-7.94-3.05-9-4Z"/>
      <path class="cls-1" d="M25.58,37.5l18,15c-5.94,7.2-15.93,6.83-20,2-3.39-4.02-3.1-11.65,2-17Z"/>
      <path class="cls-1" d="M52.08,52l20-8c2.37,5.51,1.44,11.39-1.78,14.03-4.28,3.51-13.58,2.08-18.22-6.03Z"/>
      <path class="cls-1" d="M20.08,63c.68.93,2.27,2.82,5,4,2.06.89,3.91,1.01,5,1v5l7,1,1-4c2.52.23,5.56.31,9,0,3.25-.29,6.1-.87,8.44-1.5l1.56,4.5,5.67-2.33-.67-4.67c1.62-.05,3.69-.28,6-1,4.26-1.33,7.18-3.66,8.78-5.17-.26,1.97-2.19,14.9-13.78,22.17-9.58,6.02-23.35,6.65-33-1-7.92-6.27-9.61-15.38-10-18Z"/>
    </g>
  </g>
</svg>