<?xml version="1.0" encoding="UTF-8"?>
<svg id="Layer_2" xmlns="http://www.w3.org/2000/svg" viewBox="0 0 93.07 107.35">
  <defs>
    <style>
      .cls-1 {
        fill: #1f1f1f;
      }

      .cls-2 {
        fill: #f5853f;
      }

      .cls-3 {
        fill: #5a2a27;
      }
    </style>
  </defs>
  <g id="Layer_1-2" data-name="Layer_1">
    <g>
      <path class="cls-3" d="M21.84,26.85c2.63,0,6.58-.31,11-2,2.81-1.07,5.05-2.41,6.71-3.58-.75-1.91-1.5-3.81-2.25-5.72l4.49-4.35-7.83-5.6-7.83,4.48,2.24,4.48,4.48-1.12v-4.02l2.69,6.71-8.29,2.9-6.71-10.07L35.08,0l14.55,10.07-5.6,6.71c3.11,2.51,7.37,5.47,12.81,8.06,5.72,2.72,10.95,4.18,15,5-3,2.67-6,5.33-9,8-11.49-2.17-22.98-4.34-34.48-6.51-2.17-1.5-4.35-2.99-6.52-4.49Z"/>
      <path class="cls-2" d="M40.34,104.35c-.95.45-8.54,3.91-16,0-4.05-2.13-6.14-5.43-7-7-2.58-2.37-19.97-18.84-17-40,2.31-16.44,16.51-32.95,23-31,1.46.44,2.4,1.78,3,3,.44-.44,3.44-3.35,8-3,5.14.39,7.76,4.59,8,5,1.13-1.21,4.18-4.13,9-5,8.28-1.5,14.38,4.38,15,5,.74-1.53,1.85-3.06,3.5-3.5,6.53-1.74,19.53,14,22.5,30.5,3.07,17.06-3.68,39.89-19,45-5.25,1.75-10.33,1.02-14,0-.84.78-4.45,3.96-10,4-4.7.03-7.97-2.22-9-3Z"/>
      <path class="cls-1" d="M27.34,42.35l18,15c-5.94,7.2-15.93,6.83-20,2-3.39-4.02-3.1-11.65,2-17Z"/>
      <path class="cls-1" d="M53.84,56.85l20-8c2.37,5.51,1.44,11.39-1.78,14.03-4.28,3.51-13.58,2.08-18.22-6.03Z"/>
      <path class="cls-1" d="M21.84,67.85c.68.93,2.27,2.82,5,4,2.06.89,3.91,1.01,5,1v5l7,1,1-4c2.52.23,5.56.31,9,0,3.25-.29,6.1-.87,8.44-1.5l1.56,4.5,5.67-2.33-.67-4.67c1.62-.05,3.69-.28,6-1,4.26-1.33,7.18-3.66,8.78-5.17-.26,1.97-2.19,14.9-13.78,22.17-9.58,6.02-23.35,6.65-33-1-7.92-6.27-9.61-15.38-10-18Z"/>
    </g>
  </g>
</svg>