<?xml version="1.0" encoding="UTF-8"?>
<svg id="Layer_2" xmlns="http://www.w3.org/2000/svg" viewBox="0 0 91.81 100.1">
  <defs>
    <style>
      .cls-1 {
        fill: #1f1f1f;
      }

      .cls-2 {
        fill: #f5853f;
      }

      .cls-3 {
        fill: #5a2a27;
      }
    </style>
  </defs>
  <g id="Layer_1-2" data-name="Layer_1">
    <g>
      <g>
        <path class="cls-3" d="M57.34,17.55c-1.88-1.23-2.51-2.31-4.54-3.32-3.47-1.73-5.25-1.02-6.46-2.22-1.17-1.17-1.7-4.07,2-12l-9,3v9.72c-.72,1.01-1.69,2.13-3,3.22-4.07,3.4-8.88,4.46-11,4.81,1,1.6,2,3.21,3,4.81l19.1,2.32c6.3-1.84,12.6-3.69,18.9-5.53-2.64-1.13-5.76-2.69-9-4.81Z"/>
        <path class="cls-2" d="M50.84,26.5c3.79-4.23,7.36-5.6,10-6,12.5-1.9,26.53,14.53,30,30,4.46,19.87-6.86,45.43-25,49-8.5,1.67-16.21-1.94-20.5-4.5-3.93,2.64-10.06,5.71-17.15,5-15.94-1.6-26.04-21.22-27.85-36C-2.26,42.87,10.49,18.71,22.84,18.5c4.48-.08,8.42,3.01,11.5,6.5,1.39-3.48,4.83-5.7,8.5-5.5,3.89.21,7.21,3.09,8,7Z"/>
      </g>
      <path class="cls-1" d="M54.34,58c.64-.84,3.28-4.11,8-5,5.99-1.13,10.41,2.5,11,3-4.9-10.57-12.38-15.55-16-14-3.18,1.36-4.4,8.2-3,16Z"/>
      <path class="cls-1" d="M25.34,53c.34-.27,5.15-3.97,11-2,5.09,1.72,6.92,6.38,7.15,7,2.59-6.77-.2-13.39-4.15-15-4.38-1.79-12.05,1.81-14,10Z"/>
      <path class="cls-1" d="M22.84,62.5c2.53,1.89,6.2,4.21,11,6,4.1,1.53,7.8,2.22,10.65,2.54v2.96l6.47.59v-4.74c1.91.13,4.25.1,6.87-.35,5.53-.95,9.62-3.32,12-5-.48,2.11-1.52,5.5-4,9-2.07,2.92-4.37,4.84-6,6-.33-1.33-.67-2.67-1-4l-5.08,2.35v5.04l-10.92.61v-5l-6-1v4c-1.96-.94-4.53-2.49-7-5-5.15-5.24-6.56-11.35-7-14Z"/>
    </g>
  </g>
</svg>