<?xml version="1.0" encoding="UTF-8"?>
<svg id="Layer_2" xmlns="http://www.w3.org/2000/svg" viewBox="0 0 93.07 107.35">
  <defs>
    <style>
      .cls-1 {
        fill: #1f1f1f;
      }

      .cls-2 {
        fill: #f5853f;
      }

      .cls-3 {
        fill: #5a2a27;
      }
    </style>
  </defs>
  <g id="Layer_1-2" data-name="Layer_1">
    <g>
      <path class="cls-3" d="M21.84,26.85c2.63,0,6.58-.31,11-2,2.81-1.07,5.05-2.41,6.71-3.58-.75-1.91-1.5-3.81-2.25-5.72l4.49-4.35-7.83-5.6-7.83,4.48,2.24,4.48,4.48-1.12v-4.02l2.69,6.71-8.29,2.9-6.71-10.07L35.08,0l14.55,10.07-5.6,6.71c3.11,2.51,7.37,5.47,12.81,8.06,5.72,2.72,10.95,4.18,15,5-3,2.67-6,5.33-9,8-11.49-2.17-22.98-4.34-34.48-6.51-2.17-1.5-4.35-2.99-6.52-4.49Z"/>
      <path class="cls-2" d="M40.34,104.35c-.95.45-8.54,3.91-16,0-4.05-2.13-6.14-5.43-7-7-2.58-2.37-19.97-18.84-17-40,2.31-16.44,16.51-32.95,23-31,1.46.44,2.4,1.78,3,3,.44-.44,3.44-3.35,8-3,5.14.39,7.76,4.59,8,5,1.13-1.21,4.18-4.13,9-5,8.28-1.5,14.38,4.38,15,5,.74-1.53,1.85-3.06,3.5-3.5,6.53-1.74,19.53,14,22.5,30.5,3.07,17.06-3.68,39.89-19,45-5.25,1.75-10.33,1.02-14,0-.84.78-4.45,3.96-10,4-4.7.03-7.97-2.22-9-3Z"/>
      <path class="cls-1" d="M53.84,61.85c.64-.84,3.28-4.11,8-5,5.99-1.13,10.41,2.5,11,3-4.9-10.57-12.38-15.55-16-14-3.18,1.36-4.4,8.2-3,16Z"/>
      <path class="cls-1" d="M24.84,56.85c.34-.27,5.15-3.97,11-2,5.09,1.72,6.92,6.38,7.15,7,2.59-6.77-.2-13.39-4.15-15-4.38-1.79-12.05,1.81-14,10Z"/>
      <path class="cls-1" d="M22.34,66.35c2.53,1.89,6.2,4.21,11,6,4.1,1.53,7.8,2.22,10.65,2.54v2.96l6.47.59v-4.74c1.91.13,4.25.1,6.87-.35,5.53-.95,9.62-3.32,12-5-.48,2.11-1.52,5.5-4,9-2.07,2.92-4.37,4.84-6,6-.33-1.33-.67-2.67-1-4l-5.08,2.35v5.04l-10.92.61v-5l-6-1v4c-1.96-.94-4.53-2.49-7-5-5.15-5.24-6.56-11.35-7-14Z"/>
    </g>
  </g>
</svg>