<?xml version="1.0" encoding="UTF-8"?>
<svg id="Layer_2" xmlns="http://www.w3.org/2000/svg" viewBox="0 0 109.86 108.38">
  <defs>
    <style>
      .cls-1 {
        fill: #1f1f1f;
      }

      .cls-2 {
        fill: #f5853f;
      }

      .cls-3 {
        fill: #5a2a27;
      }
    </style>
  </defs>
  <g id="Layer_1-2" data-name="Layer_1">
    <g>
      <polygon class="cls-3" points="39.47 29.57 47.5 13.43 52.33 11.81 57.02 1.13 65.95 0 79.26 3.35 81.31 19.55 69.97 23.68 63.13 17.49 69.32 10.66 70.33 18.6 76.16 16.85 75.89 6.8 62.74 6.46 57.79 15.15 64.03 32.5 39.47 29.57"/>
      <path class="cls-2" d="M28.04,34.96c1.79-1.51,10.22-8.29,22.5-7.5,10.23.66,16.95,6.17,19,8,.38-.86,1.84-3.91,5-5,4.02-1.39,9.27.91,12,6,.43-1.43,1.29-3.38,3-4,3.2-1.16,7.27,3.17,9,5,7.66,8.13,18.31,32.4,5,50-7.68,10.16-19.3,12.77-23.5,13.5-.79,1.05-4.25,5.37-10.5,6.5-5.13.93-9.14-.83-10.5-1.5-.93.52-2.47,1.23-4.5,1.5-2.45.32-4.43-.15-5.5-.5-1.26.54-6.44,2.59-12.5.5-4.92-1.7-7.6-5.15-8.5-6.43-1.4-.49-23.75-8.64-27.5-28.57C-3.34,51.86,14.76,29.88,23.54,31.46c2.01.36,3.48,1.96,4.5,3.5Z"/>
      <path class="cls-1" d="M33.54,46.46l18,15c-5.94,7.2-15.93,6.83-20,2-3.39-4.02-3.1-11.65,2-17Z"/>
      <path class="cls-1" d="M60.04,60.96l20-8c2.37,5.51,1.44,11.39-1.78,14.03-4.28,3.51-13.58,2.08-18.22-6.03Z"/>
      <path class="cls-1" d="M28.04,71.96c.68.93,2.27,2.82,5,4,2.06.89,3.91,1.01,5,1v5l7,1,1-4c2.52.23,5.56.31,9,0,3.25-.29,6.1-.87,8.44-1.5l1.56,4.5,5.67-2.33-.67-4.67c1.62-.05,3.69-.28,6-1,4.26-1.33,7.18-3.66,8.78-5.17-.26,1.97-2.19,14.9-13.78,22.17-9.58,6.02-23.35,6.65-33-1-7.92-6.27-9.61-15.38-10-18Z"/>
    </g>
  </g>
</svg>