<?xml version="1.0" encoding="UTF-8"?>
<svg id="Layer_2" xmlns="http://www.w3.org/2000/svg" viewBox="0 0 93.07 107.35">
  <defs>
    <style>
      .cls-1 {
        fill: #1f1f1f;
      }

      .cls-2 {
        fill: #f5853f;
      }

      .cls-3 {
        fill: #5a2a27;
      }
    </style>
  </defs>
  <g id="Layer_1-2" data-name="Layer_1">
    <g>
      <path class="cls-3" d="M21.84,26.85c2.63,0,6.58-.31,11-2,2.81-1.07,5.05-2.41,6.71-3.58-.75-1.91-1.5-3.81-2.25-5.72l4.49-4.35-7.83-5.6-7.83,4.48,2.24,4.48,4.48-1.12v-4.02l2.69,6.71-8.29,2.9-6.71-10.07L35.08,0l14.55,10.07-5.6,6.71c3.11,2.51,7.37,5.47,12.81,8.06,5.72,2.72,10.95,4.18,15,5-3,2.67-6,5.33-9,8-11.49-2.17-22.98-4.34-34.48-6.51-2.17-1.5-4.35-2.99-6.52-4.49Z"/>
      <g>
        <path class="cls-2" d="M40.34,104.35c-.95.45-8.54,3.91-16,0-4.05-2.13-6.14-5.43-7-7-2.58-2.37-19.97-18.84-17-40,2.31-16.44,16.51-32.95,23-31,1.46.44,2.4,1.78,3,3,.44-.44,3.44-3.35,8-3,5.14.39,7.76,4.59,8,5,1.13-1.21,4.18-4.13,9-5,8.28-1.5,14.38,4.38,15,5,.74-1.53,1.85-3.06,3.5-3.5,6.53-1.74,19.53,14,22.5,30.5,3.07,17.06-3.68,39.89-19,45-5.25,1.75-10.33,1.02-14,0-.84.78-4.45,3.96-10,4-4.7.03-7.97-2.22-9-3Z"/>
        <g>
          <path class="cls-1" d="M40.84,42.85c2.98,1.63,3.81,5.17,4,6,1.69,7.23-4.03,16.87-11.5,17.5-3.26.28-7.41-1.12-9.5-4.5-3.13-5.05.46-11.1,1-12,3.33-5.6,11.09-9.69,16-7Z"/>
          <path class="cls-1" d="M49.84,49.85c1.82-3.31,5.75-3.96,6-4,5.57-.83,11.38,4.31,12,10,.41,3.74-1.33,8.55-5,10-2.17.86-4.25.23-5,0-6-1.89-11.01-10.53-8-16Z"/>
          <path class="cls-1" d="M42.32,70.34l3.51-6.05c.37-.63,1.27-.67,1.69-.07l4.21,6.05c.46.66-.01,1.57-.82,1.57h-7.73c-.77,0-1.25-.84-.87-1.5Z"/>
          <path class="cls-1" d="M75.94,67.85v3c-1.33,1-2.67,2-4,3v-3c-1.67,1-3.33,2-5,3v3c-1.33.67-2.67,1.33-4,2-.33-1-.67-2-1-3-2,.67-4,1.33-6,2v2.78l-5.57.78v-3.89h-5.97v3.89l-5.57-.78v-2.78c-2-.67-4-1.33-6-2-.33,1-.67,2-1,3-1.33-.67-2.67-1.33-4-2v-3c-1.67-1-3.33-2-5-3v3c-1.33-1-2.67-2-4-3v-3l-6-6c.89,3.65,3.29,11.25,10,18,2.18,2.19,11.12,11.19,25,11,13.09-.18,21.52-8.4,24.1-11,6.72-6.77,9.11-14.38,10-18l-6,6Z"/>
        </g>
      </g>
    </g>
  </g>
</svg>