<?xml version="1.0" encoding="UTF-8"?>
<svg id="Layer_2" xmlns="http://www.w3.org/2000/svg" viewBox="0 0 109.86 108.38">
  <defs>
    <style>
      .cls-1 {
        fill: #1f1f1f;
      }

      .cls-2 {
        fill: #f5853f;
      }

      .cls-3 {
        fill: #5a2a27;
      }
    </style>
  </defs>
  <g id="Layer_1-2" data-name="Layer_1">
    <g>
      <polygon class="cls-3" points="39.47 29.57 47.5 13.43 52.33 11.81 57.02 1.13 65.95 0 79.26 3.35 81.31 19.55 69.97 23.68 63.13 17.49 69.32 10.66 70.33 18.6 76.16 16.85 75.89 6.8 62.74 6.46 57.79 15.15 64.03 32.5 39.47 29.57"/>
      <path class="cls-2" d="M28.04,34.96c1.79-1.51,10.22-8.29,22.5-7.5,10.23.66,16.95,6.17,19,8,.38-.86,1.84-3.91,5-5,4.02-1.39,9.27.91,12,6,.43-1.43,1.29-3.38,3-4,3.2-1.16,7.27,3.17,9,5,7.66,8.13,18.31,32.4,5,50-7.68,10.16-19.3,12.77-23.5,13.5-.79,1.05-4.25,5.37-10.5,6.5-5.13.93-9.14-.83-10.5-1.5-.93.52-2.47,1.23-4.5,1.5-2.45.32-4.43-.15-5.5-.5-1.26.54-6.44,2.59-12.5.5-4.92-1.7-7.6-5.15-8.5-6.43-1.4-.49-23.75-8.64-27.5-28.57C-3.34,51.86,14.76,29.88,23.54,31.46c2.01.36,3.48,1.96,4.5,3.5Z"/>
      <path class="cls-1" d="M50.04,43.96c2.98,1.63,3.81,5.17,4,6,1.69,7.23-4.03,16.87-11.5,17.5-3.26.28-7.41-1.12-9.5-4.5-3.13-5.05.46-11.1,1-12,3.33-5.6,11.09-9.69,16-7Z"/>
      <path class="cls-1" d="M59.04,50.96c1.82-3.31,5.75-3.96,6-4,5.57-.83,11.38,4.31,12,10,.41,3.74-1.33,8.55-5,10-2.17.86-4.25.23-5,0-6-1.89-11.01-10.53-8-16Z"/>
      <path class="cls-1" d="M51.52,71.45l3.51-6.05c.37-.63,1.27-.67,1.69-.07l4.21,6.05c.46.66-.01,1.57-.82,1.57h-7.73c-.77,0-1.25-.84-.87-1.5Z"/>
      <path class="cls-1" d="M85.14,68.96v3c-1.33,1-2.67,2-4,3v-3c-1.67,1-3.33,2-5,3v3c-1.33.67-2.67,1.33-4,2-.33-1-.67-2-1-3-2,.67-4,1.33-6,2v2.78l-5.57.78v-3.89h-5.97v3.89l-5.57-.78v-2.78c-2-.67-4-1.33-6-2-.33,1-.67,2-1,3-1.33-.67-2.67-1.33-4-2v-3c-1.67-1-3.33-2-5-3v3c-1.33-1-2.67-2-4-3v-3l-6-6c.89,3.65,3.29,11.25,10,18,2.18,2.19,11.12,11.19,25,11,13.09-.18,21.52-8.4,24.1-11,6.72-6.77,9.11-14.38,10-18l-6,6Z"/>
    </g>
  </g>
</svg>