<?xml version="1.0" encoding="UTF-8"?>
<svg id="Layer_2" xmlns="http://www.w3.org/2000/svg" viewBox="0 0 96.05 100.1">
  <defs>
    <style>
      .cls-1 {
        fill: #1f1f1f;
      }

      .cls-2 {
        fill: #f5853f;
      }

      .cls-3 {
        fill: #5a2a27;
      }
    </style>
  </defs>
  <g id="Layer_1-2" data-name="Layer_1">
    <g>
      <path class="cls-3" d="M25.08,28C37.08,10.22,43.95,6.11,48.08,6c1.1-.03,5.85.12,9-3,1.07-1.06,1.67-2.21,2-3l3,3c-.94,2.37-2.27,4.03-4,5-3.11,1.74-5.48.09-9,2-1.92,1.04-4.38,3.24-4,5,.46,2.17,4.93,2.16,10,4,3.51,1.27,8.17,3.73,13,9-9.33,1-18.67,2-28,3l-15-3Z"/>
      <path class="cls-2" d="M21.08,96c-8.51-1.84-12.89-5.68-15-8-15.57-17.11,2.86-49.72,10-58,1.8-2.08,5.99-6.94,10-6,1.45.34,2.44,1.33,3,2,1.84-2.3,4.77-3.45,7.67-3,4.48.69,6.24,4.78,6.33,5,.29-.54,2.16-3.96,6.33-5,4.7-1.17,8.28,1.68,8.67,2,.67-1.26,1.89-3.08,4-4,4.44-1.94,9.67,1.48,12,3,14,9.15,31.29,48.86,16,63-2.36,2.18-6.5,4.68-14,5-.83,1.03-2.55,2.87-5.33,4-4.68,1.9-8.94.41-10,0-1.03.95-4.04,3.47-8.67,4-5.83.67-10.05-2.29-11-3-1.03.74-5.2,3.59-11,3-4.8-.49-7.94-3.05-9-4Z"/>
      <path class="cls-1" d="M55.08,58c.64-.84,3.28-4.11,8-5,5.99-1.13,10.41,2.5,11,3-4.9-10.57-12.38-15.55-16-14-3.18,1.36-4.4,8.2-3,16Z"/>
      <path class="cls-1" d="M26.08,53c.34-.27,5.15-3.97,11-2,5.09,1.72,6.92,6.38,7.15,7,2.59-6.77-.2-13.39-4.15-15-4.38-1.79-12.05,1.81-14,10Z"/>
      <path class="cls-1" d="M23.58,62.5c2.53,1.89,6.2,4.21,11,6,4.1,1.53,7.8,2.22,10.65,2.54v2.96l6.47.59v-4.74c1.91.13,4.25.1,6.87-.35,5.53-.95,9.62-3.32,12-5-.48,2.11-1.52,5.5-4,9-2.07,2.92-4.37,4.84-6,6-.33-1.33-.67-2.67-1-4l-5.08,2.35v5.04l-10.92.61v-5l-6-1v4c-1.96-.94-4.53-2.49-7-5-5.15-5.24-6.56-11.35-7-14Z"/>
    </g>
  </g>
</svg>