<?xml version="1.0" encoding="UTF-8"?>
<svg id="Layer_2" xmlns="http://www.w3.org/2000/svg" viewBox="0 0 93.07 107.35">
  <defs>
    <style>
      .cls-1 {
        fill: #1f1f1f;
      }

      .cls-2 {
        fill: #f5853f;
      }

      .cls-3 {
        fill: #5a2a27;
      }
    </style>
  </defs>
  <g id="Layer_1-2" data-name="Layer_1">
    <g>
      <path class="cls-3" d="M21.84,26.85c2.63,0,6.58-.31,11-2,2.81-1.07,5.05-2.41,6.71-3.58-.75-1.91-1.5-3.81-2.25-5.72l4.49-4.35-7.83-5.6-7.83,4.48,2.24,4.48,4.48-1.12v-4.02l2.69,6.71-8.29,2.9-6.71-10.07L35.08,0l14.55,10.07-5.6,6.71c3.11,2.51,7.37,5.47,12.81,8.06,5.72,2.72,10.95,4.18,15,5-3,2.67-6,5.33-9,8-11.49-2.17-22.98-4.34-34.48-6.51-2.17-1.5-4.35-2.99-6.52-4.49Z"/>
      <path class="cls-2" d="M40.34,104.35c-.95.45-8.54,3.91-16,0-4.05-2.13-6.14-5.43-7-7-2.58-2.37-19.97-18.84-17-40,2.31-16.44,16.51-32.95,23-31,1.46.44,2.4,1.78,3,3,.44-.44,3.44-3.35,8-3,5.14.39,7.76,4.59,8,5,1.13-1.21,4.18-4.13,9-5,8.28-1.5,14.38,4.38,15,5,.74-1.53,1.85-3.06,3.5-3.5,6.53-1.74,19.53,14,22.5,30.5,3.07,17.06-3.68,39.89-19,45-5.25,1.75-10.33,1.02-14,0-.84.78-4.45,3.96-10,4-4.7.03-7.97-2.22-9-3Z"/>
      <g>
        <polygon class="cls-1" points="15.34 57.85 24.34 42.85 32.73 57.85 15.34 57.85"/>
        <polygon class="cls-1" points="44.34 57.85 53.34 42.85 61.73 57.85 44.34 57.85"/>
        <polygon class="cls-1" points="32.24 71.85 38.24 61.85 43.83 71.85 32.24 71.85"/>
        <path class="cls-1" d="M11.84,64.85l15,12v4.56h7.41v-2.81h11.59v2.81h8v-5.48l14-12.07c-.17,2.38-1.08,10.83-8,18-5.97,6.18-12.97,7.83-15.5,8.3v-2.96h-9.5v2.96c-2.23-.42-11.72-2.45-18-11.3-3.97-5.58-4.79-11.25-5-14Z"/>
      </g>
    </g>
  </g>
</svg>