<?xml version="1.0" encoding="UTF-8"?>
<svg id="Layer_2" xmlns="http://www.w3.org/2000/svg" viewBox="0 0 95.88 112.36">
  <defs>
    <style>
      .cls-1 {
        fill: #1f1f1f;
      }

      .cls-2 {
        fill: #f5853f;
      }

      .cls-3 {
        fill: #5a2a27;
      }
    </style>
  </defs>
  <g id="Layer_1-2" data-name="Layer_1">
    <g>
      <path class="cls-3" d="M29.31,32.35c3-2.67,6-5.33,9-8-1.6-10,3.59-19.53,12-23,10.13-4.18,19.55,2.62,20,2.96v4.15c-6.07-5.62-14.36-6.05-19-2.11-4.01,3.4-4.02,8.97-4,10,1.03,2.36,2.84,5.72,6,9,4.81,5,10.17,7.11,13,8-2.33,1.33-4.67,2.67-7,4l-27.42,1.93-2.58-6.93Z"/>
      <path class="cls-2" d="M29.31,109.35c-.77.18-15.49,3.44-24-6C-1.46,95.85.08,85.72.31,84.35c1.55-9.17,7.31-8.34,10.5-19.5,1.7-5.93,2.51-14.69,3-20,.31-3.31.45-5.87,2-9,.66-1.33,4.82-9.31,10.5-8.5,4.56.65,6.81,6.49,7,7,.7-.91,5.04-6.31,12.78-7,8.06-.72,13.43,4.24,14.22,5,1.39-2.76,3.08-5.02,5-5,3.87.03,4.89,9.06,11,20,8.04,14.41,14.61,13.65,18,25,.85,2.84,3.55,11.86-1,21-5.18,10.42-16.02,13.48-18,14-1,.96-5.33,4.91-12,5-5.02.07-8.64-2.09-10-3-2.05,1.09-6.55,3.13-12.56,3-5.39-.12-9.42-1.92-11.44-3Z"/>
      <path class="cls-1" d="M26.81,48.85l18,15c-5.94,7.2-15.93,6.83-20,2-3.39-4.02-3.1-11.65,2-17Z"/>
      <path class="cls-1" d="M53.31,63.35l20-8c2.37,5.51,1.44,11.39-1.78,14.03-4.28,3.51-13.58,2.08-18.22-6.03Z"/>
      <path class="cls-1" d="M21.31,74.35c.68.93,2.27,2.82,5,4,2.06.89,3.91,1.01,5,1v5l7,1,1-4c2.52.23,5.56.31,9,0,3.25-.29,6.1-.87,8.44-1.5l1.56,4.5,5.67-2.33-.67-4.67c1.62-.05,3.69-.28,6-1,4.26-1.33,7.18-3.66,8.78-5.17-.26,1.97-2.19,14.9-13.78,22.17-9.58,6.02-23.35,6.65-33-1-7.92-6.27-9.61-15.38-10-18Z"/>
    </g>
  </g>
</svg>