<?xml version="1.0" encoding="UTF-8"?>
<svg id="Layer_2" xmlns="http://www.w3.org/2000/svg" viewBox="0 0 91.81 100.1">
  <defs>
    <style>
      .cls-1 {
        fill: #1f1f1f;
      }

      .cls-2 {
        fill: #f5853f;
      }

      .cls-3 {
        fill: #5a2a27;
      }
    </style>
  </defs>
  <g id="Layer_1-2" data-name="Layer_1">
    <g>
      <path class="cls-3" d="M57.34,17.55c-1.88-1.23-2.51-2.31-4.54-3.32-3.47-1.73-5.25-1.02-6.46-2.22-1.17-1.17-1.7-4.07,2-12l-9,3v9.72c-.72,1.01-1.69,2.13-3,3.22-4.07,3.4-8.88,4.46-11,4.81,1,1.6,2,3.21,3,4.81l19.1,2.32c6.3-1.84,12.6-3.69,18.9-5.53-2.64-1.13-5.76-2.69-9-4.81Z"/>
      <path class="cls-2" d="M50.84,26.5c3.79-4.23,7.36-5.6,10-6,12.5-1.9,26.53,14.53,30,30,4.46,19.87-6.86,45.43-25,49-8.5,1.67-16.21-1.94-20.5-4.5-3.93,2.64-10.06,5.71-17.15,5-15.94-1.6-26.04-21.22-27.85-36C-2.26,42.87,10.49,18.71,22.84,18.5c4.48-.08,8.42,3.01,11.5,6.5,1.39-3.48,4.83-5.7,8.5-5.5,3.89.21,7.21,3.09,8,7Z"/>
      <path class="cls-1" d="M41.34,39c2.98,1.63,3.81,5.17,4,6,1.69,7.23-4.03,16.87-11.5,17.5-3.26.28-7.41-1.12-9.5-4.5-3.13-5.05.46-11.1,1-12,3.33-5.6,11.09-9.69,16-7Z"/>
      <path class="cls-1" d="M50.34,46c1.82-3.31,5.75-3.96,6-4,5.57-.83,11.38,4.31,12,10,.41,3.74-1.33,8.55-5,10-2.17.86-4.25.23-5,0-6-1.89-11.01-10.53-8-16Z"/>
      <path class="cls-1" d="M42.82,66.5l3.51-6.05c.37-.63,1.27-.67,1.69-.07l4.21,6.05c.46.66-.01,1.57-.82,1.57h-7.73c-.77,0-1.25-.84-.87-1.5Z"/>
      <path class="cls-1" d="M76.44,64v3c-1.33,1-2.67,2-4,3v-3c-1.67,1-3.33,2-5,3v3c-1.33.67-2.67,1.33-4,2-.33-1-.67-2-1-3-2,.67-4,1.33-6,2v2.78l-5.57.78v-3.89h-5.97v3.89l-5.57-.78v-2.78c-2-.67-4-1.33-6-2-.33,1-.67,2-1,3-1.33-.67-2.67-1.33-4-2v-3c-1.67-1-3.33-2-5-3v3c-1.33-1-2.67-2-4-3v-3l-6-6c.89,3.65,3.29,11.25,10,18,2.18,2.19,11.12,11.19,25,11,13.09-.18,21.52-8.4,24.1-11,6.72-6.77,9.11-14.38,10-18l-6,6Z"/>
    </g>
  </g>
</svg>