<?xml version="1.0" encoding="UTF-8"?>
<svg id="Layer_2" xmlns="http://www.w3.org/2000/svg" viewBox="0 0 91.81 100.1">
  <defs>
    <style>
      .cls-1 {
        fill: #f5853f;
      }

      .cls-2 {
        fill: none;
        stroke: #f36b16;
        stroke-miterlimit: 10;
        stroke-width: 2px;
      }

      .cls-3 {
        fill: #5a2a27;
      }
    </style>
  </defs>
  <g id="Layer_1-2" data-name="Layer_1">
    <g>
      <path class="cls-3" d="M57.34,17.55c-1.88-1.23-2.51-2.31-4.54-3.32-3.47-1.73-5.25-1.02-6.46-2.22-1.17-1.17-1.7-4.07,2-12l-9,3v9.72c-.72,1.01-1.69,2.13-3,3.22-4.07,3.4-8.88,4.46-11,4.81,1,1.6,2,3.21,3,4.81l19.1,2.32c6.3-1.84,12.6-3.69,18.9-5.53-2.64-1.13-5.76-2.69-9-4.81Z"/>
      <path class="cls-1" d="M50.84,26.5c3.79-4.23,7.36-5.6,10-6,12.5-1.9,26.53,14.53,30,30,4.46,19.87-6.86,45.43-25,49-8.5,1.67-16.21-1.94-20.5-4.5-3.93,2.64-10.06,5.71-17.15,5-15.94-1.6-26.04-21.22-27.85-36C-2.26,42.87,10.49,18.71,22.84,18.5c4.48-.08,8.42,3.01,11.5,6.5,1.39-3.48,4.83-5.7,8.5-5.5,3.89.21,7.21,3.09,8,7Z"/>
      <path class="cls-2" d="M32.34,33c-1.99,4.89-4.45,12.7-4.5,22.5-.08,14.53,5.15,25.4,8.06,30.5"/>
      <path class="cls-2" d="M54.39,33c1.99,4.89,4.45,12.7,4.5,22.5.08,14.53-5.15,25.4-8.06,30.5"/>
    </g>
  </g>
</svg>