<?xml version="1.0" encoding="UTF-8"?>
<svg id="Layer_2" xmlns="http://www.w3.org/2000/svg" viewBox="0 0 91.81 100.1">
  <defs>
    <style>
      .cls-1 {
        fill: #1f1f1f;
      }

      .cls-2 {
        fill: #f5853f;
      }

      .cls-3 {
        fill: #5a2a27;
      }
    </style>
  </defs>
  <g id="Layer_1-2" data-name="Layer_1">
    <g>
      <g>
        <path class="cls-3" d="M57.34,17.55c-1.88-1.23-2.51-2.31-4.54-3.32-3.47-1.73-5.25-1.02-6.46-2.22-1.17-1.17-1.7-4.07,2-12l-9,3v9.72c-.72,1.01-1.69,2.13-3,3.22-4.07,3.4-8.88,4.46-11,4.81,1,1.6,2,3.21,3,4.81l19.1,2.32c6.3-1.84,12.6-3.69,18.9-5.53-2.64-1.13-5.76-2.69-9-4.81Z"/>
        <path class="cls-2" d="M50.84,26.5c3.79-4.23,7.36-5.6,10-6,12.5-1.9,26.53,14.53,30,30,4.46,19.87-6.86,45.43-25,49-8.5,1.67-16.21-1.94-20.5-4.5-3.93,2.64-10.06,5.71-17.15,5-15.94-1.6-26.04-21.22-27.85-36C-2.26,42.87,10.49,18.71,22.84,18.5c4.48-.08,8.42,3.01,11.5,6.5,1.39-3.48,4.83-5.7,8.5-5.5,3.89.21,7.21,3.09,8,7Z"/>
      </g>
      <g>
        <polygon class="cls-1" points="20.84 54 29.84 39 38.23 54 20.84 54"/>
        <polygon class="cls-1" points="49.84 54 58.84 39 67.23 54 49.84 54"/>
        <polygon class="cls-1" points="37.74 68 43.74 58 49.33 68 37.74 68"/>
        <path class="cls-1" d="M17.34,61l15,12v4.56h7.41v-2.81h11.59v2.81h8v-5.48l14-12.07c-.17,2.38-1.08,10.83-8,18-5.97,6.18-12.97,7.83-15.5,8.3v-2.96h-9.5v2.96c-2.23-.42-11.72-2.45-18-11.3-3.97-5.58-4.79-11.25-5-14Z"/>
      </g>
    </g>
  </g>
</svg>