<?xml version="1.0" encoding="UTF-8"?>
<svg id="Layer_2" xmlns="http://www.w3.org/2000/svg" viewBox="0 0 109.86 108.38">
  <defs>
    <style>
      .cls-1 {
        fill: #1f1f1f;
      }

      .cls-2 {
        fill: #f5853f;
      }

      .cls-3 {
        fill: #5a2a27;
      }
    </style>
  </defs>
  <g id="Layer_1-2" data-name="Layer_1">
    <g>
      <g>
        <polygon class="cls-3" points="39.47 29.57 47.5 13.43 52.33 11.81 57.02 1.13 65.95 0 79.26 3.35 81.31 19.55 69.97 23.68 63.13 17.49 69.32 10.66 70.33 18.6 76.16 16.85 75.89 6.8 62.74 6.46 57.79 15.15 64.03 32.5 39.47 29.57"/>
        <path class="cls-2" d="M28.04,34.96c1.79-1.51,10.22-8.29,22.5-7.5,10.23.66,16.95,6.17,19,8,.38-.86,1.84-3.91,5-5,4.02-1.39,9.27.91,12,6,.43-1.43,1.29-3.38,3-4,3.2-1.16,7.27,3.17,9,5,7.66,8.13,18.31,32.4,5,50-7.68,10.16-19.3,12.77-23.5,13.5-.79,1.05-4.25,5.37-10.5,6.5-5.13.93-9.14-.83-10.5-1.5-.93.52-2.47,1.23-4.5,1.5-2.45.32-4.43-.15-5.5-.5-1.26.54-6.44,2.59-12.5.5-4.92-1.7-7.6-5.15-8.5-6.43-1.4-.49-23.75-8.64-27.5-28.57C-3.34,51.86,14.76,29.88,23.54,31.46c2.01.36,3.48,1.96,4.5,3.5Z"/>
      </g>
      <path class="cls-1" d="M62.04,60.96c.64-.84,3.28-4.11,8-5,5.99-1.13,10.41,2.5,11,3-4.9-10.57-12.38-15.55-16-14-3.18,1.36-4.4,8.2-3,16Z"/>
      <path class="cls-1" d="M33.04,55.96c.34-.27,5.15-3.97,11-2,5.09,1.72,6.92,6.38,7.15,7,2.59-6.77-.2-13.39-4.15-15-4.38-1.79-12.05,1.81-14,10Z"/>
      <path class="cls-1" d="M30.54,65.46c2.53,1.89,6.2,4.21,11,6,4.1,1.53,7.8,2.22,10.65,2.54v2.96l6.47.59v-4.74c1.91.13,4.25.1,6.87-.35,5.53-.95,9.62-3.32,12-5-.48,2.11-1.52,5.5-4,9-2.07,2.92-4.37,4.84-6,6-.33-1.33-.67-2.67-1-4l-5.08,2.35v5.04l-10.92.61v-5l-6-1v4c-1.96-.94-4.53-2.49-7-5-5.15-5.24-6.56-11.35-7-14Z"/>
    </g>
  </g>
</svg>