<?xml version="1.0" encoding="UTF-8"?>
<svg id="Layer_2" xmlns="http://www.w3.org/2000/svg" viewBox="0 0 95.88 112.36">
  <defs>
    <style>
      .cls-1 {
        fill: #1f1f1f;
      }

      .cls-2 {
        fill: #f5853f;
      }

      .cls-3 {
        fill: #5a2a27;
      }
    </style>
  </defs>
  <g id="Layer_1-2" data-name="Layer_1">
    <g>
      <path class="cls-3" d="M29.31,32.35c3-2.67,6-5.33,9-8-1.6-10,3.59-19.53,12-23,10.13-4.18,19.55,2.62,20,2.96v4.15c-6.07-5.62-14.36-6.05-19-2.11-4.01,3.4-4.02,8.97-4,10,1.03,2.36,2.84,5.72,6,9,4.81,5,10.17,7.11,13,8-2.33,1.33-4.67,2.67-7,4l-27.42,1.93-2.58-6.93Z"/>
      <path class="cls-2" d="M29.31,109.35c-.77.18-15.49,3.44-24-6C-1.46,95.85.08,85.72.31,84.35c1.55-9.17,7.31-8.34,10.5-19.5,1.7-5.93,2.51-14.69,3-20,.31-3.31.45-5.87,2-9,.66-1.33,4.82-9.31,10.5-8.5,4.56.65,6.81,6.49,7,7,.7-.91,5.04-6.31,12.78-7,8.06-.72,13.43,4.24,14.22,5,1.39-2.76,3.08-5.02,5-5,3.87.03,4.89,9.06,11,20,8.04,14.41,14.61,13.65,18,25,.85,2.84,3.55,11.86-1,21-5.18,10.42-16.02,13.48-18,14-1,.96-5.33,4.91-12,5-5.02.07-8.64-2.09-10-3-2.05,1.09-6.55,3.13-12.56,3-5.39-.12-9.42-1.92-11.44-3Z"/>
      <path class="cls-1" d="M44.31,50.35c2.98,1.63,3.81,5.17,4,6,1.69,7.23-4.03,16.87-11.5,17.5-3.26.28-7.41-1.12-9.5-4.5-3.13-5.05.46-11.1,1-12,3.33-5.6,11.09-9.69,16-7Z"/>
      <path class="cls-1" d="M53.31,57.35c1.82-3.31,5.75-3.96,6-4,5.57-.83,11.38,4.31,12,10,.41,3.74-1.33,8.55-5,10-2.17.86-4.25.23-5,0-6-1.89-11.01-10.53-8-16Z"/>
      <path class="cls-1" d="M45.79,77.85l3.51-6.05c.37-.63,1.27-.67,1.69-.07l4.21,6.05c.46.66-.01,1.57-.82,1.57h-7.73c-.77,0-1.25-.84-.87-1.5Z"/>
      <path class="cls-1" d="M79.41,75.35v3c-1.33,1-2.67,2-4,3v-3c-1.67,1-3.33,2-5,3v3c-1.33.67-2.67,1.33-4,2-.33-1-.67-2-1-3-2,.67-4,1.33-6,2v2.78l-5.57.78v-3.89h-5.97v3.89l-5.57-.78v-2.78c-2-.67-4-1.33-6-2-.33,1-.67,2-1,3-1.33-.67-2.67-1.33-4-2v-3c-1.67-1-3.33-2-5-3v3c-1.33-1-2.67-2-4-3v-3l-6-6c.89,3.65,3.29,11.25,10,18,2.18,2.19,11.12,11.19,25,11,13.09-.18,21.52-8.4,24.1-11,6.72-6.77,9.11-14.38,10-18l-6,6Z"/>
    </g>
  </g>
</svg>