<?xml version="1.0" encoding="UTF-8"?>
<svg id="Layer_2" xmlns="http://www.w3.org/2000/svg" viewBox="0 0 95.88 112.36">
  <defs>
    <style>
      .cls-1 {
        fill: #f5853f;
      }

      .cls-2 {
        fill: none;
        stroke: #f36b16;
        stroke-miterlimit: 10;
        stroke-width: 2px;
      }

      .cls-3 {
        fill: #5a2a27;
      }
    </style>
  </defs>
  <g id="Layer_1-2" data-name="Layer_1">
    <g>
      <path class="cls-3" d="M29.31,32.35c3-2.67,6-5.33,9-8-1.6-10,3.59-19.53,12-23,10.13-4.18,19.55,2.62,20,2.96v4.15c-6.07-5.62-14.36-6.05-19-2.11-4.01,3.4-4.02,8.97-4,10,1.03,2.36,2.84,5.72,6,9,4.81,5,10.17,7.11,13,8-2.33,1.33-4.67,2.67-7,4l-27.42,1.93-2.58-6.93Z"/>
      <path class="cls-1" d="M29.31,109.35c-.77.18-15.49,3.44-24-6C-1.46,95.85.08,85.72.31,84.35c1.55-9.17,7.31-8.34,10.5-19.5,1.7-5.93,2.51-14.69,3-20,.31-3.31.45-5.87,2-9,.66-1.33,4.82-9.31,10.5-8.5,4.56.65,6.81,6.49,7,7,.7-.91,5.04-6.31,12.78-7,8.06-.72,13.43,4.24,14.22,5,1.39-2.76,3.08-5.02,5-5,3.87.03,4.89,9.06,11,20,8.04,14.41,14.61,13.65,18,25,.85,2.84,3.55,11.86-1,21-5.18,10.42-16.02,13.48-18,14-1,.96-5.33,4.91-12,5-5.02.07-8.64-2.09-10-3-2.05,1.09-6.55,3.13-12.56,3-5.39-.12-9.42-1.92-11.44-3Z"/>
      <path class="cls-2" d="M34.31,41.35c1.12,6.36,1.94,13.76,2,22,.1,14.92-2.34,27.55-5,37"/>
      <path class="cls-2" d="M61.31,39.35c1.27,9.27,1.98,21.66,0,36-1.35,9.75-3.63,18.16-6,25"/>
      <path class="cls-2" d="M70.31,67.35c-.64,4.74-.99,11.83,1,20,1.06,4.38,2.55,8.06,4,11"/>
    </g>
  </g>
</svg>