<?xml version="1.0" encoding="UTF-8"?>
<svg id="Layer_2" xmlns="http://www.w3.org/2000/svg" viewBox="0 0 96.05 100.1">
  <defs>
    <style>
      .cls-1 {
        fill: #1f1f1f;
      }

      .cls-2 {
        fill: #f5853f;
      }

      .cls-3 {
        fill: #5a2a27;
      }
    </style>
  </defs>
  <g id="Layer_1-2" data-name="Layer_1">
    <g>
      <path class="cls-3" d="M25.08,28C37.08,10.22,43.95,6.11,48.08,6c1.1-.03,5.85.12,9-3,1.07-1.06,1.67-2.21,2-3l3,3c-.94,2.37-2.27,4.03-4,5-3.11,1.74-5.48.09-9,2-1.92,1.04-4.38,3.24-4,5,.46,2.17,4.93,2.16,10,4,3.51,1.27,8.17,3.73,13,9-9.33,1-18.67,2-28,3l-15-3Z"/>
      <path class="cls-2" d="M21.08,96c-8.51-1.84-12.89-5.68-15-8-15.57-17.11,2.86-49.72,10-58,1.8-2.08,5.99-6.94,10-6,1.45.34,2.44,1.33,3,2,1.84-2.3,4.77-3.45,7.67-3,4.48.69,6.24,4.78,6.33,5,.29-.54,2.16-3.96,6.33-5,4.7-1.17,8.28,1.68,8.67,2,.67-1.26,1.89-3.08,4-4,4.44-1.94,9.67,1.48,12,3,14,9.15,31.29,48.86,16,63-2.36,2.18-6.5,4.68-14,5-.83,1.03-2.55,2.87-5.33,4-4.68,1.9-8.94.41-10,0-1.03.95-4.04,3.47-8.67,4-5.83.67-10.05-2.29-11-3-1.03.74-5.2,3.59-11,3-4.8-.49-7.94-3.05-9-4Z"/>
      <path class="cls-1" d="M43.08,38c2.98,1.63,3.81,5.17,4,6,1.69,7.23-4.03,16.87-11.5,17.5-3.26.28-7.41-1.12-9.5-4.5-3.13-5.05.46-11.1,1-12,3.33-5.6,11.09-9.69,16-7Z"/>
      <path class="cls-1" d="M52.08,45c1.82-3.31,5.75-3.96,6-4,5.57-.83,11.38,4.31,12,10,.41,3.74-1.33,8.55-5,10-2.17.86-4.25.23-5,0-6-1.89-11.01-10.53-8-16Z"/>
      <path class="cls-1" d="M44.56,65.5l3.51-6.05c.37-.63,1.27-.67,1.69-.07l4.21,6.05c.46.66-.01,1.57-.82,1.57h-7.73c-.77,0-1.25-.84-.87-1.5Z"/>
      <path class="cls-1" d="M78.18,63v3c-1.33,1-2.67,2-4,3v-3c-1.67,1-3.33,2-5,3v3c-1.33.67-2.67,1.33-4,2-.33-1-.67-2-1-3-2,.67-4,1.33-6,2v2.78l-5.57.78v-3.89h-5.97v3.89l-5.57-.78v-2.78c-2-.67-4-1.33-6-2-.33,1-.67,2-1,3-1.33-.67-2.67-1.33-4-2v-3c-1.67-1-3.33-2-5-3v3c-1.33-1-2.67-2-4-3v-3l-6-6c.89,3.65,3.29,11.25,10,18,2.18,2.19,11.12,11.19,25,11,13.09-.18,21.52-8.4,24.1-11,6.72-6.77,9.11-14.38,10-18l-6,6Z"/>
    </g>
  </g>
</svg>