<?xml version="1.0" encoding="UTF-8"?>
<svg id="Layer_2" xmlns="http://www.w3.org/2000/svg" viewBox="0 0 154.76 134.82">
  <defs>
    <style>
      .cls-1 {
        fill: none;
        stroke: #fff;
        stroke-miterlimit: 10;
        stroke-width: 4px;
      }
    </style>
  </defs>
  <g id="Layer_1-2" data-name="Layer_1">
    <g>
      <polyline class="cls-1" points="2 6.3 2 132.82 154.76 132.82"/>
      <line class="cls-1" x1="49.8" y1=".68" x2="2" y2="132.82"/>
      <line class="cls-1" x1="114.46" y1="28.8" x2="2" y2="132.82"/>
      <line class="cls-1" x1="142.58" y1="79.4" x2="2" y2="132.82"/>
      <path class="cls-1" d="M2,23.17c3.12,1.87,8.96,4.81,16.87,5.62,9.09.94,16.21-1.4,19.68-2.81"/>
      <path class="cls-1" d="M86.35,54.1c-.16,2.5-.71,14.82,8.43,25.3,7.39,8.48,16.68,10.67,19.68,11.25"/>
      <path class="cls-1" d="M122.9,87.84c-1.2,2.28-6.27,12.55-2.81,25.3,3.23,11.93,11.77,18.13,14.06,19.68"/>
      <path class="cls-1" d="M83.53,101.9c-.69,1.88-3.01,8.88,0,16.87,3.71,9.87,12.62,13.5,14.06,14.06"/>
      <path class="cls-1" d="M83.53,101.9c-1.72-.12-10.51-.93-16.87-8.43-4.78-5.64-5.48-11.85-5.62-14.06"/>
      <path class="cls-1" d="M35.74,101.9c.01,1.37.23,5.02,2.81,8.43,4.01,5.3,10.36,5.6,11.25,5.62"/>
      <path class="cls-1" d="M58.23,132.82c-.79-.29-6.42-2.46-8.43-8.43-1.3-3.84-.4-7.19,0-8.43"/>
      <path class="cls-1" d="M35.74,101.9c-1.98.04-6.47-.13-11.25-2.81-4.95-2.78-7.47-6.71-8.43-8.43"/>
      <path class="cls-1" d="M18.87,90.65c-.95.71-4,2.81-8.43,2.81-1.19,0-4.89-.15-8.43-2.81"/>
      <path class="cls-1" d="M32.93,48.48c2.02,3.34,6.33,9.43,14.06,14.06,10.83,6.49,21.49,5.99,25.3,5.62"/>
      <path class="cls-1" d="M2,62.53c1.35,1.31,5.2,4.68,11.25,5.62,7.17,1.12,12.58-1.92,14.06-2.81"/>
    </g>
  </g>
</svg>