<?xml version="1.0" encoding="UTF-8"?>
<svg id="Layer_2" xmlns="http://www.w3.org/2000/svg" viewBox="0 0 17.85 16.77">
  <defs>
    <style>
      .cls-1 {
        fill: #333;
      }
    </style>
  </defs>
  <g id="Layer_1-2" data-name="Layer_1">
    <path class="cls-1" d="M13.55,8.97c-.63-.15-1.28-.21-1.93-.17l6.17-6.17-.71-.71-4.93,4.93c.37-.68.69-1.52.78-2.53.19-2.04-.59-3.58-1.08-4.32l-.83.55c.41.63,1.08,1.94.92,3.68-.15,1.56-.91,2.67-1.46,3.29-.37-.45-.92-.74-1.54-.74s-1.18.29-1.54.74c-.55-.62-1.31-1.72-1.46-3.29-.16-1.73.51-3.05.92-3.68l-.84-.55c-.49.74-1.27,2.29-1.08,4.32.1,1.01.41,1.85.78,2.53L.78,1.92.07,2.63l6.17,6.17c-.65-.03-1.31.02-1.93.17-2.47.61-3.83,2.46-4.31,3.22l.85.53c.41-.66,1.58-2.25,3.69-2.78.42-.1.86-.15,1.3-.16-.64.55-1.31,1.28-1.85,2.25-.92,1.64-1.09,3.22-1.06,4.25l1-.02c-.02-.91.13-2.3.94-3.74.46-.81,1.01-1.43,1.55-1.91-.3.62-.48,1.36-.48,2.16,0,2.21,1.34,4,3,4s3-1.79,3-4c0-.8-.18-1.54-.48-2.16.54.48,1.09,1.1,1.55,1.91.81,1.44.96,2.83.94,3.75l1,.02c.02-1.04-.15-2.62-1.06-4.26-.54-.97-1.21-1.7-1.85-2.25.44,0,.88.06,1.3.16,2.11.52,3.29,2.12,3.69,2.78l.85-.52c-.47-.77-1.83-2.61-4.31-3.22Z"/>
  </g>
</svg>