<?xml version="1.0" encoding="UTF-8"?>
<svg id="Layer_2" xmlns="http://www.w3.org/2000/svg" viewBox="0 0 15.27 16.65">
  <defs>
    <style>
      .cls-1 {
        fill: #333;
      }
    </style>
  </defs>
  <g id="Layer_1-2" data-name="Layer_1">
    <path class="cls-1" d="M15.27,6.7l-.27-.96-5.55,1.58c-.1-.14-.21-.27-.32-.39l2.61-2.61L9.58,0l-.89.45,1.84,3.68-1.7,1.7c-.27-.36-.7-.6-1.19-.6s-.92.24-1.19.6l-1.7-1.7L6.58.45l-.89-.45-2.16,4.32,2.61,2.61c-.11.12-.22.25-.32.39L.27,5.74l-.27.96,5.09,1.45L.36,11.31l.55.83,4.25-2.83c-.01.14-.03.28-.03.42,0,.1.02.19.02.29l-2.15,2.2,2.7,4.44.85-.52-2.3-3.78,1.12-1.14c.4,1.19,1.26,2.01,2.26,2.01s1.85-.83,2.26-2.01l1.12,1.14-2.3,3.78.85.52,2.7-4.44-2.15-2.2c0-.1.02-.19.02-.29,0-.14-.02-.28-.03-.42l4.25,2.83.55-.83-4.73-3.15,5.09-1.45Z"/>
  </g>
</svg>