<?xml version="1.0" encoding="UTF-8"?>
<svg id="Layer_2" xmlns="http://www.w3.org/2000/svg" xmlns:xlink="http://www.w3.org/1999/xlink" viewBox="0 0 52 53.02">
  <defs>
    <style>
      .cls-1 {
        fill: #1f1f1f;
      }

      .cls-2 {
        fill: #f5853f;
      }

      .cls-3 {
        clip-path: url(#clippath);
      }
    </style>
    <clipPath id="clippath">
      <path class="cls-1" d="M0,46c3.67-2.33,7.33-4.67,11-7,.68-2.09,1.89-5.34,4-9,4.04-7,7.59-8.92,8-14,.05-.65.47-6.39-3-8-3.06-1.42-7.14.12-8,3-.7,2.34.72,5.64,3,6,2.02.32,4.64-1.69,5-5,.09.25,1.38,4.06-1,7-2.08,2.58-5.68,2.9-8,2-4.46-1.73-6.2-8.91-4-14C9.16,2,14.71-.03,19,0c7.63.05,11.75,6.59,12,7-.11,1.17-.21,2.92,0,5,.59,5.95,3.06,9.31,5,14,1.22,2.95,2.58,7.25,3,13,4.33,3,8.67,6,13,9-9.63-.56-17.01.71-22,2-5.97,1.54-8.96,3.22-14,3-6.94-.3-12.44-3.96-16-7Z"/>
    </clipPath>
  </defs>
  <g id="Layer_1-2" data-name="Layer_1">
    <g>
      <path class="cls-1" d="M0,46c3.67-2.33,7.33-4.67,11-7,.68-2.09,1.89-5.34,4-9,4.04-7,7.59-8.92,8-14,.05-.65.47-6.39-3-8-3.06-1.42-7.14.12-8,3-.7,2.34.72,5.64,3,6,2.02.32,4.64-1.69,5-5,.09.25,1.38,4.06-1,7-2.08,2.58-5.68,2.9-8,2-4.46-1.73-6.2-8.91-4-14C9.16,2,14.71-.03,19,0c7.63.05,11.75,6.59,12,7-.11,1.17-.21,2.92,0,5,.59,5.95,3.06,9.31,5,14,1.22,2.95,2.58,7.25,3,13,4.33,3,8.67,6,13,9-9.63-.56-17.01.71-22,2-5.97,1.54-8.96,3.22-14,3-6.94-.3-12.44-3.96-16-7Z"/>
      <g class="cls-3">
        <rect class="cls-2" x="7" y="32" width="35" height="7"/>
      </g>
    </g>
  </g>
</svg>