<?xml version="1.0" encoding="UTF-8"?>
<svg id="Layer_2" xmlns="http://www.w3.org/2000/svg" xmlns:xlink="http://www.w3.org/1999/xlink" viewBox="0 0 66.67 63.57">
  <defs>
    <style>
      .cls-1 {
        fill: #1f1f1f;
      }

      .cls-2 {
        fill: #f5853f;
      }

      .cls-3 {
        clip-path: url(#clippath);
      }
    </style>
    <clipPath id="clippath">
      <path class="cls-1" d="M0,59.56c3.28.04,8.28.23,14.33,1,10.76,1.36,11.42,2.84,18,3,7.21.18,8.76-1.53,21-3,5.74-.69,10.42-.91,13.33-1l-18.33-9v-3l7.78-7-12.78-9,1-7-15-7V6.56L1.28.01c-.44-.1-.7.47-.34.73l17.39,12.81-4.22,12,10,8-11,6,8.22,8v3L0,59.56Z"/>
    </clipPath>
  </defs>
  <g id="Layer_1-2" data-name="Layer_1">
    <g>
      <path class="cls-1" d="M0,59.56c3.28.04,8.28.23,14.33,1,10.76,1.36,11.42,2.84,18,3,7.21.18,8.76-1.53,21-3,5.74-.69,10.42-.91,13.33-1l-18.33-9v-3l7.78-7-12.78-9,1-7-15-7V6.56L1.28.01c-.44-.1-.7.47-.34.73l17.39,12.81-4.22,12,10,8-11,6,8.22,8v3L0,59.56Z"/>
      <g class="cls-3">
        <rect class="cls-2" x="17.33" y="47.56" width="34" height="3"/>
      </g>
    </g>
  </g>
</svg>