<?xml version="1.0" encoding="UTF-8"?>
<svg id="Layer_2" xmlns="http://www.w3.org/2000/svg" viewBox="0 0 65.06 66.85">
  <defs>
    <style>
      .cls-1 {
        fill: #611c35;
      }

      .cls-2 {
        fill: #fef2c3;
      }
    </style>
  </defs>
  <g id="Layer_1-2" data-name="Layer_1">
    <g>
      <path class="cls-2" d="M37.58,19.42c4.04,3.47-.83,9.35-1.16,20-.43,13.81,7.74,19.23,3.47,24-3.92,4.38-14.78,4.39-17.35,1-2.04-2.69,2.89-5.23,4.63-13,1.94-8.69-2.08-15.1-1.16-28,.09-1.28.31-3.74,2.31-5,2.43-1.52,6.97-.96,9.25,1Z"/>
      <path class="cls-1" d="M.95,31.48c2.41,2.94,9.99,1.52,13.45.86,5.68-1.07,6.6-2.83,13.45-4.32,4.93-1.08,7.98-1.74,11.66-.86,6.28,1.5,6.71,5.66,12.56,6.91,3.72.8,9.34.35,11.66-2.59,4.38-5.57-2.43-20.86-14.35-27.66-13.69-7.81-28.65-1.3-29.59-.86C5.08,9.64-2.87,26.81.95,31.48Z"/>
    </g>
  </g>
</svg>