<?xml version="1.0" encoding="UTF-8"?>
<svg id="Layer_2" xmlns="http://www.w3.org/2000/svg" viewBox="0 0 44.03 56.36">
  <defs>
    <style>
      .cls-1 {
        fill: #611c35;
      }

      .cls-2 {
        fill: #fef2c3;
      }
    </style>
  </defs>
  <g id="Layer_1-2" data-name="Layer_1">
    <g>
      <path class="cls-2" d="M28.03,11c3.49,3.47-.72,9.35-1,20-.38,14.08,6.53,20.65,3,24-2.84,2.7-10.23,1.21-14-3-2.5-2.79-2.84-6.14-3-8-.61-6.96,3.21-8.68,5-17,2.04-9.48-1.33-14.69,2-17,2.16-1.5,6-.99,8,1Z"/>
      <path class="cls-1" d="M6.03,23c5.36,2.89,8.34-1.03,17,0,9.19,1.09,12.7,6.32,17,4,2.2-1.19,3.92-4.16,4-7,.05-1.7-.52-3.05-1-4C41.73,13.43,34.95.02,23.03,0c-3.95,0-6.96,1.67-13,5C4.39,8.11.41,10.3.03,14c-.37,3.6,2.81,7.28,6,9Z"/>
    </g>
  </g>
</svg>