<?xml version="1.0" encoding="UTF-8"?>
<svg id="Layer_2" xmlns="http://www.w3.org/2000/svg" xmlns:xlink="http://www.w3.org/1999/xlink" viewBox="0 0 50.56 26.02">
  <defs>
    <style>
      .cls-1 {
        fill: none;
        stroke: #713b33;
        stroke-miterlimit: 10;
        stroke-width: 2px;
      }

      .cls-2 {
        fill: #e0e0e0;
      }

      .cls-3 {
        fill: #c07e72;
      }

      .cls-4 {
        clip-path: url(#clippath);
      }
    </style>
    <clipPath id="clippath">
      <path class="cls-3" d="M.16,15.02c-.51.97.31,2.32,1,3,1.76,1.73,4.69,1.07,5,1,3.46-.82,3.6-3.75,6-4,2.86-.29,3.81,3.99,7,4,3.11.01,3.92-4.06,7-4,3.02.06,3.72,4.01,6.67,4,3.09,0,4.13-4.35,6.81-4,2.22.29,2.31,3.35,5.33,4,.12.03,2.49.49,4.19-1,.7-.61,1.73-1.94,1.3-3-.43-1.05-2.25-1.69-4.3-1C42.68,5.84,34.86.37,26.16.02,16.69-.36,7.83,5.39,4.16,14.39c-1.8-.78-3.5-.32-4,.63Z"/>
    </clipPath>
  </defs>
  <g id="Layer_1-2" data-name="Layer_1">
    <polygon class="cls-2" points="25.27 15.02 25.16 15.02 3.16 15.02 9.16 26.02 25.16 26.02 25.27 26.02 41.27 26.02 47.27 15.02 25.27 15.02"/>
    <g>
      <path class="cls-3" d="M.16,15.02c-.51.97.31,2.32,1,3,1.76,1.73,4.69,1.07,5,1,3.46-.82,3.6-3.75,6-4,2.86-.29,3.81,3.99,7,4,3.11.01,3.92-4.06,7-4,3.02.06,3.72,4.01,6.67,4,3.09,0,4.13-4.35,6.81-4,2.22.29,2.31,3.35,5.33,4,.12.03,2.49.49,4.19-1,.7-.61,1.73-1.94,1.3-3-.43-1.05-2.25-1.69-4.3-1C42.68,5.84,34.86.37,26.16.02,16.69-.36,7.83,5.39,4.16,14.39c-1.8-.78-3.5-.32-4,.63Z"/>
      <g class="cls-4">
        <line class="cls-1" x1="22.26" y1="-2.41" x2="28.39" y2="1.52"/>
        <line class="cls-1" x1="28.39" y1="-2.41" x2="22.26" y2="1.52"/>
      </g>
    </g>
  </g>
</svg>