<?xml version="1.0" encoding="UTF-8"?>
<svg id="Layer_2" xmlns="http://www.w3.org/2000/svg" viewBox="0 0 232 142.76">
  <defs>
    <style>
      .cls-1 {
        fill: #d96c06;
      }

      .cls-2 {
        fill: #b35905;
      }

      .cls-3 {
        fill: #e0e0e0;
      }

      .cls-4 {
        fill: #ebebeb;
      }
    </style>
  </defs>
  <g id="Layer_1-2" data-name="Layer_1">
    <ellipse class="cls-3" cx="100.25" cy="95.36" rx="100.25" ry="47.4"/>
    <g>
      <path class="cls-2" d="M103.03,49.07c-8.39-12.06-.22-31.19,10.56-40.31,13.73-11.61,35.12-9.87,47.89-5.14,20.51,7.61,31.31,12.56,31.31,12.56,2.49,1.14,9.85,4.59,13.69,1.87.74-.52,2.19-1.87,4.03-1.67,1.08.11,2.51.78,2.77,1.85.4,1.63-2.25,2.7-1.94,4.53.23,1.34,1.74,1.34,2.1,2.86.31,1.3-.4,3.02-1.85,3.86-1.22.7-2.74.66-3.95-.09-12.88,1.83-25.77,3.66-38.65,5.49-2.2,2.17-5.49,4.66-9.84,5.45-11.58,2.08-20.94-9.75-24.35-7.18-3.6,2.71,6.72,15.95,2.23,22.26-4.75,6.67-25.88,5.34-34.01-6.35Z"/>
      <path class="cls-3" d="M213.29,18.24l13.36-5.27c2.67,0,4.84,2.02,5.03,4.46.17,2.11-1.18,4.17-3.31,4.95,1.73.35,3.13,1.53,3.52,3.04.54,2.1-.92,4.63-3.59,5.36l-16.62-3.05-2.17-7.65,3.78-1.84Z"/>
      <path class="cls-2" d="M61.33,60.22c-7.59-3.36-13.78-5.92-17.87-7.57-13.62-5.52-19.97-7.52-26.65-13.93-2.15-2.07-7.86-7.55-6.36-11.51.76-2.01,3.07-2.84,6.97-4.24,5.76-2.07,8.5-1.49,13.93-3.03,3.94-1.12,6.31-2.5,9.09-3.94,4.88-2.52,12.28-5.84,23.51-9.49,1.28-.41,2.56.6,2.46,1.94-.36,4.46-2.05,13.12-9.61,19.36-6.84,5.66-14.51,6.04-16.96,6.06,14.64,6.76,29.28,13.53,43.92,20.29l-22.41,6.06Z"/>
      <path class="cls-1" d="M42.1,110.65c-.95-.82-5.53-7.56-14.69-21.05-5.44-8.02-8.57-12.87-8.78-19.69-.11-3.39.53-6.41,2.42-11.51,4.71-12.71,9.13-24.62,20.6-33.32,5.94-4.5,12.14-6.33,24.53-9.99,14.86-4.39,26.41-5.02,29.08-5.15,5.48-.26,9.85-.05,17.57.3,9.16.42,14.19.66,19.38,1.51,6.63,1.1,19.04,3.15,29.98,12.11,2.43,1.99,15.07,12.35,17.26,27.86,3.7,26.12-24.54,50.29-47.25,59.36-8.59,3.44-17.29,4.26-34.68,5.91-26.79,2.54-43.45,3.88-55.43-6.36Z"/>
      <path class="cls-2" d="M127.12,122.39c-13.42-5.98-16.32-26.58-11.81-39.96,5.74-17.03,24.95-26.61,38.33-29.17,21.49-4.1,33.3-5.45,33.3-5.45,2.73-.31,10.8-1.16,12.68-5.48.36-.83.9-2.73,2.59-3.52.98-.46,2.55-.63,3.33.15,1.18,1.19-.53,3.47.69,4.88.89,1.03,2.18.25,3.27,1.36.94.96,1.22,2.79.41,4.26-.68,1.23-2,1.98-3.43,1.97-10.08,8.23-20.16,16.46-30.24,24.69-.77,3-2.28,6.83-5.6,9.75-8.84,7.77-22.96,2.49-24.55,6.45-1.68,4.18,14,10.18,13.43,17.9-.61,8.17-19.38,17.96-32.39,12.16Z"/>
      <path class="cls-2" d="M109.05,120.32c-1.87.5-3.85.36-5.62-.42-6.35-2.77-11.56-4.92-15.14-6.37-13.62-5.52-19.97-7.52-26.65-13.93-2.15-2.07-7.86-7.55-6.36-11.51.76-2.01,3.07-2.84,6.97-4.24,5.76-2.07,8.5-1.49,13.93-3.03,3.94-1.12,6.31-2.5,9.09-3.94,4.88-2.52,12.28-5.84,23.51-9.49,1.27-.41,2.56.6,2.45,1.93-.36,4.46-2.05,13.12-9.61,19.37-6.84,5.66-14.51,6.04-16.96,6.06,14.64,6.76,29.28,13.53,43.92,20.29l-19.52,5.28Z"/>
      <path class="cls-4" d="M205.53,38.97l8.71-11.42c2.28-1.38,5.19-.77,6.61,1.21,1.23,1.72,1.15,4.18-.27,5.95,1.66-.6,3.47-.31,4.58.78,1.55,1.51,1.61,4.44-.3,6.44l-15.81,5.99-5.82-5.42,2.28-3.53Z"/>
    </g>
  </g>
</svg>