<?xml version="1.0" encoding="UTF-8"?>
<svg id="Layer_2" xmlns="http://www.w3.org/2000/svg" xmlns:xlink="http://www.w3.org/1999/xlink" viewBox="0 0 1989.54 1020">
  <defs>
    <style>
      .cls-1 {
        letter-spacing: .08em;
      }

      .cls-2 {
        letter-spacing: .1em;
      }

      .cls-3 {
        font-family: Manrope-ExtraBold, Manrope;
        font-size: 27.51px;
        font-weight: 700;
      }

      .cls-3, .cls-4 {
        fill: #333;
      }

      .cls-5 {
        fill: #fff;
      }

      .cls-6, .cls-7 {
        fill: none;
      }

      .cls-8 {
        fill: #fcdc5f;
      }

      .cls-9 {
        letter-spacing: .1em;
      }

      .cls-10 {
        clip-path: url(#clippath-1);
      }

      .cls-7 {
        stroke: #85d6ff;
        stroke-miterlimit: 10;
        stroke-width: 5.74px;
      }

      .cls-11 {
        fill: #e0e0e0;
        font-family: FiraSansExtraCondensed-SemiBold, 'Fira Sans Extra Condensed SemiBold';
        font-size: 46.06px;
        font-weight: 600;
      }

      .cls-12 {
        fill: #facb0f;
      }

      .cls-13 {
        clip-path: url(#clippath);
      }

      .cls-14 {
        letter-spacing: .1em;
      }

      .cls-15 {
        letter-spacing: .08em;
      }

      .cls-16 {
        fill: #00a6fb;
      }
    </style>
    <clipPath id="clippath">
      <rect class="cls-6" x="0" y="16.5" width="1989.54" height="33.87"/>
    </clipPath>
    <clipPath id="clippath-1">
      <rect class="cls-6" x="0" y="960.5" width="1989.54" height="33.87"/>
    </clipPath>
  </defs>
  <g id="Layer_1-2" data-name="Layer_1">
    <rect class="cls-16" x="4.77" width="1980" height="1020"/>
    <g class="cls-13">
      <g>
        <g>
          <polyline class="cls-7" points="13.07 31.42 29.4 31.42 29.4 19.37 2.87 19.37 2.87 44.62 40.62 44.62 40.62 19.37 79.13 19.37 79.13 44.62 53.88 44.62 53.88 31.42 69.18 31.42"/>
          <line class="cls-7" x1="91.12" y1="16.5" x2="91.12" y2="47.49"/>
        </g>
        <g>
          <polyline class="cls-7" points="118.54 31.42 134.86 31.42 134.86 19.37 108.34 19.37 108.34 44.62 146.08 44.62 146.08 19.37 184.6 19.37 184.6 44.62 159.35 44.62 159.35 31.42 174.65 31.42"/>
          <line class="cls-7" x1="196.59" y1="16.5" x2="196.59" y2="47.49"/>
        </g>
        <g>
          <polyline class="cls-7" points="224 31.42 240.33 31.42 240.33 19.37 213.8 19.37 213.8 44.62 251.55 44.62 251.55 19.37 290.07 19.37 290.07 44.62 264.81 44.62 264.81 31.42 280.12 31.42"/>
          <line class="cls-7" x1="302.05" y1="16.5" x2="302.05" y2="47.49"/>
        </g>
        <g>
          <polyline class="cls-7" points="329.47 31.42 345.8 31.42 345.8 19.37 319.27 19.37 319.27 44.62 357.02 44.62 357.02 19.37 395.53 19.37 395.53 44.62 370.28 44.62 370.28 31.42 385.58 31.42"/>
          <line class="cls-7" x1="407.52" y1="16.5" x2="407.52" y2="47.49"/>
        </g>
        <g>
          <polyline class="cls-7" points="434.94 31.42 451.26 31.42 451.26 19.37 424.74 19.37 424.74 44.62 462.48 44.62 462.48 19.37 501 19.37 501 44.62 475.75 44.62 475.75 31.42 491.05 31.42"/>
          <line class="cls-7" x1="512.99" y1="16.5" x2="512.99" y2="47.49"/>
        </g>
        <g>
          <polyline class="cls-7" points="540.4 31.42 556.73 31.42 556.73 19.37 530.2 19.37 530.2 44.62 567.95 44.62 567.95 19.37 606.46 19.37 606.46 44.62 581.21 44.62 581.21 31.42 596.52 31.42"/>
          <line class="cls-7" x1="618.45" y1="16.5" x2="618.45" y2="47.49"/>
        </g>
        <g>
          <polyline class="cls-7" points="645.87 31.42 662.2 31.42 662.2 19.37 635.67 19.37 635.67 44.62 673.42 44.62 673.42 19.37 711.93 19.37 711.93 44.62 686.68 44.62 686.68 31.42 701.98 31.42"/>
          <line class="cls-7" x1="723.92" y1="16.5" x2="723.92" y2="47.49"/>
        </g>
        <g>
          <polyline class="cls-7" points="751.34 31.42 767.66 31.42 767.66 19.37 741.14 19.37 741.14 44.62 778.88 44.62 778.88 19.37 817.4 19.37 817.4 44.62 792.15 44.62 792.15 31.42 807.45 31.42"/>
          <line class="cls-7" x1="829.39" y1="16.5" x2="829.39" y2="47.49"/>
        </g>
        <g>
          <polyline class="cls-7" points="856.8 31.42 873.13 31.42 873.13 19.37 846.6 19.37 846.6 44.62 884.35 44.62 884.35 19.37 922.86 19.37 922.86 44.62 897.61 44.62 897.61 31.42 912.92 31.42"/>
          <line class="cls-7" x1="934.85" y1="16.5" x2="934.85" y2="47.49"/>
        </g>
        <g>
          <polyline class="cls-7" points="962.27 31.42 978.6 31.42 978.6 19.37 952.07 19.37 952.07 44.62 989.82 44.62 989.82 19.37 1028.33 19.37 1028.33 44.62 1003.08 44.62 1003.08 31.42 1018.38 31.42"/>
          <line class="cls-7" x1="1040.32" y1="16.5" x2="1040.32" y2="47.49"/>
        </g>
        <g>
          <polyline class="cls-7" points="1067.74 31.42 1084.06 31.42 1084.06 19.37 1057.54 19.37 1057.54 44.62 1095.28 44.62 1095.28 19.37 1133.8 19.37 1133.8 44.62 1108.55 44.62 1108.55 31.42 1123.85 31.42"/>
          <line class="cls-7" x1="1145.79" y1="16.5" x2="1145.79" y2="47.49"/>
        </g>
        <g>
          <polyline class="cls-7" points="1173.2 31.42 1189.53 31.42 1189.53 19.37 1163 19.37 1163 44.62 1200.75 44.62 1200.75 19.37 1239.26 19.37 1239.26 44.62 1214.01 44.62 1214.01 31.42 1229.32 31.42"/>
          <line class="cls-7" x1="1251.25" y1="16.5" x2="1251.25" y2="47.49"/>
        </g>
        <g>
          <polyline class="cls-7" points="1278.67 31.42 1294.99 31.42 1294.99 19.37 1268.47 19.37 1268.47 44.62 1306.22 44.62 1306.22 19.37 1344.73 19.37 1344.73 44.62 1319.48 44.62 1319.48 31.42 1334.78 31.42"/>
          <line class="cls-7" x1="1356.72" y1="16.5" x2="1356.72" y2="47.49"/>
        </g>
        <g>
          <polyline class="cls-7" points="1384.14 31.42 1400.46 31.42 1400.46 19.37 1373.94 19.37 1373.94 44.62 1411.68 44.62 1411.68 19.37 1450.2 19.37 1450.2 44.62 1424.95 44.62 1424.95 31.42 1440.25 31.42"/>
          <line class="cls-7" x1="1462.19" y1="16.5" x2="1462.19" y2="47.49"/>
        </g>
        <g>
          <polyline class="cls-7" points="1489.6 31.42 1505.93 31.42 1505.93 19.37 1479.4 19.37 1479.4 44.62 1517.15 44.62 1517.15 19.37 1555.66 19.37 1555.66 44.62 1530.41 44.62 1530.41 31.42 1545.72 31.42"/>
          <line class="cls-7" x1="1567.65" y1="16.5" x2="1567.65" y2="47.49"/>
        </g>
        <g>
          <polyline class="cls-7" points="1595.07 31.42 1611.39 31.42 1611.39 19.37 1584.87 19.37 1584.87 44.62 1622.62 44.62 1622.62 19.37 1661.13 19.37 1661.13 44.62 1635.88 44.62 1635.88 31.42 1651.18 31.42"/>
          <line class="cls-7" x1="1673.12" y1="16.5" x2="1673.12" y2="47.49"/>
        </g>
        <g>
          <polyline class="cls-7" points="1700.54 31.42 1716.86 31.42 1716.86 19.37 1690.34 19.37 1690.34 44.62 1728.08 44.62 1728.08 19.37 1766.6 19.37 1766.6 44.62 1741.35 44.62 1741.35 31.42 1756.65 31.42"/>
          <line class="cls-7" x1="1778.59" y1="16.5" x2="1778.59" y2="47.49"/>
        </g>
        <g>
          <polyline class="cls-7" points="1806 31.42 1822.33 31.42 1822.33 19.37 1795.8 19.37 1795.8 44.62 1833.55 44.62 1833.55 19.37 1872.06 19.37 1872.06 44.62 1846.81 44.62 1846.81 31.42 1862.12 31.42"/>
          <line class="cls-7" x1="1884.05" y1="16.5" x2="1884.05" y2="47.49"/>
        </g>
        <g>
          <polyline class="cls-7" points="1911.47 31.42 1927.79 31.42 1927.79 19.37 1901.27 19.37 1901.27 44.62 1939.02 44.62 1939.02 19.37 1977.53 19.37 1977.53 44.62 1952.28 44.62 1952.28 31.42 1967.58 31.42"/>
          <line class="cls-7" x1="1989.52" y1="16.5" x2="1989.52" y2="47.49"/>
        </g>
      </g>
    </g>
    <g class="cls-10">
      <g>
        <g>
          <polyline class="cls-7" points="13.07 975.42 29.4 975.42 29.4 963.37 2.87 963.37 2.87 988.62 40.62 988.62 40.62 963.37 79.13 963.37 79.13 988.62 53.88 988.62 53.88 975.42 69.18 975.42"/>
          <line class="cls-7" x1="91.12" y1="960.5" x2="91.12" y2="991.49"/>
        </g>
        <g>
          <polyline class="cls-7" points="118.54 975.42 134.86 975.42 134.86 963.37 108.34 963.37 108.34 988.62 146.08 988.62 146.08 963.37 184.6 963.37 184.6 988.62 159.35 988.62 159.35 975.42 174.65 975.42"/>
          <line class="cls-7" x1="196.59" y1="960.5" x2="196.59" y2="991.49"/>
        </g>
        <g>
          <polyline class="cls-7" points="224 975.42 240.33 975.42 240.33 963.37 213.8 963.37 213.8 988.62 251.55 988.62 251.55 963.37 290.07 963.37 290.07 988.62 264.81 988.62 264.81 975.42 280.12 975.42"/>
          <line class="cls-7" x1="302.05" y1="960.5" x2="302.05" y2="991.49"/>
        </g>
        <g>
          <polyline class="cls-7" points="329.47 975.42 345.8 975.42 345.8 963.37 319.27 963.37 319.27 988.62 357.02 988.62 357.02 963.37 395.53 963.37 395.53 988.62 370.28 988.62 370.28 975.42 385.58 975.42"/>
          <line class="cls-7" x1="407.52" y1="960.5" x2="407.52" y2="991.49"/>
        </g>
        <g>
          <polyline class="cls-7" points="434.94 975.42 451.26 975.42 451.26 963.37 424.74 963.37 424.74 988.62 462.48 988.62 462.48 963.37 501 963.37 501 988.62 475.75 988.62 475.75 975.42 491.05 975.42"/>
          <line class="cls-7" x1="512.99" y1="960.5" x2="512.99" y2="991.49"/>
        </g>
        <g>
          <polyline class="cls-7" points="540.4 975.42 556.73 975.42 556.73 963.37 530.2 963.37 530.2 988.62 567.95 988.62 567.95 963.37 606.46 963.37 606.46 988.62 581.21 988.62 581.21 975.42 596.52 975.42"/>
          <line class="cls-7" x1="618.45" y1="960.5" x2="618.45" y2="991.49"/>
        </g>
        <g>
          <polyline class="cls-7" points="645.87 975.42 662.2 975.42 662.2 963.37 635.67 963.37 635.67 988.62 673.42 988.62 673.42 963.37 711.93 963.37 711.93 988.62 686.68 988.62 686.68 975.42 701.98 975.42"/>
          <line class="cls-7" x1="723.92" y1="960.5" x2="723.92" y2="991.49"/>
        </g>
        <g>
          <polyline class="cls-7" points="751.34 975.42 767.66 975.42 767.66 963.37 741.14 963.37 741.14 988.62 778.88 988.62 778.88 963.37 817.4 963.37 817.4 988.62 792.15 988.62 792.15 975.42 807.45 975.42"/>
          <line class="cls-7" x1="829.39" y1="960.5" x2="829.39" y2="991.49"/>
        </g>
        <g>
          <polyline class="cls-7" points="856.8 975.42 873.13 975.42 873.13 963.37 846.6 963.37 846.6 988.62 884.35 988.62 884.35 963.37 922.86 963.37 922.86 988.62 897.61 988.62 897.61 975.42 912.92 975.42"/>
          <line class="cls-7" x1="934.85" y1="960.5" x2="934.85" y2="991.49"/>
        </g>
        <g>
          <polyline class="cls-7" points="962.27 975.42 978.6 975.42 978.6 963.37 952.07 963.37 952.07 988.62 989.82 988.62 989.82 963.37 1028.33 963.37 1028.33 988.62 1003.08 988.62 1003.08 975.42 1018.38 975.42"/>
          <line class="cls-7" x1="1040.32" y1="960.5" x2="1040.32" y2="991.49"/>
        </g>
        <g>
          <polyline class="cls-7" points="1067.74 975.42 1084.06 975.42 1084.06 963.37 1057.54 963.37 1057.54 988.62 1095.28 988.62 1095.28 963.37 1133.8 963.37 1133.8 988.62 1108.55 988.62 1108.55 975.42 1123.85 975.42"/>
          <line class="cls-7" x1="1145.79" y1="960.5" x2="1145.79" y2="991.49"/>
        </g>
        <g>
          <polyline class="cls-7" points="1173.2 975.42 1189.53 975.42 1189.53 963.37 1163 963.37 1163 988.62 1200.75 988.62 1200.75 963.37 1239.26 963.37 1239.26 988.62 1214.01 988.62 1214.01 975.42 1229.32 975.42"/>
          <line class="cls-7" x1="1251.25" y1="960.5" x2="1251.25" y2="991.49"/>
        </g>
        <g>
          <polyline class="cls-7" points="1278.67 975.42 1294.99 975.42 1294.99 963.37 1268.47 963.37 1268.47 988.62 1306.22 988.62 1306.22 963.37 1344.73 963.37 1344.73 988.62 1319.48 988.62 1319.48 975.42 1334.78 975.42"/>
          <line class="cls-7" x1="1356.72" y1="960.5" x2="1356.72" y2="991.49"/>
        </g>
        <g>
          <polyline class="cls-7" points="1384.14 975.42 1400.46 975.42 1400.46 963.37 1373.94 963.37 1373.94 988.62 1411.68 988.62 1411.68 963.37 1450.2 963.37 1450.2 988.62 1424.95 988.62 1424.95 975.42 1440.25 975.42"/>
          <line class="cls-7" x1="1462.19" y1="960.5" x2="1462.19" y2="991.49"/>
        </g>
        <g>
          <polyline class="cls-7" points="1489.6 975.42 1505.93 975.42 1505.93 963.37 1479.4 963.37 1479.4 988.62 1517.15 988.62 1517.15 963.37 1555.66 963.37 1555.66 988.62 1530.41 988.62 1530.41 975.42 1545.72 975.42"/>
          <line class="cls-7" x1="1567.65" y1="960.5" x2="1567.65" y2="991.49"/>
        </g>
        <g>
          <polyline class="cls-7" points="1595.07 975.42 1611.39 975.42 1611.39 963.37 1584.87 963.37 1584.87 988.62 1622.62 988.62 1622.62 963.37 1661.13 963.37 1661.13 988.62 1635.88 988.62 1635.88 975.42 1651.18 975.42"/>
          <line class="cls-7" x1="1673.12" y1="960.5" x2="1673.12" y2="991.49"/>
        </g>
        <g>
          <polyline class="cls-7" points="1700.54 975.42 1716.86 975.42 1716.86 963.37 1690.34 963.37 1690.34 988.62 1728.08 988.62 1728.08 963.37 1766.6 963.37 1766.6 988.62 1741.35 988.62 1741.35 975.42 1756.65 975.42"/>
          <line class="cls-7" x1="1778.59" y1="960.5" x2="1778.59" y2="991.49"/>
        </g>
        <g>
          <polyline class="cls-7" points="1806 975.42 1822.33 975.42 1822.33 963.37 1795.8 963.37 1795.8 988.62 1833.55 988.62 1833.55 963.37 1872.06 963.37 1872.06 988.62 1846.81 988.62 1846.81 975.42 1862.12 975.42"/>
          <line class="cls-7" x1="1884.05" y1="960.5" x2="1884.05" y2="991.49"/>
        </g>
        <g>
          <polyline class="cls-7" points="1911.47 975.42 1927.79 975.42 1927.79 963.37 1901.27 963.37 1901.27 988.62 1939.02 988.62 1939.02 963.37 1977.53 963.37 1977.53 988.62 1952.28 988.62 1952.28 975.42 1967.58 975.42"/>
          <line class="cls-7" x1="1989.52" y1="960.5" x2="1989.52" y2="991.49"/>
        </g>
      </g>
    </g>
    <g>
      <g>
        <path class="cls-5" d="M939.66,139.87l6.17,15-10.52,11.78-6.17-15,10.52-11.78Z"/>
        <path class="cls-5" d="M916,147.77l-2.14-5.09-5.89,3.93,9.11-24.4,5.89,14.3,12-7.96-6.36-15.72c-2.43-6.03-8.28-9.97-14.78-9.97h-4.77l-17.56,43.53c-1.79,4.44-1.38,9.46,1.11,13.55l6.39,10.51,7.85-8.97,2.24,5.47,30.71-35.05-23.79,15.89Z"/>
      </g>
      <g>
        <path class="cls-5" d="M983.61,126.05l10.84,26.83h-8.7l-1.72-4.55h-12.25l-1.72,4.55h-8.7l12.61-31.13h3.27c2.8,0,5.31,1.7,6.36,4.29ZM977.92,131.97l-3.43,9.14h6.82l-3.39-9.14Z"/>
        <path class="cls-5" d="M998.03,121.76h23.9v7.74h-15.92v4.47h13.09v7.22h-13.09v3.99h15.92v7.7h-23.9v-31.13Z"/>
        <path class="cls-5" d="M1040.61,134.72h15v18.16h-6.26v-2.91c-1.52,2.31-4.67,3.51-7.86,3.51-9.02,0-16.52-7.26-16.52-16.16s7.5-16.16,16.52-16.16c5.35,0,10.18,2.59,13.17,6.5l-6.5,4.39c-1.54-1.94-3.91-3.17-6.6-3.19-4.65-.03-8.4,3.58-8.52,8.23-.13,4.82,3.67,8.69,8.46,8.69,2.79,0,5.19-1.4,6.66-3.55v-.88h-7.54v-6.62Z"/>
        <path class="cls-5" d="M1068.81,121.76v25.49c0,3.11-2.52,5.63-5.63,5.63h-2.35v-22.73l7.98-8.39Z"/>
        <path class="cls-5" d="M1081.34,143.54v.2c0,1.2,1.64,2.83,5.27,2.83,2.99,0,3.95-1,3.95-1.92,0-1.32-1.56-2.12-5.31-3.39-4.95-1.64-11.45-4.03-11.45-10.45,0-5.95,5.07-9.66,12.17-9.66s12.73,3.87,12.73,10.06v.44h-7.78v-.28c0-1.52-1.56-3.31-4.79-3.31-2.71,0-3.79,1.08-3.79,2.12,0,1.24,1.44,1.88,5.15,3.15,4.31,1.52,11.65,4.07,11.65,10.89,0,6.07-5.27,9.26-12.37,9.26-7.46,0-13.21-3.47-13.21-9.58v-.36h7.78Z"/>
      </g>
    </g>
    <g>
      <rect class="cls-4" x="183.63" y="210" width="338" height="659"/>
      <text class="cls-11" transform="translate(276.08 517.36)"><tspan class="cls-9" x="0" y="0">CA</tspan><tspan class="cls-15" x="54.39" y="0">S</tspan><tspan class="cls-2" x="79.73" y="0">TER</tspan></text>
      <g>
        <polygon class="cls-8" points="156.49 875.74 82.47 875.74 99.76 853.04 82.47 828.73 156.49 828.73 156.49 875.74"/>
        <polygon class="cls-4" points="142.71 836.02 156.49 828.73 156.49 839.26 142.71 836.02"/>
        <polygon class="cls-8" points="548.77 875.74 622.8 875.74 605.51 853.04 622.8 828.73 548.77 828.73 548.77 875.74"/>
        <polygon class="cls-4" points="562.55 836.02 548.77 828.73 548.77 839.26 562.55 836.02"/>
        <path class="cls-12" d="M570.41,885.65c-144.29,22.85-291.27,22.85-435.56,0,2.62-16.54,5.24-33.09,7.86-49.63,139.08,22.03,280.76,22.03,419.84,0,2.62,16.54,5.24,33.09,7.86,49.63Z"/>
      </g>
      <text class="cls-3" transform="translate(242.69 886.66)"><tspan class="cls-1" x="0" y="0">CA</tspan><tspan class="cls-14" x="43.72" y="0">STER NAME</tspan></text>
    </g>
    <g>
      <rect class="cls-4" x="823.63" y="210" width="338" height="659"/>
      <text class="cls-11" transform="translate(916.08 517.36)"><tspan class="cls-9" x="0" y="0">CA</tspan><tspan class="cls-15" x="54.39" y="0">S</tspan><tspan class="cls-2" x="79.73" y="0">TER</tspan></text>
      <g>
        <polygon class="cls-8" points="796.49 875.74 722.47 875.74 739.76 853.04 722.47 828.73 796.49 828.73 796.49 875.74"/>
        <polygon class="cls-4" points="782.71 836.02 796.49 828.73 796.49 839.26 782.71 836.02"/>
        <polygon class="cls-8" points="1188.77 875.74 1262.8 875.74 1245.51 853.04 1262.8 828.73 1188.77 828.73 1188.77 875.74"/>
        <polygon class="cls-4" points="1202.55 836.02 1188.77 828.73 1188.77 839.26 1202.55 836.02"/>
        <path class="cls-12" d="M1210.41,885.65c-144.29,22.85-291.28,22.85-435.56,0,2.62-16.54,5.24-33.09,7.86-49.63,139.08,22.03,280.76,22.03,419.84,0,2.62,16.54,5.24,33.09,7.86,49.63Z"/>
      </g>
      <text class="cls-3" transform="translate(882.69 886.66)"><tspan class="cls-1" x="0" y="0">CA</tspan><tspan class="cls-14" x="43.72" y="0">STER NAME</tspan></text>
    </g>
    <g>
      <rect class="cls-4" x="1463.63" y="210" width="338" height="659"/>
      <text class="cls-11" transform="translate(1556.08 517.36)"><tspan class="cls-9" x="0" y="0">CA</tspan><tspan class="cls-15" x="54.39" y="0">S</tspan><tspan class="cls-2" x="79.73" y="0">TER</tspan></text>
      <g>
        <polygon class="cls-8" points="1436.49 875.74 1362.47 875.74 1379.76 853.04 1362.47 828.73 1436.49 828.73 1436.49 875.74"/>
        <polygon class="cls-4" points="1422.71 836.02 1436.49 828.73 1436.49 839.26 1422.71 836.02"/>
        <polygon class="cls-8" points="1828.77 875.74 1902.8 875.74 1885.51 853.04 1902.8 828.73 1828.77 828.73 1828.77 875.74"/>
        <polygon class="cls-4" points="1842.55 836.02 1828.77 828.73 1828.77 839.26 1842.55 836.02"/>
        <path class="cls-12" d="M1850.41,885.65c-144.29,22.85-291.27,22.85-435.56,0,2.62-16.54,5.24-33.09,7.86-49.63,139.08,22.03,280.76,22.03,419.84,0,2.62,16.54,5.24,33.09,7.86,49.63Z"/>
      </g>
      <text class="cls-3" transform="translate(1522.69 886.66)"><tspan class="cls-1" x="0" y="0">CA</tspan><tspan class="cls-14" x="43.72" y="0">STER NAME</tspan></text>
    </g>
  </g>
</svg>