<?xml version="1.0" encoding="UTF-8"?>
<svg id="Layer_2" xmlns="http://www.w3.org/2000/svg" viewBox="0 0 125 76.41">
  <defs>
    <style>
      .cls-1 {
        fill: #fff;
      }
    </style>
  </defs>
  <g id="Layer_1-2" data-name="Layer_1">
    <path class="cls-1" d="M98.01,22.43c-.83,0-1.64.04-2.45.12C90.37,9.35,77.53,0,62.5,0s-27.87,9.35-33.05,22.54c-.81-.07-1.63-.12-2.45-.12-14.91,0-27,12.09-27,27s12.09,26.99,26.99,26.99c7.96,0,15.11-3.45,20.06-8.93,4.67,2.26,9.91,3.53,15.45,3.53s10.78-1.27,15.45-3.53c4.94,5.48,12.09,8.93,20.06,8.93,14.91,0,26.99-12.09,26.99-26.99s-12.09-26.99-26.99-26.99"/>
  </g>
</svg>