<?xml version="1.0" encoding="UTF-8"?>
<svg id="Layer_2" xmlns="http://www.w3.org/2000/svg" viewBox="0 0 173 130">
  <defs>
    <style>
      .cls-1 {
        fill: #fff;
      }
    </style>
  </defs>
  <g id="Layer_1-2" data-name="Layer_1">
    <path class="cls-1" d="M164.84,60.16c.75-3.43,1.16-7,1.16-10.66,0-27.34-22.16-49.5-49.5-49.5-18.53,0-34.67,10.19-43.15,25.26-4.01-1.46-8.33-2.26-12.85-2.26-13.22,0-24.83,6.84-31.51,17.18-.98-.11-1.98-.18-2.99-.18-14.36,0-26,11.64-26,26,0,10.47,6.19,19.49,15.11,23.61-.07.79-.11,1.58-.11,2.39,0,14.36,11.64,26,26,26,6.27,0,12.02-2.22,16.52-5.92,6.59,10.75,18.45,17.92,31.98,17.92,11.47,0,21.74-5.16,28.62-13.28,5.2,2.73,11.11,4.28,17.38,4.28,20.71,0,37.5-16.79,37.5-37.5,0-8.83-3.06-16.94-8.16-23.34Z"/>
  </g>
</svg>