<?xml version="1.0" encoding="UTF-8"?>
<svg id="Layer_2" xmlns="http://www.w3.org/2000/svg" viewBox="0 0 183 124">
  <defs>
    <style>
      .cls-1 {
        fill: #ebebeb;
      }
    </style>
  </defs>
  <g id="Layer_1-2" data-name="Layer_1">
    <path class="cls-1" d="M157,47c-.06,0-.11,0-.17,0-1.76-19.07-17.8-34-37.33-34-4.8,0-9.38.91-13.6,2.55C99.09,6.13,88.01,0,75.5,0c-13.75,0-25.76,7.4-32.29,18.43-1.86-.28-3.77-.43-5.71-.43C16.79,18,0,34.79,0,55.5c0,18.66,13.64,34.14,31.49,37.01,2.88,17.85,18.35,31.49,37.01,31.49,10.39,0,19.79-4.23,26.58-11.05,6.56,5.64,15.09,9.05,24.42,9.05,15.63,0,29.02-9.56,34.65-23.16.94.1,1.88.16,2.85.16,14.36,0,26-11.64,26-26s-11.64-26-26-26Z"/>
  </g>
</svg>