<?xml version="1.0" encoding="UTF-8"?>
<svg id="Layer_2" xmlns="http://www.w3.org/2000/svg" viewBox="0 0 170 95">
  <defs>
    <style>
      .cls-1 {
        fill: #fff;
      }
    </style>
  </defs>
  <g id="Layer_1-2" data-name="Layer_1">
    <path class="cls-1" d="M144,29c-.33,0-.65.01-.97.02C139.18,12.4,124.29,0,106.5,0c-13.06,0-24.56,6.68-31.27,16.81-3.7-1.8-7.84-2.81-12.23-2.81-11.74,0-21.78,7.22-25.94,17.47-3.36-1.58-7.1-2.47-11.06-2.47C11.64,29,0,40.64,0,55s11.64,26,26,26c4.07,0,7.93-.94,11.36-2.61,6.73,10.02,18.17,16.61,31.14,16.61,6.94,0,13.43-1.89,19-5.17,5.57,3.28,12.06,5.17,19,5.17,12.31,0,23.23-5.93,30.07-15.08,2.36.7,4.85,1.08,7.43,1.08,14.36,0,26-11.64,26-26s-11.64-26-26-26Z"/>
  </g>
</svg>