<?xml version="1.0" encoding="UTF-8"?>
<svg id="Layer_2" xmlns="http://www.w3.org/2000/svg" viewBox="0 0 180 118.81">
  <defs>
    <style>
      .cls-1 {
        fill: #fff;
      }
    </style>
  </defs>
  <g id="Layer_1-2" data-name="Layer_1">
    <path class="cls-1" d="M154.39,44.11c-1,0-1.98.06-2.96.18-5.41-12.25-17.65-20.81-31.9-20.81-2.9,0-5.71.36-8.41,1.02C103.24,9.92,87.82,0,70.08,0,44.35,0,23.48,20.87,23.48,46.6c0,1.34.07,2.68.18,3.99C10.43,51.6,0,62.64,0,76.13s11.47,25.61,25.61,25.61c4.52,0,8.75-1.17,12.44-3.22,5.51,11.98,17.62,20.3,31.67,20.3,9.94,0,18.9-4.17,25.26-10.85,6.35,6.68,15.32,10.85,25.26,10.85,15.28,0,28.25-9.83,32.96-23.51.39.02.79.03,1.19.03,14.14,0,25.61-11.47,25.61-25.61s-11.47-25.61-25.61-25.61Z"/>
  </g>
</svg>