<?xml version="1.0" encoding="UTF-8"?>
<svg id="Layer_2" xmlns="http://www.w3.org/2000/svg" viewBox="0 0 223 122">
  <defs>
    <style>
      .cls-1 {
        fill: #ebebeb;
      }
    </style>
  </defs>
  <g id="Layer_1-2" data-name="Layer_1">
    <path class="cls-1" d="M193.99,38.98c0-.16.01-.32.01-.48,0-20.71-16.79-37.5-37.5-37.5-7.08,0-13.7,1.96-19.35,5.38-8.18-4.07-17.39-6.38-27.15-6.38-19.15,0-36.23,8.83-47.41,22.63-6.65-5.99-15.44-9.63-25.09-9.63C16.79,13,0,29.79,0,50.5c0,15.63,9.56,29.02,23.16,34.65-.1.94-.16,1.88-.16,2.85,0,14.36,11.64,26,26,26,7.64,0,14.5-3.29,19.26-8.54,10.91,10.25,25.59,16.54,41.74,16.54,18.92,0,35.82-8.61,47.01-22.13,6.88,8.03,17.09,13.13,28.49,13.13,20.71,0,37.5-16.79,37.5-37.5,0-17.79-12.39-32.68-29.01-36.52Z"/>
  </g>
</svg>