<?xml version="1.0" encoding="UTF-8"?>
<svg id="Layer_2" xmlns="http://www.w3.org/2000/svg" viewBox="0 0 189.75 132">
  <defs>
    <style>
      .cls-1 {
        fill: #ebebeb;
      }
    </style>
  </defs>
  <g id="Layer_1-2" data-name="Layer_1">
    <path class="cls-1" d="M147.68,36.3c-7.17,0-13.92,1.8-19.83,4.96-.64-16.52-14.23-29.71-30.91-29.71-7.31,0-14.02,2.54-19.31,6.77C70.05,7.26,57.32,0,42.9,0,19.66,0,.82,18.84.82,42.07c0,12.22,5.21,23.22,13.53,30.91-8.36,2.93-14.36,10.88-14.36,20.24,0,11.85,9.6,21.45,21.45,21.45,4.42,0,8.53-1.34,11.94-3.63,9.8,12.74,25.19,20.95,42.51,20.95,8.78,0,17.06-2.12,24.37-5.86,5.09,3.69,11.35,5.86,18.11,5.86,9.88,0,18.67-4.64,24.34-11.85,1.62.19,3.27.3,4.95.3,23.24,0,42.07-18.84,42.07-42.07s-18.84-42.07-42.07-42.07Z"/>
  </g>
</svg>