<?xml version="1.0" encoding="UTF-8"?>
<svg id="Layer_2" xmlns="http://www.w3.org/2000/svg" viewBox="0 0 170.77 121.29">
  <defs>
    <style>
      .cls-1 {
        fill: #fff;
      }
    </style>
  </defs>
  <g id="Layer_1-2" data-name="Layer_1">
    <path class="cls-1" d="M170.76,61.25c0-20.16-16.34-36.5-36.5-36.5-2.17,0-4.29.2-6.36.56C119.57,10.22,103.52,0,85.08,0s-34.43,10.17-42.76,25.2c-1.89-.31-3.83-.47-5.82-.47C16.34,24.74,0,41.08,0,61.25c0,18.13,13.23,33.17,30.55,36.01,5.1,14.02,18.53,24.03,34.31,24.03,7.47,0,14.43-2.26,20.22-6.11,5.79,3.86,12.73,6.11,20.22,6.11,15.74,0,29.15-9.96,34.28-23.92,17.64-2.58,31.19-17.76,31.19-36.12h0Z"/>
  </g>
</svg>