<?xml version="1.0" encoding="UTF-8"?>
<svg id="Layer_2" xmlns="http://www.w3.org/2000/svg" viewBox="0 0 222 137">
  <defs>
    <style>
      .cls-1 {
        fill: #fff;
      }
    </style>
  </defs>
  <g id="Layer_1-2" data-name="Layer_1">
    <path class="cls-1" d="M161.5,0c-14.16,0-27.18,4.88-37.49,13.03-6.85-7.4-16.64-12.03-27.51-12.03s-21.28,4.93-28.15,12.74c-2.9-1.12-6.05-1.74-9.35-1.74-10.35,0-19.29,6.05-23.47,14.81-2.95-1.16-6.16-1.81-9.53-1.81C11.64,25,0,36.64,0,51c0,12.86,9.35,23.54,21.62,25.62-1.67,3.44-2.62,7.3-2.62,11.38,0,14.36,11.64,26,26,26,6.95,0,13.25-2.73,17.92-7.17,7.53,17.73,25.1,30.17,45.58,30.17,15.31,0,28.99-6.95,38.07-17.86,4.78,1.21,9.78,1.86,14.93,1.86,33.41,0,60.5-27.09,60.5-60.5S194.91,0,161.5,0Z"/>
  </g>
</svg>