<?xml version="1.0" encoding="UTF-8"?>
<svg id="Layer_2" xmlns="http://www.w3.org/2000/svg" viewBox="0 0 165 107">
  <defs>
    <style>
      .cls-1 {
        fill: #ebebeb;
      }
    </style>
  </defs>
  <g id="Layer_1-2" data-name="Layer_1">
    <path class="cls-1" d="M127.5,20c-8.65,0-16.61,2.94-22.96,7.86-4.77-5.43-11.75-8.86-19.54-8.86-3.81,0-7.42.82-10.67,2.29C68.28,8.7,55.41,0,40.5,0,19.79,0,3,16.79,3,37.5c0,5.27,1.09,10.28,3.05,14.83-3.78,4.51-6.05,10.33-6.05,16.67,0,14.36,11.64,26,26,26,4.2,0,8.17-1,11.68-2.77,6.85,8.98,17.66,14.77,29.82,14.77,15.28,0,28.41-9.14,34.26-22.25,6.72,6.35,15.77,10.25,25.74,10.25,20.71,0,37.5-16.79,37.5-37.5s-16.79-37.5-37.5-37.5Z"/>
  </g>
</svg>