<?xml version="1.0" encoding="UTF-8"?>
<svg id="Layer_2" xmlns="http://www.w3.org/2000/svg" viewBox="0 0 53.68 48.04">
  <defs>
    <style>
      .cls-1 {
        fill: #fff;
      }
    </style>
  </defs>
  <g id="Layer_1-2" data-name="Layer_1">
    <g>
      <path class="cls-1" d="M28.88,0c-.19,2.37-.95,4.7-2.13,6.83-1.16,2.13-2.86,4.06-4.64,5.64-.88.8-1.71,1.52-2.3,2.29-.61.76-1.02,1.67-1.28,2.66-.51,1.99-.2,4.27.29,6.59-1.49-1.86-2.54-4.24-2.38-6.87.05-.65.16-1.31.38-1.94.2-.64.51-1.26.88-1.83.75-1.15,1.71-2,2.57-2.79,1.74-1.55,3.3-3.07,4.71-4.85,1.42-1.76,2.65-3.69,3.89-5.73Z"/>
      <path class="cls-1" d="M28.88,48.04c-.19-2.37-.95-4.7-2.13-6.83-1.16-2.13-2.86-4.06-4.64-5.64-.88-.8-1.71-1.52-2.3-2.29-.61-.76-1.02-1.67-1.28-2.66-.51-1.99-.2-4.27.29-6.59-1.49,1.86-2.54,4.24-2.38,6.87.05.65.16,1.31.38,1.94.2.64.51,1.26.88,1.83.75,1.15,1.71,2,2.57,2.79,1.74,1.55,3.3,3.07,4.71,4.85,1.42,1.76,2.65,3.69,3.89,5.73Z"/>
      <path class="cls-1" d="M28.13,45.1l-1.18-.61c2.57-4.67,5.57-12.23,5.28-21.75-.2-6.65-2.03-13.28-5.28-19.19l1.18-.61c3.35,6.08,5.23,12.91,5.44,19.76.3,9.8-2.79,17.59-5.44,22.4Z"/>
      <polygon class="cls-1" points="53.68 23.37 5.44 23.37 5.44 20.92 0 23.96 5.44 27 5.44 24.67 53.68 24.67 53.68 23.37"/>
    </g>
  </g>
</svg>