<?xml version="1.0" encoding="UTF-8"?>
<svg id="Layer_2" xmlns="http://www.w3.org/2000/svg" viewBox="0 0 73.75 202">
  <defs>
    <style>
      .cls-1 {
        fill: #f45d01;
      }
    </style>
  </defs>
  <g id="Layer_1-2" data-name="Layer_1">
    <path class="cls-1" d="M51.22,56.11c-2.02-1.54-4.37-3.66-6.73-6.6V16.24c6.28-2.85,10.74-9,11.17-16.24H17.61c.42,7.25,4.89,13.39,11.17,16.24v7.17C16.34,6.67,11.13,5.51,7.73,6.9c-1.45.59-2.77,1.77-3.63,4.38,0-.02,0-.04,0-.06-.02.1-.04.2-.07.3-.23.75-.43,1.62-.58,2.63-.59,2.68-1.14,5.43-1.6,8.3C-1,40.23-.19,56.23,1.84,69.33v90.03c0,15.47,9.8,28.61,23.51,33.67h-7.8v8.98h40.4v-8.98h-7.8c13.71-5.05,23.51-18.2,23.51-33.67v-92.02s.08,0,.09-.03c.17-.45-13.41-4.23-22.53-11.19ZM9.42,11.06c.45-.18,4.6-1.04,19.35,20.05v18.79c-1.96,2.07-4.18,4.17-6.73,6.22-.38.31-.76.58-1.15.87-1.9-3-3.79-6.28-5.59-9.85-3.09-6.13-5.35-12.04-7.07-17.58-1.87-16.02.47-18.21,1.18-18.5Z"/>
  </g>
</svg>