<?xml version="1.0" encoding="UTF-8"?>
<svg id="Layer_2" xmlns="http://www.w3.org/2000/svg" viewBox="0 0 104.71 177.31">
  <defs>
    <style>
      .cls-1 {
        fill: #f45d01;
      }
    </style>
  </defs>
  <g id="Layer_1-2" data-name="Layer_1">
    <path class="cls-1" d="M103.24,57.86v-26.9l-.19-.43c-.99-2.26-3.98-7.79-10.23-10.17-4.9-1.87-10.49-1.28-15.39,1.29v-5.92l7.86-8.98V0H19.42v6.73l7.86,8.98v5.92c-4.9-2.57-10.49-3.16-15.39-1.29-6.26,2.39-9.24,7.91-10.23,10.17l-.19.43v26.9c-1.54,10.24-2.32,23.52,0,38.65,5.63,36.7,25.95,61.28,35.91,71.82-2.55.03-6.63.39-11.22,2.24-4.98,2.01-8.35,4.88-10.22,6.73h72.85c-1.87-1.85-5.24-4.72-10.22-6.73-4.59-1.85-8.67-2.21-11.22-2.24,9.96-10.54,30.29-35.12,35.91-71.82,2.32-15.13,1.54-28.42,0-38.65ZM27.27,34.66c-3.59,1.78-7.9,4.33-12.34,7.98-3.66,3.01-6.6,6.12-8.98,9.03v-19.76c.92-1.93,3.2-5.71,7.53-7.37,4.38-1.67,9.56-.7,13.79,2.33v7.79ZM98.76,51.67c-2.37-2.91-5.32-6.02-8.98-9.03-4.44-3.65-8.76-6.2-12.34-7.98v-7.79c4.23-3.03,9.41-4.01,13.79-2.33,4.34,1.66,6.62,5.44,7.53,7.37v19.76Z"/>
  </g>
</svg>