<?xml version="1.0" encoding="UTF-8"?>
<svg id="Layer_2" xmlns="http://www.w3.org/2000/svg" viewBox="0 0 108.41 151.94">
  <defs>
    <style>
      .cls-1 {
        fill: #f45d01;
      }
    </style>
  </defs>
  <g id="Layer_1-2" data-name="Layer_1">
    <path class="cls-1" d="M70.25,26.25c1.68-3.09,7.67-13.15,20.2-17.96,7.52-2.88,14.24-2.66,17.96-2.24L89.58.4c-2.33-.7-4.83-.48-7.01.6l-41.51,20.75v.02c-9.19-7.73-19.76-10.86-27.58-7.51-5.02,2.15-9.22,7.25-11.5,13.98C-1.85,39.58-.07,53.15,6.76,65.29l7.55,15.1c1.98,5.87,3.55,12.65,4.15,20.18l-6.91,10.37c-1.15,1.73-1.17,3.97-.04,5.71l22.83,35.29h44.98l19.11-34.13c.66-1.17,1-2.49,1-3.83v-4.24c0-1.64-.52-3.24-1.47-4.58l-27.7-38.52V26.25ZM27.59,86.88l-12.9-25.79c-5.6-9.97-7.17-21.16-4.19-29.95,1.44-4.26,3.89-7.48,6.53-8.62,5.22-2.24,15.71,1.77,24.04,12.04v32.09l-13.49,20.23Z"/>
  </g>
</svg>