<?xml version="1.0" encoding="UTF-8"?>
<svg id="Layer_2" xmlns="http://www.w3.org/2000/svg" xmlns:xlink="http://www.w3.org/1999/xlink" viewBox="0 0 126.22 241.34">
  <defs>
    <style>
      .cls-1 {
        stroke: #000;
        stroke-miterlimit: 10;
      }

      .cls-1, .cls-2 {
        fill: #2e2623;
      }

      .cls-3 {
        clip-path: url(#clippath);
      }
    </style>
    <clipPath id="clippath">
      <path class="cls-2" d="M64.93,201h-25.82c-12.2-91.32-5.75-142.24.7-169.59C41.9,22.51,47.23-.09,53.94,0c7.17.1,12.2,26.1,14.13,36.12,5.89,30.48,10.37,82.08-3.14,164.88Z"/>
    </clipPath>
  </defs>
  <g id="Layer_1-2" data-name="Layer_1">
    <g>
      <path class="cls-2" d="M64.93,201h-25.82c-12.2-91.32-5.75-142.24.7-169.59C41.9,22.51,47.23-.09,53.94,0c7.17.1,12.2,26.1,14.13,36.12,5.89,30.48,10.37,82.08-3.14,164.88Z"/>
      <g class="cls-3">
        <path class="cls-1" d="M9.97,150.75c7.23,2.84,13.53,3.5,18.84,3.14,31.13-2.11,59.42-41.48,72.23-97.36,37.16,128.06,25.97,167.48,7.85,179.02C80.59,253.56.55,219.84.55,219.84h0l9.42-69.09Z"/>
      </g>
    </g>
  </g>
</svg>