<?xml version="1.0" encoding="UTF-8"?>
<svg id="Layer_2" xmlns="http://www.w3.org/2000/svg" viewBox="0 0 103.24 169.14">
  <defs>
    <style>
      .cls-1 {
        fill: #65524d;
      }
    </style>
  </defs>
  <g id="Layer_1-2" data-name="Layer_1">
    <path class="cls-1" d="M97.75,56.05l-7.54-4.26c-.16-.51-.3-1.05-.43-1.61-.44-1.98-.54-3.79-.47-5.33l2.72-2.72V9.25l-.24-.48c-2.43-4.79-5.63-6.88-7.89-7.8-5.76-2.33-12.89-.34-18.8,4.66V.8h-26.93v36.79L5.5,56.05c-3.4,1.92-5.5,5.52-5.5,9.42v12.97c0,2.07.59,4.09,1.7,5.83l40.94,64.08v14.59c0,3.42,2.77,6.19,6.19,6.19h5.57c3.42,0,6.19-2.77,6.19-6.19v-14.59l40.94-64.08c1.11-1.74,1.7-3.76,1.7-5.83v-12.97c0-3.9-2.1-7.5-5.5-9.42ZM82.2,5.13c1.22.49,3.48,1.82,5.33,5.21v29.94l-6.39,6.39-16.05-9.07V11.9c5.62-6.64,12.66-8.57,17.11-6.77Z"/>
  </g>
</svg>