<?xml version="1.0" encoding="UTF-8"?>
<svg id="Layer_2" xmlns="http://www.w3.org/2000/svg" viewBox="0 0 77.95 175.07">
  <defs>
    <style>
      .cls-1 {
        fill: #65524d;
      }
    </style>
  </defs>
  <g id="Layer_1-2" data-name="Layer_1">
    <path class="cls-1" d="M60.86,71.41c2.39-28.48,21.57-40.9,16.12-57.59-.56-1.73-2.29-7.11-6.91-9.21-5.34-2.43-13,.23-20.73,6.85v-6.85h4.61V0h-29.95v4.61h3.84v6.19C20.38,4.66,13.04,2.26,7.88,4.61,3.26,6.71,1.53,12.09.97,13.82c-5.44,16.69,13.73,29.1,16.12,57.59.34,4.06.26,7.51.11,9.97-4.51,8.43-15.09,31.17-8.17,57.98,4.6,17.82,13.94,25.86,16.12,27.64.53.43,1.02.78,1.53,1.15h-4.98v6.91h34.55v-6.91h-4.97c.57-.42,1.09-.82,1.51-1.15,3.43-2.72,9.84-8.96,13.82-25.34,1.76-7.24,7.64-33.39-5.86-60.08-.16-2.48-.25-6,.1-10.18ZM65.47,6.91c3.74,1.35,4.48,8.08,4.61,9.21,1.14,10.33-6.12,17.13-13.82,29.95-2.41,4.01-5.4,9.53-8.32,16.54-1.02-.89-2.09-1.66-3.2-2.27V23.95c.67-1,1.42-2.07,2.3-3.22,2.05-2.66,12.35-16.02,18.43-13.82ZM7.88,16.12c.12-1.13.87-7.86,4.61-9.21,6.08-2.2,16.37,11.16,18.43,13.82.88,1.15,1.63,2.22,2.3,3.22v36.43c-1.1.62-2.16,1.39-3.17,2.29-2.92-7.04-5.93-12.58-8.35-16.6-7.7-12.81-14.96-19.62-13.82-29.95Z"/>
  </g>
</svg>