# WaveFront *.obj file (generated by Autodesk ATF)

mtllib Untitled.mtl

g Body1

v 3.265000 0.000000 -0.101000
v 0.285000 0.000000 -5.722625
v 0.285000 1.000000 -5.722625
v 3.265000 1.000000 -0.101000
v 2.028000 0.000000 1.483000
v 2.028000 1.000000 1.483000
v 2.320000 0.000000 1.950000
v 2.320000 1.000000 1.950000
v 1.309993 0.000000 3.342094
v 1.309993 1.000000 3.342094
v 0.985000 0.000000 3.285000
v 0.985000 1.000000 3.285000
v 0.440000 0.000000 0.202000
v 0.440000 1.000000 0.202000
v 0.850500 0.000000 -0.410000
v 0.850500 1.000000 -0.410000
v 1.285000 0.000000 0.286500
v 1.285000 1.000000 0.286500
v 1.709000 0.000000 -0.215000
v 1.709000 1.000000 -0.215000
v 0.000000 0.000000 -3.760500
v 0.000000 1.000000 -3.760500
v -1.709000 0.000000 -0.215000
v -1.709000 1.000000 -0.215000
v -1.285000 0.000000 0.286500
v -1.285000 1.000000 0.286500
v -0.850500 0.000000 -0.410000
v -0.850500 1.000000 -0.410000
v -0.440000 0.000000 0.202000
v -0.440000 1.000000 0.202000
v -0.985000 0.000000 3.285000
v -0.985000 1.000000 3.285000
v -1.309993 0.000000 3.342094
v -1.309993 1.000000 3.342094
v -2.320000 0.000000 1.950000
v -2.320000 1.000000 1.950000
v -2.028000 0.000000 1.483000
v -2.028000 1.000000 1.483000
v -3.265000 0.000000 -0.101000
v -3.265000 1.000000 -0.101000
v -0.285000 0.000000 -5.722625
v -0.285000 1.000000 -5.722625
vt -0.000000 0.000000 0.000000
vt 6.362631 0.000000 0.000000
vt -0.000000 1.000000 0.000000
vt 6.362631 1.000000 0.000000
vt -0.000000 0.000000 0.000000
vt 2.009782 0.000000 0.000000
vt -0.000000 1.000000 0.000000
vt 2.009782 1.000000 0.000000
vt -0.000000 0.000000 0.000000
vt 0.550775 0.000000 0.000000
vt -0.000000 1.000000 0.000000
vt 0.550775 1.000000 0.000000
vt 0.000000 0.000000 0.000000
vt 1.719896 0.000000 0.000000
vt 0.000000 1.000000 0.000000
vt 1.719896 1.000000 0.000000
vt 0.000000 0.000000 0.000000
vt 0.329970 0.000000 0.000000
vt 0.000000 1.000000 0.000000
vt 0.329970 1.000000 0.000000
vt 0.000000 0.000000 0.000000
vt 3.130801 0.000000 0.000000
vt 0.000000 1.000000 0.000000
vt 3.130801 1.000000 0.000000
vt 0.000000 0.000000 0.000000
vt 0.736922 0.000000 0.000000
vt 0.000000 1.000000 0.000000
vt 0.736922 1.000000 0.000000
vt -0.000000 0.000000 0.000000
vt 0.820916 0.000000 0.000000
vt -0.000000 1.000000 0.000000
vt 0.820916 1.000000 0.000000
vt 0.000000 0.000000 0.000000
vt 0.656718 0.000000 0.000000
vt 0.000000 1.000000 0.000000
vt 0.656718 1.000000 0.000000
vt 0.000000 0.000000 0.000000
vt 3.935893 0.000000 0.000000
vt 0.000000 1.000000 0.000000
vt 3.935893 1.000000 0.000000
vt 0.000000 0.000000 0.000000
vt 3.935893 0.000000 0.000000
vt 0.000000 1.000000 0.000000
vt 3.935893 1.000000 0.000000
vt 0.000000 0.000000 0.000000
vt 0.656718 0.000000 0.000000
vt 0.000000 1.000000 0.000000
vt 0.656718 1.000000 0.000000
vt 0.000000 0.000000 0.000000
vt 0.820916 0.000000 0.000000
vt 0.000000 1.000000 0.000000
vt 0.820916 1.000000 0.000000
vt 0.000000 0.000000 0.000000
vt 0.736922 0.000000 0.000000
vt 0.000000 1.000000 0.000000
vt 0.736922 1.000000 0.000000
vt 0.000000 0.000000 0.000000
vt 3.130801 0.000000 0.000000
vt 0.000000 1.000000 0.000000
vt 3.130801 1.000000 0.000000
vt 0.000000 0.000000 0.000000
vt 0.329970 0.000000 0.000000
vt -0.000000 1.000000 0.000000
vt 0.329970 1.000000 0.000000
vt 0.000000 0.000000 0.000000
vt 1.719896 0.000000 0.000000
vt 0.000000 1.000000 0.000000
vt 1.719896 1.000000 0.000000
vt 0.000000 0.000000 0.000000
vt 0.550775 0.000000 0.000000
vt 0.000000 1.000000 0.000000
vt 0.550775 1.000000 0.000000
vt 0.000000 0.000000 0.000000
vt 2.009782 0.000000 0.000000
vt 0.000000 1.000000 0.000000
vt 2.009782 1.000000 0.000000
vt 0.000000 0.000000 0.000000
vt 6.362631 0.000000 0.000000
vt 0.000000 1.000000 0.000000
vt 6.362631 1.000000 0.000000
vt 0.000000 0.000000 0.000000
vt 0.570000 0.000000 0.000000
vt 0.000000 1.000000 0.000000
vt 0.570000 1.000000 0.000000
vt 1.089265 3.265000 0.000000
vt -4.532360 0.285000 0.000000
vt -2.570235 0.000000 0.000000
vt -4.532360 -0.285000 0.000000
vt 1.089265 -3.265000 0.000000
vt 0.975265 -1.709000 0.000000
vt 2.673265 -2.028000 0.000000
vt 1.476765 -1.285000 0.000000
vt 4.475266 -0.985000 0.000000
vt 1.392265 -0.440000 0.000000
vt 3.140266 -2.320000 0.000000
vt 4.532360 -1.309993 0.000000
vt 0.780265 -0.850500 0.000000
vt 0.975265 1.709000 0.000000
vt 2.673265 2.028000 0.000000
vt 1.476765 1.285000 0.000000
vt 4.475266 0.985000 0.000000
vt 1.392265 0.440000 0.000000
vt 0.780265 0.850500 0.000000
vt 4.532360 1.309993 0.000000
vt 3.140266 2.320000 0.000000
vt 3.265000 -1.089265 0.000000
vt 0.285000 4.532360 0.000000
vt -0.000000 2.570235 0.000000
vt -0.285000 4.532360 0.000000
vt -3.265000 -1.089265 0.000000
vt -1.709000 -0.975265 0.000000
vt -2.028000 -2.673265 0.000000
vt -1.285000 -1.476765 0.000000
vt -0.985000 -4.475266 0.000000
vt -0.440000 -1.392265 0.000000
vt -2.320000 -3.140266 0.000000
vt -1.309993 -4.532360 0.000000
vt -0.850500 -0.780265 0.000000
vt 1.709000 -0.975265 0.000000
vt 2.028000 -2.673265 0.000000
vt 1.285000 -1.476765 0.000000
vt 0.985000 -4.475266 0.000000
vt 0.440000 -1.392265 0.000000
vt 0.850500 -0.780265 0.000000
vt 1.309993 -4.532360 0.000000
vt 2.320000 -3.140266 0.000000
vn 0.883538 0.000000 -0.468360
vn 0.883538 0.000000 -0.468360
vn 0.883538 0.000000 -0.468360
vn 0.883538 0.000000 -0.468360
vn 0.788145 -0.000000 0.615490
vn 0.788145 -0.000000 0.615490
vn 0.788145 -0.000000 0.615490
vn 0.788145 -0.000000 0.615490
vn 0.847896 0.000000 -0.530162
vn 0.847896 0.000000 -0.530162
vn 0.847896 0.000000 -0.530162
vn 0.847896 0.000000 -0.530162
vn 0.809406 -0.000000 0.587249
vn 0.809406 -0.000000 0.587249
vn 0.809406 -0.000000 0.587249
vn 0.809406 -0.000000 0.587249
vn -0.173029 0.000000 0.984917
vn -0.173029 0.000000 0.984917
vn -0.173029 0.000000 0.984917
vn -0.173029 0.000000 0.984917
vn -0.984732 0.000000 0.174077
vn -0.984732 0.000000 0.174077
vn -0.984732 0.000000 0.174077
vn -0.984732 0.000000 0.174077
vn -0.830481 0.000000 -0.557047
vn -0.830481 0.000000 -0.557047
vn -0.830481 0.000000 -0.557047
vn -0.830481 0.000000 -0.557047
vn 0.848443 0.000000 -0.529287
vn 0.848443 0.000000 -0.529287
vn 0.848443 0.000000 -0.529287
vn 0.848443 0.000000 -0.529287
vn -0.763646 0.000000 -0.645635
vn -0.763646 0.000000 -0.645635
vn -0.763646 0.000000 -0.645635
vn -0.763646 0.000000 -0.645635
vn -0.900812 0.000000 0.434209
vn -0.900812 0.000000 0.434209
vn -0.900812 0.000000 0.434209
vn -0.900812 0.000000 0.434209
vn 0.900812 -0.000000 0.434209
vn 0.900812 -0.000000 0.434209
vn 0.900812 -0.000000 0.434209
vn 0.900812 -0.000000 0.434209
vn 0.763646 0.000000 -0.645635
vn 0.763646 0.000000 -0.645635
vn 0.763646 0.000000 -0.645635
vn 0.763646 0.000000 -0.645635
vn -0.848443 0.000000 -0.529287
vn -0.848443 0.000000 -0.529287
vn -0.848443 0.000000 -0.529287
vn -0.848443 0.000000 -0.529287
vn 0.830481 0.000000 -0.557047
vn 0.830481 0.000000 -0.557047
vn 0.830481 0.000000 -0.557047
vn 0.830481 0.000000 -0.557047
vn 0.984732 -0.000000 0.174077
vn 0.984732 -0.000000 0.174077
vn 0.984732 -0.000000 0.174077
vn 0.984732 -0.000000 0.174077
vn 0.173029 -0.000000 0.984917
vn 0.173029 -0.000000 0.984917
vn 0.173029 -0.000000 0.984917
vn 0.173029 -0.000000 0.984917
vn -0.809406 0.000000 0.587249
vn -0.809406 0.000000 0.587249
vn -0.809406 0.000000 0.587249
vn -0.809406 0.000000 0.587249
vn -0.847896 0.000000 -0.530162
vn -0.847896 0.000000 -0.530162
vn -0.847896 0.000000 -0.530162
vn -0.847896 0.000000 -0.530162
vn -0.788145 0.000000 0.615490
vn -0.788145 0.000000 0.615490
vn -0.788145 0.000000 0.615490
vn -0.788145 0.000000 0.615490
vn -0.883538 0.000000 -0.468360
vn -0.883538 0.000000 -0.468360
vn -0.883538 0.000000 -0.468360
vn -0.883538 0.000000 -0.468360
vn 0.000000 0.000000 -1.000000
vn 0.000000 0.000000 -1.000000
vn 0.000000 0.000000 -1.000000
vn 0.000000 0.000000 -1.000000
vn 0.000000 1.000000 0.000000
vn 0.000000 1.000000 0.000000
vn 0.000000 1.000000 0.000000
vn 0.000000 1.000000 0.000000
vn 0.000000 1.000000 0.000000
vn 0.000000 1.000000 0.000000
vn 0.000000 1.000000 0.000000
vn 0.000000 1.000000 0.000000
vn 0.000000 1.000000 0.000000
vn 0.000000 1.000000 0.000000
vn 0.000000 1.000000 0.000000
vn 0.000000 1.000000 0.000000
vn 0.000000 1.000000 0.000000
vn 0.000000 1.000000 0.000000
vn 0.000000 1.000000 0.000000
vn 0.000000 1.000000 0.000000
vn 0.000000 1.000000 0.000000
vn 0.000000 1.000000 0.000000
vn 0.000000 1.000000 0.000000
vn 0.000000 1.000000 0.000000
vn 0.000000 1.000000 0.000000
vn -0.000000 -1.000000 -0.000000
vn -0.000000 -1.000000 -0.000000
vn -0.000000 -1.000000 -0.000000
vn -0.000000 -1.000000 -0.000000
vn -0.000000 -1.000000 -0.000000
vn -0.000000 -1.000000 -0.000000
vn -0.000000 -1.000000 -0.000000
vn -0.000000 -1.000000 -0.000000
vn -0.000000 -1.000000 -0.000000
vn -0.000000 -1.000000 -0.000000
vn -0.000000 -1.000000 -0.000000
vn -0.000000 -1.000000 -0.000000
vn -0.000000 -1.000000 -0.000000
vn -0.000000 -1.000000 -0.000000
vn -0.000000 -1.000000 -0.000000
vn -0.000000 -1.000000 -0.000000
vn -0.000000 -1.000000 -0.000000
vn -0.000000 -1.000000 -0.000000
vn -0.000000 -1.000000 -0.000000
vn -0.000000 -1.000000 -0.000000
vn -0.000000 -1.000000 -0.000000
usemtl Steel_-_Satin
f 1/1/1 2/2/2 4/3/3
f 4/3/3 2/2/2 3/4/4
f 5/5/5 1/6/6 6/7/7
f 6/7/7 1/6/6 4/8/8
f 7/9/9 5/10/10 8/11/11
f 8/11/11 5/10/10 6/12/12
f 9/13/13 7/14/14 10/15/15
f 10/15/15 7/14/14 8/16/16
f 11/17/17 9/18/18 12/19/19
f 12/19/19 9/18/18 10/20/20
f 13/21/21 11/22/22 14/23/23
f 14/23/23 11/22/22 12/24/24
f 15/25/25 13/26/26 16/27/27
f 16/27/27 13/26/26 14/28/28
f 17/29/29 15/30/30 18/31/31
f 18/31/31 15/30/30 16/32/32
f 19/33/33 17/34/34 20/35/35
f 20/35/35 17/34/34 18/36/36
f 21/37/37 19/38/38 22/39/39
f 22/39/39 19/38/38 20/40/40
f 23/41/41 21/42/42 24/43/43
f 24/43/43 21/42/42 22/44/44
f 25/45/45 23/46/46 26/47/47
f 26/47/47 23/46/46 24/48/48
f 27/49/49 25/50/50 28/51/51
f 28/51/51 25/50/50 26/52/52
f 29/53/53 27/54/54 30/55/55
f 30/55/55 27/54/54 28/56/56
f 31/57/57 29/58/58 32/59/59
f 32/59/59 29/58/58 30/60/60
f 33/61/61 31/62/62 34/63/63
f 34/63/63 31/62/62 32/64/64
f 35/65/65 33/66/66 36/67/67
f 36/67/67 33/66/66 34/68/68
f 37/69/69 35/70/70 38/71/71
f 38/71/71 35/70/70 36/72/72
f 39/73/73 37/74/74 40/75/75
f 40/75/75 37/74/74 38/76/76
f 41/77/77 39/78/78 42/79/79
f 42/79/79 39/78/78 40/80/80
f 2/81/81 41/82/82 3/83/83
f 3/83/83 41/82/82 42/84/84
f 4/85/85 3/86/86 22/87/87
f 22/87/87 3/86/86 42/88/88
f 22/87/87 42/88/88 40/89/89
f 22/87/87 40/89/89 24/90/90
f 24/90/90 40/89/89 38/91/91
f 24/90/90 38/91/91 26/92/92
f 26/92/92 38/91/91 32/93/93
f 26/92/92 32/93/93 30/94/94
f 36/95/95 34/96/96 38/91/91
f 38/91/91 34/96/96 32/93/93
f 30/94/94 28/97/97 26/92/92
f 22/87/87 20/98/98 4/85/85
f 4/85/85 20/98/98 6/99/99
f 6/99/99 20/98/98 18/100/100
f 6/99/99 18/100/100 12/101/101
f 12/101/101 18/100/100 14/102/102
f 14/102/102 18/100/100 16/103/103
f 12/101/101 10/104/104 6/99/99
f 6/99/99 10/104/104 8/105/105
f 39/106/106 41/107/107 21/108/108
f 21/108/108 41/107/107 2/109/109
f 21/108/108 2/109/109 1/110/110
f 21/108/108 1/110/110 19/111/111
f 19/111/111 1/110/110 5/112/112
f 19/111/111 5/112/112 17/113/113
f 17/113/113 5/112/112 11/114/114
f 17/113/113 11/114/114 13/115/115
f 7/116/116 9/117/117 5/112/112
f 5/112/112 9/117/117 11/114/114
f 13/115/115 15/118/118 17/113/113
f 21/108/108 23/119/119 39/106/106
f 39/106/106 23/119/119 37/120/120
f 37/120/120 23/119/119 25/121/121
f 37/120/120 25/121/121 31/122/122
f 31/122/122 25/121/121 29/123/123
f 29/123/123 25/121/121 27/124/124
f 31/122/122 33/125/125 37/120/120
f 37/120/120 33/125/125 35/126/126
g Body2

v -1.972500 0.000000 5.721500
v -1.475000 0.000000 4.169000
v -1.475000 1.000000 4.169000
v -1.972500 1.000000 5.721500
v -4.372000 0.000000 2.318000
v -4.372000 1.000000 2.318000
v -3.883000 0.000000 1.332000
v -3.883000 1.000000 1.332000
v -3.981000 0.000000 -0.069000
v -3.981000 1.000000 -0.069000
v -2.720000 0.000000 1.588000
v -2.720000 1.000000 1.588000
v -3.012000 0.000000 1.988000
v -3.012000 1.000000 1.988000
vt 0.000000 0.000000 0.000000
vt 1.630265 0.000000 0.000000
vt 0.000000 1.000000 0.000000
vt 1.630265 1.000000 0.000000
vt 0.000000 0.000000 0.000000
vt 4.164302 0.000000 0.000000
vt 0.000000 1.000000 0.000000
vt 4.164302 1.000000 0.000000
vt 0.000000 0.000000 0.000000
vt 1.100599 0.000000 0.000000
vt 0.000000 1.000000 0.000000
vt 1.100599 1.000000 0.000000
vt 0.000000 0.000000 0.000000
vt 1.404423 0.000000 0.000000
vt 0.000000 1.000000 0.000000
vt 1.404423 1.000000 0.000000
vt -0.000000 0.000000 0.000000
vt 2.082251 0.000000 0.000000
vt -0.000000 1.000000 0.000000
vt 2.082251 1.000000 0.000000
vt 0.000000 0.000000 0.000000
vt 0.495241 0.000000 0.000000
vt 0.000000 1.000000 0.000000
vt 0.495241 1.000000 0.000000
vt -0.000000 0.000000 0.000000
vt 2.668170 0.000000 0.000000
vt -0.000000 1.000000 0.000000
vt 2.668170 1.000000 0.000000
vt 1.342750 1.448500 0.000000
vt -0.838250 -0.088500 0.000000
vt 2.895250 0.951000 0.000000
vt -0.508250 -1.448500 0.000000
vt -1.494250 -0.959500 0.000000
vt -1.238250 0.203500 0.000000
vt -2.895250 -1.057500 0.000000
vt -1.448500 -1.342750 0.000000
vt -0.951000 -2.895250 0.000000
vt 0.088500 0.838250 0.000000
vt 1.448500 0.508250 0.000000
vt 0.959500 1.494250 0.000000
vt 1.057500 2.895250 0.000000
vt -0.203500 1.238250 0.000000
vn 0.952299 -0.000000 0.305165
vn 0.952299 -0.000000 0.305165
vn 0.952299 -0.000000 0.305165
vn 0.952299 -0.000000 0.305165
vn -0.817304 0.000000 0.576207
vn -0.817304 0.000000 0.576207
vn -0.817304 0.000000 0.576207
vn -0.817304 0.000000 0.576207
vn -0.895876 0.000000 -0.444304
vn -0.895876 0.000000 -0.444304
vn -0.895876 0.000000 -0.444304
vn -0.895876 0.000000 -0.444304
vn -0.997562 0.000000 0.069780
vn -0.997562 0.000000 0.069780
vn -0.997562 0.000000 0.069780
vn -0.997562 0.000000 0.069780
vn 0.795773 0.000000 -0.605595
vn 0.795773 0.000000 -0.605595
vn 0.795773 0.000000 -0.605595
vn 0.795773 0.000000 -0.605595
vn 0.807687 -0.000000 0.589612
vn 0.807687 -0.000000 0.589612
vn 0.807687 -0.000000 0.589612
vn 0.807687 -0.000000 0.589612
vn 0.817414 0.000000 -0.576050
vn 0.817414 0.000000 -0.576050
vn 0.817414 0.000000 -0.576050
vn 0.817414 0.000000 -0.576050
vn 0.000000 1.000000 0.000000
vn 0.000000 1.000000 0.000000
vn 0.000000 1.000000 0.000000
vn 0.000000 1.000000 0.000000
vn 0.000000 1.000000 0.000000
vn 0.000000 1.000000 0.000000
vn 0.000000 1.000000 0.000000
vn -0.000000 -1.000000 -0.000000
vn -0.000000 -1.000000 -0.000000
vn -0.000000 -1.000000 -0.000000
vn -0.000000 -1.000000 -0.000000
vn -0.000000 -1.000000 -0.000000
vn -0.000000 -1.000000 -0.000000
vn -0.000000 -1.000000 -0.000000
f 43/127/127 44/128/128 46/129/129
f 46/129/129 44/128/128 45/130/130
f 47/131/131 43/132/132 48/133/133
f 48/133/133 43/132/132 46/134/134
f 49/135/135 47/136/136 50/137/137
f 50/137/137 47/136/136 48/138/138
f 51/139/139 49/140/140 52/141/141
f 52/141/141 49/140/140 50/142/142
f 53/143/143 51/144/144 54/145/145
f 54/145/145 51/144/144 52/146/146
f 55/147/147 53/148/148 56/149/149
f 56/149/149 53/148/148 54/150/150
f 44/151/151 55/152/152 45/153/153
f 45/153/153 55/152/152 56/154/154
f 45/155/155 56/156/156 46/157/157
f 46/157/157 56/156/156 48/158/158
f 48/158/158 56/156/156 50/159/159
f 50/159/159 56/156/156 54/160/160
f 50/159/159 54/160/160 52/161/161
f 44/162/162 43/163/163 55/164/164
f 55/164/164 43/163/163 47/165/165
f 55/164/164 47/165/165 49/166/166
f 51/167/167 53/168/168 49/166/166
f 49/166/166 53/168/168 55/164/164
g Body3

v 4.372000 0.000000 2.318000
v 3.883000 0.000000 1.332000
v 3.883000 1.000000 1.332000
v 4.372000 1.000000 2.318000
v 1.972500 0.000000 5.721500
v 1.972500 1.000000 5.721500
v 1.475000 0.000000 4.169000
v 1.475000 1.000000 4.169000
v 3.012000 0.000000 1.988000
v 3.012000 1.000000 1.988000
v 2.720000 0.000000 1.588000
v 2.720000 1.000000 1.588000
v 3.981000 0.000000 -0.069000
v 3.981000 1.000000 -0.069000
vt 0.000000 0.000000 0.000000
vt 1.100599 0.000000 0.000000
vt 0.000000 1.000000 0.000000
vt 1.100599 1.000000 0.000000
vt 0.000000 0.000000 0.000000
vt 4.164302 0.000000 0.000000
vt 0.000000 1.000000 0.000000
vt 4.164302 1.000000 0.000000
vt 0.000000 0.000000 0.000000
vt 1.630265 0.000000 0.000000
vt 0.000000 1.000000 0.000000
vt 1.630265 1.000000 0.000000
vt 0.000000 0.000000 0.000000
vt 2.668170 0.000000 0.000000
vt 0.000000 1.000000 0.000000
vt 2.668170 1.000000 0.000000
vt 0.000000 0.000000 0.000000
vt 0.495241 0.000000 0.000000
vt 0.000000 1.000000 0.000000
vt 0.495241 1.000000 0.000000
vt 0.000000 0.000000 0.000000
vt 2.082251 0.000000 0.000000
vt 0.000000 1.000000 0.000000
vt 2.082251 1.000000 0.000000
vt 0.000000 0.000000 0.000000
vt 1.404423 0.000000 0.000000
vt 0.000000 1.000000 0.000000
vt 1.404423 1.000000 0.000000
vt -2.895250 1.057500 0.000000
vt -1.238250 -0.203500 0.000000
vt -1.494250 0.959500 0.000000
vt -0.838250 0.088500 0.000000
vt -0.508250 1.448500 0.000000
vt 2.895250 -0.951000 0.000000
vt 1.342750 -1.448500 0.000000
vt -1.057500 2.895250 0.000000
vt -0.959500 1.494250 0.000000
vt 0.203500 1.238250 0.000000
vt -0.088500 0.838250 0.000000
vt -1.448500 0.508250 0.000000
vt 0.951000 -2.895250 0.000000
vt 1.448500 -1.342750 0.000000
vn 0.895876 0.000000 -0.444304
vn 0.895876 0.000000 -0.444304
vn 0.895876 0.000000 -0.444304
vn 0.895876 0.000000 -0.444304
vn 0.817304 -0.000000 0.576207
vn 0.817304 -0.000000 0.576207
vn 0.817304 -0.000000 0.576207
vn 0.817304 -0.000000 0.576207
vn -0.952299 0.000000 0.305165
vn -0.952299 0.000000 0.305165
vn -0.952299 0.000000 0.305165
vn -0.952299 0.000000 0.305165
vn -0.817414 0.000000 -0.576050
vn -0.817414 0.000000 -0.576050
vn -0.817414 0.000000 -0.576050
vn -0.817414 0.000000 -0.576050
vn -0.807687 0.000000 0.589612
vn -0.807687 0.000000 0.589612
vn -0.807687 0.000000 0.589612
vn -0.807687 0.000000 0.589612
vn -0.795773 0.000000 -0.605595
vn -0.795773 0.000000 -0.605595
vn -0.795773 0.000000 -0.605595
vn -0.795773 0.000000 -0.605595
vn 0.997562 -0.000000 0.069780
vn 0.997562 -0.000000 0.069780
vn 0.997562 -0.000000 0.069780
vn 0.997562 -0.000000 0.069780
vn 0.000000 1.000000 0.000000
vn 0.000000 1.000000 0.000000
vn 0.000000 1.000000 0.000000
vn 0.000000 1.000000 0.000000
vn 0.000000 1.000000 0.000000
vn 0.000000 1.000000 0.000000
vn 0.000000 1.000000 0.000000
vn -0.000000 -1.000000 -0.000000
vn -0.000000 -1.000000 -0.000000
vn -0.000000 -1.000000 -0.000000
vn -0.000000 -1.000000 -0.000000
vn -0.000000 -1.000000 -0.000000
vn -0.000000 -1.000000 -0.000000
vn -0.000000 -1.000000 -0.000000
f 57/169/169 58/170/170 60/171/171
f 60/171/171 58/170/170 59/172/172
f 61/173/173 57/174/174 62/175/175
f 62/175/175 57/174/174 60/176/176
f 63/177/177 61/178/178 64/179/179
f 64/179/179 61/178/178 62/180/180
f 65/181/181 63/182/182 66/183/183
f 66/183/183 63/182/182 64/184/184
f 67/185/185 65/186/186 68/187/187
f 68/187/187 65/186/186 66/188/188
f 69/189/189 67/190/190 70/191/191
f 70/191/191 67/190/190 68/192/192
f 58/193/193 69/194/194 59/195/195
f 59/195/195 69/194/194 70/196/196
f 70/197/197 68/198/198 59/199/199
f 59/199/199 68/198/198 66/200/200
f 59/199/199 66/200/200 60/201/201
f 60/201/201 66/200/200 62/202/202
f 62/202/202 66/200/200 64/203/203
f 69/204/204 58/205/205 67/206/206
f 67/206/206 58/205/205 65/207/207
f 65/207/207 58/205/205 57/208/208
f 65/207/207 57/208/208 61/209/209
f 61/209/209 63/210/210 65/207/207
# 70 vertices
# 210 texture params
# 210 normals
# 128 facets

# 3 groups
