<?xml version="1.0" encoding="UTF-8"?>
<svg id="Layer_2" xmlns="http://www.w3.org/2000/svg" viewBox="0 0 510.96 115">
  <defs>
    <style>
      .cls-1 {
        fill: #678c03;
      }
    </style>
  </defs>
  <g id="Layer_1-2" data-name="Layer_1">
    <path class="cls-1" d="M510.96,115c-14.17-28.45-43.52-48-77.46-48-4.93,0-9.75.43-14.45,1.22-14.49-27.48-43.32-46.22-76.55-46.22-25.66,0-48.71,11.19-64.55,28.94-6.83-3.16-14.43-4.94-22.45-4.94-2.83,0-5.61.22-8.32.65-9.4-15.38-26.34-25.65-45.68-25.65-5.25,0-10.31.77-15.1,2.18C170.96,8.8,150.26,0,127.5,0,90.68,0,59.25,23.02,46.77,55.44,20.4,58.75,0,81.23,0,108.5c0,2.2.14,4.37.4,6.5h510.56Z"/>
  </g>
</svg>