<?xml version="1.0" encoding="UTF-8"?>
<svg id="Layer_2" xmlns="http://www.w3.org/2000/svg" viewBox="0 0 767.08 165">
  <defs>
    <style>
      .cls-1 {
        fill: #678c03;
      }
    </style>
  </defs>
  <g id="Layer_1-2" data-name="Layer_1">
    <path class="cls-1" d="M767.08,165c-15.8-23.52-42.64-39-73.1-39-1.63,0-3.24.05-4.85.13-11.95-34.42-44.66-59.13-83.15-59.13-6.89,0-13.6.79-20.04,2.29-6.78-8.88-16.52-15.36-27.74-17.99-4.11-22.91-24.12-40.3-48.22-40.3-9.57,0-18.49,2.75-26.03,7.49-14.9-11.59-33.63-18.49-53.97-18.49-40.28,0-74.24,27.07-84.69,64-8.31-2.6-17.15-4-26.31-4s-17.68,1.35-25.86,3.87c-8.82-8.58-20.86-13.87-34.14-13.87s-26.12,5.65-35.02,14.74c-14.74-11.13-33.09-17.74-52.98-17.74-38.78,0-71.7,25.09-83.42,59.91-12.63,2.46-23.51,9.77-30.66,19.91-2.89-.53-5.87-.83-8.92-.83-23.63,0-43.36,16.73-47.98,39h767.08Z"/>
  </g>
</svg>