<?xml version="1.0" encoding="UTF-8"?>
<svg id="Layer_2" xmlns="http://www.w3.org/2000/svg" viewBox="0 0 535.42 142">
  <defs>
    <style>
      .cls-1 {
        fill: #97cc04;
      }
    </style>
  </defs>
  <g id="Layer_1-2" data-name="Layer_1">
    <path class="cls-1" d="M535.42,142c-13.68-27.84-42.31-47-75.42-47-15.32,0-29.67,4.12-42.04,11.29-10.2-7.11-22.59-11.29-35.96-11.29-1.64,0-3.27.08-4.88.21-7.07-7.97-16.13-14.12-26.4-17.7C347.41,34.15,311.2,0,267,0c-35.54,0-65.91,22.09-78.18,53.28-1.92-.18-3.86-.28-5.82-.28-17.84,0-33.93,7.42-45.39,19.34-14.55-12.07-33.23-19.34-53.61-19.34C37.61,53,0,90.61,0,137c0,1.68.06,3.34.16,5h535.26Z"/>
  </g>
</svg>