<?xml version="1.0" encoding="UTF-8"?>
<svg id="Layer_2" xmlns="http://www.w3.org/2000/svg" viewBox="0 0 695.99 155">
  <defs>
    <style>
      .cls-1 {
        fill: #678c03;
      }
    </style>
  </defs>
  <g id="Layer_1-2" data-name="Layer_1">
    <path class="cls-1" d="M695.99,155c-13.49-12.99-31.81-21-52.02-21-12.4,0-24.09,3.03-34.4,8.36-5.81-19.8-21.71-35.28-41.77-40.48-6.21-35.16-36.89-61.88-73.83-61.88-22.84,0-43.28,10.22-57.03,26.32-9.2-7.69-21.04-12.32-33.97-12.32-4.14,0-8.16.49-12.02,1.39-8.68-10.57-21.37-17.72-35.75-19.13C342.07,14.53,318.22,0,290.97,0c-23.65,0-44.73,10.96-58.48,28.06-.84-.04-1.68-.06-2.52-.06-15.15,0-28.8,6.37-38.46,16.56-11.89-7.93-26.17-12.56-41.54-12.56-32.34,0-59.89,20.47-70.43,49.15-1.51-.09-3.04-.15-4.57-.15C33.89,81,.54,114.04,0,155h695.99Z"/>
  </g>
</svg>