<?xml version="1.0" encoding="UTF-8"?>
<svg id="Layer_2" xmlns="http://www.w3.org/2000/svg" viewBox="0 0 462.22 166.45">
  <defs>
    <style>
      .cls-1 {
        fill: #97cc04;
      }
    </style>
  </defs>
  <g id="Layer_1-2" data-name="Layer_1">
    <path class="cls-1" d="M462.22,166.45c-1.26-31.72-27.3-57.07-59.33-57.07-6.1,0-11.99.93-17.54,2.64-4-21.31-21.5-37.83-43.3-40.33-5.21-22.01-24.94-38.4-48.54-38.4-17.89,0-33.54,9.44-42.36,23.58-5.46-4.35-12.01-7.37-19.17-8.62C224.87,20.52,199.79,0,169.85,0s-56.59,21.76-62.77,50.77c-25.67,8.4-44.23,32.51-44.23,61,0,4.13.43,8.16,1.17,12.07-1.18-.06-2.35-.18-3.55-.18-27.94,0-51.65,17.88-60.47,42.8h462.22Z"/>
  </g>
</svg>