<?xml version="1.0" encoding="UTF-8"?>
<svg id="Layer_2" xmlns="http://www.w3.org/2000/svg" viewBox="0 0 64.37 96.51">
  <defs>
    <style>
      .cls-1 {
        fill: #97cc04;
      }

      .cls-2 {
        fill: #f75590;
      }
    </style>
  </defs>
  <g id="Layer_1-2" data-name="Layer_1">
    <g>
      <path class="cls-2" d="M30.12,55.04c-3.26-.56-22.51-4.18-28.25-18.57-.77-1.94-3.8-9.53,0-13.79,3.18-3.57,10.31-3.87,17.24,0-3.53-2.78-5.08-7.31-3.97-11.49,1.26-4.74,5.54-7.51,9.23-7.95,5.93-.71,12.54,4.33,14.13,12.45-.21-7.89,3.38-14.1,8.19-15.42,5.66-1.55,11.14,4.2,12.07,5.17,11.06,11.61,2.51,34.19,1.72,36.2,0,0-8.62,13.79-10.34,13.79s-20.01-.39-20.01-.39Z"/>
      <path class="cls-1" d="M52.63,58.01c-1.98,1.08-7.44,3.72-14.74,3.01-7.02-.68-11.75-4.08-13.53-5.5.81-1.02,4.86-5.88,11.66-6.52,6.53-.61,13.01,2.92,16.6,9.01Z"/>
      <path class="cls-1" d="M49.65,59.42c2-1.05,7.22-4.14,10.67-10.61,3.32-6.22,3.11-12.04,2.91-14.31-1.3.11-7.59.79-11.88,6.1-4.12,5.1-4.77,12.45-1.69,18.81Z"/>
      <path class="cls-1" d="M50.56,96.51l-2.94-2.71c2.49-2.69,6.77-8.46,7.48-16.81.88-10.37-4.29-17.83-6.55-20.55l3.08-2.55c2.58,3.1,8.46,11.6,7.45,23.45-.81,9.55-5.69,16.12-8.52,19.19Z"/>
    </g>
  </g>
</svg>