<?xml version="1.0" encoding="UTF-8"?>
<svg id="Layer_2" xmlns="http://www.w3.org/2000/svg" viewBox="0 0 75.12 141.61">
  <defs>
    <style>
      .cls-1 {
        fill: #f31667;
      }

      .cls-2 {
        fill: #97cc04;
      }
    </style>
  </defs>
  <g id="Layer_1-2" data-name="Layer_1">
    <g>
      <path class="cls-1" d="M36.85,57.41c-9.87-.41-18.5-7.41-21.05-17.22-.64-12.76-1.28-25.51-1.91-38.27,2.55,3.83,5.1,7.65,7.65,11.48,1.28-3.83,2.55-7.65,3.83-11.48,1.91,3.83,3.83,7.65,5.74,11.48,1.91-4.47,3.83-8.93,5.74-13.4,1.91,3.83,3.83,7.65,5.74,11.48,1.91-3.83,3.83-7.65,5.74-11.48,1.28,3.83,2.55,7.65,3.83,11.48,2.55-3.83,5.1-7.65,7.65-11.48v40.19c-2.75,10.5-12.42,17.66-22.96,17.22Z"/>
      <path class="cls-2" d="M36.85,110.99c2.52-3.38,9.26-11.43,21.05-15.31,7.09-2.33,13.33-2.28,17.22-1.91-.45,1.27-5.59,15.22-19.78,18.92-8.71,2.27-16.01-.59-18.49-1.69Z"/>
      <path class="cls-2" d="M35.74,107.65c-2.07-3.67-7.71-12.53-18.9-17.89-6.73-3.23-12.92-3.97-16.83-4.12.28,1.32,3.58,15.82,17.18,21.31,8.35,3.37,15.95,1.48,18.55.7Z"/>
      <path class="cls-2" d="M55.99,50.46c-.66-1.27-4.51-1.48-18.5,3.12-13.28-5.12-17.11-5.09-17.86-3.83-.92,1.55,2.47,5.58,5.74,7.65,2.96,1.88,6.02,2.28,8.29,2.25v81.95h7.65V59.84c2.56,0,5.81-.49,8.93-2.43,2.94-1.83,6.53-5.42,5.74-6.95Z"/>
    </g>
  </g>
</svg>