<?xml version="1.0" encoding="UTF-8"?>
<svg id="Layer_2" xmlns="http://www.w3.org/2000/svg" viewBox="0 0 78.98 82.02">
  <defs>
    <style>
      .cls-1 {
        fill: #f75590;
      }

      .cls-2 {
        fill: #facb0f;
      }
    </style>
  </defs>
  <g id="Layer_1-2" data-name="Layer_1">
    <g>
      <path class="cls-1" d="M76.69,51.79c-.32-.27-.71-.46-1.12-.58-9.17-2.83-18.34-5.66-27.51-8.49-.15-.05-.31-.08-.46-.1,9.38-6.02,18.76-12.05,28.13-18.07,3.92-2.91,4.1-8.52,1.41-11.64-.4-.46-.85-.86-1.35-1.2-2.84-1.93-6.72-1.3-9.18,1.1-7.31,7.16-14.62,14.31-21.94,21.47.3-8.98.59-17.96.89-26.94-.12-4.55-3.88-7.69-7.29-7.29-2.31.27-4.4,2.15-5.27,4.76-.15.46-.16.96-.09,1.44,1.51,10.04,3.01,20.08,4.52,30.12-5.72-7.16-11.45-14.31-17.17-21.47-.14-.18-.31-.34-.49-.47-5.31-3.85-12.16-1.98-14.31,2.03-2.04,3.81-.15,10.12,5.47,12.76,6.88,3.83,13.76,7.67,20.64,11.5-8.4-.24-16.81-.47-25.21-.71-3.96.09-6.68,2.86-6.34,5.38.23,1.7,1.87,3.25,4.13,3.89.4.11.84.12,1.26.07,8.83-1.13,17.66-2.25,26.49-3.38-6.57,6.03-13.15,12.05-19.72,18.08-3.36,3.53-2.59,9.09.59,11.71.47.39.99.7,1.54.96,3.13,1.42,6.85.14,8.86-2.65,5.48-7.59,10.96-15.18,16.43-22.77,1.14,8.19,2.27,16.39,3.41,24.58.9,4.47,5.13,6.91,8.43,5.94,2.23-.66,3.97-2.87,4.38-5.58.07-.48,0-.98-.16-1.44-3.01-9.1-6.03-18.2-9.04-27.3,8.07,3.94,16.14,7.89,24.22,11.83,3.64,1.55,7.27.15,7.99-2.28.49-1.65-.36-3.73-2.15-5.25ZM45.22,43.24s-.02-.03-.02-.05c.04,0,.08.01.12.02-.03.03-.05.06-.08.08,0-.02-.01-.03-.02-.05Z"/>
      <circle class="cls-2" cx="40.02" cy="42.87" r="6.38"/>
    </g>
  </g>
</svg>