<?xml version="1.0" encoding="UTF-8"?>
<svg id="Layer_2" xmlns="http://www.w3.org/2000/svg" viewBox="0 0 88.88 186.57">
  <defs>
    <style>
      .cls-1 {
        fill: #a480cf;
      }

      .cls-2 {
        fill: #97cc04;
      }

      .cls-3 {
        fill: #facb0f;
      }
    </style>
  </defs>
  <g id="Layer_1-2" data-name="Layer_1">
    <g>
      <path class="cls-2" d="M41.49,186.57l-4.13-1.07c6.09-23.5,8.94-47.68,8.46-71.89-.41-20.65-3.26-41.28-8.46-61.32l4.13-1.07c5.28,20.36,8.17,41.32,8.59,62.3.49,24.59-2.4,49.17-8.59,73.04Z"/>
      <path class="cls-1" d="M39.96,55.48c13.65-3.09,21.91-17.9,22.91-29.31.07-.84,1.14-14.41-4.8-16.52-3.45-1.22-7.57,2.02-9.01,3.26.08-8.06-6.55-13.61-12.31-12.85-4.31.57-8.21,4.68-9.06,10.12-3.21-5.13-9.54-6.36-13.32-3.73-2.73,1.9-4.02,5.75-3.2,9.59-3.71.46-9.08,1.66-10.66,5.33-4.18,9.72,17.23,39.13,39.43,34.1Z"/>
      <ellipse class="cls-3" cx="33.03" cy="21.92" rx="13.32" ry="5.86" transform="translate(-2.5 4.34) rotate(-7.24)"/>
      <path class="cls-2" d="M46.88,147.67c-.19-5.3-1.46-21.61-13.85-36.23-8.87-10.47-19.25-15.12-24.51-17.05-.5,1.66-6.16,21.81,7.46,38.36,11.61,14.11,28.36,14.85,30.9,14.92Z"/>
      <path class="cls-2" d="M48.93,129.67c.19-5.3,1.46-21.61,13.85-36.23,8.87-10.47,19.25-15.12,24.51-17.05.5,1.66,6.16,21.81-7.46,38.36-11.61,14.11-28.36,14.85-30.9,14.92Z"/>
    </g>
  </g>
</svg>