<?xml version="1.0" encoding="UTF-8"?>
<svg id="Layer_2" xmlns="http://www.w3.org/2000/svg" viewBox="0 0 90.07 89.17">
  <defs>
    <style>
      .cls-1 {
        fill: #fbb1cc;
      }

      .cls-2 {
        fill: #facb0f;
      }
    </style>
  </defs>
  <g id="Layer_1-2" data-name="Layer_1">
    <g>
      <path class="cls-1" d="M89.1,32.9c1.22-3.5,1.31-7.11.18-10.19-2.12-5.78-8.72-10.09-16.28-10.34-5.5-.18-10.77,2.21-14.76,6-2.01,1.91-4.03,3.82-6.04,5.74-.3-2.68-.6-5.36-.89-8.05-.71-6.42-4.55-12.31-10.51-14.82-3.07-1.29-6.3-1.59-9.13-.75-5.3,1.57-9.56,7.24-10.22,14-.48,4.92,1.36,9.79,4.52,13.58,1.21,1.45,2.42,2.91,3.64,4.36-2.96-.58-5.91-1.16-8.87-1.73-6.34-1.24-13.11.66-17.29,5.59C1.3,38.82.05,41.82,0,44.77c-.09,5.53,4.05,11.29,10.3,13.94,4.55,1.93,9.75,1.63,14.32-.25,2.4-.99,4.8-1.98,7.2-2.97-2.17,2.09-4.35,4.17-6.52,6.26-4.66,4.48-7,11.11-5.36,17.36.84,3.22,2.58,5.97,4.96,7.7,4.47,3.25,11.56,3.17,17.33-.42,4.19-2.61,6.94-7.04,8.02-11.86.61-2.71,1.22-5.41,1.83-8.12l3.48,5.57c3.81,6.1,10.5,10.16,17.68,9.81,3.7-.18,7.09-1.44,9.52-3.64,4.56-4.13,6.1-11.86,3.51-18.96-1.89-5.17-6.08-9.16-11.08-11.45-1.28-.59-2.56-1.17-3.84-1.76.68-.12,1.37-.24,2.05-.36,7.08-1.25,13.35-5.94,15.71-12.73Z"/>
      <circle class="cls-2" cx="48.06" cy="44.18" r="16.39"/>
    </g>
  </g>
</svg>