<?xml version="1.0" encoding="UTF-8"?>
<svg id="Layer_2" xmlns="http://www.w3.org/2000/svg" viewBox="0 0 88.18 69.48">
  <defs>
    <style>
      .cls-1 {
        fill: #fbb1cc;
      }

      .cls-2 {
        fill: #facb0f;
      }
    </style>
  </defs>
  <g id="Layer_1-2" data-name="Layer_1">
    <g>
      <path class="cls-1" d="M26.04,22.43c-2.22-8.99,1.58-17.79,8-21,8.26-4.14,21.16.82,25,13,11.4-8.66,24.55-5.99,28,0,3.01,5.22.02,15.33-9,22,6.03,3.11,10.03,8.46,10,14-.06,9.51-11.97,14.2-14,15-13.03,5.13-25.68-2.82-27.5-4-3.51,2.74-12.16,8.64-23.5,8-4.41-.25-11.48-.65-15-6-3.21-4.88-2.39-12.24,2-18.59C4.47,43.39.51,39.17.04,34.43c-.59-6.07,4.83-10.13,6-11,8.23-6.16,19.34-1.3,20-1Z"/>
      <ellipse class="cls-2" cx="46.54" cy="37.93" rx="15.5" ry="11.5"/>
    </g>
  </g>
</svg>