<?xml version="1.0" encoding="UTF-8"?>
<svg id="Layer_2" xmlns="http://www.w3.org/2000/svg" viewBox="0 0 91.02 103.49">
  <defs>
    <style>
      .cls-1 {
        fill: #038758;
      }
    </style>
  </defs>
  <g id="Layer_1-2" data-name="Layer_1">
    <path class="cls-1" d="M88.61,38.42c6.88-9.86-1.99-28.52-13.98-30.47-8.49-1.38-19.08,5.55-22.82,17.43,1.05-11.63-4.61-21.67-12.28-24.5C26.93-3.76,8.87,10.96,11,23.3c.96,5.57,6.02,10.51,13.06,13.38-9.26-1.48-18.02,2.15-21.84,8.56-6.58,11.05,2.26,29.15,15.36,30.72,5.92.71,12.25-2.03,16.91-7.17-.17,3.17,0,6.6.73,10.22,2.56,12.91,10.3,20.88,14.69,24.48l5.57-6.78c-2.8-2.3-9.54-8.79-11.64-19.4-.3-1.53-.48-3.01-.56-4.44,3.56,6.09,9.32,10.49,16,11.88,12.43,2.59,27.51-5.37,28.52-17.55.82-9.89-7.78-20.66-20.84-22.75,8.96,1.86,17.71-.36,21.66-6.01Z"/>
  </g>
</svg>