<?xml version="1.0" encoding="UTF-8"?>
<svg id="Layer_2" xmlns="http://www.w3.org/2000/svg" viewBox="0 0 103.04 95.17">
  <defs>
    <style>
      .cls-1 {
        fill: #038758;
      }
    </style>
  </defs>
  <g id="Layer_1-2" data-name="Layer_1">
    <g>
      <path class="cls-1" d="M50.87,44.02c16.6-9.84,26.09-22.98,23.55-33.18-.87-3.5-3.92-9.72-9.63-10.7-5-.86-10.65,2.53-13.92,8.56C47.61,2.66,41.95-.73,36.95.13c-5.72.98-8.76,7.21-9.63,10.7-2.54,10.2,6.95,23.34,23.55,33.18Z"/>
      <path class="cls-1" d="M94.35,46.93c6.04-3.26,9.42-8.92,8.56-13.92-.98-5.71-7.21-8.76-10.7-9.63-10.2-2.54-23.34,6.95-33.18,23.55,9.84,16.6,22.98,26.09,33.18,23.55,3.5-.87,9.72-3.92,10.7-9.63.86-5-2.53-10.65-8.56-13.92Z"/>
      <path class="cls-1" d="M44.02,46.93c-9.84-16.6-22.98-26.09-33.18-23.55-3.5.87-9.72,3.92-10.7,9.63-.86,5,2.53,10.65,8.56,13.92C2.66,50.19-.73,55.85.13,60.85c.98,5.71,7.21,8.76,10.7,9.63,10.2,2.54,23.34-6.95,33.18-23.55Z"/>
      <path class="cls-1" d="M50.87,51.16c-16.6,9.84-26.09,22.98-23.55,33.18.87,3.5,3.92,9.72,9.63,10.7,5,.86,10.65-2.53,13.92-8.56,3.26,6.04,8.92,9.42,13.92,8.56,5.71-.98,8.76-7.21,9.63-10.7,2.54-10.2-6.95-23.34-23.55-33.18Z"/>
    </g>
  </g>
</svg>