<?xml version="1.0" encoding="UTF-8"?>
<svg id="Layer_2" xmlns="http://www.w3.org/2000/svg" viewBox="0 0 100.21 94.68">
  <defs>
    <style>
      .cls-1 {
        fill: #038758;
      }
    </style>
  </defs>
  <g id="Layer_1-2" data-name="Layer_1">
    <path class="cls-1" d="M94,50.1c4.56-3.28,7-7.81,5.97-11.73-1.55-5.91-10.27-7.77-12.19-8.12-8.06-1.48-17.72,1.91-26.63,8.8,6.89-8.91,10.28-18.57,8.8-26.63-.35-1.91-2.21-10.64-8.12-12.19-3.92-1.03-8.44,1.41-11.73,5.97C46.82,1.65,42.29-.8,38.38.23c-5.91,1.55-7.77,10.27-8.12,12.19-1.49,8.06,1.91,17.72,8.8,26.63-8.91-6.89-18.57-10.28-26.63-8.8-1.91.35-10.64,2.21-12.19,8.12-1.03,3.92,1.41,8.44,5.97,11.73C1.65,53.39-.8,57.91.23,61.83c1.55,5.91,10.27,7.77,12.19,8.12,10.9,2.01,24.75-4.91,35.67-17.32-.44,5.86-.05,11.81,1.19,17.51,1.94,8.88,5.95,17.37,11.59,24.54l3.14-2.47c-5.27-6.7-9.01-14.63-10.83-22.93-1.19-5.43-1.54-11.09-1.09-16.67,10.93,12.43,24.78,19.36,35.69,17.35,1.91-.35,10.64-2.21,12.19-8.12,1.03-3.92-1.41-8.44-5.97-11.73Z"/>
  </g>
</svg>