<?xml version="1.0" encoding="UTF-8"?>
<svg id="Layer_2" xmlns="http://www.w3.org/2000/svg" viewBox="0 0 77.6 78.45">
  <defs>
    <style>
      .cls-1 {
        fill: #038758;
      }
    </style>
  </defs>
  <g id="Layer_1-2" data-name="Layer_1">
    <path class="cls-1" d="M70.59,38.15c4.67-2.49,7.42-6.93,6.95-11.14-.57-5.12-4.95-8.63-9.48-9.15-3.92-.45-7.84,1.34-10.27,4.67-4.35,4.21-8.7,8.43-13.04,12.64l-2.88-2.88c4.31-4.25,8.62-8.51,12.93-12.76.43-.4,4.47-4.36,3.69-10-.6-4.32-3.93-8.9-9.15-9.48-3.89-.43-7.97,1.88-10.53,5.92C36.24,1.93,32.15-.38,28.27.05c-5.22.58-8.55,5.16-9.15,9.48-.79,5.64,3.26,9.6,3.69,10,4.31,4.25,8.62,8.51,12.93,12.76l-2.88,2.88c-4.35-4.21-8.7-8.43-13.04-12.64-2.42-3.33-6.35-5.12-10.27-4.67C5,18.39.62,21.89.05,27.01c-.47,4.21,2.28,8.65,6.95,11.14C2.43,40.75-.28,45.17.19,49.38c.61,5.51,5.65,9.03,10.34,9.48,5.9.57,9.86-3.86,10.27-4.33,3.49-3.41,6.98-6.82,10.46-10.22l2.78,2.78c-3.42,3.81-6.83,7.63-10.25,11.44-.41.31-5,3.84-4.73,9.53.23,4.96,4.07,9.74,9.48,10.34,3.72.41,7.61-1.65,10.25-5.3,2.64,3.65,6.53,5.71,10.25,5.3,5.41-.6,9.25-5.38,9.48-10.34.27-5.69-4.32-9.22-4.73-9.53-3.42-3.81-6.83-7.63-10.25-11.44l2.78-2.78c3.49,3.41,6.98,6.82,10.46,10.22.41.47,4.36,4.9,10.27,4.33,4.69-.45,9.72-3.97,10.34-9.48.47-4.21-2.24-8.63-6.81-11.23Z"/>
  </g>
</svg>