<?xml version="1.0" encoding="UTF-8"?>
<svg id="Layer_2" xmlns="http://www.w3.org/2000/svg" viewBox="0 0 93.33 93.33">
  <defs>
    <style>
      .cls-1 {
        fill: #038758;
      }
    </style>
  </defs>
  <g id="Layer_1-2" data-name="Layer_1">
    <path class="cls-1" d="M85.7,46.52c5.04-2.85,8.05-7.55,7.58-12-.73-6.93-8.6-9.54-9.97-10-4.28-1.43-8.19-.69-10.67.13-1.38.46-2.65,1.19-3.75,2.15-6.17,5.38-12.35,10.77-18.52,16.15,5.38-6.17,10.77-12.35,16.15-18.52.96-1.1,1.69-2.37,2.15-3.75.82-2.47,1.56-6.39.13-10.67-.46-1.37-3.07-9.24-10-9.97-4.45-.47-9.15,2.54-12,7.58C43.96,2.59,39.26-.42,34.81.05c-6.93.73-9.54,8.6-10,9.97-1.43,4.28-.69,8.19.13,10.67.46,1.38,1.19,2.65,2.15,3.75,6.03,6.91,12.05,13.82,18.08,20.73-6.91-6.03-13.82-12.05-20.73-18.08-1.1-.96-2.37-1.69-3.75-2.15-2.47-.82-6.39-1.56-10.67-.13-1.37.46-9.24,3.07-9.97,10-.47,4.45,2.54,9.15,7.58,12C2.59,49.66-.42,54.36.05,58.81c.73,6.93,8.6,9.54,9.97,10,4.28,1.43,8.19.69,10.67-.13,1.38-.46,2.65-1.19,3.75-2.15,6.17-5.38,12.35-10.77,18.52-16.15-5.38,6.17-10.77,12.35-16.15,18.52-.96,1.1-1.69,2.37-2.15,3.75-.82,2.47-1.56,6.39-.13,10.67.46,1.37,3.07,9.24,10,9.97,4.45.47,9.15-2.54,12-7.58,2.85,5.04,7.55,8.05,12,7.58,6.93-.73,9.54-8.6,10-9.97,1.43-4.28.69-8.19-.13-10.67-.46-1.38-1.19-2.65-2.15-3.75-6.03-6.91-12.05-13.82-18.08-20.73,6.91,6.03,13.82,12.05,20.73,18.08,1.1.96,2.37,1.69,3.75,2.15,2.47.82,6.39,1.56,10.67.13,1.37-.46,9.24-3.07,9.97-10,.47-4.45-2.54-9.15-7.58-12Z"/>
  </g>
</svg>