<?xml version="1.0" encoding="UTF-8"?>
<svg id="Layer_2" xmlns="http://www.w3.org/2000/svg" viewBox="0 0 80.93 78.66">
  <defs>
    <style>
      .cls-1 {
        fill: #038758;
      }

      .cls-2 {
        fill: #88b921;
      }
    </style>
  </defs>
  <g id="Layer_1-2" data-name="Layer_1">
    <g>
      <path class="cls-1" d="M77.8,33.45c-3.78-5.21-11.64-7.4-21.45-6.65,4.52-5.8,6.53-11.67,5.26-16.76-.76-3.05-3.56-9.35-9-10-4.05-.48-10.4,3.32-13,8C37.02,3.36,30.67-.44,26.61.04c-5.44.65-8.24,6.95-9,10-1.26,5.06.72,10.89,5.17,16.64-8.97-.36-16.11,1.87-19.66,6.77-1.84,2.54-4.86,8.75-1.85,13.33,2.24,3.41,9.24,5.82,14.49,4.79-1.91,5-.72,12.31,2.26,15.1,4,3.74,10.63,1.82,13.45.44,2.87-1.41,5.18-3.95,6.89-7.33.21,1.87.63,3.87,1.36,5.94,2.45,6.92,7.14,11.08,9.71,12.95l2.35-3.24c-2.2-1.59-6.2-5.15-8.29-11.05-.63-1.77-.99-3.48-1.16-5.08,1.73,3.62,4.11,6.32,7.12,7.8,2.82,1.38,9.45,3.3,13.45-.44,2.98-2.79,4.17-10.1,2.26-15.1,5.25,1.03,12.25-1.38,14.49-4.79,3.01-4.58,0-10.79-1.85-13.33Z"/>
      <path class="cls-2" d="M63.65,34.25c-1.61-2.18-3.81-2.95-5.12-3.39-5.35-1.79-10.31.38-11.92,1.17.97-.41,5.51-2.46,7.04-7.2.25-.78.84-2.69.29-5.01-.61-2.56-2.68-5.82-5.54-6.16-3.24-.39-7.26,2.97-7.79,8.37-.9-5.46-4.93-8.78-8.22-8.37-3.09.39-4.93,3.97-5.54,6.16-1.49,5.33,2.4,9.8,2.77,10.21-4.79-.74-9.34.83-11.69,4.21-.06.08-.13.19-.22.33-1.79,2.74-1.89,6.37-.92,7.88,1.49,2.32,7.57,2.72,13.83-1.41-.52.37-5.83,4.22-5.33,9.52.06.69.31,2.72,1.82,4.14,3.11,2.91,8.01.41,8.28.27,4.1-2.09,6.28-7.68,5.23-13.93-.84,6.24,1.48,11.73,5.67,13.82,2.39,1.19,6.33,1.73,8.24-.27,2.19-2.29,1.61-7.81-2.91-12.55,5.43,3.87,11.32,3.13,13.17.37,1.47-2.19.55-5.88-1.13-8.16Z"/>
    </g>
  </g>
</svg>