<?xml version="1.0" encoding="UTF-8"?>
<svg id="Layer_2" xmlns="http://www.w3.org/2000/svg" viewBox="0 0 108.29 102.29">
  <defs>
    <style>
      .cls-1 {
        fill: #038758;
      }
    </style>
  </defs>
  <g id="Layer_1-2" data-name="Layer_1">
    <g>
      <path class="cls-1" d="M54.1,50.21c13.99-11.2,21.99-26.17,19.85-37.78-.35-1.91-2.21-10.64-8.12-12.19-3.92-1.03-8.44,1.41-11.73,5.97C50.82,1.65,46.29-.8,42.38.23c-5.91,1.55-7.77,10.27-8.12,12.19-2.14,11.62,5.85,26.58,19.85,37.78Z"/>
      <path class="cls-1" d="M50.21,51.1c-11.2-13.99-26.17-21.99-37.78-19.85-1.91.35-10.64,2.21-12.19,8.12-1.03,3.92,1.41,8.44,5.97,11.73C1.65,54.39-.8,58.91.23,62.83c1.55,5.91,10.27,7.77,12.19,8.12,11.62,2.14,26.58-5.85,37.78-19.85Z"/>
      <path class="cls-1" d="M54.19,52.09c-13.99,11.2-21.99,26.17-19.85,37.78.35,1.91,2.21,10.64,8.12,12.19,3.92,1.03,8.44-1.41,11.73-5.97,3.28,4.56,7.81,7,11.73,5.97,5.91-1.55,7.77-10.27,8.12-12.19,2.14-11.62-5.85-26.58-19.85-37.78Z"/>
      <path class="cls-1" d="M102.09,51.19c4.56-3.28,7-7.81,5.97-11.73-1.55-5.91-10.27-7.77-12.19-8.12-11.62-2.14-26.58,5.85-37.78,19.85,11.2,13.99,26.17,21.99,37.78,19.85,1.91-.35,10.64-2.21,12.19-8.12,1.03-3.92-1.41-8.44-5.97-11.73Z"/>
    </g>
  </g>
</svg>