<?xml version="1.0" encoding="UTF-8"?>
<svg id="Layer_2" xmlns="http://www.w3.org/2000/svg" viewBox="0 0 77 85.84">
  <defs>
    <style>
      .cls-1 {
        fill: #038758;
      }
    </style>
  </defs>
  <g id="Layer_1-2" data-name="Layer_1">
    <path class="cls-1" d="M74.68,34.39c-2.94-4.89-9.22-7.75-17.39-8.42,3.97-5.48,5.66-11.02,4.46-15.85-.81-3.27-3.66-9.08-9-10-4.67-.8-9.95,2.36-13,8C36.7,2.48,31.42-.68,26.75.12c-5.34.92-8.19,6.73-9,10-1.19,4.79.46,10.28,4.36,15.72-9.33.27-16.57,3.19-19.79,8.55-1.73,2.89-3.83,9.01-.71,13.44,2.73,3.87,8.71,5.37,14.85,3.54-1.83,6.14-.33,12.12,3.54,14.85,4.42,3.13,10.55,1.03,13.44-.71,1.15-.69,2.17-1.58,3.09-2.62-.57,2.91-1.63,6.07-3.49,9.23-3.13,5.29-7.33,8.52-10.31,10.3l2.05,3.43c4.84-2.89,8.88-6.94,11.69-11.7,2.27-3.83,3.49-7.67,4.1-11.16.9.99,1.89,1.85,3,2.51,2.89,1.73,9.01,3.83,13.43.71,3.87-2.73,5.37-8.71,3.54-14.85,6.14,1.83,12.12.33,14.85-3.54,3.13-4.42,1.03-10.55-.71-13.44Z"/>
  </g>
</svg>