<?xml version="1.0" encoding="UTF-8"?>
<svg id="Layer_2" xmlns="http://www.w3.org/2000/svg" xmlns:xlink="http://www.w3.org/1999/xlink" viewBox="0 0 123.28 109.01">
  <defs>
    <style>
      .cls-1 {
        fill: #038758;
      }

      .cls-2 {
        fill: #333;
      }

      .cls-3 {
        fill: #facb0f;
      }

      .cls-4 {
        clip-path: url(#clippath);
      }
    </style>
    <clipPath id="clippath">
      <path class="cls-1" d="M30.85,67.35C15.59,45.02,11.57,19.95,21.85,8.35,30.02-.88,44.97-.37,65.85.35c17.98.61,28.47.97,35.33,8,11.02,11.29,8.71,35.72-5.33,60,.95-.27,18.55-5.09,25,3,6.44,8.08-.71,25.95-12,34-12.29,8.76-20.35-.63-68-3-13.43-.67-20.74-.32-28-6C2.07,87.92-3.88,69.89,2.85,63.35c4.88-4.75,17.14-2.15,28,4Z"/>
    </clipPath>
  </defs>
  <g id="Layer_1-2" data-name="Layer_1">
    <g>
      <g>
        <path class="cls-1" d="M30.85,67.35C15.59,45.02,11.57,19.95,21.85,8.35,30.02-.88,44.97-.37,65.85.35c17.98.61,28.47.97,35.33,8,11.02,11.29,8.71,35.72-5.33,60,.95-.27,18.55-5.09,25,3,6.44,8.08-.71,25.95-12,34-12.29,8.76-20.35-.63-68-3-13.43-.67-20.74-.32-28-6C2.07,87.92-3.88,69.89,2.85,63.35c4.88-4.75,17.14-2.15,28,4Z"/>
        <g class="cls-4">
          <path class="cls-2" d="M95.85,68.35c-7.17,2.37-17.86,4.99-31,5-14.72,0-26.52-3.27-34-6-5.67-7.33-11.33-14.67-17-22,11.52,4.13,29.15,8.91,51,9,17.72.07,32.46-2.96,43-6-4,6.67-8,13.33-12,20Z"/>
        </g>
      </g>
      <path class="cls-3" d="M71.21,51.11l-16.31-.95c-1.96-.1-3.84.54-5.3,1.84-1.46,1.3-2.33,3.1-2.44,5.05l-.57,9.77c-.23,4.04,2.86,7.51,6.9,7.75l16.31.95c.15,0,.29.01.44.01,1.8,0,3.51-.65,4.87-1.86,1.46-1.3,2.33-3.1,2.44-5.05l.57-9.77c.23-4.04-2.86-7.51-6.9-7.75ZM72.43,70.7c-.67.59-1.52.89-2.41.84l-16.31-.95c-1.83-.11-3.24-1.69-3.14-3.52l.57-9.77c.05-.89.45-1.7,1.11-2.3.62-.55,1.39-.84,2.21-.84.07,0,.13,0,.2,0l16.31.95c1.83.11,3.24,1.69,3.14,3.52l-.16,2.72h-9.11v4h8.87l-.18,3.05c-.05.89-.45,1.7-1.11,2.3Z"/>
    </g>
  </g>
</svg>