<?xml version="1.0" encoding="UTF-8"?>
<svg id="Layer_2" xmlns="http://www.w3.org/2000/svg" xmlns:xlink="http://www.w3.org/1999/xlink" viewBox="0 0 136.17 109.9">
  <defs>
    <style>
      .cls-1 {
        fill: #038758;
      }

      .cls-2 {
        fill: #333;
      }

      .cls-3 {
        fill: #facb0f;
      }

      .cls-4 {
        clip-path: url(#clippath);
      }
    </style>
    <clipPath id="clippath">
      <path class="cls-1" d="M37,67.56c-.14-4.33-.57-11-2-19C30.39,22.74,21.1,15.18,25,7.56,29.41-1.07,45.91-.44,72,.56c25.42.97,40.16,1.53,44,10,3.46,7.61-5.14,14.44-11,40-1.75,7.62-2.58,13.96-3,18,2.71-1.54,8.39-4.19,15-3,11.34,2.05,20.53,14.53,19,23-2.69,14.91-39.68,23.16-69,21C36.13,107.29.03,92.48,0,77.56c-.02-8.27,11.05-18.47,22-18,7.74.33,13.14,5.89,15,8Z"/>
    </clipPath>
  </defs>
  <g id="Layer_1-2" data-name="Layer_1">
    <g>
      <g>
        <path class="cls-1" d="M37,67.56c-.14-4.33-.57-11-2-19C30.39,22.74,21.1,15.18,25,7.56,29.41-1.07,45.91-.44,72,.56c25.42.97,40.16,1.53,44,10,3.46,7.61-5.14,14.44-11,40-1.75,7.62-2.58,13.96-3,18,2.71-1.54,8.39-4.19,15-3,11.34,2.05,20.53,14.53,19,23-2.69,14.91-39.68,23.16-69,21C36.13,107.29.03,92.48,0,77.56c-.02-8.27,11.05-18.47,22-18,7.74.33,13.14,5.89,15,8Z"/>
        <g class="cls-4">
          <path class="cls-2" d="M102,68.56c-7.17,2.37-17.86,4.99-31,5-14.72,0-26.52-3.27-34-6-5.67-7.33-11.33-14.67-17-22,11.52,4.13,29.15,8.91,51,9,17.72.07,32.46-2.96,43-6-4,6.67-8,13.33-12,20Z"/>
        </g>
      </g>
      <path class="cls-3" d="M77.36,51.32l-16.31-.95c-1.96-.1-3.84.54-5.3,1.84-1.46,1.3-2.33,3.1-2.44,5.05l-.57,9.77c-.23,4.04,2.86,7.51,6.9,7.75l16.31.95c.15,0,.29.01.44.01,1.8,0,3.51-.65,4.87-1.86,1.46-1.3,2.33-3.1,2.44-5.05l.57-9.77c.23-4.04-2.86-7.51-6.9-7.75ZM78.59,70.91c-.67.59-1.52.89-2.41.84l-16.31-.95c-1.83-.11-3.24-1.69-3.14-3.52l.57-9.77c.05-.89.45-1.7,1.11-2.3.62-.55,1.39-.84,2.21-.84.07,0,.13,0,.2,0l16.31.95c1.83.11,3.24,1.69,3.14,3.52l-.16,2.72h-9.11v4h8.87l-.18,3.05c-.05.89-.45,1.7-1.11,2.3Z"/>
    </g>
  </g>
</svg>