<?xml version="1.0" encoding="UTF-8"?>
<svg id="Layer_2" xmlns="http://www.w3.org/2000/svg" xmlns:xlink="http://www.w3.org/1999/xlink" viewBox="0 0 112.02 91.88">
  <defs>
    <style>
      .cls-1 {
        fill: #038758;
      }

      .cls-2 {
        fill: #333;
      }

      .cls-3 {
        fill: #facb0f;
      }

      .cls-4 {
        clip-path: url(#clippath);
      }
    </style>
    <clipPath id="clippath">
      <path class="cls-1" d="M26,63.7c-1.69-6.68-4.2-14.53-8-23-3.53-7.88-7.4-14.55-11-20,7.1-5.16,17.81-11.66,32-16C60.88-1.99,79.77-.11,90,1.7c.38,12.22-.05,26.01-2,41-.82,6.32-1.84,12.32-3,18,3.1-.16,8.19-.03,14,2,4.79,1.67,12.6,4.38,13,8,.77,7.02-26.1,19.43-54,21C29.43,93.31.09,83.55,0,75.7c-.04-3.81,6.81-7.35,10-9,6.86-3.56,13.31-3.27,16-3Z"/>
    </clipPath>
  </defs>
  <g id="Layer_1-2" data-name="Layer_1">
    <g>
      <g>
        <path class="cls-1" d="M26,63.7c-1.69-6.68-4.2-14.53-8-23-3.53-7.88-7.4-14.55-11-20,7.1-5.16,17.81-11.66,32-16C60.88-1.99,79.77-.11,90,1.7c.38,12.22-.05,26.01-2,41-.82,6.32-1.84,12.32-3,18,3.1-.16,8.19-.03,14,2,4.79,1.67,12.6,4.38,13,8,.77,7.02-26.1,19.43-54,21C29.43,93.31.09,83.55,0,75.7c-.04-3.81,6.81-7.35,10-9,6.86-3.56,13.31-3.27,16-3Z"/>
        <g class="cls-4">
          <path class="cls-2" d="M87,59.7c-6.31,3.04-17.87,7.61-33,8-16.1.41-28.5-4.1-35-7-5.67-7-11.33-14-17-21,9.01,4,27.35,10.69,51,9,19.15-1.37,33.71-7.64,42-12-2.67,7.67-5.33,15.33-8,23Z"/>
        </g>
      </g>
      <path class="cls-3" d="M61.48,45.26l-16.26,1.54c-1.95.19-3.71,1.12-4.96,2.63-1.25,1.51-1.83,3.42-1.65,5.36l.92,9.75c.38,4.02,3.97,6.99,7.99,6.61l16.26-1.54c.15-.01.29-.03.43-.05,1.78-.27,3.37-1.18,4.53-2.58,1.25-1.51,1.83-3.42,1.65-5.36l-.92-9.75c-.38-4.02-3.97-6.99-7.99-6.61ZM65.66,64.43c-.57.69-1.36,1.11-2.25,1.19l-16.26,1.54c-1.83.17-3.46-1.17-3.63-3l-.92-9.75c-.08-.89.18-1.75.75-2.44.53-.64,1.25-1.05,2.06-1.17.06,0,.13-.02.2-.02l16.26-1.54c1.83-.17,3.46,1.17,3.63,3l.26,2.71-9,1.38.61,3.95,8.77-1.35.29,3.04c.08.89-.18,1.75-.75,2.44Z"/>
    </g>
  </g>
</svg>