<?xml version="1.0" encoding="UTF-8"?>
<svg id="Layer_2" xmlns="http://www.w3.org/2000/svg" viewBox="0 0 56.65 47.26">
  <defs>
    <style>
      .cls-1 {
        fill: #038758;
      }

      .cls-2 {
        fill: #333;
      }

      .cls-3 {
        fill: #facb0f;
      }
    </style>
  </defs>
  <g id="Layer_1-2" data-name="Layer_1">
    <path class="cls-1" d="M54.65,3.26v44l-41.56-2.83c-1.83-.12-3.62-.72-5.11-1.79C.53,37.26-2,27.53,1.65,20.26c3.23-6.44,10.97-10.24,19-9-4.07,2.65-6.65,6.69-6,10,.91,4.59,8.28,8.85,17,6V1.26c2.73-.78,7.35-1.73,13-1,4.32.56,7.73,1.89,10,3Z"/>
    <path class="cls-2" d="M56.65,25.26c-3.1.92-7.18,1.8-12,2-6.71.27-12.25-.89-16-2v-14c3.92-1.19,9.83-2.45,17-2,4.36.27,8.08,1.11,11,2v14Z"/>
    <rect class="cls-3" x="34.65" y="7.26" width="6" height="23" rx="3" ry="3"/>
    <rect class="cls-3" x="45.65" y="7.26" width="6" height="23" rx="3" ry="3"/>
  </g>
</svg>