<?xml version="1.0" encoding="UTF-8"?>
<svg id="Layer_2" xmlns="http://www.w3.org/2000/svg" viewBox="0 0 107.67 73.38">
  <defs>
    <style>
      .cls-1 {
        fill: #fcdc5f;
      }

      .cls-2 {
        fill: #333;
      }

      .cls-3 {
        fill: #facb0f;
      }
    </style>
  </defs>
  <g id="Layer_1-2" data-name="Layer_1">
    <g>
      <g>
        <path class="cls-3" d="M62.49,5.34v1.34c0,.74-2.91,1.34-6.5,1.34s-6.5-.6-6.5-1.34v-1.34h13Z"/>
        <ellipse class="cls-1" cx="55.99" cy="5.34" rx="6.5" ry="1.34"/>
      </g>
      <g>
        <path class="cls-3" d="M82.49,5.34v1.34c0,.74-2.91,1.34-6.5,1.34s-6.5-.6-6.5-1.34v-1.34h13Z"/>
        <ellipse class="cls-1" cx="75.99" cy="5.34" rx="6.5" ry="1.34"/>
      </g>
      <g>
        <path class="cls-3" d="M73.35,3.48l.18,1.33c.1.74-2.7,1.72-6.26,2.2s-6.52.27-6.62-.47l-.18-1.33,12.88-1.73Z"/>
        <ellipse class="cls-1" cx="66.9" cy="4.35" rx="6.5" ry="1.34" transform="translate(.02 8.96) rotate(-7.66)"/>
      </g>
      <g>
        <path class="cls-3" d="M40.49,5.34v1.34c0,.74-2.91,1.34-6.5,1.34s-6.5-.6-6.5-1.34v-1.34h13Z"/>
        <ellipse class="cls-1" cx="33.99" cy="5.34" rx="6.5" ry="1.34"/>
      </g>
      <g>
        <path class="cls-3" d="M49.35,4.48l.18,1.33c.1.74-2.7,1.72-6.26,2.2s-6.52.27-6.62-.47l-.18-1.33,12.88-1.73Z"/>
        <ellipse class="cls-1" cx="42.9" cy="5.35" rx="6.5" ry="1.34" transform="translate(-.33 5.77) rotate(-7.66)"/>
      </g>
      <g>
        <path class="cls-3" d="M79.47,6.85l-.31,1.31c-.17.72-3.14.64-6.64-.18s-6.19-2.08-6.02-2.8l.31-1.31,12.65,2.98Z"/>
        <ellipse class="cls-1" cx="73.15" cy="5.36" rx="1.34" ry="6.5" transform="translate(51.15 75.33) rotate(-76.74)"/>
      </g>
      <g>
        <path class="cls-3" d="M46.49,8.34v1.34c0,.74,2.91,1.34,6.5,1.34s6.5-.6,6.5-1.34v-1.34h-13Z"/>
        <ellipse class="cls-1" cx="52.99" cy="8.34" rx="6.5" ry="1.34"/>
      </g>
      <g>
        <path class="cls-3" d="M21.49,8.34v1.34c0,.74,2.91,1.34,6.5,1.34s6.5-.6,6.5-1.34v-1.34h-13Z"/>
        <ellipse class="cls-1" cx="27.99" cy="8.34" rx="6.5" ry="1.34"/>
      </g>
      <g>
        <path class="cls-3" d="M37.64,7.48l-.18,1.33c-.1.74,2.7,1.72,6.26,2.2s6.52.27,6.62-.47l.18-1.33-12.88-1.73Z"/>
        <ellipse class="cls-1" cx="44.08" cy="8.35" rx="1.34" ry="6.5" transform="translate(29.93 50.93) rotate(-82.34)"/>
      </g>
      <g>
        <path class="cls-3" d="M73.49,8.34v1.34c0,.74,2.91,1.34,6.5,1.34s6.5-.6,6.5-1.34v-1.34h-13Z"/>
        <ellipse class="cls-1" cx="79.99" cy="8.34" rx="6.5" ry="1.34"/>
      </g>
      <g>
        <path class="cls-3" d="M64.64,7.48l-.18,1.33c-.1.74,2.7,1.72,6.26,2.2s6.52.27,6.62-.47l.18-1.33-12.88-1.73Z"/>
        <ellipse class="cls-1" cx="71.08" cy="8.35" rx="1.34" ry="6.5" transform="translate(53.33 77.69) rotate(-82.34)"/>
      </g>
      <g>
        <path class="cls-3" d="M30.51,7.85l.31,1.31c.17.72,3.14.64,6.64-.18s6.19-2.08,6.02-2.8l-.31-1.31-12.65,2.98Z"/>
        <ellipse class="cls-1" cx="36.84" cy="6.36" rx="6.5" ry="1.34" transform="translate(-.48 8.62) rotate(-13.26)"/>
      </g>
      <g>
        <path class="cls-3" d="M55.46,7.14l.16,1.33c.09.74,3.05.98,6.62.55s6.38-1.39,6.29-2.12l-.16-1.33-12.9,1.58Z"/>
        <ellipse class="cls-1" cx="61.91" cy="6.35" rx="6.5" ry="1.34" transform="translate(-.31 7.57) rotate(-6.98)"/>
      </g>
      <g>
        <path class="cls-3" d="M52.53,6.14l-.16,1.33c-.09.74-3.05.98-6.62.55s-6.38-1.39-6.29-2.12l.16-1.33,12.9,1.58Z"/>
        <ellipse class="cls-1" cx="46.07" cy="5.35" rx="1.34" ry="6.5" transform="translate(35.17 50.43) rotate(-83.02)"/>
      </g>
      <g>
        <path class="cls-3" d="M47.49,2.34v1.34c0,.74-2.91,1.34-6.5,1.34s-6.5-.6-6.5-1.34v-1.34h13Z"/>
        <ellipse class="cls-1" cx="40.99" cy="2.34" rx="6.5" ry="1.34"/>
      </g>
      <g>
        <path class="cls-3" d="M60.49,3.34v1.34c0,.74-2.91,1.34-6.5,1.34s-6.5-.6-6.5-1.34v-1.34h13Z"/>
        <ellipse class="cls-1" cx="53.99" cy="3.34" rx="6.5" ry="1.34"/>
      </g>
      <g>
        <path class="cls-3" d="M57.46,3.14l.16,1.33c.09.74,3.05.98,6.62.55s6.38-1.39,6.29-2.12l-.16-1.33-12.9,1.58Z"/>
        <ellipse class="cls-1" cx="63.91" cy="2.35" rx="6.5" ry="1.34" transform="translate(.19 7.78) rotate(-6.98)"/>
      </g>
      <g>
        <path class="cls-3" d="M63.49,1.34v1.34c0,.74-2.91,1.34-6.5,1.34s-6.5-.6-6.5-1.34v-1.34h13Z"/>
        <ellipse class="cls-1" cx="56.99" cy="1.34" rx="6.5" ry="1.34"/>
      </g>
      <path class="cls-2" d="M105.35,24.38c-2.59-2.87-6.94-3.9-11.48-3.06-1.39-2.75-3.16-5.37-5.31-7.8h3.09c1.01,0,1.83-.82,1.83-1.83v-1.33c0-1.01-.82-1.83-1.83-1.83H17.33c-1.01,0-1.83.82-1.83,1.83v1.33c0,1.01.82,1.83,1.83,1.83h2c-2.15,2.44-3.93,5.07-5.33,7.83-4.61-.91-9.06.11-11.69,3.03C.02,26.93-1.73,31.9,2.94,41.18c3.21,6.37,8.6,9.75,12.46,11.46,3.95,5.97,9.97,10.66,17.1,13.47v6.28c0,.8.9,1.27,1.55.81l6.85-4.76c3.11,1,7.81,2.12,13.6,2.08,5.68-.05,10.29-1.21,13.37-2.23l7.08,4.92c.65.45,1.55-.01,1.55-.81v-6.73c6.71-2.87,12.36-7.44,16.1-13.17,3.83-1.75,9.02-5.12,12.14-11.31,4.67-9.27,2.92-14.25.62-16.8ZM7.4,38.93c-2.65-5.26-3.14-9.24-1.38-11.2,1.14-1.26,3.38-1.92,6.02-1.63-1.96,5.97-2.18,12.28-.48,18.24-1.57-1.41-3.04-3.18-4.17-5.41ZM100.26,38.93c-1.05,2.08-2.4,3.76-3.86,5.11,1.62-5.88,1.37-12.09-.57-17.97,2.55-.23,4.69.43,5.8,1.65,1.76,1.96,1.28,5.94-1.38,11.2Z"/>
    </g>
  </g>
</svg>