<?xml version="1.0" encoding="UTF-8"?>
<svg id="Layer_2" xmlns="http://www.w3.org/2000/svg" viewBox="0 0 823.92 75.47">
  <defs>
    <style>
      .cls-1 {
        fill: #fff;
      }

      .cls-2 {
        fill: #038758;
      }

      .cls-3 {
        fill: #f16d18;
      }

      .cls-4 {
        fill: none;
        stroke: #333;
        stroke-miterlimit: 10;
        stroke-width: 6.29px;
      }
    </style>
  </defs>
  <g id="Layer_1-2" data-name="Layer_1">
    <g>
      <path class="cls-2" d="M49.25,89.11c-7.34-7.83-14.59-15.7-21.73-23.62-9.88,4-19.85,7.91-29.89,11.74C3.41,53.79,9.18,30.36,14.96,6.93c16.44,4.05,32.93,7.85,49.46,11.39-5.05,23.6-10.11,47.2-15.16,70.8Z"/>
      <path class="cls-1" d="M119.18,102.59c-7.64-7.51-15.19-15.08-22.63-22.7-9.69,4.41-19.47,8.73-29.32,12.97,4.8-23.65,9.61-47.31,14.41-70.96,16.56,3.36,33.15,6.47,49.78,9.32-4.08,23.79-8.16,47.58-12.24,71.36Z"/>
      <path class="cls-3" d="M189.48,113.17c-7.93-7.19-15.76-14.44-23.5-21.74-9.49,4.8-19.06,9.53-28.72,14.17,3.83-23.83,7.66-47.66,11.48-71.49,16.65,2.67,33.33,5.09,50.04,7.26-3.1,23.94-6.2,47.87-9.3,71.81Z"/>
      <path class="cls-2" d="M260.07,120.84c-8.21-6.86-16.32-13.78-24.34-20.76-9.27,5.19-18.63,10.3-28.08,15.34,2.85-23.97,5.69-47.93,8.54-71.9,16.72,1.99,33.47,3.72,50.23,5.19-2.12,24.04-4.23,48.09-6.35,72.13Z"/>
      <path class="cls-1" d="M330.84,125.62c-8.48-6.52-16.86-13.1-25.15-19.74-9.05,5.56-18.18,11.06-27.41,16.48,1.86-24.06,3.73-48.13,5.59-72.19,16.77,1.3,33.56,2.34,50.36,3.13-1.13,24.11-2.26,48.22-3.39,72.33Z"/>
      <path class="cls-3" d="M401.72,127.49c-8.74-6.17-17.38-12.4-25.93-18.7-8.81,5.93-17.71,11.79-26.7,17.59.88-24.12,1.75-48.24,2.63-72.36,16.8.61,33.61.96,50.42,1.06-.14,24.14-.29,48.27-.43,72.41Z"/>
      <path class="cls-2" d="M472.62,126.45c-8.98-5.8-17.87-11.68-26.67-17.62-8.56,6.29-17.21,12.51-25.95,18.66-.11-24.14-.22-48.27-.34-72.41,16.81-.08,33.62-.41,50.42-1,.85,24.12,1.69,48.24,2.54,72.36Z"/>
      <path class="cls-1" d="M543.43,122.52c-9.22-5.43-18.35-10.94-27.38-16.51-8.3,6.63-16.69,13.2-25.17,19.71-1.1-24.11-2.2-48.22-3.3-72.33,16.8-.77,33.59-1.79,50.36-3.06,1.83,24.07,3.66,48.13,5.5,72.2Z"/>
      <path class="cls-3" d="M614.08,115.68c-9.44-5.05-18.79-10.17-28.06-15.38-8.02,6.97-16.15,13.88-24.36,20.73-2.09-24.04-4.17-48.09-6.26-72.14,16.76-1.45,33.51-3.16,50.23-5.13,2.82,23.97,5.63,47.94,8.45,71.91Z"/>
      <path class="cls-3" d="M824.13,77.76c-10.04-3.84-19.99-7.76-29.87-11.78-7.15,7.91-14.4,15.77-21.76,23.59-5.02-23.61-10.05-47.21-15.07-70.82,16.53-3.52,33.02-7.29,49.47-11.32,5.74,23.44,11.49,46.88,17.23,70.33Z"/>
      <path class="cls-2" d="M684.47,105.94c-9.65-4.65-19.22-9.39-28.7-14.21-7.74,7.29-15.58,14.53-23.52,21.71-3.07-23.94-6.14-47.88-9.21-71.82,16.71-2.14,33.39-4.54,50.04-7.19,3.8,23.83,7.6,47.67,11.39,71.5Z"/>
      <path class="cls-1" d="M754.52,93.3c-9.85-4.25-19.62-8.59-29.31-13.01-7.45,7.61-15,15.16-22.65,22.67-4.05-23.79-8.1-47.59-12.15-71.38,16.63-2.83,33.23-5.92,49.79-9.26,4.77,23.66,9.55,47.32,14.32,70.98Z"/>
      <path class="cls-4" d="M-.78,3.04c270.77,69.52,554.71,69.52,825.48,0"/>
    </g>
  </g>
</svg>