<?xml version="1.0" encoding="UTF-8"?>
<svg id="Layer_2" xmlns="http://www.w3.org/2000/svg" xmlns:xlink="http://www.w3.org/1999/xlink" viewBox="0 0 1960.43 116.42">
  <defs>
    <style>
      .cls-1 {
        fill: #a480cf;
      }

      .cls-2 {
        fill: none;
      }

      .cls-3 {
        fill: #8a5dc0;
      }

      .cls-4 {
        fill: #97cc04;
      }

      .cls-5 {
        clip-path: url(#clippath);
      }
    </style>
    <clipPath id="clippath">
      <rect class="cls-2" width="1960.43" height="116.42"/>
    </clipPath>
  </defs>
  <g id="Layer_1-2" data-name="Layer_1">
    <g class="cls-5">
      <g>
        <g id="_x3C_Grid_Repeat_x3E_">
          <path class="cls-4" d="M41.35,42.75h-5.03C36.32,21.95,19.4,5.03-1.4,5.03s-37.72,16.92-37.72,37.72h-5.03C-44.15,19.18-24.97,0-1.4,0s42.75,19.18,42.75,42.75Z"/>
        </g>
        <g id="_x3C_Grid_Repeat_x3E_-2" data-name="_x3C_Grid_Repeat_x3E_">
          <circle class="cls-3" cx="47.7" cy="62.25" r="7.5"/>
          <circle class="cls-3" cx="27.7" cy="62.25" r="7.5"/>
          <circle class="cls-3" cx="26.7" cy="78.25" r="7.5"/>
          <circle class="cls-3" cx="26.7" cy="94.25" r="7.5"/>
          <circle class="cls-3" cx="48.7" cy="78.25" r="7.5"/>
          <circle class="cls-3" cx="48.7" cy="94.25" r="7.5"/>
          <circle class="cls-1" cx="38.7" cy="52.25" r="7.5"/>
          <circle class="cls-1" cx="37.7" cy="69.25" r="7.5"/>
          <circle class="cls-1" cx="59.7" cy="70.25" r="7.5"/>
          <circle class="cls-1" cx="37.7" cy="86.25" r="7.5"/>
          <circle class="cls-1" cx="37.7" cy="103.25" r="7.5"/>
          <circle class="cls-1" cx="15.7" cy="71.25" r="7.5"/>
          <path class="cls-4" d="M122.7,42.75h-5.03c0-20.8-16.92-37.72-37.72-37.72s-37.72,16.92-37.72,37.72h-5.03C37.2,19.18,56.38,0,79.95,0s42.75,19.18,42.75,42.75Z"/>
          <path class="cls-4" d="M38.19,39.7c1.22,3.73,5.45,15.07,17.24,22.93,8.44,5.63,16.77,6.82,20.9,7.12.01-1.28-.07-16.76-13.13-25.75-11.13-7.67-23.19-4.77-25.02-4.3Z"/>
          <path class="cls-4" d="M41.29,40.52c-1.63,3.57-7.11,14.36-19.71,20.85-9.02,4.64-17.43,4.89-21.57,4.72.13-1.27,1.96-16.64,15.95-24.11,11.92-6.36,23.58-2.13,25.34-1.46Z"/>
        </g>
        <g id="_x3C_Grid_Repeat_x3E_-3" data-name="_x3C_Grid_Repeat_x3E_">
          <circle class="cls-3" cx="129.06" cy="62.25" r="7.5"/>
          <circle class="cls-3" cx="109.06" cy="62.25" r="7.5"/>
          <circle class="cls-3" cx="108.06" cy="78.25" r="7.5"/>
          <circle class="cls-3" cx="108.06" cy="94.25" r="7.5"/>
          <circle class="cls-3" cx="130.06" cy="78.25" r="7.5"/>
          <circle class="cls-3" cx="130.06" cy="94.25" r="7.5"/>
          <circle class="cls-1" cx="120.06" cy="52.25" r="7.5"/>
          <circle class="cls-1" cx="119.06" cy="69.25" r="7.5"/>
          <circle class="cls-1" cx="141.06" cy="70.25" r="7.5"/>
          <circle class="cls-1" cx="119.06" cy="86.25" r="7.5"/>
          <circle class="cls-1" cx="119.06" cy="103.25" r="7.5"/>
          <circle class="cls-1" cx="97.06" cy="71.25" r="7.5"/>
          <path class="cls-4" d="M204.06,42.75h-5.03c0-20.8-16.92-37.72-37.72-37.72s-37.72,16.92-37.72,37.72h-5.03c0-23.57,19.18-42.75,42.75-42.75s42.75,19.18,42.75,42.75Z"/>
          <path class="cls-4" d="M119.54,39.7c1.22,3.73,5.45,15.07,17.24,22.93,8.44,5.63,16.77,6.82,20.9,7.12.01-1.28-.07-16.76-13.13-25.75-11.13-7.67-23.19-4.77-25.02-4.3Z"/>
          <path class="cls-4" d="M122.64,40.52c-1.63,3.57-7.11,14.36-19.71,20.85-9.02,4.64-17.43,4.89-21.57,4.72.13-1.27,1.96-16.64,15.95-24.11,11.92-6.36,23.58-2.13,25.34-1.46Z"/>
        </g>
        <g id="_x3C_Grid_Repeat_x3E_-4" data-name="_x3C_Grid_Repeat_x3E_">
          <circle class="cls-3" cx="210.41" cy="62.25" r="7.5"/>
          <circle class="cls-3" cx="190.41" cy="62.25" r="7.5"/>
          <circle class="cls-3" cx="189.41" cy="78.25" r="7.5"/>
          <circle class="cls-3" cx="189.41" cy="94.25" r="7.5"/>
          <circle class="cls-3" cx="211.41" cy="78.25" r="7.5"/>
          <circle class="cls-3" cx="211.41" cy="94.25" r="7.5"/>
          <circle class="cls-1" cx="201.41" cy="52.25" r="7.5"/>
          <circle class="cls-1" cx="200.41" cy="69.25" r="7.5"/>
          <circle class="cls-1" cx="222.41" cy="70.25" r="7.5"/>
          <circle class="cls-1" cx="200.41" cy="86.25" r="7.5"/>
          <circle class="cls-1" cx="200.41" cy="103.25" r="7.5"/>
          <circle class="cls-1" cx="178.41" cy="71.25" r="7.5"/>
          <path class="cls-4" d="M285.41,42.75h-5.03c0-20.8-16.92-37.72-37.72-37.72s-37.72,16.92-37.72,37.72h-5.03c0-23.57,19.18-42.75,42.75-42.75s42.75,19.18,42.75,42.75Z"/>
          <path class="cls-4" d="M200.89,39.7c1.22,3.73,5.45,15.07,17.24,22.93,8.44,5.63,16.77,6.82,20.9,7.12.01-1.28-.07-16.76-13.13-25.75-11.13-7.67-23.19-4.77-25.02-4.3Z"/>
          <path class="cls-4" d="M203.99,40.52c-1.63,3.57-7.11,14.36-19.71,20.85-9.02,4.64-17.43,4.89-21.57,4.72.13-1.27,1.96-16.64,15.95-24.11,11.92-6.36,23.58-2.13,25.34-1.46Z"/>
        </g>
        <g id="_x3C_Grid_Repeat_x3E_-5" data-name="_x3C_Grid_Repeat_x3E_">
          <circle class="cls-3" cx="291.76" cy="62.25" r="7.5"/>
          <circle class="cls-3" cx="271.76" cy="62.25" r="7.5"/>
          <circle class="cls-3" cx="270.76" cy="78.25" r="7.5"/>
          <circle class="cls-3" cx="270.76" cy="94.25" r="7.5"/>
          <circle class="cls-3" cx="292.76" cy="78.25" r="7.5"/>
          <circle class="cls-3" cx="292.76" cy="94.25" r="7.5"/>
          <circle class="cls-1" cx="282.76" cy="52.25" r="7.5"/>
          <circle class="cls-1" cx="281.76" cy="69.25" r="7.5"/>
          <circle class="cls-1" cx="303.76" cy="70.25" r="7.5"/>
          <circle class="cls-1" cx="281.76" cy="86.25" r="7.5"/>
          <circle class="cls-1" cx="281.76" cy="103.25" r="7.5"/>
          <circle class="cls-1" cx="259.76" cy="71.25" r="7.5"/>
          <path class="cls-4" d="M366.76,42.75h-5.03c0-20.8-16.92-37.72-37.72-37.72s-37.72,16.92-37.72,37.72h-5.03c0-23.57,19.18-42.75,42.75-42.75s42.75,19.18,42.75,42.75Z"/>
          <path class="cls-4" d="M282.24,39.7c1.22,3.73,5.45,15.07,17.24,22.93,8.44,5.63,16.77,6.82,20.9,7.12.01-1.28-.07-16.76-13.13-25.75-11.13-7.67-23.19-4.77-25.02-4.3Z"/>
          <path class="cls-4" d="M285.34,40.52c-1.63,3.57-7.11,14.36-19.71,20.85-9.02,4.64-17.43,4.89-21.57,4.72.13-1.27,1.96-16.64,15.95-24.11,11.92-6.36,23.58-2.13,25.34-1.46Z"/>
        </g>
        <g id="_x3C_Grid_Repeat_x3E_-6" data-name="_x3C_Grid_Repeat_x3E_">
          <circle class="cls-3" cx="373.11" cy="62.25" r="7.5"/>
          <circle class="cls-3" cx="353.11" cy="62.25" r="7.5"/>
          <circle class="cls-3" cx="352.11" cy="78.25" r="7.5"/>
          <circle class="cls-3" cx="352.11" cy="94.25" r="7.5"/>
          <circle class="cls-3" cx="374.11" cy="78.25" r="7.5"/>
          <circle class="cls-3" cx="374.11" cy="94.25" r="7.5"/>
          <circle class="cls-1" cx="364.11" cy="52.25" r="7.5"/>
          <circle class="cls-1" cx="363.11" cy="69.25" r="7.5"/>
          <circle class="cls-1" cx="385.11" cy="70.25" r="7.5"/>
          <circle class="cls-1" cx="363.11" cy="86.25" r="7.5"/>
          <circle class="cls-1" cx="363.11" cy="103.25" r="7.5"/>
          <circle class="cls-1" cx="341.11" cy="71.25" r="7.5"/>
          <path class="cls-4" d="M448.11,42.75h-5.03c0-20.8-16.92-37.72-37.72-37.72s-37.72,16.92-37.72,37.72h-5.03c0-23.57,19.18-42.75,42.75-42.75s42.75,19.18,42.75,42.75Z"/>
          <path class="cls-4" d="M363.59,39.7c1.22,3.73,5.45,15.07,17.24,22.93,8.44,5.63,16.77,6.82,20.9,7.12.01-1.28-.07-16.76-13.13-25.75-11.13-7.67-23.19-4.77-25.02-4.3Z"/>
          <path class="cls-4" d="M366.69,40.52c-1.63,3.57-7.11,14.36-19.71,20.85-9.02,4.64-17.43,4.89-21.57,4.72.13-1.27,1.96-16.64,15.95-24.11,11.92-6.36,23.58-2.13,25.34-1.46Z"/>
        </g>
        <g id="_x3C_Grid_Repeat_x3E_-7" data-name="_x3C_Grid_Repeat_x3E_">
          <circle class="cls-3" cx="454.46" cy="62.25" r="7.5"/>
          <circle class="cls-3" cx="434.46" cy="62.25" r="7.5"/>
          <circle class="cls-3" cx="433.46" cy="78.25" r="7.5"/>
          <circle class="cls-3" cx="433.46" cy="94.25" r="7.5"/>
          <circle class="cls-3" cx="455.46" cy="78.25" r="7.5"/>
          <circle class="cls-3" cx="455.46" cy="94.25" r="7.5"/>
          <circle class="cls-1" cx="445.46" cy="52.25" r="7.5"/>
          <circle class="cls-1" cx="444.46" cy="69.25" r="7.5"/>
          <circle class="cls-1" cx="466.46" cy="70.25" r="7.5"/>
          <circle class="cls-1" cx="444.46" cy="86.25" r="7.5"/>
          <circle class="cls-1" cx="444.46" cy="103.25" r="7.5"/>
          <circle class="cls-1" cx="422.46" cy="71.25" r="7.5"/>
          <path class="cls-4" d="M529.46,42.75h-5.03c0-20.8-16.92-37.72-37.72-37.72s-37.72,16.92-37.72,37.72h-5.03c0-23.57,19.18-42.75,42.75-42.75s42.75,19.18,42.75,42.75Z"/>
          <path class="cls-4" d="M444.95,39.7c1.22,3.73,5.45,15.07,17.24,22.93,8.44,5.63,16.77,6.82,20.9,7.12.01-1.28-.07-16.76-13.13-25.75-11.13-7.67-23.19-4.77-25.02-4.3Z"/>
          <path class="cls-4" d="M448.05,40.52c-1.63,3.57-7.11,14.36-19.71,20.85-9.02,4.64-17.43,4.89-21.57,4.72.13-1.27,1.96-16.64,15.95-24.11,11.92-6.36,23.58-2.13,25.34-1.46Z"/>
        </g>
        <g id="_x3C_Grid_Repeat_x3E_-8" data-name="_x3C_Grid_Repeat_x3E_">
          <circle class="cls-3" cx="535.82" cy="62.25" r="7.5"/>
          <circle class="cls-3" cx="515.82" cy="62.25" r="7.5"/>
          <circle class="cls-3" cx="514.82" cy="78.25" r="7.5"/>
          <circle class="cls-3" cx="514.82" cy="94.25" r="7.5"/>
          <circle class="cls-3" cx="536.82" cy="78.25" r="7.5"/>
          <circle class="cls-3" cx="536.82" cy="94.25" r="7.5"/>
          <circle class="cls-1" cx="526.82" cy="52.25" r="7.5"/>
          <circle class="cls-1" cx="525.82" cy="69.25" r="7.5"/>
          <circle class="cls-1" cx="547.82" cy="70.25" r="7.5"/>
          <circle class="cls-1" cx="525.82" cy="86.25" r="7.5"/>
          <circle class="cls-1" cx="525.82" cy="103.25" r="7.5"/>
          <circle class="cls-1" cx="503.82" cy="71.25" r="7.5"/>
          <path class="cls-4" d="M610.82,42.75h-5.03c0-20.8-16.92-37.72-37.72-37.72s-37.72,16.92-37.72,37.72h-5.03c0-23.57,19.18-42.75,42.75-42.75s42.75,19.18,42.75,42.75Z"/>
          <path class="cls-4" d="M526.3,39.7c1.22,3.73,5.45,15.07,17.24,22.93,8.44,5.63,16.77,6.82,20.9,7.12.01-1.28-.07-16.76-13.13-25.75-11.13-7.67-23.19-4.77-25.02-4.3Z"/>
          <path class="cls-4" d="M529.4,40.52c-1.63,3.57-7.11,14.36-19.71,20.85-9.02,4.64-17.43,4.89-21.57,4.72.13-1.27,1.96-16.64,15.95-24.11,11.92-6.36,23.58-2.13,25.34-1.46Z"/>
        </g>
        <g id="_x3C_Grid_Repeat_x3E_-9" data-name="_x3C_Grid_Repeat_x3E_">
          <circle class="cls-3" cx="617.17" cy="62.25" r="7.5"/>
          <circle class="cls-3" cx="597.17" cy="62.25" r="7.5"/>
          <circle class="cls-3" cx="596.17" cy="78.25" r="7.5"/>
          <circle class="cls-3" cx="596.17" cy="94.25" r="7.5"/>
          <circle class="cls-3" cx="618.17" cy="78.25" r="7.5"/>
          <circle class="cls-3" cx="618.17" cy="94.25" r="7.5"/>
          <circle class="cls-1" cx="608.17" cy="52.25" r="7.5"/>
          <circle class="cls-1" cx="607.17" cy="69.25" r="7.5"/>
          <circle class="cls-1" cx="629.17" cy="70.25" r="7.5"/>
          <circle class="cls-1" cx="607.17" cy="86.25" r="7.5"/>
          <circle class="cls-1" cx="607.17" cy="103.25" r="7.5"/>
          <circle class="cls-1" cx="585.17" cy="71.25" r="7.5"/>
          <path class="cls-4" d="M692.17,42.75h-5.03c0-20.8-16.92-37.72-37.72-37.72s-37.72,16.92-37.72,37.72h-5.03c0-23.57,19.18-42.75,42.75-42.75s42.75,19.18,42.75,42.75Z"/>
          <path class="cls-4" d="M607.65,39.7c1.22,3.73,5.45,15.07,17.24,22.93,8.44,5.63,16.77,6.82,20.9,7.12.01-1.28-.07-16.76-13.13-25.75-11.13-7.67-23.19-4.77-25.02-4.3Z"/>
          <path class="cls-4" d="M610.75,40.52c-1.63,3.57-7.11,14.36-19.71,20.85-9.02,4.64-17.43,4.89-21.57,4.72.13-1.27,1.96-16.64,15.95-24.11,11.92-6.36,23.58-2.13,25.34-1.46Z"/>
        </g>
        <g id="_x3C_Grid_Repeat_x3E_-10" data-name="_x3C_Grid_Repeat_x3E_">
          <circle class="cls-3" cx="698.52" cy="62.25" r="7.5"/>
          <circle class="cls-3" cx="678.52" cy="62.25" r="7.5"/>
          <circle class="cls-3" cx="677.52" cy="78.25" r="7.5"/>
          <circle class="cls-3" cx="677.52" cy="94.25" r="7.5"/>
          <circle class="cls-3" cx="699.52" cy="78.25" r="7.5"/>
          <circle class="cls-3" cx="699.52" cy="94.25" r="7.5"/>
          <circle class="cls-1" cx="689.52" cy="52.25" r="7.5"/>
          <circle class="cls-1" cx="688.52" cy="69.25" r="7.5"/>
          <circle class="cls-1" cx="710.52" cy="70.25" r="7.5"/>
          <circle class="cls-1" cx="688.52" cy="86.25" r="7.5"/>
          <circle class="cls-1" cx="688.52" cy="103.25" r="7.5"/>
          <circle class="cls-1" cx="666.52" cy="71.25" r="7.5"/>
          <path class="cls-4" d="M773.52,42.75h-5.03c0-20.8-16.92-37.72-37.72-37.72s-37.72,16.92-37.72,37.72h-5.03c0-23.57,19.18-42.75,42.75-42.75s42.75,19.18,42.75,42.75Z"/>
          <path class="cls-4" d="M689,39.7c1.22,3.73,5.45,15.07,17.24,22.93,8.44,5.63,16.77,6.82,20.9,7.12.01-1.28-.07-16.76-13.13-25.75-11.13-7.67-23.19-4.77-25.02-4.3Z"/>
          <path class="cls-4" d="M692.1,40.52c-1.63,3.57-7.11,14.36-19.71,20.85-9.02,4.64-17.43,4.89-21.57,4.72.13-1.27,1.96-16.64,15.95-24.11,11.92-6.36,23.58-2.13,25.34-1.46Z"/>
        </g>
        <g id="_x3C_Grid_Repeat_x3E_-11" data-name="_x3C_Grid_Repeat_x3E_">
          <circle class="cls-3" cx="779.87" cy="62.25" r="7.5"/>
          <circle class="cls-3" cx="759.87" cy="62.25" r="7.5"/>
          <circle class="cls-3" cx="758.87" cy="78.25" r="7.5"/>
          <circle class="cls-3" cx="758.87" cy="94.25" r="7.5"/>
          <circle class="cls-3" cx="780.87" cy="78.25" r="7.5"/>
          <circle class="cls-3" cx="780.87" cy="94.25" r="7.5"/>
          <circle class="cls-1" cx="770.87" cy="52.25" r="7.5"/>
          <circle class="cls-1" cx="769.87" cy="69.25" r="7.5"/>
          <circle class="cls-1" cx="791.87" cy="70.25" r="7.5"/>
          <circle class="cls-1" cx="769.87" cy="86.25" r="7.5"/>
          <circle class="cls-1" cx="769.87" cy="103.25" r="7.5"/>
          <circle class="cls-1" cx="747.87" cy="71.25" r="7.5"/>
          <path class="cls-4" d="M854.87,42.75h-5.03c0-20.8-16.92-37.72-37.72-37.72s-37.72,16.92-37.72,37.72h-5.03c0-23.57,19.18-42.75,42.75-42.75s42.75,19.18,42.75,42.75Z"/>
          <path class="cls-4" d="M770.35,39.7c1.22,3.73,5.45,15.07,17.24,22.93,8.44,5.63,16.77,6.82,20.9,7.12.01-1.28-.07-16.76-13.13-25.75-11.13-7.67-23.19-4.77-25.02-4.3Z"/>
          <path class="cls-4" d="M773.45,40.52c-1.63,3.57-7.11,14.36-19.71,20.85-9.02,4.64-17.43,4.89-21.57,4.72.13-1.27,1.96-16.64,15.95-24.11,11.92-6.36,23.58-2.13,25.34-1.46Z"/>
        </g>
        <g id="_x3C_Grid_Repeat_x3E_-12" data-name="_x3C_Grid_Repeat_x3E_">
          <circle class="cls-3" cx="861.22" cy="62.25" r="7.5"/>
          <circle class="cls-3" cx="841.22" cy="62.25" r="7.5"/>
          <circle class="cls-3" cx="840.22" cy="78.25" r="7.5"/>
          <circle class="cls-3" cx="840.22" cy="94.25" r="7.5"/>
          <circle class="cls-3" cx="862.22" cy="78.25" r="7.5"/>
          <circle class="cls-3" cx="862.22" cy="94.25" r="7.5"/>
          <circle class="cls-1" cx="852.22" cy="52.25" r="7.5"/>
          <circle class="cls-1" cx="851.22" cy="69.25" r="7.5"/>
          <circle class="cls-1" cx="873.22" cy="70.25" r="7.5"/>
          <circle class="cls-1" cx="851.22" cy="86.25" r="7.5"/>
          <circle class="cls-1" cx="851.22" cy="103.25" r="7.5"/>
          <circle class="cls-1" cx="829.22" cy="71.25" r="7.5"/>
          <path class="cls-4" d="M936.22,42.75h-5.03c0-20.8-16.92-37.72-37.72-37.72s-37.72,16.92-37.72,37.72h-5.03c0-23.57,19.18-42.75,42.75-42.75s42.75,19.18,42.75,42.75Z"/>
          <path class="cls-4" d="M851.7,39.7c1.22,3.73,5.45,15.07,17.24,22.93,8.44,5.63,16.77,6.82,20.9,7.12.01-1.28-.07-16.76-13.13-25.75-11.13-7.67-23.19-4.77-25.02-4.3Z"/>
          <path class="cls-4" d="M854.81,40.52c-1.63,3.57-7.11,14.36-19.71,20.85-9.02,4.64-17.43,4.89-21.57,4.72.13-1.27,1.96-16.64,15.95-24.11,11.92-6.36,23.58-2.13,25.34-1.46Z"/>
        </g>
        <g id="_x3C_Grid_Repeat_x3E_-13" data-name="_x3C_Grid_Repeat_x3E_">
          <circle class="cls-3" cx="942.57" cy="62.25" r="7.5"/>
          <circle class="cls-3" cx="922.57" cy="62.25" r="7.5"/>
          <circle class="cls-3" cx="921.57" cy="78.25" r="7.5"/>
          <circle class="cls-3" cx="921.57" cy="94.25" r="7.5"/>
          <circle class="cls-3" cx="943.57" cy="78.25" r="7.5"/>
          <circle class="cls-3" cx="943.57" cy="94.25" r="7.5"/>
          <circle class="cls-1" cx="933.57" cy="52.25" r="7.5"/>
          <circle class="cls-1" cx="932.57" cy="69.25" r="7.5"/>
          <circle class="cls-1" cx="954.57" cy="70.25" r="7.5"/>
          <circle class="cls-1" cx="932.57" cy="86.25" r="7.5"/>
          <circle class="cls-1" cx="932.57" cy="103.25" r="7.5"/>
          <circle class="cls-1" cx="910.57" cy="71.25" r="7.5"/>
          <path class="cls-4" d="M1017.57,42.75h-5.03c0-20.8-16.92-37.72-37.72-37.72s-37.72,16.92-37.72,37.72h-5.03c0-23.57,19.18-42.75,42.75-42.75s42.75,19.18,42.75,42.75Z"/>
          <path class="cls-4" d="M933.06,39.7c1.22,3.73,5.45,15.07,17.24,22.93,8.44,5.63,16.77,6.82,20.9,7.12.01-1.28-.07-16.76-13.13-25.75-11.13-7.67-23.19-4.77-25.02-4.3Z"/>
          <path class="cls-4" d="M936.16,40.52c-1.63,3.57-7.11,14.36-19.71,20.85-9.02,4.64-17.43,4.89-21.57,4.72.13-1.27,1.96-16.64,15.95-24.11,11.92-6.36,23.58-2.13,25.34-1.46Z"/>
        </g>
        <g id="_x3C_Grid_Repeat_x3E_-14" data-name="_x3C_Grid_Repeat_x3E_">
          <circle class="cls-3" cx="1023.93" cy="62.25" r="7.5"/>
          <circle class="cls-3" cx="1003.93" cy="62.25" r="7.5"/>
          <circle class="cls-3" cx="1002.93" cy="78.25" r="7.5"/>
          <circle class="cls-3" cx="1002.93" cy="94.25" r="7.5"/>
          <circle class="cls-3" cx="1024.93" cy="78.25" r="7.5"/>
          <circle class="cls-3" cx="1024.93" cy="94.25" r="7.5"/>
          <circle class="cls-1" cx="1014.93" cy="52.25" r="7.5"/>
          <circle class="cls-1" cx="1013.93" cy="69.25" r="7.5"/>
          <circle class="cls-1" cx="1035.93" cy="70.25" r="7.5"/>
          <circle class="cls-1" cx="1013.93" cy="86.25" r="7.5"/>
          <circle class="cls-1" cx="1013.93" cy="103.25" r="7.5"/>
          <circle class="cls-1" cx="991.93" cy="71.25" r="7.5"/>
          <path class="cls-4" d="M1098.93,42.75h-5.03c0-20.8-16.92-37.72-37.72-37.72s-37.72,16.92-37.72,37.72h-5.03c0-23.57,19.18-42.75,42.75-42.75s42.75,19.18,42.75,42.75Z"/>
          <path class="cls-4" d="M1014.41,39.7c1.22,3.73,5.45,15.07,17.24,22.93,8.44,5.63,16.77,6.82,20.9,7.12.01-1.28-.07-16.76-13.13-25.75-11.13-7.67-23.19-4.77-25.02-4.3Z"/>
          <path class="cls-4" d="M1017.51,40.52c-1.63,3.57-7.11,14.36-19.71,20.85-9.02,4.64-17.43,4.89-21.57,4.72.13-1.27,1.96-16.64,15.95-24.11,11.92-6.36,23.58-2.13,25.34-1.46Z"/>
        </g>
        <g id="_x3C_Grid_Repeat_x3E_-15" data-name="_x3C_Grid_Repeat_x3E_">
          <circle class="cls-3" cx="1105.28" cy="62.25" r="7.5"/>
          <circle class="cls-3" cx="1085.28" cy="62.25" r="7.5"/>
          <circle class="cls-3" cx="1084.28" cy="78.25" r="7.5"/>
          <circle class="cls-3" cx="1084.28" cy="94.25" r="7.5"/>
          <circle class="cls-3" cx="1106.28" cy="78.25" r="7.5"/>
          <circle class="cls-3" cx="1106.28" cy="94.25" r="7.5"/>
          <circle class="cls-1" cx="1096.28" cy="52.25" r="7.5"/>
          <circle class="cls-1" cx="1095.28" cy="69.25" r="7.5"/>
          <circle class="cls-1" cx="1117.28" cy="70.25" r="7.5"/>
          <circle class="cls-1" cx="1095.28" cy="86.25" r="7.5"/>
          <circle class="cls-1" cx="1095.28" cy="103.25" r="7.5"/>
          <circle class="cls-1" cx="1073.28" cy="71.25" r="7.5"/>
          <path class="cls-4" d="M1180.28,42.75h-5.03c0-20.8-16.92-37.72-37.72-37.72s-37.72,16.92-37.72,37.72h-5.03c0-23.57,19.18-42.75,42.75-42.75s42.75,19.18,42.75,42.75Z"/>
          <path class="cls-4" d="M1095.76,39.7c1.22,3.73,5.45,15.07,17.24,22.93,8.44,5.63,16.77,6.82,20.9,7.12.01-1.28-.07-16.76-13.13-25.75-11.13-7.67-23.19-4.77-25.02-4.3Z"/>
          <path class="cls-4" d="M1098.86,40.52c-1.63,3.57-7.11,14.36-19.71,20.85-9.02,4.64-17.43,4.89-21.57,4.72.13-1.27,1.96-16.64,15.95-24.11,11.92-6.36,23.58-2.13,25.34-1.46Z"/>
        </g>
        <g id="_x3C_Grid_Repeat_x3E_-16" data-name="_x3C_Grid_Repeat_x3E_">
          <circle class="cls-3" cx="1186.63" cy="62.25" r="7.5"/>
          <circle class="cls-3" cx="1166.63" cy="62.25" r="7.5"/>
          <circle class="cls-3" cx="1165.63" cy="78.25" r="7.5"/>
          <circle class="cls-3" cx="1165.63" cy="94.25" r="7.5"/>
          <circle class="cls-3" cx="1187.63" cy="78.25" r="7.5"/>
          <circle class="cls-3" cx="1187.63" cy="94.25" r="7.5"/>
          <circle class="cls-1" cx="1177.63" cy="52.25" r="7.5"/>
          <circle class="cls-1" cx="1176.63" cy="69.25" r="7.5"/>
          <circle class="cls-1" cx="1198.63" cy="70.25" r="7.5"/>
          <circle class="cls-1" cx="1176.63" cy="86.25" r="7.5"/>
          <circle class="cls-1" cx="1176.63" cy="103.25" r="7.5"/>
          <circle class="cls-1" cx="1154.63" cy="71.25" r="7.5"/>
          <path class="cls-4" d="M1261.63,42.75h-5.03c0-20.8-16.92-37.72-37.72-37.72s-37.72,16.92-37.72,37.72h-5.03c0-23.57,19.18-42.75,42.75-42.75s42.75,19.18,42.75,42.75Z"/>
          <path class="cls-4" d="M1177.11,39.7c1.22,3.73,5.45,15.07,17.24,22.93,8.44,5.63,16.77,6.82,20.9,7.12.01-1.28-.07-16.76-13.13-25.75-11.13-7.67-23.19-4.77-25.02-4.3Z"/>
          <path class="cls-4" d="M1180.21,40.52c-1.63,3.57-7.11,14.36-19.71,20.85-9.02,4.64-17.43,4.89-21.57,4.72.13-1.27,1.96-16.64,15.95-24.11,11.92-6.36,23.58-2.13,25.34-1.46Z"/>
        </g>
        <g id="_x3C_Grid_Repeat_x3E_-17" data-name="_x3C_Grid_Repeat_x3E_">
          <circle class="cls-3" cx="1267.98" cy="62.25" r="7.5"/>
          <circle class="cls-3" cx="1247.98" cy="62.25" r="7.5"/>
          <circle class="cls-3" cx="1246.98" cy="78.25" r="7.5"/>
          <circle class="cls-3" cx="1246.98" cy="94.25" r="7.5"/>
          <circle class="cls-3" cx="1268.98" cy="78.25" r="7.5"/>
          <circle class="cls-3" cx="1268.98" cy="94.25" r="7.5"/>
          <circle class="cls-1" cx="1258.98" cy="52.25" r="7.5"/>
          <circle class="cls-1" cx="1257.98" cy="69.25" r="7.5"/>
          <circle class="cls-1" cx="1279.98" cy="70.25" r="7.5"/>
          <circle class="cls-1" cx="1257.98" cy="86.25" r="7.5"/>
          <circle class="cls-1" cx="1257.98" cy="103.25" r="7.5"/>
          <circle class="cls-1" cx="1235.98" cy="71.25" r="7.5"/>
          <path class="cls-4" d="M1342.98,42.75h-5.03c0-20.8-16.92-37.72-37.72-37.72s-37.72,16.92-37.72,37.72h-5.03c0-23.57,19.18-42.75,42.75-42.75s42.75,19.18,42.75,42.75Z"/>
          <path class="cls-4" d="M1258.46,39.7c1.22,3.73,5.45,15.07,17.24,22.93,8.44,5.63,16.77,6.82,20.9,7.12.01-1.28-.07-16.76-13.13-25.75-11.13-7.67-23.19-4.77-25.02-4.3Z"/>
          <path class="cls-4" d="M1261.56,40.52c-1.63,3.57-7.11,14.36-19.71,20.85-9.02,4.64-17.43,4.89-21.57,4.72.13-1.27,1.96-16.64,15.95-24.11,11.92-6.36,23.58-2.13,25.34-1.46Z"/>
        </g>
        <g id="_x3C_Grid_Repeat_x3E_-18" data-name="_x3C_Grid_Repeat_x3E_">
          <circle class="cls-3" cx="1349.33" cy="62.25" r="7.5"/>
          <circle class="cls-3" cx="1329.33" cy="62.25" r="7.5"/>
          <circle class="cls-3" cx="1328.33" cy="78.25" r="7.5"/>
          <circle class="cls-3" cx="1328.33" cy="94.25" r="7.5"/>
          <circle class="cls-3" cx="1350.33" cy="78.25" r="7.5"/>
          <circle class="cls-3" cx="1350.33" cy="94.25" r="7.5"/>
          <circle class="cls-1" cx="1340.33" cy="52.25" r="7.5"/>
          <circle class="cls-1" cx="1339.33" cy="69.25" r="7.5"/>
          <circle class="cls-1" cx="1361.33" cy="70.25" r="7.5"/>
          <circle class="cls-1" cx="1339.33" cy="86.25" r="7.5"/>
          <circle class="cls-1" cx="1339.33" cy="103.25" r="7.5"/>
          <circle class="cls-1" cx="1317.33" cy="71.25" r="7.5"/>
          <path class="cls-4" d="M1424.33,42.75h-5.03c0-20.8-16.92-37.72-37.72-37.72s-37.72,16.92-37.72,37.72h-5.03c0-23.57,19.18-42.75,42.75-42.75s42.75,19.18,42.75,42.75Z"/>
          <path class="cls-4" d="M1339.82,39.7c1.22,3.73,5.45,15.07,17.24,22.93,8.44,5.63,16.77,6.82,20.9,7.12.01-1.28-.07-16.76-13.13-25.75-11.13-7.67-23.19-4.77-25.02-4.3Z"/>
          <path class="cls-4" d="M1342.92,40.52c-1.63,3.57-7.11,14.36-19.71,20.85-9.02,4.64-17.43,4.89-21.57,4.72.13-1.27,1.96-16.64,15.95-24.11,11.92-6.36,23.58-2.13,25.34-1.46Z"/>
        </g>
        <g id="_x3C_Grid_Repeat_x3E_-19" data-name="_x3C_Grid_Repeat_x3E_">
          <circle class="cls-3" cx="1430.69" cy="62.25" r="7.5"/>
          <circle class="cls-3" cx="1410.69" cy="62.25" r="7.5"/>
          <circle class="cls-3" cx="1409.69" cy="78.25" r="7.5"/>
          <circle class="cls-3" cx="1409.69" cy="94.25" r="7.5"/>
          <circle class="cls-3" cx="1431.69" cy="78.25" r="7.5"/>
          <circle class="cls-3" cx="1431.69" cy="94.25" r="7.5"/>
          <circle class="cls-1" cx="1421.69" cy="52.25" r="7.5"/>
          <circle class="cls-1" cx="1420.69" cy="69.25" r="7.5"/>
          <circle class="cls-1" cx="1442.69" cy="70.25" r="7.5"/>
          <circle class="cls-1" cx="1420.69" cy="86.25" r="7.5"/>
          <circle class="cls-1" cx="1420.69" cy="103.25" r="7.5"/>
          <circle class="cls-1" cx="1398.69" cy="71.25" r="7.5"/>
          <path class="cls-4" d="M1505.69,42.75h-5.03c0-20.8-16.92-37.72-37.72-37.72s-37.72,16.92-37.72,37.72h-5.03c0-23.57,19.18-42.75,42.75-42.75s42.75,19.18,42.75,42.75Z"/>
          <path class="cls-4" d="M1421.17,39.7c1.22,3.73,5.45,15.07,17.24,22.93,8.44,5.63,16.77,6.82,20.9,7.12.01-1.28-.07-16.76-13.13-25.75-11.13-7.67-23.19-4.77-25.02-4.3Z"/>
          <path class="cls-4" d="M1424.27,40.52c-1.63,3.57-7.11,14.36-19.71,20.85-9.02,4.64-17.43,4.89-21.57,4.72.13-1.27,1.96-16.64,15.95-24.11,11.92-6.36,23.58-2.13,25.34-1.46Z"/>
        </g>
        <g id="_x3C_Grid_Repeat_x3E_-20" data-name="_x3C_Grid_Repeat_x3E_">
          <circle class="cls-3" cx="1512.04" cy="62.25" r="7.5"/>
          <circle class="cls-3" cx="1492.04" cy="62.25" r="7.5"/>
          <circle class="cls-3" cx="1491.04" cy="78.25" r="7.5"/>
          <circle class="cls-3" cx="1491.04" cy="94.25" r="7.5"/>
          <circle class="cls-3" cx="1513.04" cy="78.25" r="7.5"/>
          <circle class="cls-3" cx="1513.04" cy="94.25" r="7.5"/>
          <circle class="cls-1" cx="1503.04" cy="52.25" r="7.5"/>
          <circle class="cls-1" cx="1502.04" cy="69.25" r="7.5"/>
          <circle class="cls-1" cx="1524.04" cy="70.25" r="7.5"/>
          <circle class="cls-1" cx="1502.04" cy="86.25" r="7.5"/>
          <circle class="cls-1" cx="1502.04" cy="103.25" r="7.5"/>
          <circle class="cls-1" cx="1480.04" cy="71.25" r="7.5"/>
          <path class="cls-4" d="M1587.04,42.75h-5.03c0-20.8-16.92-37.72-37.72-37.72s-37.72,16.92-37.72,37.72h-5.03c0-23.57,19.18-42.75,42.75-42.75s42.75,19.18,42.75,42.75Z"/>
          <path class="cls-4" d="M1502.52,39.7c1.22,3.73,5.45,15.07,17.24,22.93,8.44,5.63,16.77,6.82,20.9,7.12.01-1.28-.07-16.76-13.13-25.75-11.13-7.67-23.19-4.77-25.02-4.3Z"/>
          <path class="cls-4" d="M1505.62,40.52c-1.63,3.57-7.11,14.36-19.71,20.85-9.02,4.64-17.43,4.89-21.57,4.72.13-1.27,1.96-16.64,15.95-24.11,11.92-6.36,23.58-2.13,25.34-1.46Z"/>
        </g>
        <g id="_x3C_Grid_Repeat_x3E_-21" data-name="_x3C_Grid_Repeat_x3E_">
          <circle class="cls-3" cx="1593.39" cy="62.25" r="7.5"/>
          <circle class="cls-3" cx="1573.39" cy="62.25" r="7.5"/>
          <circle class="cls-3" cx="1572.39" cy="78.25" r="7.5"/>
          <circle class="cls-3" cx="1572.39" cy="94.25" r="7.5"/>
          <circle class="cls-3" cx="1594.39" cy="78.25" r="7.5"/>
          <circle class="cls-3" cx="1594.39" cy="94.25" r="7.5"/>
          <circle class="cls-1" cx="1584.39" cy="52.25" r="7.5"/>
          <circle class="cls-1" cx="1583.39" cy="69.25" r="7.5"/>
          <circle class="cls-1" cx="1605.39" cy="70.25" r="7.5"/>
          <circle class="cls-1" cx="1583.39" cy="86.25" r="7.5"/>
          <circle class="cls-1" cx="1583.39" cy="103.25" r="7.5"/>
          <circle class="cls-1" cx="1561.39" cy="71.25" r="7.5"/>
          <path class="cls-4" d="M1668.39,42.75h-5.03c0-20.8-16.92-37.72-37.72-37.72s-37.72,16.92-37.72,37.72h-5.03c0-23.57,19.18-42.75,42.75-42.75s42.75,19.18,42.75,42.75Z"/>
          <path class="cls-4" d="M1583.87,39.7c1.22,3.73,5.45,15.07,17.24,22.93,8.44,5.63,16.77,6.82,20.9,7.12.01-1.28-.07-16.76-13.13-25.75-11.13-7.67-23.19-4.77-25.02-4.3Z"/>
          <path class="cls-4" d="M1586.97,40.52c-1.63,3.57-7.11,14.36-19.71,20.85-9.02,4.64-17.43,4.89-21.57,4.72.13-1.27,1.96-16.64,15.95-24.11,11.92-6.36,23.58-2.13,25.34-1.46Z"/>
        </g>
        <g id="_x3C_Grid_Repeat_x3E_-22" data-name="_x3C_Grid_Repeat_x3E_">
          <circle class="cls-3" cx="1674.74" cy="62.25" r="7.5"/>
          <circle class="cls-3" cx="1654.74" cy="62.25" r="7.5"/>
          <circle class="cls-3" cx="1653.74" cy="78.25" r="7.5"/>
          <circle class="cls-3" cx="1653.74" cy="94.25" r="7.5"/>
          <circle class="cls-3" cx="1675.74" cy="78.25" r="7.5"/>
          <circle class="cls-3" cx="1675.74" cy="94.25" r="7.5"/>
          <circle class="cls-1" cx="1665.74" cy="52.25" r="7.5"/>
          <circle class="cls-1" cx="1664.74" cy="69.25" r="7.5"/>
          <circle class="cls-1" cx="1686.74" cy="70.25" r="7.5"/>
          <circle class="cls-1" cx="1664.74" cy="86.25" r="7.5"/>
          <circle class="cls-1" cx="1664.74" cy="103.25" r="7.5"/>
          <circle class="cls-1" cx="1642.74" cy="71.25" r="7.5"/>
          <path class="cls-4" d="M1749.74,42.75h-5.03c0-20.8-16.92-37.72-37.72-37.72s-37.72,16.92-37.72,37.72h-5.03c0-23.57,19.18-42.75,42.75-42.75s42.75,19.18,42.75,42.75Z"/>
          <path class="cls-4" d="M1665.22,39.7c1.22,3.73,5.45,15.07,17.24,22.93,8.44,5.63,16.77,6.82,20.9,7.12.01-1.28-.07-16.76-13.13-25.75-11.13-7.67-23.19-4.77-25.02-4.3Z"/>
          <path class="cls-4" d="M1668.32,40.52c-1.63,3.57-7.11,14.36-19.71,20.85-9.02,4.64-17.43,4.89-21.57,4.72.13-1.27,1.96-16.64,15.95-24.11,11.92-6.36,23.58-2.13,25.34-1.46Z"/>
        </g>
        <g id="_x3C_Grid_Repeat_x3E_-23" data-name="_x3C_Grid_Repeat_x3E_">
          <circle class="cls-3" cx="1756.09" cy="62.25" r="7.5"/>
          <circle class="cls-3" cx="1736.09" cy="62.25" r="7.5"/>
          <circle class="cls-3" cx="1735.09" cy="78.25" r="7.5"/>
          <circle class="cls-3" cx="1735.09" cy="94.25" r="7.5"/>
          <circle class="cls-3" cx="1757.09" cy="78.25" r="7.5"/>
          <circle class="cls-3" cx="1757.09" cy="94.25" r="7.5"/>
          <circle class="cls-1" cx="1747.09" cy="52.25" r="7.5"/>
          <circle class="cls-1" cx="1746.09" cy="69.25" r="7.5"/>
          <circle class="cls-1" cx="1768.09" cy="70.25" r="7.5"/>
          <circle class="cls-1" cx="1746.09" cy="86.25" r="7.5"/>
          <circle class="cls-1" cx="1746.09" cy="103.25" r="7.5"/>
          <circle class="cls-1" cx="1724.09" cy="71.25" r="7.5"/>
          <path class="cls-4" d="M1831.09,42.75h-5.03c0-20.8-16.92-37.72-37.72-37.72s-37.72,16.92-37.72,37.72h-5.03c0-23.57,19.18-42.75,42.75-42.75s42.75,19.18,42.75,42.75Z"/>
          <path class="cls-4" d="M1746.57,39.7c1.22,3.73,5.45,15.07,17.24,22.93,8.44,5.63,16.77,6.82,20.9,7.12.01-1.28-.07-16.76-13.13-25.75-11.13-7.67-23.19-4.77-25.02-4.3Z"/>
          <path class="cls-4" d="M1749.68,40.52c-1.63,3.57-7.11,14.36-19.71,20.85-9.02,4.64-17.43,4.89-21.57,4.72.13-1.27,1.96-16.64,15.95-24.11,11.92-6.36,23.58-2.13,25.34-1.46Z"/>
        </g>
        <g id="_x3C_Grid_Repeat_x3E_-24" data-name="_x3C_Grid_Repeat_x3E_">
          <circle class="cls-3" cx="1837.44" cy="62.25" r="7.5"/>
          <circle class="cls-3" cx="1817.44" cy="62.25" r="7.5"/>
          <circle class="cls-3" cx="1816.44" cy="78.25" r="7.5"/>
          <circle class="cls-3" cx="1816.44" cy="94.25" r="7.5"/>
          <circle class="cls-3" cx="1838.44" cy="78.25" r="7.5"/>
          <circle class="cls-3" cx="1838.44" cy="94.25" r="7.5"/>
          <circle class="cls-1" cx="1828.44" cy="52.25" r="7.5"/>
          <circle class="cls-1" cx="1827.44" cy="69.25" r="7.5"/>
          <circle class="cls-1" cx="1849.44" cy="70.25" r="7.5"/>
          <circle class="cls-1" cx="1827.44" cy="86.25" r="7.5"/>
          <circle class="cls-1" cx="1827.44" cy="103.25" r="7.5"/>
          <circle class="cls-1" cx="1805.44" cy="71.25" r="7.5"/>
          <path class="cls-4" d="M1912.44,42.75h-5.03c0-20.8-16.92-37.72-37.72-37.72s-37.72,16.92-37.72,37.72h-5.03c0-23.57,19.18-42.75,42.75-42.75s42.75,19.18,42.75,42.75Z"/>
          <path class="cls-4" d="M1827.93,39.7c1.22,3.73,5.45,15.07,17.24,22.93,8.44,5.63,16.77,6.82,20.9,7.12.01-1.28-.07-16.76-13.13-25.75-11.13-7.67-23.19-4.77-25.02-4.3Z"/>
          <path class="cls-4" d="M1831.03,40.52c-1.63,3.57-7.11,14.36-19.71,20.85-9.02,4.64-17.43,4.89-21.57,4.72.13-1.27,1.96-16.64,15.95-24.11,11.92-6.36,23.58-2.13,25.34-1.46Z"/>
        </g>
        <g id="_x3C_Grid_Repeat_x3E_-25" data-name="_x3C_Grid_Repeat_x3E_">
          <circle class="cls-3" cx="1918.8" cy="62.25" r="7.5"/>
          <circle class="cls-3" cx="1898.8" cy="62.25" r="7.5"/>
          <circle class="cls-3" cx="1897.8" cy="78.25" r="7.5"/>
          <circle class="cls-3" cx="1897.8" cy="94.25" r="7.5"/>
          <circle class="cls-3" cx="1919.8" cy="78.25" r="7.5"/>
          <circle class="cls-3" cx="1919.8" cy="94.25" r="7.5"/>
          <circle class="cls-1" cx="1909.8" cy="52.25" r="7.5"/>
          <circle class="cls-1" cx="1908.8" cy="69.25" r="7.5"/>
          <circle class="cls-1" cx="1930.8" cy="70.25" r="7.5"/>
          <circle class="cls-1" cx="1908.8" cy="86.25" r="7.5"/>
          <circle class="cls-1" cx="1908.8" cy="103.25" r="7.5"/>
          <circle class="cls-1" cx="1886.8" cy="71.25" r="7.5"/>
          <path class="cls-4" d="M1993.8,42.75h-5.03c0-20.8-16.92-37.72-37.72-37.72s-37.72,16.92-37.72,37.72h-5.03c0-23.57,19.18-42.75,42.75-42.75s42.75,19.18,42.75,42.75Z"/>
          <path class="cls-4" d="M1909.28,39.7c1.22,3.73,5.45,15.07,17.24,22.93,8.44,5.63,16.77,6.82,20.9,7.12.01-1.28-.07-16.76-13.13-25.75-11.13-7.67-23.19-4.77-25.02-4.3Z"/>
          <path class="cls-4" d="M1912.38,40.52c-1.63,3.57-7.11,14.36-19.71,20.85-9.02,4.64-17.43,4.89-21.57,4.72.13-1.27,1.96-16.64,15.95-24.11,11.92-6.36,23.58-2.13,25.34-1.46Z"/>
        </g>
        <g id="_x3C_Grid_Repeat_x3E_-26" data-name="_x3C_Grid_Repeat_x3E_">
          <path class="cls-4" d="M1993.73,40.52c-1.63,3.57-7.11,14.36-19.71,20.85-9.02,4.64-17.43,4.89-21.57,4.72.13-1.27,1.96-16.64,15.95-24.11,11.92-6.36,23.58-2.13,25.34-1.46Z"/>
        </g>
      </g>
    </g>
  </g>
</svg>