<?xml version="1.0" encoding="UTF-8"?>
<svg id="Layer_2" xmlns="http://www.w3.org/2000/svg" xmlns:xlink="http://www.w3.org/1999/xlink" viewBox="0 0 135.18 104.32">
  <defs>
    <style>
      .cls-1 {
        fill: #e7dfd8;
      }

      .cls-2 {
        fill: #928476;
      }

      .cls-3 {
        clip-path: url(#clippath-4);
      }

      .cls-4 {
        fill: #f3efeb;
      }

      .cls-5 {
        fill: #fff;
      }

      .cls-6 {
        fill: #7d756c;
      }

      .cls-7 {
        clip-path: url(#clippath-1);
      }

      .cls-8 {
        clip-path: url(#clippath-3);
      }

      .cls-9 {
        stroke: #928476;
        stroke-width: .35px;
      }

      .cls-9, .cls-10 {
        fill: none;
        stroke-miterlimit: 10;
      }

      .cls-11 {
        fill: #ffebd6;
      }

      .cls-12 {
        fill: #dad0c4;
      }

      .cls-13 {
        fill: #979189;
      }

      .cls-14 {
        fill: #403b36;
      }

      .cls-15 {
        fill: #cec0b1;
      }

      .cls-16 {
        clip-path: url(#clippath-2);
      }

      .cls-17 {
        fill: #312c27;
      }

      .cls-18 {
        clip-path: url(#clippath);
      }

      .cls-10 {
        stroke: #c2b09d;
        stroke-linecap: round;
        stroke-width: .39px;
      }
    </style>
    <clipPath id="clippath">
      <path class="cls-11" d="M25.76,9.5c-.92.83-2.27,2.1-3.8,3.76-3.86,4.19-8.06,8.75-9.21,15.29-.25,1.43-.47,3.61-.1,6.37-2.05,1.79-3.48,3.44-4.41,4.61-2.86,3.62-2.35,4.51-4.71,6.67C1.16,48.36-.02,48.82,0,50.11c.02,1.3,1.35,1.8,3.33,4.51.9,1.23,1.5,2.33,1.86,3.04-.88.88-1.76,1.76-2.65,2.65.34.95.67,1.91,1.01,2.86-1.56.84-2.36,2.51-1.99,4,.37,1.52,1.79,2.19,1.99,2.28-2.9,4.75-2.39,6.91-1.8,7.92,1.07,1.83,3.45,1.67,11.96,3.33,4.9.96,7.36,1.44,8.63,2.16.95.54,4.8,12.65,5,18.72,11.96,0,20.45-.14,29.07-.14-1.37,0-7.6-30.25-7.6-36.62,0,2.22,3.14-3.14,4.71-4.71.39-.78,1.27-2.81.78-5.29-.89-4.61-5.61-6.37-5.88-6.47-.98.78-1.96,1.57-2.94,2.35-6.57-13.73-13.15-27.47-19.72-41.2Z"/>
    </clipPath>
    <clipPath id="clippath-1">
      <polygon class="cls-5" points="16.17 43.55 15.49 39.13 22.64 41.59 16.17 43.55"/>
    </clipPath>
    <clipPath id="clippath-2">
      <path class="cls-15" d="M25.05,97.86c2.23-3.16,6.45-8.29,13.37-12.41,5.61-3.35,10.87-4.77,14.38-5.43l2.23,4.23c-3.55.48-9.53,1.76-15.88,5.6-7.08,4.28-11.21,9.68-13.23,12.76-.29-1.59-.57-3.17-.86-4.76Z"/>
    </clipPath>
    <clipPath id="clippath-3">
      <path class="cls-4" d="M56.37,57.86c-.75,3.43-1.5,6.86-2.25,10.29,1.05,5.42,2.09,10.85,3.14,16.27,1.9,1.66,7.6,6.21,16.08,6.67,5.04.27,9.06-1.01,11.37-1.96,3.4-3.53,6.8-7.06,10.19-10.59-.92-1.59-2.9-4.5-6.47-6.86-3.84-2.54-7.56-3.15-9.41-3.33-2.42-4.57-4.84-9.15-7.25-13.72-5.13,1.08-10.26,2.16-15.39,3.23Z"/>
    </clipPath>
    <clipPath id="clippath-4">
      <path class="cls-6" d="M65.93,61.84c1.87.84,3.99,1.94,6.22,3.37,2.11,1.35,3.9,2.74,5.39,4.02.61-1.71,1.21-3.72,1.67-5.98.54-2.68.77-5.11.84-7.17-1.19-.66-2.38-1.34-3.58-2.04-2.05-1.19-4.05-2.39-6-3.58-.23,1.64-.69,3.77-1.64,6.13-.9,2.21-1.96,3.96-2.89,5.26Z"/>
    </clipPath>
  </defs>
  <g id="Layer_1-2" data-name="Layer_1">
    <g>
      <g>
        <path class="cls-11" d="M25.76,9.5c-.92.83-2.27,2.1-3.8,3.76-3.86,4.19-8.06,8.75-9.21,15.29-.25,1.43-.47,3.61-.1,6.37-2.05,1.79-3.48,3.44-4.41,4.61-2.86,3.62-2.35,4.51-4.71,6.67C1.16,48.36-.02,48.82,0,50.11c.02,1.3,1.35,1.8,3.33,4.51.9,1.23,1.5,2.33,1.86,3.04-.88.88-1.76,1.76-2.65,2.65.34.95.67,1.91,1.01,2.86-1.56.84-2.36,2.51-1.99,4,.37,1.52,1.79,2.19,1.99,2.28-2.9,4.75-2.39,6.91-1.8,7.92,1.07,1.83,3.45,1.67,11.96,3.33,4.9.96,7.36,1.44,8.63,2.16.95.54,4.8,12.65,5,18.72,11.96,0,20.45-.14,29.07-.14-1.37,0-7.6-30.25-7.6-36.62,0,2.22,3.14-3.14,4.71-4.71.39-.78,1.27-2.81.78-5.29-.89-4.61-5.61-6.37-5.88-6.47-.98.78-1.96,1.57-2.94,2.35-6.57-13.73-13.15-27.47-19.72-41.2Z"/>
        <g class="cls-18">
          <polyline class="cls-2" points="2.55 60.31 6.18 65.31 0 68.52 2.55 60.31"/>
          <path class="cls-2" d="M25,32.76c-1.75-.15-3.8-.19-6.08,0-1.5.13-2.88.34-4.12.59.09-.3.18-.7.2-1.18.03-.66-.09-1.2-.2-1.57,1.79.19,3.77.5,5.88.98,1.55.35,2.99.75,4.31,1.18Z"/>
          <g>
            <polygon class="cls-5" points="16.17 43.55 15.49 39.13 22.64 41.59 16.17 43.55"/>
            <g class="cls-7">
              <circle class="cls-1" cx="15.39" cy="41.78" r="2.74"/>
              <ellipse class="cls-17" cx="15.41" cy="41.65" rx="1.56" ry="1.57" transform="translate(-5.85 2.66) rotate(-8.3)"/>
              <ellipse class="cls-4" cx="17.84" cy="41" rx="1.27" ry=".39"/>
            </g>
          </g>
          <polygon class="cls-14" points="26.17 100.79 38.52 88.73 53 82.81 60.68 104.32 25.78 103.93 26.17 100.79"/>
          <path class="cls-2" d="M14.02,42.76l2.55.59,5.29-1.76c-2.12-.82-4.25-1.63-6.37-2.45-.95-1.01-1.9-2.03-2.84-3.04.88.63,2.1,1.44,3.63,2.25,1.35.72,3.72,1.97,7.06,2.74,1.55.36,3.73.72,6.37.69-1.95.22-4.09.56-6.37,1.08-3.25.74-6.1,1.68-8.53,2.65.46-.39.91-.78,1.37-1.18l-2.16-1.57Z"/>
          <g>
            <path class="cls-15" d="M25.05,97.86c2.23-3.16,6.45-8.29,13.37-12.41,5.61-3.35,10.87-4.77,14.38-5.43l2.23,4.23c-3.55.48-9.53,1.76-15.88,5.6-7.08,4.28-11.21,9.68-13.23,12.76-.29-1.59-.57-3.17-.86-4.76Z"/>
            <g class="cls-16">
              <path class="cls-9" d="M25.04,100.67c2.26-3.34,6.92-9.25,14.9-13.66,5.83-3.22,11.25-4.44,14.85-4.95"/>
            </g>
          </g>
        </g>
      </g>
      <path class="cls-10" d="M46.56,53.15c-2.5,1.15-3.32,2.46-3.63,3.43-.66,2.11.75,3.95-.29,5-.76.76-1.79.07-3.04,1.08-.64.51-1.41,1.54-1.08,2.25.3.65,1.45.98,2.74.59,1.76-1.45,3.53-2.89,5.29-4.34"/>
      <g>
        <polygon class="cls-15" points="66.63 9.5 67.93 .22 57.93 7.08 66.63 9.5"/>
        <g>
          <path class="cls-4" d="M56.37,57.86c-.75,3.43-1.5,6.86-2.25,10.29,1.05,5.42,2.09,10.85,3.14,16.27,1.9,1.66,7.6,6.21,16.08,6.67,5.04.27,9.06-1.01,11.37-1.96,3.4-3.53,6.8-7.06,10.19-10.59-.92-1.59-2.9-4.5-6.47-6.86-3.84-2.54-7.56-3.15-9.41-3.33-2.42-4.57-4.84-9.15-7.25-13.72-5.13,1.08-10.26,2.16-15.39,3.23Z"/>
          <g class="cls-8">
            <path class="cls-15" d="M44.07,62.11c2.86-2.59,5.71-5.19,8.57-7.78.23-.65-1.86,37.54-1.86,37.54l41.56,2.94c2.32-7.16,4.64-14.31,6.96-21.47-3.33,1.07-10.73,2.96-19.8.98-7.82-1.7-13.21-5.48-15.88-7.65-1.37-5.95-2.74-11.89-4.12-17.84-2.29,1.83-4.57,3.66-6.86,5.49"/>
          </g>
        </g>
        <path class="cls-12" d="M39.7,52.56c2.07,1.84,6.93,5.65,14.12,6.67,2.14.3,6.73.89,11.96-1.18,2.67-1.06,4.63-2.46,5.9-3.53l-33.16-10.59c.39,2.88.78,5.75,1.18,8.63Z"/>
        <path class="cls-15" d="M64.88,51.78c8.65,8.92,16.78,12.42,22.85,13.92,8.94,2.2,13.83.15,23.72,1.96,10.38,1.9,18.35,6.61,23.72,10.59-5-7.2-10.14-11.61-13.92-14.31-6.4-4.57-10.74-5.55-20.59-11.37-5.7-3.37-10.12-6.51-12.94-8.63-7.62,2.61-15.23,5.23-22.85,7.84Z"/>
        <path class="cls-15" d="M81.26,37.66c3.24-2.26,6.97-5.21,10.78-9.02,3.82-3.82,6.78-7.56,9.05-10.81.38-.38.51-.96.33-1.47-.17-.48-.6-.87-1.2-.92-5.56-1.37-12.13-2.61-19.55-3.27-7.82-.7-14.84-.62-20.78-.2,1.5,8.17,3.01,16.34,4.51,24.51l16.86,1.18Z"/>
        <path class="cls-12" d="M68.94,30.18c.65.46,1.49.56,2.22.24,3.45-1.5,8.39-4.19,13.13-8.92,3.38-3.38,5.69-6.82,7.25-9.65.71-1.3,0-2.92-1.44-3.28-4.14-1.03-9.05-1.93-14.6-2.34-5.74-.43-10.86-.24-15.16.19-.71.07-1.35.48-1.72,1.1-1.77,2.97-3.53,5.95-5.3,8.92-.6,1.01-.33,2.31.63,3l14.99,10.75Z"/>
        <path class="cls-4" d="M25.39,3.16c-.73,2.91-1.38,6.71-1.37,11.18.01,6.31,1.34,11.45,2.55,14.9.33-1.31.65-2.61.98-3.92.19,2.4.79,6.31,2.94,10.59,1.05,2.09,3.43,6.69,8.23,9.8,3.5,2.27,5.95,2.22,13.33,3.53,11.61,2.05,11.28,3.18,17.45,3.92,5.04.61,12.79.77,22.74-2.16,2.09-.58,6.4-1.47,11.57-.2,3.67.91,6.35,2.56,7.95,3.73-3.41-2.64-6.82-5.27-10.23-7.91,2.22.88,4.56,1.94,6.98,3.2,5.81,3.03,10.52,6.44,14.22,9.59-2.9-2.54-5.81-5.09-8.71-7.63l4.88,1.37c-1.52-.8-3.8-2.05-6.47-3.73-6.75-4.23-8.6-6.52-12.35-9.02-6.74-4.49-9.31-2.79-19.61-6.86-3.86-1.52-9.47-4.12-15.88-8.63-.91-.39-5.64-2.52-6.67-7.06-.21-.94-.4-2.57.59-5.49,2.01-5.97,6.41-9.95,9.41-12.16-7.05-.35-15.02-.32-23.72.39-6.84.56-13.14,1.47-18.82,2.55Z"/>
        <g>
          <path class="cls-6" d="M65.93,61.84c1.87.84,3.99,1.94,6.22,3.37,2.11,1.35,3.9,2.74,5.39,4.02.61-1.71,1.21-3.72,1.67-5.98.54-2.68.77-5.11.84-7.17-1.19-.66-2.38-1.34-3.58-2.04-2.05-1.19-4.05-2.39-6-3.58-.23,1.64-.69,3.77-1.64,6.13-.9,2.21-1.96,3.96-2.89,5.26Z"/>
          <g class="cls-3">
            <polygon class="cls-13" points="74.06 51.78 69.07 61.09 77.54 69.23 78.23 66.78 71.68 60.38 75.57 53.51 74.06 51.78"/>
            <path class="cls-4" d="M80.04,64.68s-5.18-5.28-4.82-5.27,2.71-5.08,2.71-5.08l3.91,1.75-1.8,8.61Z"/>
            <polygon class="cls-13" points="77.19 53.49 73.38 59.55 79.17 65.67 79.21 63.25 76.27 59.55 78.48 54.62 77.19 53.49"/>
          </g>
        </g>
      </g>
      <path class="cls-15" d="M50.24,63.17c.13.38.63,1.67,2,2.53,1.22.77,2.42.75,2.85.73l2.83-9.18h-3.84l-3.84,5.93Z"/>
      <path class="cls-10" d="M2.84,51.78s4.31.78,4.12,2.74"/>
    </g>
  </g>
</svg>