<?xml version="1.0" encoding="UTF-8"?>
<svg id="Layer_2" xmlns="http://www.w3.org/2000/svg" xmlns:xlink="http://www.w3.org/1999/xlink" viewBox="0 0 943.65 469.47">
  <defs>
    <style>
      .cls-1 {
        clip-path: url(#clippath-6);
      }

      .cls-2 {
        clip-path: url(#clippath-7);
      }

      .cls-3 {
        clip-path: url(#clippath-4);
      }

      .cls-4 {
        clip-path: url(#clippath-9);
      }

      .cls-5 {
        fill: #fcdc5f;
      }

      .cls-6 {
        clip-path: url(#clippath-1);
      }

      .cls-7 {
        clip-path: url(#clippath-5);
      }

      .cls-8 {
        clip-path: url(#clippath-8);
      }

      .cls-9 {
        stroke-linecap: round;
        stroke-width: 3.97px;
      }

      .cls-9, .cls-10, .cls-11, .cls-12 {
        stroke-miterlimit: 10;
      }

      .cls-9, .cls-11 {
        stroke: #facb0f;
      }

      .cls-9, .cls-11, .cls-12 {
        fill: none;
      }

      .cls-13 {
        clip-path: url(#clippath-3);
      }

      .cls-10 {
        fill: #facb0f;
        stroke-width: .38px;
      }

      .cls-10, .cls-12 {
        stroke: #fcdc5f;
      }

      .cls-11 {
        stroke-width: .19px;
      }

      .cls-14 {
        clip-path: url(#clippath-2);
      }

      .cls-12 {
        stroke-width: 1.15px;
      }

      .cls-15 {
        fill: #facb0f;
      }

      .cls-16 {
        clip-path: url(#clippath);
      }
    </style>
    <clipPath id="clippath">
      <rect class="cls-5" x="126.99" y="351.66" width="52.25" height="22.28" transform="translate(306.23 725.61) rotate(-180)"/>
    </clipPath>
    <clipPath id="clippath-1">
      <rect class="cls-5" x="287.1" y="351.66" width="52.25" height="22.28" transform="translate(626.45 725.61) rotate(-180)"/>
    </clipPath>
    <clipPath id="clippath-2">
      <rect class="cls-5" x="447.21" y="351.66" width="52.25" height="22.28" transform="translate(946.67 725.61) rotate(-180)"/>
    </clipPath>
    <clipPath id="clippath-3">
      <rect class="cls-5" x="607.32" y="351.66" width="52.25" height="22.28" transform="translate(1266.89 725.61) rotate(-180)"/>
    </clipPath>
    <clipPath id="clippath-4">
      <rect class="cls-5" x="767.43" y="351.66" width="52.25" height="22.28" transform="translate(1587.11 725.61) rotate(-180)"/>
    </clipPath>
    <clipPath id="clippath-5">
      <rect class="cls-5" x="100.85" y="374.27" width="734.18" height="17.29"/>
    </clipPath>
    <clipPath id="clippath-6">
      <rect class="cls-5" x="82.37" y="391.6" width="771.15" height="17.29"/>
    </clipPath>
    <clipPath id="clippath-7">
      <rect class="cls-5" x="51.03" y="408.92" width="833.84" height="17.29"/>
    </clipPath>
    <clipPath id="clippath-8">
      <rect class="cls-5" x="25.62" y="426.25" width="884.65" height="17.29"/>
    </clipPath>
    <clipPath id="clippath-9">
      <rect class="cls-5" x=".06" y="443.58" width="935.94" height="17.29"/>
    </clipPath>
  </defs>
  <g id="Layer_1-2" data-name="Layer_1">
    <g>
      <g>
        <rect class="cls-5" x="136.38" y="167.25" width="33.42" height="1.15" transform="translate(306.19 335.66) rotate(-180)"/>
        <rect class="cls-5" x="136.38" y="164.56" width="33.42" height="1.15" transform="translate(306.19 330.28) rotate(-180)"/>
        <rect class="cls-15" x="136.38" y="165.72" width="33.42" height="1.54" transform="translate(306.19 332.97) rotate(-180)"/>
        <path class="cls-5" d="M134.46,154.96h37.27c0,5.3-4.3,9.6-9.6,9.6h-18.06c-5.3,0-9.6-4.3-9.6-9.6h0Z"/>
        <path class="cls-15" d="M126.78,146.9h0s24.2,0,24.2,0h1.54s1.92,0,1.92,0h1.15s24.59,0,24.59,0h0c7.44.11,13.45,6.17,13.45,13.64,0,7.53-6.11,13.64-13.64,13.64s-13.64-6.11-13.64-13.64c0-1.84.37-3.59,1.02-5.19-.55.16-.64,1.15-2.18,1.15-3.08,0-6.42.67-10.76.76v-.37h-1.92s0,.37,0,.37c-4.34-.09-7.67-.76-10.76-.76-1.54,0-1.62-1-2.18-1.15.66,1.6,1.02,3.35,1.02,5.19,0,7.53-6.11,13.64-13.64,13.64-7.53,0-13.64-6.11-13.64-13.64,0-7.47,6-13.53,13.45-13.63Z"/>
        <g>
          <path class="cls-10" d="M160.52,163.99h0c1.59,0,2.88-1.29,2.88-2.88v-4.42s-5.76.38-5.76.38v4.03c0,1.59,1.29,2.88,2.88,2.88Z"/>
          <path class="cls-10" d="M160.52,162.64h0c.96,0,1.74-1.05,1.74-2.35v-3.6s-3.48.31-3.48.31v3.29c0,1.3.78,2.35,1.74,2.35Z"/>
        </g>
        <g>
          <path class="cls-10" d="M146.3,163.99h0c-1.59,0-2.88-1.29-2.88-2.88v-4.42l5.76.38v4.03c0,1.59-1.29,2.88-2.88,2.88Z"/>
          <path class="cls-10" d="M146.3,162.64h0c-.96,0-1.74-1.05-1.74-2.35v-3.6l3.48.31v3.29c0,1.3-.78,2.35-1.74,2.35Z"/>
        </g>
        <g>
          <path class="cls-10" d="M153.41,164.31c1.59,0,2.88-1.29,2.88-2.88v-4.42c-.84.04-1.7.06-2.59.06-1.1,0-2.16-.02-3.17-.06,0,1.47,0,2.95,0,4.42,0,1.59,1.29,2.88,2.88,2.88Z"/>
          <path class="cls-10" d="M153.41,163.03c.98,0,1.78-1.06,1.78-2.38v-3.64c-.51.03-1.05.05-1.6.05-.68,0-1.33-.02-1.95-.05,0,1.21,0,2.43,0,3.64,0,1.31.8,2.38,1.78,2.38Z"/>
        </g>
        <path class="cls-5" d="M134.48,337.45h37.27c0,5.3-4.3,9.6-9.6,9.6h-18.06c-5.3,0-9.6-4.3-9.6-9.6h0Z" transform="translate(306.23 684.5) rotate(-180)"/>
        <path class="cls-5" d="M137.17,331.87h31.89c0,3.83-3.11,6.93-6.93,6.93h-18.03c-3.83,0-6.93-3.11-6.93-6.93h0Z"/>
        <path class="cls-5" d="M137.17,297.68h31.89c0,3.83-3.11,6.93-6.93,6.93h-18.03c-3.83,0-6.93-3.11-6.93-6.93h0Z"/>
        <path class="cls-5" d="M137.17,263.48h31.89c0,3.83-3.11,6.93-6.93,6.93h-18.03c-3.83,0-6.93-3.11-6.93-6.93h0Z"/>
        <path class="cls-5" d="M137.17,229.29h31.89c0,3.83-3.11,6.93-6.93,6.93h-18.03c-3.83,0-6.93-3.11-6.93-6.93h0Z"/>
        <path class="cls-5" d="M137.17,195.48h31.89c0,3.83-3.11,6.93-6.93,6.93h-18.03c-3.83,0-6.93-3.11-6.93-6.93h0Z"/>
        <rect class="cls-15" x="130.25" y="344.75" width="45.72" height="9.6" transform="translate(306.23 699.1) rotate(-180)"/>
        <rect class="cls-15" x="136.4" y="201.64" width="33.42" height="31.89" transform="translate(306.23 435.16) rotate(-180)"/>
        <rect class="cls-15" x="136.4" y="235.64" width="33.42" height="31.89" transform="translate(306.23 503.17) rotate(-180)"/>
        <rect class="cls-15" x="136.4" y="269.64" width="33.42" height="31.89" transform="translate(306.23 571.17) rotate(-180)"/>
        <rect class="cls-15" x="136.4" y="303.64" width="33.42" height="31.89" transform="translate(306.23 639.17) rotate(-180)"/>
        <rect class="cls-15" x="136.4" y="168.41" width="33.42" height="30.35" transform="translate(306.23 367.16) rotate(-180)"/>
        <rect class="cls-5" x="164.24" y="171.29" width="3.07" height="25.74" rx="1.54" ry="1.54" transform="translate(331.55 368.32) rotate(180)"/>
        <rect class="cls-5" x="158" y="171.29" width="3.07" height="25.74" rx="1.54" ry="1.54" transform="translate(319.06 368.32) rotate(-180)"/>
        <rect class="cls-5" x="151.75" y="171.29" width="3.07" height="25.74" rx="1.54" ry="1.54" transform="translate(306.58 368.32) rotate(-180)"/>
        <rect class="cls-5" x="145.51" y="171.29" width="3.07" height="25.74" rx="1.54" ry="1.54" transform="translate(294.09 368.32) rotate(180)"/>
        <rect class="cls-5" x="139.27" y="171.29" width="3.07" height="25.74" rx="1.54" ry="1.54" transform="translate(281.61 368.32) rotate(-180)"/>
        <rect class="cls-5" x="164.24" y="204.33" width="3.07" height="25.74" rx="1.54" ry="1.54" transform="translate(331.55 434.4) rotate(180)"/>
        <rect class="cls-5" x="158" y="204.33" width="3.07" height="25.74" rx="1.54" ry="1.54" transform="translate(319.06 434.4) rotate(180)"/>
        <rect class="cls-5" x="151.75" y="204.33" width="3.07" height="25.74" rx="1.54" ry="1.54" transform="translate(306.58 434.4) rotate(-180)"/>
        <rect class="cls-5" x="145.51" y="204.33" width="3.07" height="25.74" rx="1.54" ry="1.54" transform="translate(294.09 434.4) rotate(-180)"/>
        <rect class="cls-5" x="139.27" y="204.33" width="3.07" height="25.74" rx="1.54" ry="1.54" transform="translate(281.61 434.4) rotate(180)"/>
        <rect class="cls-5" x="164.24" y="238.9" width="3.07" height="25.74" rx="1.54" ry="1.54" transform="translate(331.55 503.55) rotate(-180)"/>
        <rect class="cls-5" x="158" y="238.9" width="3.07" height="25.74" rx="1.54" ry="1.54" transform="translate(319.06 503.55) rotate(180)"/>
        <rect class="cls-5" x="151.75" y="238.9" width="3.07" height="25.74" rx="1.54" ry="1.54" transform="translate(306.58 503.55) rotate(180)"/>
        <rect class="cls-5" x="145.51" y="238.9" width="3.07" height="25.74" rx="1.54" ry="1.54" transform="translate(294.09 503.55) rotate(180)"/>
        <rect class="cls-5" x="139.27" y="238.9" width="3.07" height="25.74" rx="1.54" ry="1.54" transform="translate(281.61 503.55) rotate(-180)"/>
        <rect class="cls-5" x="164.24" y="272.71" width="3.07" height="25.74" rx="1.54" ry="1.54" transform="translate(331.55 571.17) rotate(-180)"/>
        <rect class="cls-5" x="158" y="272.71" width="3.07" height="25.74" rx="1.54" ry="1.54" transform="translate(319.06 571.17) rotate(-180)"/>
        <rect class="cls-5" x="151.75" y="272.71" width="3.07" height="25.74" rx="1.54" ry="1.54" transform="translate(306.58 571.17) rotate(-180)"/>
        <rect class="cls-5" x="145.51" y="272.71" width="3.07" height="25.74" rx="1.54" ry="1.54" transform="translate(294.09 571.17) rotate(180)"/>
        <rect class="cls-5" x="139.27" y="272.71" width="3.07" height="25.74" rx="1.54" ry="1.54" transform="translate(281.61 571.17) rotate(180)"/>
        <rect class="cls-5" x="164.24" y="306.52" width="3.07" height="25.74" rx="1.54" ry="1.54" transform="translate(331.55 638.78) rotate(180)"/>
        <rect class="cls-5" x="158" y="306.52" width="3.07" height="25.74" rx="1.54" ry="1.54" transform="translate(319.06 638.78) rotate(180)"/>
        <rect class="cls-5" x="151.75" y="306.52" width="3.07" height="25.74" rx="1.54" ry="1.54" transform="translate(306.58 638.78) rotate(180)"/>
        <rect class="cls-5" x="145.51" y="306.52" width="3.07" height="25.74" rx="1.54" ry="1.54" transform="translate(294.09 638.78) rotate(180)"/>
        <rect class="cls-5" x="139.27" y="306.52" width="3.07" height="25.74" rx="1.54" ry="1.54" transform="translate(281.61 638.78) rotate(180)"/>
        <g>
          <rect class="cls-5" x="126.99" y="351.66" width="52.25" height="22.28" transform="translate(306.23 725.61) rotate(-180)"/>
          <g class="cls-16">
            <path class="cls-15" d="M181.72,367.8c-7.75.91-18.06,1.33-29.97-.38-14.92-2.15-26.71-6.84-34.66-10.76.41,13.83.83,27.66,1.24,41.49l71.07-11.91-7.68-18.44Z"/>
          </g>
        </g>
        <line class="cls-11" x1="168.27" y1="164.56" x2="138.31" y2="164.56"/>
        <g>
          <path class="cls-12" d="M154.25,157.07c-5.09.03-9.73-.28-13.82-.77-3.37-4.88-9.11-7.15-14.22-5.76-3.97,1.08-9.05,4.77-8.83,10.37.2,5.16,4.81,9.69,9.99,9.6,4-.07,8.99-2.9,9.21-7.68.21-4.55-3.99-8.82-8.45-8.45-3.5.29-7.3,3.44-6.92,7.3.29,2.96,2.97,5.71,6.15,5.76,2.96.05,6.28-2.24,6.15-4.99-.1-2.12-2.25-4.47-4.61-4.23-1.63.17-3.53,1.58-3.46,3.46.06,1.59,1.53,3.17,3.07,3.07.99-.06,2.23-.81,2.31-1.92.04-.62-.21-1.27-.71-1.73-.66-.59-1.44-.59-1.6-.58"/>
          <path class="cls-12" d="M152.72,157.07c5.09.03,9.73-.28,13.82-.77,3.37-4.88,9.11-7.15,14.22-5.76,3.97,1.08,9.05,4.77,8.83,10.37-.2,5.16-4.81,9.69-9.99,9.6-4-.07-8.99-2.9-9.21-7.68-.21-4.55,3.99-8.82,8.45-8.45,3.5.29,7.3,3.44,6.92,7.3-.29,2.96-2.97,5.71-6.15,5.76-2.96.05-6.28-2.24-6.15-4.99.1-2.12,2.25-4.47,4.61-4.23,1.63.17,3.53,1.58,3.46,3.46-.06,1.59-1.53,3.17-3.07,3.07-.99-.06-2.23-.81-2.31-1.92-.04-.62.21-1.27.71-1.73.66-.59,1.44-.59,1.6-.58"/>
        </g>
      </g>
      <g>
        <rect class="cls-5" x="296.5" y="167.25" width="33.42" height="1.15" transform="translate(626.41 335.66) rotate(-180)"/>
        <rect class="cls-5" x="296.5" y="164.56" width="33.42" height="1.15" transform="translate(626.41 330.28) rotate(-180)"/>
        <rect class="cls-15" x="296.5" y="165.72" width="33.42" height="1.54" transform="translate(626.41 332.97) rotate(-180)"/>
        <path class="cls-5" d="M294.57,154.96h37.27c0,5.3-4.3,9.6-9.6,9.6h-18.06c-5.3,0-9.6-4.3-9.6-9.6h0Z"/>
        <path class="cls-15" d="M286.89,146.9h0s24.2,0,24.2,0h1.54s1.92,0,1.92,0h1.15s24.59,0,24.59,0h0c7.44.11,13.45,6.17,13.45,13.64,0,7.53-6.11,13.64-13.64,13.64s-13.64-6.11-13.64-13.64c0-1.84.37-3.59,1.02-5.19-.55.16-.64,1.15-2.18,1.15-3.08,0-6.42.67-10.76.76v-.37h-1.92s0,.37,0,.37c-4.34-.09-7.67-.76-10.76-.76-1.54,0-1.62-1-2.18-1.15.66,1.6,1.02,3.35,1.02,5.19,0,7.53-6.11,13.64-13.64,13.64-7.53,0-13.64-6.11-13.64-13.64,0-7.47,6-13.53,13.45-13.63Z"/>
        <g>
          <path class="cls-10" d="M320.63,163.99h0c1.59,0,2.88-1.29,2.88-2.88v-4.42s-5.76.38-5.76.38v4.03c0,1.59,1.29,2.88,2.88,2.88Z"/>
          <path class="cls-10" d="M320.63,162.64h0c.96,0,1.74-1.05,1.74-2.35v-3.6s-3.48.31-3.48.31v3.29c0,1.3.78,2.35,1.74,2.35Z"/>
        </g>
        <g>
          <path class="cls-10" d="M306.41,163.99h0c-1.59,0-2.88-1.29-2.88-2.88v-4.42l5.76.38v4.03c0,1.59-1.29,2.88-2.88,2.88Z"/>
          <path class="cls-10" d="M306.41,162.64h0c-.96,0-1.74-1.05-1.74-2.35v-3.6l3.48.31v3.29c0,1.3-.78,2.35-1.74,2.35Z"/>
        </g>
        <g>
          <path class="cls-10" d="M313.52,164.31c1.59,0,2.88-1.29,2.88-2.88v-4.42c-.84.04-1.7.06-2.59.06-1.1,0-2.16-.02-3.17-.06,0,1.47,0,2.95,0,4.42,0,1.59,1.29,2.88,2.88,2.88Z"/>
          <path class="cls-10" d="M313.52,163.03c.98,0,1.78-1.06,1.78-2.38v-3.64c-.51.03-1.05.05-1.6.05-.68,0-1.33-.02-1.95-.05,0,1.21,0,2.43,0,3.64,0,1.31.8,2.38,1.78,2.38Z"/>
        </g>
        <path class="cls-5" d="M294.59,337.45h37.27c0,5.3-4.3,9.6-9.6,9.6h-18.06c-5.3,0-9.6-4.3-9.6-9.6h0Z" transform="translate(626.45 684.5) rotate(-180)"/>
        <path class="cls-5" d="M297.28,331.87h31.89c0,3.83-3.11,6.93-6.93,6.93h-18.03c-3.83,0-6.93-3.11-6.93-6.93h0Z"/>
        <path class="cls-5" d="M297.28,297.68h31.89c0,3.83-3.11,6.93-6.93,6.93h-18.03c-3.83,0-6.93-3.11-6.93-6.93h0Z"/>
        <path class="cls-5" d="M297.28,263.48h31.89c0,3.83-3.11,6.93-6.93,6.93h-18.03c-3.83,0-6.93-3.11-6.93-6.93h0Z"/>
        <path class="cls-5" d="M297.28,229.29h31.89c0,3.83-3.11,6.93-6.93,6.93h-18.03c-3.83,0-6.93-3.11-6.93-6.93h0Z"/>
        <path class="cls-5" d="M297.28,195.48h31.89c0,3.83-3.11,6.93-6.93,6.93h-18.03c-3.83,0-6.93-3.11-6.93-6.93h0Z"/>
        <rect class="cls-15" x="290.37" y="344.75" width="45.72" height="9.6" transform="translate(626.45 699.1) rotate(-180)"/>
        <rect class="cls-15" x="296.51" y="201.64" width="33.42" height="31.89" transform="translate(626.45 435.16) rotate(-180)"/>
        <rect class="cls-15" x="296.51" y="235.64" width="33.42" height="31.89" transform="translate(626.45 503.17) rotate(-180)"/>
        <rect class="cls-15" x="296.51" y="269.64" width="33.42" height="31.89" transform="translate(626.45 571.17) rotate(-180)"/>
        <rect class="cls-15" x="296.51" y="303.64" width="33.42" height="31.89" transform="translate(626.45 639.17) rotate(-180)"/>
        <rect class="cls-15" x="296.51" y="168.41" width="33.42" height="30.35" transform="translate(626.45 367.16) rotate(-180)"/>
        <rect class="cls-5" x="324.35" y="171.29" width="3.07" height="25.74" rx="1.54" ry="1.54" transform="translate(651.77 368.32) rotate(-180)"/>
        <rect class="cls-5" x="318.11" y="171.29" width="3.07" height="25.74" rx="1.54" ry="1.54" transform="translate(639.28 368.32) rotate(-180)"/>
        <rect class="cls-5" x="311.86" y="171.29" width="3.07" height="25.74" rx="1.54" ry="1.54" transform="translate(626.8 368.32) rotate(180)"/>
        <rect class="cls-5" x="305.62" y="171.29" width="3.07" height="25.74" rx="1.54" ry="1.54" transform="translate(614.31 368.32) rotate(-180)"/>
        <rect class="cls-5" x="299.38" y="171.29" width="3.07" height="25.74" rx="1.54" ry="1.54" transform="translate(601.83 368.32) rotate(-180)"/>
        <rect class="cls-5" x="324.35" y="204.33" width="3.07" height="25.74" rx="1.54" ry="1.54" transform="translate(651.77 434.4) rotate(180)"/>
        <rect class="cls-5" x="318.11" y="204.33" width="3.07" height="25.74" rx="1.54" ry="1.54" transform="translate(639.28 434.4) rotate(180)"/>
        <rect class="cls-5" x="311.86" y="204.33" width="3.07" height="25.74" rx="1.54" ry="1.54" transform="translate(626.8 434.4) rotate(-180)"/>
        <rect class="cls-5" x="305.62" y="204.33" width="3.07" height="25.74" rx="1.54" ry="1.54" transform="translate(614.31 434.4) rotate(180)"/>
        <rect class="cls-5" x="299.38" y="204.33" width="3.07" height="25.74" rx="1.54" ry="1.54" transform="translate(601.83 434.4) rotate(180)"/>
        <rect class="cls-5" x="324.35" y="238.9" width="3.07" height="25.74" rx="1.54" ry="1.54" transform="translate(651.77 503.55) rotate(-180)"/>
        <rect class="cls-5" x="318.11" y="238.9" width="3.07" height="25.74" rx="1.54" ry="1.54" transform="translate(639.28 503.55) rotate(180)"/>
        <rect class="cls-5" x="311.86" y="238.9" width="3.07" height="25.74" rx="1.54" ry="1.54" transform="translate(626.8 503.55) rotate(180)"/>
        <rect class="cls-5" x="305.62" y="238.9" width="3.07" height="25.74" rx="1.54" ry="1.54" transform="translate(614.31 503.55) rotate(180)"/>
        <rect class="cls-5" x="299.38" y="238.9" width="3.07" height="25.74" rx="1.54" ry="1.54" transform="translate(601.83 503.55) rotate(180)"/>
        <rect class="cls-5" x="324.35" y="272.71" width="3.07" height="25.74" rx="1.54" ry="1.54" transform="translate(651.77 571.17) rotate(-180)"/>
        <rect class="cls-5" x="318.11" y="272.71" width="3.07" height="25.74" rx="1.54" ry="1.54" transform="translate(639.28 571.17) rotate(180)"/>
        <rect class="cls-5" x="311.86" y="272.71" width="3.07" height="25.74" rx="1.54" ry="1.54" transform="translate(626.8 571.17) rotate(-180)"/>
        <rect class="cls-5" x="305.62" y="272.71" width="3.07" height="25.74" rx="1.54" ry="1.54" transform="translate(614.31 571.17) rotate(180)"/>
        <rect class="cls-5" x="299.38" y="272.71" width="3.07" height="25.74" rx="1.54" ry="1.54" transform="translate(601.83 571.17) rotate(180)"/>
        <rect class="cls-5" x="324.35" y="306.52" width="3.07" height="25.74" rx="1.54" ry="1.54" transform="translate(651.77 638.78) rotate(180)"/>
        <rect class="cls-5" x="318.11" y="306.52" width="3.07" height="25.74" rx="1.54" ry="1.54" transform="translate(639.29 638.78) rotate(180)"/>
        <rect class="cls-5" x="311.86" y="306.52" width="3.07" height="25.74" rx="1.54" ry="1.54" transform="translate(626.8 638.78) rotate(180)"/>
        <rect class="cls-5" x="305.62" y="306.52" width="3.07" height="25.74" rx="1.54" ry="1.54" transform="translate(614.31 638.78) rotate(180)"/>
        <rect class="cls-5" x="299.38" y="306.52" width="3.07" height="25.74" rx="1.54" ry="1.54" transform="translate(601.83 638.78) rotate(180)"/>
        <g>
          <rect class="cls-5" x="287.1" y="351.66" width="52.25" height="22.28" transform="translate(626.45 725.61) rotate(-180)"/>
          <g class="cls-6">
            <path class="cls-15" d="M341.83,367.8c-7.75.91-18.06,1.33-29.97-.38-14.92-2.15-26.71-6.84-34.66-10.76.41,13.83.83,27.66,1.24,41.49l71.07-11.91-7.68-18.44Z"/>
          </g>
        </g>
        <line class="cls-11" x1="328.38" y1="164.56" x2="298.42" y2="164.56"/>
        <g>
          <path class="cls-12" d="M314.36,157.07c-5.09.03-9.73-.28-13.82-.77-3.37-4.88-9.11-7.15-14.22-5.76-3.97,1.08-9.05,4.77-8.83,10.37.2,5.16,4.81,9.69,9.99,9.6,4-.07,8.99-2.9,9.21-7.68.21-4.55-3.99-8.82-8.45-8.45-3.5.29-7.3,3.44-6.92,7.3.29,2.96,2.97,5.71,6.15,5.76,2.96.05,6.28-2.24,6.15-4.99-.1-2.12-2.25-4.47-4.61-4.23-1.63.17-3.53,1.58-3.46,3.46.06,1.59,1.53,3.17,3.07,3.07.99-.06,2.23-.81,2.31-1.92.04-.62-.21-1.27-.71-1.73-.66-.59-1.44-.59-1.6-.58"/>
          <path class="cls-12" d="M312.83,157.07c5.09.03,9.73-.28,13.82-.77,3.37-4.88,9.11-7.15,14.22-5.76,3.97,1.08,9.05,4.77,8.83,10.37-.2,5.16-4.81,9.69-9.99,9.6-4-.07-8.99-2.9-9.21-7.68-.21-4.55,3.99-8.82,8.45-8.45,3.5.29,7.3,3.44,6.92,7.3-.29,2.96-2.97,5.71-6.15,5.76-2.96.05-6.28-2.24-6.15-4.99.1-2.12,2.25-4.47,4.61-4.23,1.63.17,3.53,1.58,3.46,3.46-.06,1.59-1.53,3.17-3.07,3.07-.99-.06-2.23-.81-2.31-1.92-.04-.62.21-1.27.71-1.73.66-.59,1.44-.59,1.6-.58"/>
        </g>
      </g>
      <g>
        <rect class="cls-5" x="456.61" y="167.25" width="33.42" height="1.15" transform="translate(946.64 335.66) rotate(-180)"/>
        <rect class="cls-5" x="456.61" y="164.56" width="33.42" height="1.15" transform="translate(946.64 330.28) rotate(-180)"/>
        <rect class="cls-15" x="456.61" y="165.72" width="33.42" height="1.54" transform="translate(946.64 332.97) rotate(-180)"/>
        <path class="cls-5" d="M454.68,154.96h37.27c0,5.3-4.3,9.6-9.6,9.6h-18.06c-5.3,0-9.6-4.3-9.6-9.6h0Z"/>
        <path class="cls-15" d="M447,146.9h0s24.2,0,24.2,0h1.54s1.92,0,1.92,0h1.15s24.59,0,24.59,0h0c7.44.11,13.45,6.17,13.45,13.64,0,7.53-6.11,13.64-13.64,13.64s-13.64-6.11-13.64-13.64c0-1.84.37-3.59,1.02-5.19-.55.16-.64,1.15-2.18,1.15-3.08,0-6.42.67-10.76.76v-.37h-1.92s0,.37,0,.37c-4.34-.09-7.67-.76-10.76-.76-1.54,0-1.62-1-2.18-1.15.66,1.6,1.02,3.35,1.02,5.19,0,7.53-6.11,13.64-13.64,13.64-7.53,0-13.64-6.11-13.64-13.64,0-7.47,6-13.53,13.45-13.63Z"/>
        <g>
          <path class="cls-10" d="M480.74,163.99h0c1.59,0,2.88-1.29,2.88-2.88v-4.42s-5.76.38-5.76.38v4.03c0,1.59,1.29,2.88,2.88,2.88Z"/>
          <path class="cls-10" d="M480.74,162.64h0c.96,0,1.74-1.05,1.74-2.35v-3.6s-3.48.31-3.48.31v3.29c0,1.3.78,2.35,1.74,2.35Z"/>
        </g>
        <g>
          <path class="cls-10" d="M466.52,163.99h0c-1.59,0-2.88-1.29-2.88-2.88v-4.42l5.76.38v4.03c0,1.59-1.29,2.88-2.88,2.88Z"/>
          <path class="cls-10" d="M466.52,162.64h0c-.96,0-1.74-1.05-1.74-2.35v-3.6l3.48.31v3.29c0,1.3-.78,2.35-1.74,2.35Z"/>
        </g>
        <g>
          <path class="cls-10" d="M473.63,164.31c1.59,0,2.88-1.29,2.88-2.88v-4.42c-.84.04-1.7.06-2.59.06-1.1,0-2.16-.02-3.17-.06,0,1.47,0,2.95,0,4.42,0,1.59,1.29,2.88,2.88,2.88Z"/>
          <path class="cls-10" d="M473.63,163.03c.98,0,1.78-1.06,1.78-2.38v-3.64c-.51.03-1.05.05-1.6.05-.68,0-1.33-.02-1.95-.05,0,1.21,0,2.43,0,3.64,0,1.31.8,2.38,1.78,2.38Z"/>
        </g>
        <path class="cls-5" d="M454.7,337.45h37.27c0,5.3-4.3,9.6-9.6,9.6h-18.06c-5.3,0-9.6-4.3-9.6-9.6h0Z" transform="translate(946.67 684.5) rotate(-180)"/>
        <path class="cls-5" d="M457.39,331.87h31.89c0,3.83-3.11,6.93-6.93,6.93h-18.03c-3.83,0-6.93-3.11-6.93-6.93h0Z"/>
        <path class="cls-5" d="M457.39,297.68h31.89c0,3.83-3.11,6.93-6.93,6.93h-18.03c-3.83,0-6.93-3.11-6.93-6.93h0Z"/>
        <path class="cls-5" d="M457.39,263.48h31.89c0,3.83-3.11,6.93-6.93,6.93h-18.03c-3.83,0-6.93-3.11-6.93-6.93h0Z"/>
        <path class="cls-5" d="M457.39,229.29h31.89c0,3.83-3.11,6.93-6.93,6.93h-18.03c-3.83,0-6.93-3.11-6.93-6.93h0Z"/>
        <path class="cls-5" d="M457.39,195.48h31.89c0,3.83-3.11,6.93-6.93,6.93h-18.03c-3.83,0-6.93-3.11-6.93-6.93h0Z"/>
        <rect class="cls-15" x="450.48" y="344.75" width="45.72" height="9.6" transform="translate(946.67 699.1) rotate(-180)"/>
        <rect class="cls-15" x="456.62" y="201.64" width="33.42" height="31.89" transform="translate(946.67 435.16) rotate(-180)"/>
        <rect class="cls-15" x="456.62" y="235.64" width="33.42" height="31.89" transform="translate(946.67 503.17) rotate(-180)"/>
        <rect class="cls-15" x="456.62" y="269.64" width="33.42" height="31.89" transform="translate(946.67 571.17) rotate(-180)"/>
        <rect class="cls-15" x="456.62" y="303.64" width="33.42" height="31.89" transform="translate(946.67 639.17) rotate(-180)"/>
        <rect class="cls-15" x="456.62" y="168.41" width="33.42" height="30.35" transform="translate(946.67 367.16) rotate(-180)"/>
        <rect class="cls-5" x="484.46" y="171.29" width="3.07" height="25.74" rx="1.54" ry="1.54" transform="translate(971.99 368.32) rotate(-180)"/>
        <rect class="cls-5" x="478.22" y="171.29" width="3.07" height="25.74" rx="1.54" ry="1.54" transform="translate(959.51 368.32) rotate(180)"/>
        <rect class="cls-5" x="471.97" y="171.29" width="3.07" height="25.74" rx="1.54" ry="1.54" transform="translate(947.02 368.32) rotate(180)"/>
        <rect class="cls-5" x="465.73" y="171.29" width="3.07" height="25.74" rx="1.54" ry="1.54" transform="translate(934.53 368.32) rotate(180)"/>
        <rect class="cls-5" x="459.49" y="171.29" width="3.07" height="25.74" rx="1.54" ry="1.54" transform="translate(922.05 368.32) rotate(-180)"/>
        <rect class="cls-5" x="484.46" y="204.33" width="3.07" height="25.74" rx="1.54" ry="1.54" transform="translate(971.99 434.4) rotate(180)"/>
        <rect class="cls-5" x="478.22" y="204.33" width="3.07" height="25.74" rx="1.54" ry="1.54" transform="translate(959.51 434.4) rotate(180)"/>
        <rect class="cls-5" x="471.97" y="204.33" width="3.07" height="25.74" rx="1.54" ry="1.54" transform="translate(947.02 434.4) rotate(-180)"/>
        <rect class="cls-5" x="465.73" y="204.33" width="3.07" height="25.74" rx="1.54" ry="1.54" transform="translate(934.53 434.4) rotate(180)"/>
        <rect class="cls-5" x="459.49" y="204.33" width="3.07" height="25.74" rx="1.54" ry="1.54" transform="translate(922.05 434.4) rotate(-180)"/>
        <rect class="cls-5" x="484.46" y="238.9" width="3.07" height="25.74" rx="1.54" ry="1.54" transform="translate(971.99 503.55) rotate(180)"/>
        <rect class="cls-5" x="478.22" y="238.9" width="3.07" height="25.74" rx="1.54" ry="1.54" transform="translate(959.51 503.55) rotate(-180)"/>
        <rect class="cls-5" x="471.97" y="238.9" width="3.07" height="25.74" rx="1.54" ry="1.54" transform="translate(947.02 503.55) rotate(180)"/>
        <rect class="cls-5" x="465.73" y="238.9" width="3.07" height="25.74" rx="1.54" ry="1.54" transform="translate(934.53 503.55) rotate(180)"/>
        <rect class="cls-5" x="459.49" y="238.9" width="3.07" height="25.74" rx="1.54" ry="1.54" transform="translate(922.05 503.55) rotate(180)"/>
        <rect class="cls-5" x="484.46" y="272.71" width="3.07" height="25.74" rx="1.54" ry="1.54" transform="translate(971.99 571.17) rotate(-180)"/>
        <rect class="cls-5" x="478.22" y="272.71" width="3.07" height="25.74" rx="1.54" ry="1.54" transform="translate(959.51 571.17) rotate(-180)"/>
        <rect class="cls-5" x="471.97" y="272.71" width="3.07" height="25.74" rx="1.54" ry="1.54" transform="translate(947.02 571.17) rotate(-180)"/>
        <rect class="cls-5" x="465.73" y="272.71" width="3.07" height="25.74" rx="1.54" ry="1.54" transform="translate(934.53 571.17) rotate(-180)"/>
        <rect class="cls-5" x="459.49" y="272.71" width="3.07" height="25.74" rx="1.54" ry="1.54" transform="translate(922.05 571.17) rotate(-180)"/>
        <rect class="cls-5" x="484.46" y="306.52" width="3.07" height="25.74" rx="1.54" ry="1.54" transform="translate(971.99 638.78) rotate(180)"/>
        <rect class="cls-5" x="478.22" y="306.52" width="3.07" height="25.74" rx="1.54" ry="1.54" transform="translate(959.51 638.78) rotate(180)"/>
        <rect class="cls-5" x="471.97" y="306.52" width="3.07" height="25.74" rx="1.54" ry="1.54" transform="translate(947.02 638.78) rotate(180)"/>
        <rect class="cls-5" x="465.73" y="306.52" width="3.07" height="25.74" rx="1.54" ry="1.54" transform="translate(934.53 638.78) rotate(180)"/>
        <rect class="cls-5" x="459.49" y="306.52" width="3.07" height="25.74" rx="1.54" ry="1.54" transform="translate(922.05 638.78) rotate(180)"/>
        <g>
          <rect class="cls-5" x="447.21" y="351.66" width="52.25" height="22.28" transform="translate(946.67 725.61) rotate(-180)"/>
          <g class="cls-14">
            <path class="cls-15" d="M501.94,367.8c-7.75.91-18.06,1.33-29.97-.38-14.92-2.15-26.71-6.84-34.66-10.76.41,13.83.83,27.66,1.24,41.49l71.07-11.91-7.68-18.44Z"/>
          </g>
        </g>
        <line class="cls-11" x1="488.49" y1="164.56" x2="458.53" y2="164.56"/>
        <g>
          <path class="cls-12" d="M474.47,157.07c-5.09.03-9.73-.28-13.82-.77-3.37-4.88-9.11-7.15-14.22-5.76-3.97,1.08-9.05,4.77-8.83,10.37.2,5.16,4.81,9.69,9.99,9.6,4-.07,8.99-2.9,9.21-7.68.21-4.55-3.99-8.82-8.45-8.45-3.5.29-7.3,3.44-6.92,7.3.29,2.96,2.97,5.71,6.15,5.76,2.96.05,6.28-2.24,6.15-4.99-.1-2.12-2.25-4.47-4.61-4.23-1.63.17-3.53,1.58-3.46,3.46.06,1.59,1.53,3.17,3.07,3.07.99-.06,2.23-.81,2.31-1.92.04-.62-.21-1.27-.71-1.73-.66-.59-1.44-.59-1.6-.58"/>
          <path class="cls-12" d="M472.94,157.07c5.09.03,9.73-.28,13.82-.77,3.37-4.88,9.11-7.15,14.22-5.76,3.97,1.08,9.05,4.77,8.83,10.37-.2,5.16-4.81,9.69-9.99,9.6-4-.07-8.99-2.9-9.21-7.68-.21-4.55,3.99-8.82,8.45-8.45,3.5.29,7.3,3.44,6.92,7.3-.29,2.96-2.97,5.71-6.15,5.76-2.96.05-6.28-2.24-6.15-4.99.1-2.12,2.25-4.47,4.61-4.23,1.63.17,3.53,1.58,3.46,3.46-.06,1.59-1.53,3.17-3.07,3.07-.99-.06-2.23-.81-2.31-1.92-.04-.62.21-1.27.71-1.73.66-.59,1.44-.59,1.6-.58"/>
        </g>
      </g>
      <g>
        <rect class="cls-5" x="616.72" y="167.25" width="33.42" height="1.15" transform="translate(1266.86 335.66) rotate(-180)"/>
        <rect class="cls-5" x="616.72" y="164.56" width="33.42" height="1.15" transform="translate(1266.86 330.28) rotate(-180)"/>
        <rect class="cls-15" x="616.72" y="165.72" width="33.42" height="1.54" transform="translate(1266.86 332.97) rotate(-180)"/>
        <path class="cls-5" d="M614.8,154.96h37.27c0,5.3-4.3,9.6-9.6,9.6h-18.06c-5.3,0-9.6-4.3-9.6-9.6h0Z"/>
        <path class="cls-15" d="M607.11,146.9h0s24.2,0,24.2,0h1.54s1.92,0,1.92,0h1.15s24.59,0,24.59,0h0c7.44.11,13.45,6.17,13.45,13.64,0,7.53-6.11,13.64-13.64,13.64s-13.64-6.11-13.64-13.64c0-1.84.37-3.59,1.02-5.19-.55.16-.64,1.15-2.18,1.15-3.08,0-6.42.67-10.76.76v-.37h-1.92s0,.37,0,.37c-4.34-.09-7.67-.76-10.76-.76-1.54,0-1.62-1-2.18-1.15.66,1.6,1.02,3.35,1.02,5.19,0,7.53-6.11,13.64-13.64,13.64-7.53,0-13.64-6.11-13.64-13.64s6-13.53,13.45-13.63Z"/>
        <g>
          <path class="cls-10" d="M640.85,163.99h0c1.59,0,2.88-1.29,2.88-2.88v-4.42s-5.76.38-5.76.38v4.03c0,1.59,1.29,2.88,2.88,2.88Z"/>
          <path class="cls-10" d="M640.85,162.64h0c.96,0,1.74-1.05,1.74-2.35v-3.6s-3.48.31-3.48.31v3.29c0,1.3.78,2.35,1.74,2.35Z"/>
        </g>
        <g>
          <path class="cls-10" d="M626.63,163.99h0c-1.59,0-2.88-1.29-2.88-2.88v-4.42l5.76.38v4.03c0,1.59-1.29,2.88-2.88,2.88Z"/>
          <path class="cls-10" d="M626.63,162.64h0c-.96,0-1.74-1.05-1.74-2.35v-3.6l3.48.31v3.29c0,1.3-.78,2.35-1.74,2.35Z"/>
        </g>
        <g>
          <path class="cls-10" d="M633.74,164.31c1.59,0,2.88-1.29,2.88-2.88v-4.42c-.84.04-1.7.06-2.59.06-1.1,0-2.16-.02-3.17-.06,0,1.47,0,2.95,0,4.42,0,1.59,1.29,2.88,2.88,2.88Z"/>
          <path class="cls-10" d="M633.74,163.03c.98,0,1.78-1.06,1.78-2.38v-3.64c-.51.03-1.05.05-1.6.05-.68,0-1.33-.02-1.95-.05,0,1.21,0,2.43,0,3.64,0,1.31.8,2.38,1.78,2.38Z"/>
        </g>
        <path class="cls-5" d="M614.81,337.45h37.27c0,5.3-4.3,9.6-9.6,9.6h-18.06c-5.3,0-9.6-4.3-9.6-9.6h0Z" transform="translate(1266.89 684.5) rotate(-180)"/>
        <path class="cls-5" d="M617.5,331.87h31.89c0,3.83-3.11,6.93-6.93,6.93h-18.03c-3.83,0-6.93-3.11-6.93-6.93h0Z"/>
        <path class="cls-5" d="M617.5,297.68h31.89c0,3.83-3.11,6.93-6.93,6.93h-18.03c-3.83,0-6.93-3.11-6.93-6.93h0Z"/>
        <path class="cls-5" d="M617.5,263.48h31.89c0,3.83-3.11,6.93-6.93,6.93h-18.03c-3.83,0-6.93-3.11-6.93-6.93h0Z"/>
        <path class="cls-5" d="M617.5,229.29h31.89c0,3.83-3.11,6.93-6.93,6.93h-18.03c-3.83,0-6.93-3.11-6.93-6.93h0Z"/>
        <path class="cls-5" d="M617.5,195.48h31.89c0,3.83-3.11,6.93-6.93,6.93h-18.03c-3.83,0-6.93-3.11-6.93-6.93h0Z"/>
        <rect class="cls-15" x="610.59" y="344.75" width="45.72" height="9.6" transform="translate(1266.89 699.1) rotate(-180)"/>
        <rect class="cls-15" x="616.73" y="201.64" width="33.42" height="31.89" transform="translate(1266.89 435.16) rotate(-180)"/>
        <rect class="cls-15" x="616.73" y="235.64" width="33.42" height="31.89" transform="translate(1266.89 503.17) rotate(-180)"/>
        <rect class="cls-15" x="616.73" y="269.64" width="33.42" height="31.89" transform="translate(1266.89 571.17) rotate(-180)"/>
        <rect class="cls-15" x="616.73" y="303.64" width="33.42" height="31.89" transform="translate(1266.89 639.17) rotate(-180)"/>
        <rect class="cls-15" x="616.73" y="168.41" width="33.42" height="30.35" transform="translate(1266.89 367.16) rotate(-180)"/>
        <rect class="cls-5" x="644.57" y="171.29" width="3.07" height="25.74" rx="1.54" ry="1.54" transform="translate(1292.21 368.32) rotate(-180)"/>
        <rect class="cls-5" x="638.33" y="171.29" width="3.07" height="25.74" rx="1.54" ry="1.54" transform="translate(1279.73 368.32) rotate(-180)"/>
        <rect class="cls-5" x="632.08" y="171.29" width="3.07" height="25.74" rx="1.54" ry="1.54" transform="translate(1267.24 368.32) rotate(-180)"/>
        <rect class="cls-5" x="625.84" y="171.29" width="3.07" height="25.74" rx="1.54" ry="1.54" transform="translate(1254.76 368.32) rotate(180)"/>
        <rect class="cls-5" x="619.6" y="171.29" width="3.07" height="25.74" rx="1.54" ry="1.54" transform="translate(1242.27 368.32) rotate(-180)"/>
        <rect class="cls-5" x="644.57" y="204.33" width="3.07" height="25.74" rx="1.54" ry="1.54" transform="translate(1292.21 434.4) rotate(-180)"/>
        <rect class="cls-5" x="638.33" y="204.33" width="3.07" height="25.74" rx="1.54" ry="1.54" transform="translate(1279.73 434.4) rotate(180)"/>
        <rect class="cls-5" x="632.08" y="204.33" width="3.07" height="25.74" rx="1.54" ry="1.54" transform="translate(1267.24 434.4) rotate(180)"/>
        <rect class="cls-5" x="625.84" y="204.33" width="3.07" height="25.74" rx="1.54" ry="1.54" transform="translate(1254.76 434.4) rotate(-180)"/>
        <rect class="cls-5" x="619.6" y="204.33" width="3.07" height="25.74" rx="1.54" ry="1.54" transform="translate(1242.27 434.4) rotate(-180)"/>
        <rect class="cls-5" x="644.57" y="238.9" width="3.07" height="25.74" rx="1.54" ry="1.54" transform="translate(1292.21 503.55) rotate(-180)"/>
        <rect class="cls-5" x="638.33" y="238.9" width="3.07" height="25.74" rx="1.54" ry="1.54" transform="translate(1279.73 503.55) rotate(180)"/>
        <rect class="cls-5" x="632.08" y="238.9" width="3.07" height="25.74" rx="1.54" ry="1.54" transform="translate(1267.24 503.55) rotate(180)"/>
        <rect class="cls-5" x="625.84" y="238.9" width="3.07" height="25.74" rx="1.54" ry="1.54" transform="translate(1254.76 503.55) rotate(-180)"/>
        <rect class="cls-5" x="619.6" y="238.9" width="3.07" height="25.74" rx="1.54" ry="1.54" transform="translate(1242.27 503.55) rotate(180)"/>
        <rect class="cls-5" x="644.57" y="272.71" width="3.07" height="25.74" rx="1.54" ry="1.54" transform="translate(1292.21 571.17) rotate(180)"/>
        <rect class="cls-5" x="638.33" y="272.71" width="3.07" height="25.74" rx="1.54" ry="1.54" transform="translate(1279.73 571.17) rotate(180)"/>
        <rect class="cls-5" x="632.08" y="272.71" width="3.07" height="25.74" rx="1.54" ry="1.54" transform="translate(1267.24 571.17) rotate(-180)"/>
        <rect class="cls-5" x="625.84" y="272.71" width="3.07" height="25.74" rx="1.54" ry="1.54" transform="translate(1254.76 571.17) rotate(-180)"/>
        <rect class="cls-5" x="619.6" y="272.71" width="3.07" height="25.74" rx="1.54" ry="1.54" transform="translate(1242.27 571.17) rotate(180)"/>
        <rect class="cls-5" x="644.57" y="306.52" width="3.07" height="25.74" rx="1.54" ry="1.54" transform="translate(1292.21 638.78) rotate(180)"/>
        <rect class="cls-5" x="638.33" y="306.52" width="3.07" height="25.74" rx="1.54" ry="1.54" transform="translate(1279.73 638.78) rotate(180)"/>
        <rect class="cls-5" x="632.08" y="306.52" width="3.07" height="25.74" rx="1.54" ry="1.54" transform="translate(1267.24 638.78) rotate(180)"/>
        <rect class="cls-5" x="625.84" y="306.52" width="3.07" height="25.74" rx="1.54" ry="1.54" transform="translate(1254.76 638.78) rotate(180)"/>
        <rect class="cls-5" x="619.6" y="306.52" width="3.07" height="25.74" rx="1.54" ry="1.54" transform="translate(1242.27 638.78) rotate(180)"/>
        <g>
          <rect class="cls-5" x="607.32" y="351.66" width="52.25" height="22.28" transform="translate(1266.89 725.61) rotate(-180)"/>
          <g class="cls-13">
            <path class="cls-15" d="M662.05,367.8c-7.75.91-18.06,1.33-29.97-.38-14.92-2.15-26.71-6.84-34.66-10.76.41,13.83.83,27.66,1.24,41.49l71.07-11.91-7.68-18.44Z"/>
          </g>
        </g>
        <line class="cls-11" x1="648.6" y1="164.56" x2="618.64" y2="164.56"/>
        <g>
          <path class="cls-12" d="M634.58,157.07c-5.09.03-9.73-.28-13.82-.77-3.37-4.88-9.11-7.15-14.22-5.76-3.97,1.08-9.05,4.77-8.83,10.37.2,5.16,4.81,9.69,9.99,9.6,4-.07,8.99-2.9,9.21-7.68.21-4.55-3.99-8.82-8.45-8.45-3.5.29-7.3,3.44-6.92,7.3.29,2.96,2.97,5.71,6.15,5.76,2.96.05,6.28-2.24,6.15-4.99-.1-2.12-2.25-4.47-4.61-4.23-1.63.17-3.53,1.58-3.46,3.46.06,1.59,1.53,3.17,3.07,3.07.99-.06,2.23-.81,2.31-1.92.04-.62-.21-1.27-.71-1.73-.66-.59-1.44-.59-1.6-.58"/>
          <path class="cls-12" d="M633.05,157.07c5.09.03,9.73-.28,13.82-.77,3.37-4.88,9.11-7.15,14.22-5.76,3.97,1.08,9.05,4.77,8.83,10.37-.2,5.16-4.81,9.69-9.99,9.6-4-.07-8.99-2.9-9.21-7.68-.21-4.55,3.99-8.82,8.45-8.45,3.5.29,7.3,3.44,6.92,7.3-.29,2.96-2.97,5.71-6.15,5.76-2.96.05-6.28-2.24-6.15-4.99.1-2.12,2.25-4.47,4.61-4.23,1.63.17,3.53,1.58,3.46,3.46-.06,1.59-1.53,3.17-3.07,3.07-.99-.06-2.23-.81-2.31-1.92-.04-.62.21-1.27.71-1.73.66-.59,1.44-.59,1.6-.58"/>
        </g>
      </g>
      <g>
        <rect class="cls-5" x="776.83" y="167.25" width="33.42" height="1.15" transform="translate(1587.08 335.66) rotate(-180)"/>
        <rect class="cls-5" x="776.83" y="164.56" width="33.42" height="1.15" transform="translate(1587.08 330.28) rotate(-180)"/>
        <rect class="cls-15" x="776.83" y="165.72" width="33.42" height="1.54" transform="translate(1587.08 332.97) rotate(-180)"/>
        <path class="cls-5" d="M774.91,154.96h37.27c0,5.3-4.3,9.6-9.6,9.6h-18.06c-5.3,0-9.6-4.3-9.6-9.6h0Z"/>
        <path class="cls-15" d="M767.22,146.9h0s24.2,0,24.2,0h1.54s1.92,0,1.92,0h1.15s24.59,0,24.59,0h0c7.44.11,13.45,6.17,13.45,13.64,0,7.53-6.11,13.64-13.64,13.64s-13.64-6.11-13.64-13.64c0-1.84.37-3.59,1.02-5.19-.55.16-.64,1.15-2.18,1.15-3.08,0-6.42.67-10.76.76v-.37h-1.92s0,.37,0,.37c-4.34-.09-7.67-.76-10.76-.76-1.54,0-1.62-1-2.18-1.15.66,1.6,1.02,3.35,1.02,5.19,0,7.53-6.11,13.64-13.64,13.64-7.53,0-13.64-6.11-13.64-13.64,0-7.47,6-13.53,13.45-13.63Z"/>
        <g>
          <path class="cls-10" d="M800.96,163.99h0c1.59,0,2.88-1.29,2.88-2.88v-4.42s-5.76.38-5.76.38v4.03c0,1.59,1.29,2.88,2.88,2.88Z"/>
          <path class="cls-10" d="M800.96,162.64h0c.96,0,1.74-1.05,1.74-2.35v-3.6s-3.48.31-3.48.31v3.29c0,1.3.78,2.35,1.74,2.35Z"/>
        </g>
        <g>
          <path class="cls-10" d="M786.74,163.99h0c-1.59,0-2.88-1.29-2.88-2.88v-4.42l5.76.38v4.03c0,1.59-1.29,2.88-2.88,2.88Z"/>
          <path class="cls-10" d="M786.74,162.64h0c-.96,0-1.74-1.05-1.74-2.35v-3.6l3.48.31v3.29c0,1.3-.78,2.35-1.74,2.35Z"/>
        </g>
        <g>
          <path class="cls-10" d="M793.85,164.31c1.59,0,2.88-1.29,2.88-2.88v-4.42c-.84.04-1.7.06-2.59.06-1.1,0-2.16-.02-3.17-.06,0,1.47,0,2.95,0,4.42,0,1.59,1.29,2.88,2.88,2.88Z"/>
          <path class="cls-10" d="M793.85,163.03c.98,0,1.78-1.06,1.78-2.38v-3.64c-.51.03-1.05.05-1.6.05-.68,0-1.33-.02-1.95-.05,0,1.21,0,2.43,0,3.64,0,1.31.8,2.38,1.78,2.38Z"/>
        </g>
        <path class="cls-5" d="M774.92,337.45h37.27c0,5.3-4.3,9.6-9.6,9.6h-18.06c-5.3,0-9.6-4.3-9.6-9.6h0Z" transform="translate(1587.11 684.5) rotate(-180)"/>
        <path class="cls-5" d="M777.61,331.87h31.89c0,3.83-3.11,6.93-6.93,6.93h-18.03c-3.83,0-6.93-3.11-6.93-6.93h0Z"/>
        <path class="cls-5" d="M777.61,297.68h31.89c0,3.83-3.11,6.93-6.93,6.93h-18.03c-3.83,0-6.93-3.11-6.93-6.93h0Z"/>
        <path class="cls-5" d="M777.61,263.48h31.89c0,3.83-3.11,6.93-6.93,6.93h-18.03c-3.83,0-6.93-3.11-6.93-6.93h0Z"/>
        <path class="cls-5" d="M777.61,229.29h31.89c0,3.83-3.11,6.93-6.93,6.93h-18.03c-3.83,0-6.93-3.11-6.93-6.93h0Z"/>
        <path class="cls-5" d="M777.61,195.48h31.89c0,3.83-3.11,6.93-6.93,6.93h-18.03c-3.83,0-6.93-3.11-6.93-6.93h0Z"/>
        <rect class="cls-15" x="770.7" y="344.75" width="45.72" height="9.6" transform="translate(1587.11 699.1) rotate(-180)"/>
        <rect class="cls-15" x="776.84" y="201.64" width="33.42" height="31.89" transform="translate(1587.11 435.16) rotate(-180)"/>
        <rect class="cls-15" x="776.84" y="235.64" width="33.42" height="31.89" transform="translate(1587.11 503.17) rotate(-180)"/>
        <rect class="cls-15" x="776.84" y="269.64" width="33.42" height="31.89" transform="translate(1587.11 571.17) rotate(-180)"/>
        <rect class="cls-15" x="776.84" y="303.64" width="33.42" height="31.89" transform="translate(1587.11 639.17) rotate(-180)"/>
        <rect class="cls-15" x="776.84" y="168.41" width="33.42" height="30.35" transform="translate(1587.11 367.16) rotate(-180)"/>
        <rect class="cls-5" x="804.68" y="171.29" width="3.07" height="25.74" rx="1.54" ry="1.54" transform="translate(1612.43 368.32) rotate(-180)"/>
        <rect class="cls-5" x="798.44" y="171.29" width="3.07" height="25.74" rx="1.54" ry="1.54" transform="translate(1599.95 368.32) rotate(-180)"/>
        <rect class="cls-5" x="792.19" y="171.29" width="3.07" height="25.74" rx="1.54" ry="1.54" transform="translate(1587.46 368.32) rotate(180)"/>
        <rect class="cls-5" x="785.95" y="171.29" width="3.07" height="25.74" rx="1.54" ry="1.54" transform="translate(1574.98 368.32) rotate(-180)"/>
        <rect class="cls-5" x="779.71" y="171.29" width="3.07" height="25.74" rx="1.54" ry="1.54" transform="translate(1562.49 368.32) rotate(180)"/>
        <rect class="cls-5" x="804.68" y="204.33" width="3.07" height="25.74" rx="1.54" ry="1.54" transform="translate(1612.43 434.4) rotate(180)"/>
        <rect class="cls-5" x="798.44" y="204.33" width="3.07" height="25.74" rx="1.54" ry="1.54" transform="translate(1599.95 434.4) rotate(180)"/>
        <rect class="cls-5" x="792.19" y="204.33" width="3.07" height="25.74" rx="1.54" ry="1.54" transform="translate(1587.46 434.4) rotate(180)"/>
        <rect class="cls-5" x="785.95" y="204.33" width="3.07" height="25.74" rx="1.54" ry="1.54" transform="translate(1574.98 434.4) rotate(-180)"/>
        <rect class="cls-5" x="779.71" y="204.33" width="3.07" height="25.74" rx="1.54" ry="1.54" transform="translate(1562.49 434.4) rotate(180)"/>
        <rect class="cls-5" x="804.68" y="238.9" width="3.07" height="25.74" rx="1.54" ry="1.54" transform="translate(1612.44 503.55) rotate(180)"/>
        <rect class="cls-5" x="798.44" y="238.9" width="3.07" height="25.74" rx="1.54" ry="1.54" transform="translate(1599.95 503.55) rotate(180)"/>
        <rect class="cls-5" x="792.19" y="238.9" width="3.07" height="25.74" rx="1.54" ry="1.54" transform="translate(1587.46 503.55) rotate(180)"/>
        <rect class="cls-5" x="785.95" y="238.9" width="3.07" height="25.74" rx="1.54" ry="1.54" transform="translate(1574.98 503.55) rotate(180)"/>
        <rect class="cls-5" x="779.71" y="238.9" width="3.07" height="25.74" rx="1.54" ry="1.54" transform="translate(1562.49 503.55) rotate(-180)"/>
        <rect class="cls-5" x="804.68" y="272.71" width="3.07" height="25.74" rx="1.54" ry="1.54" transform="translate(1612.43 571.17) rotate(180)"/>
        <rect class="cls-5" x="798.44" y="272.71" width="3.07" height="25.74" rx="1.54" ry="1.54" transform="translate(1599.95 571.17) rotate(-180)"/>
        <rect class="cls-5" x="792.19" y="272.71" width="3.07" height="25.74" rx="1.54" ry="1.54" transform="translate(1587.46 571.17) rotate(180)"/>
        <rect class="cls-5" x="785.95" y="272.71" width="3.07" height="25.74" rx="1.54" ry="1.54" transform="translate(1574.98 571.17) rotate(180)"/>
        <rect class="cls-5" x="779.71" y="272.71" width="3.07" height="25.74" rx="1.54" ry="1.54" transform="translate(1562.49 571.17) rotate(180)"/>
        <rect class="cls-5" x="804.68" y="306.52" width="3.07" height="25.74" rx="1.54" ry="1.54" transform="translate(1612.43 638.78) rotate(180)"/>
        <rect class="cls-5" x="798.44" y="306.52" width="3.07" height="25.74" rx="1.54" ry="1.54" transform="translate(1599.95 638.78) rotate(180)"/>
        <rect class="cls-5" x="792.19" y="306.52" width="3.07" height="25.74" rx="1.54" ry="1.54" transform="translate(1587.46 638.78) rotate(180)"/>
        <rect class="cls-5" x="785.95" y="306.52" width="3.07" height="25.74" rx="1.54" ry="1.54" transform="translate(1574.98 638.78) rotate(180)"/>
        <rect class="cls-5" x="779.71" y="306.52" width="3.07" height="25.74" rx="1.54" ry="1.54" transform="translate(1562.49 638.78) rotate(180)"/>
        <g>
          <rect class="cls-5" x="767.43" y="351.66" width="52.25" height="22.28" transform="translate(1587.11 725.61) rotate(-180)"/>
          <g class="cls-3">
            <path class="cls-15" d="M822.16,367.8c-7.75.91-18.06,1.33-29.97-.38-14.92-2.15-26.71-6.84-34.66-10.76.41,13.83.83,27.66,1.24,41.49l71.07-11.91-7.68-18.44Z"/>
          </g>
        </g>
        <line class="cls-11" x1="808.71" y1="164.56" x2="778.75" y2="164.56"/>
        <g>
          <path class="cls-12" d="M794.69,157.07c-5.09.03-9.73-.28-13.82-.77-3.37-4.88-9.11-7.15-14.22-5.76-3.97,1.08-9.05,4.77-8.83,10.37.2,5.16,4.81,9.69,9.99,9.6,4-.07,8.99-2.9,9.21-7.68.21-4.55-3.99-8.82-8.45-8.45-3.5.29-7.3,3.44-6.92,7.3.29,2.96,2.97,5.71,6.15,5.76,2.96.05,6.28-2.24,6.15-4.99-.1-2.12-2.25-4.47-4.61-4.23-1.63.17-3.53,1.58-3.46,3.46.06,1.59,1.53,3.17,3.07,3.07.99-.06,2.23-.81,2.31-1.92.04-.62-.21-1.27-.71-1.73-.66-.59-1.44-.59-1.6-.58"/>
          <path class="cls-12" d="M793.16,157.07c5.09.03,9.73-.28,13.82-.77,3.37-4.88,9.11-7.15,14.22-5.76,3.97,1.08,9.05,4.77,8.83,10.37-.2,5.16-4.81,9.69-9.99,9.6-4-.07-8.99-2.9-9.21-7.68-.21-4.55,3.99-8.82,8.45-8.45,3.5.29,7.3,3.44,6.92,7.3-.29,2.96-2.97,5.71-6.15,5.76-2.96.05-6.28-2.24-6.15-4.99.1-2.12,2.25-4.47,4.61-4.23,1.63.17,3.53,1.58,3.46,3.46-.06,1.59-1.53,3.17-3.07,3.07-.99-.06-2.23-.81-2.31-1.92-.04-.62.21-1.27.71-1.73.66-.59,1.44-.59,1.6-.58"/>
        </g>
      </g>
    </g>
    <polygon class="cls-15" points="112.56 127.36 112.56 146.96 142.53 146.96 142.53 137.35 178.65 137.35 178.65 146.96 212.11 146.96 212.11 137.35 248.23 137.35 248.23 146.96 281.69 146.96 281.69 137.35 317.81 137.35 317.81 146.96 351.27 146.96 351.27 137.35 387.39 137.35 387.39 146.96 420.85 146.96 420.85 137.35 456.97 137.35 456.97 146.96 490.44 146.96 490.44 137.35 526.55 137.35 526.55 146.96 560.02 146.96 560.02 137.35 596.13 137.35 596.13 146.96 629.6 146.96 629.6 137.35 665.71 137.35 665.71 146.96 699.18 146.96 699.18 137.35 735.29 137.35 735.29 146.96 768.76 146.96 768.76 137.35 804.87 137.35 804.87 146.96 834.84 146.96 834.84 127.36 112.56 127.36"/>
    <path class="cls-5" d="M375.73,111.99c0-30.98,43.86-56.09,97.97-56.09s97.97,25.11,97.97,56.09c0,5.33-1.3,10.48-3.72,15.37h266.12L473.7,0,113.33,127.36h266.12c-2.42-4.88-3.72-10.04-3.72-15.37Z"/>
    <g>
      <rect class="cls-5" x="100.85" y="374.27" width="734.18" height="17.29"/>
      <g class="cls-7">
        <path class="cls-15" d="M861.6,399.99H82.08v-17.21c121.55,2.09,243.08,3.63,364.62,4.63,138.5,1.14,277.03,1.58,415.57,1.32-.22,3.75-.44,7.5-.66,11.25Z"/>
      </g>
    </g>
    <g>
      <rect class="cls-5" x="82.37" y="391.6" width="771.15" height="17.29"/>
      <g class="cls-1">
        <path class="cls-15" d="M857.63,417.86H78.11v-17.21c121.55,2.09,243.08,3.63,364.62,4.63,138.5,1.14,277.03,1.58,415.57,1.32-.22,3.75-.44,7.5-.66,11.25Z"/>
      </g>
    </g>
    <g>
      <rect class="cls-5" x="51.03" y="408.92" width="833.84" height="17.29"/>
      <g class="cls-2">
        <path class="cls-15" d="M897.99,435.06H43.7v-17.21c121.55,2.09,243.08,3.63,364.62,4.63,138.5,1.14,351.8,1.58,490.34,1.32-.22,3.75-.44,7.5-.66,11.25Z"/>
      </g>
    </g>
    <g>
      <rect class="cls-5" x="25.62" y="426.25" width="884.65" height="17.29"/>
      <g class="cls-8">
        <path class="cls-15" d="M924.46,452.93l-901.28-.66v-17.21c121.55,2.09,243.08,3.63,364.62,4.63,138.5,1.14,398.78,2.25,537.33,1.99-.22,3.75-.44,7.5-.66,11.25Z"/>
      </g>
    </g>
    <g>
      <rect class="cls-5" x=".06" y="443.58" width="935.94" height="17.29"/>
      <g class="cls-4">
        <path class="cls-15" d="M942.96,469.47H0v-17.21c126.98,2.09,253.95,3.63,380.92,4.63,144.7,1.14,418,1.58,562.74,1.32-.23,3.75-.46,7.5-.69,11.25Z"/>
      </g>
    </g>
    <line class="cls-9" x1="178.53" y1="118.71" x2="351.4" y2="116.77"/>
    <line class="cls-9" x1="209.79" y1="102.21" x2="467.21" y2="14.86"/>
    <line class="cls-9" x1="729.25" y1="100.89" x2="482.22" y2="15.66"/>
    <line class="cls-9" x1="587.48" y1="118.71" x2="760.35" y2="116.77"/>
  </g>
</svg>