<?xml version="1.0" encoding="UTF-8"?>
<svg id="Layer_2" xmlns="http://www.w3.org/2000/svg" xmlns:xlink="http://www.w3.org/1999/xlink" viewBox="0 0 2436.14 1467.5">
  <defs>
    <style>
      .cls-1 {
        clip-path: url(#clippath-4);
      }

      .cls-2 {
        fill: #facb0f;
      }

      .cls-2, .cls-3 {
        stroke: #fcdc5f;
      }

      .cls-2, .cls-3, .cls-4 {
        stroke-miterlimit: 10;
      }

      .cls-3 {
        stroke-width: 3px;
      }

      .cls-3, .cls-4 {
        fill: none;
      }

      .cls-5 {
        fill: #fcdc5f;
      }

      .cls-6 {
        clip-path: url(#clippath-1);
      }

      .cls-7 {
        clip-path: url(#clippath-3);
      }

      .cls-8 {
        clip-path: url(#clippath-2);
      }

      .cls-9 {
        fill: #facb0f;
      }

      .cls-10 {
        clip-path: url(#clippath);
      }

      .cls-4 {
        stroke: #facb0f;
        stroke-width: .5px;
      }
    </style>
    <clipPath id="clippath">
      <rect class="cls-5" x="330.38" y="995.5" width="136" height="58" transform="translate(796.75 2049) rotate(-180)"/>
    </clipPath>
    <clipPath id="clippath-1">
      <rect class="cls-5" x="747.13" y="995.5" width="136" height="58" transform="translate(1630.25 2049) rotate(-180)"/>
    </clipPath>
    <clipPath id="clippath-2">
      <rect class="cls-5" x="1163.88" y="995.5" width="136" height="58" transform="translate(2463.75 2049) rotate(-180)"/>
    </clipPath>
    <clipPath id="clippath-3">
      <rect class="cls-5" x="1580.63" y="995.5" width="136" height="58" transform="translate(3297.25 2049) rotate(-180)"/>
    </clipPath>
    <clipPath id="clippath-4">
      <rect class="cls-5" x="1997.38" y="995.5" width="136" height="58" transform="translate(4130.75 2049) rotate(-180)"/>
    </clipPath>
  </defs>
  <g id="Layer_1-2" data-name="Layer_1">
    <g>
      <g>
        <rect class="cls-5" x="354.83" y="515.5" width="87" height="3" transform="translate(796.66 1034) rotate(-180)"/>
        <rect class="cls-5" x="354.83" y="508.5" width="87" height="3" transform="translate(796.66 1020) rotate(-180)"/>
        <rect class="cls-9" x="354.83" y="511.5" width="87" height="4" transform="translate(796.66 1027) rotate(-180)"/>
        <path class="cls-5" d="M349.83,483.5h97v9.91c0,8.33-6.76,15.09-15.09,15.09h-66.81c-8.33,0-15.09-6.76-15.09-15.09v-9.91h0Z"/>
        <path class="cls-9" d="M329.83,462.51h0s63-.01,63-.01h4s5,0,5,0h3s64,0,64,0h0c19.37.28,35,16.06,35,35.5,0,19.61-15.89,35.5-35.5,35.5-19.61,0-35.5-15.89-35.5-35.5,0-4.78.95-9.34,2.66-13.5-1.44.4-1.66,3-5.66,3-8.03,0-16.71,1.74-28,1.97v-.97h-5s0,.97,0,.97c-11.29-.23-19.97-1.97-28-1.97-4,0-4.23-2.6-5.66-3,1.71,4.16,2.66,8.72,2.66,13.5,0,19.61-15.89,35.5-35.5,35.5-19.61,0-35.5-15.89-35.5-35.5,0-19.44,15.63-35.22,35-35.49Z"/>
        <g>
          <path class="cls-2" d="M417.64,507h0c4.14,0,7.5-3.36,7.5-7.5v-11.5s-15,1-15,1v10.5c0,4.14,3.36,7.5,7.5,7.5Z"/>
          <path class="cls-2" d="M417.64,503.5h0c2.5,0,4.54-2.74,4.54-6.12v-9.38s-9.07.82-9.07.82v8.57c0,3.38,2.03,6.12,4.54,6.12Z"/>
        </g>
        <g>
          <path class="cls-2" d="M380.64,507h0c-4.14,0-7.5-3.36-7.5-7.5v-11.5l15,1v10.5c0,4.14-3.36,7.5-7.5,7.5Z"/>
          <path class="cls-2" d="M380.64,503.5h0c-2.5,0-4.54-2.74-4.54-6.12v-9.38l9.07.82v8.57c0,3.38-2.03,6.12-4.54,6.12Z"/>
        </g>
        <g>
          <path class="cls-2" d="M399.14,507.83c4.14,0,7.5-3.36,7.5-7.5v-11.5c-2.17.1-4.43.16-6.75.17-2.86.01-5.61-.05-8.25-.17,0,3.83,0,7.67,0,11.5,0,4.14,3.36,7.5,7.5,7.5Z"/>
          <path class="cls-2" d="M399.14,504.5c2.55,0,4.62-2.77,4.62-6.18v-9.48c-1.34.08-2.73.13-4.16.14-1.76.01-3.46-.04-5.09-.14,0,3.16,0,6.32,0,9.48,0,3.42,2.07,6.18,4.62,6.18Z"/>
        </g>
        <path class="cls-5" d="M349.88,958.5h97v9.91c0,8.33-6.76,15.09-15.09,15.09h-66.81c-8.33,0-15.09-6.76-15.09-15.09v-9.91h0Z" transform="translate(796.75 1942) rotate(-180)"/>
        <path class="cls-5" d="M356.88,943.98h83v2.95c0,8.33-6.76,15.09-15.09,15.09h-52.81c-8.33,0-15.09-6.76-15.09-15.09v-2.95h0Z"/>
        <path class="cls-5" d="M356.88,854.98h83v2.95c0,8.33-6.76,15.09-15.09,15.09h-52.81c-8.33,0-15.09-6.76-15.09-15.09v-2.95h0Z"/>
        <path class="cls-5" d="M356.88,765.98h83v2.95c0,8.33-6.76,15.09-15.09,15.09h-52.81c-8.33,0-15.09-6.76-15.09-15.09v-2.95h0Z"/>
        <path class="cls-5" d="M356.88,676.98h83v2.95c0,8.33-6.76,15.09-15.09,15.09h-52.81c-8.33,0-15.09-6.76-15.09-15.09v-2.95h0Z"/>
        <path class="cls-5" d="M356.88,588.98h83v2.95c0,8.33-6.76,15.09-15.09,15.09h-52.81c-8.33,0-15.09-6.76-15.09-15.09v-2.95h0Z"/>
        <rect class="cls-9" x="338.88" y="977.5" width="119" height="25" transform="translate(796.75 1980) rotate(-180)"/>
        <rect class="cls-9" x="354.88" y="605" width="87" height="83" transform="translate(796.75 1293) rotate(-180)"/>
        <rect class="cls-9" x="354.88" y="693.5" width="87" height="83" transform="translate(796.75 1470) rotate(-180)"/>
        <rect class="cls-9" x="354.88" y="782" width="87" height="83" transform="translate(796.75 1647) rotate(-180)"/>
        <rect class="cls-9" x="354.88" y="870.5" width="87" height="83" transform="translate(796.75 1824) rotate(-180)"/>
        <rect class="cls-9" x="354.88" y="518.5" width="87" height="79" transform="translate(796.75 1116) rotate(-180)"/>
        <rect class="cls-5" x="427.33" y="526" width="8" height="67" rx="4" ry="4" transform="translate(862.66 1119) rotate(-180)"/>
        <rect class="cls-5" x="411.08" y="526" width="8" height="67" rx="4" ry="4" transform="translate(830.16 1119) rotate(-180)"/>
        <rect class="cls-5" x="394.83" y="526" width="8" height="67" rx="4" ry="4" transform="translate(797.66 1119) rotate(-180)"/>
        <rect class="cls-5" x="378.58" y="526" width="8" height="67" rx="4" ry="4" transform="translate(765.16 1119) rotate(-180)"/>
        <rect class="cls-5" x="362.33" y="526" width="8" height="67" rx="4" ry="4" transform="translate(732.66 1119) rotate(-180)"/>
        <rect class="cls-5" x="427.33" y="612" width="8" height="67" rx="4" ry="4" transform="translate(862.66 1291) rotate(-180)"/>
        <rect class="cls-5" x="411.08" y="612" width="8" height="67" rx="4" ry="4" transform="translate(830.16 1291) rotate(-180)"/>
        <rect class="cls-5" x="394.83" y="612" width="8" height="67" rx="4" ry="4" transform="translate(797.66 1291) rotate(-180)"/>
        <rect class="cls-5" x="378.58" y="612" width="8" height="67" rx="4" ry="4" transform="translate(765.16 1291) rotate(-180)"/>
        <rect class="cls-5" x="362.33" y="612" width="8" height="67" rx="4" ry="4" transform="translate(732.66 1291) rotate(-180)"/>
        <rect class="cls-5" x="427.33" y="702" width="8" height="67" rx="4" ry="4" transform="translate(862.66 1471) rotate(-180)"/>
        <rect class="cls-5" x="411.08" y="702" width="8" height="67" rx="4" ry="4" transform="translate(830.16 1471) rotate(-180)"/>
        <rect class="cls-5" x="394.83" y="702" width="8" height="67" rx="4" ry="4" transform="translate(797.66 1471) rotate(-180)"/>
        <rect class="cls-5" x="378.58" y="702" width="8" height="67" rx="4" ry="4" transform="translate(765.16 1471) rotate(-180)"/>
        <rect class="cls-5" x="362.33" y="702" width="8" height="67" rx="4" ry="4" transform="translate(732.66 1471) rotate(-180)"/>
        <rect class="cls-5" x="427.33" y="790" width="8" height="67" rx="4" ry="4" transform="translate(862.66 1647) rotate(-180)"/>
        <rect class="cls-5" x="411.08" y="790" width="8" height="67" rx="4" ry="4" transform="translate(830.16 1647) rotate(-180)"/>
        <rect class="cls-5" x="394.83" y="790" width="8" height="67" rx="4" ry="4" transform="translate(797.66 1647) rotate(-180)"/>
        <rect class="cls-5" x="378.58" y="790" width="8" height="67" rx="4" ry="4" transform="translate(765.16 1647) rotate(-180)"/>
        <rect class="cls-5" x="362.33" y="790" width="8" height="67" rx="4" ry="4" transform="translate(732.66 1647) rotate(-180)"/>
        <rect class="cls-5" x="427.33" y="878" width="8" height="67" rx="4" ry="4" transform="translate(862.66 1823) rotate(-180)"/>
        <rect class="cls-5" x="411.08" y="878" width="8" height="67" rx="4" ry="4" transform="translate(830.16 1823) rotate(-180)"/>
        <rect class="cls-5" x="394.83" y="878" width="8" height="67" rx="4" ry="4" transform="translate(797.66 1823) rotate(-180)"/>
        <rect class="cls-5" x="378.58" y="878" width="8" height="67" rx="4" ry="4" transform="translate(765.16 1823) rotate(-180)"/>
        <rect class="cls-5" x="362.33" y="878" width="8" height="67" rx="4" ry="4" transform="translate(732.66 1823) rotate(-180)"/>
        <g>
          <rect class="cls-5" x="330.38" y="995.5" width="136" height="58" transform="translate(796.75 2049) rotate(-180)"/>
          <g class="cls-10">
            <path class="cls-9" d="M472.83,1037.5c-20.17,2.37-47,3.47-78-1-38.84-5.59-69.53-17.8-90.22-28,1.07,36,2.15,72,3.22,108l185-31-20-48Z"/>
          </g>
        </g>
        <line class="cls-4" x1="437.83" y1="508.5" x2="359.83" y2="508.5"/>
        <g>
          <path class="cls-3" d="M401.33,489c-13.24.09-25.31-.74-35.97-2-8.76-12.71-23.72-18.61-37.03-15-10.33,2.81-23.55,12.42-22.97,27,.53,13.42,12.51,25.22,26,25,10.41-.17,23.4-7.54,23.97-20,.54-11.85-10.39-22.95-22-22-9.12.75-18.99,8.95-18,19,.76,7.7,7.72,14.86,16,15,7.7.13,16.34-5.83,16-13-.26-5.52-5.85-11.63-12-11-4.25.43-9.19,4.13-9,9,.16,4.14,3.98,8.25,8,8,2.57-.16,5.8-2.12,6-5,.11-1.61-.54-3.32-1.84-4.49-1.71-1.54-3.74-1.52-4.16-1.51"/>
          <path class="cls-3" d="M397.34,489c13.24.09,25.31-.74,35.97-2,8.76-12.71,23.72-18.61,37.03-15,10.33,2.81,23.55,12.42,22.97,27-.53,13.42-12.51,25.22-26,25-10.41-.17-23.4-7.54-23.97-20-.54-11.85,10.39-22.95,22-22,9.12.75,18.99,8.95,18,19-.76,7.7-7.72,14.86-16,15-7.7.13-16.34-5.83-16-13,.26-5.52,5.85-11.63,12-11,4.25.43,9.19,4.13,9,9-.16,4.14-3.98,8.25-8,8-2.57-.16-5.8-2.12-6-5-.11-1.61.54-3.32,1.84-4.49,1.71-1.54,3.74-1.52,4.16-1.51"/>
        </g>
      </g>
      <g>
        <rect class="cls-5" x="771.58" y="515.5" width="87" height="3" transform="translate(1630.16 1034) rotate(-180)"/>
        <rect class="cls-5" x="771.58" y="508.5" width="87" height="3" transform="translate(1630.16 1020) rotate(-180)"/>
        <rect class="cls-9" x="771.58" y="511.5" width="87" height="4" transform="translate(1630.16 1027) rotate(-180)"/>
        <path class="cls-5" d="M766.58,483.5h97v9.91c0,8.33-6.76,15.09-15.09,15.09h-66.81c-8.33,0-15.09-6.76-15.09-15.09v-9.91h0Z"/>
        <path class="cls-9" d="M746.58,462.51h0s63-.01,63-.01h4s5,0,5,0h3s64,0,64,0h0c19.37.28,35,16.06,35,35.5,0,19.61-15.89,35.5-35.5,35.5-19.61,0-35.5-15.89-35.5-35.5,0-4.78.95-9.34,2.66-13.5-1.44.4-1.66,3-5.66,3-8.03,0-16.71,1.74-28,1.97v-.97h-5s0,.97,0,.97c-11.29-.23-19.97-1.97-28-1.97-4,0-4.23-2.6-5.66-3,1.71,4.16,2.66,8.72,2.66,13.5,0,19.61-15.89,35.5-35.5,35.5-19.61,0-35.5-15.89-35.5-35.5,0-19.44,15.63-35.22,35-35.49Z"/>
        <g>
          <path class="cls-2" d="M834.39,507h0c4.14,0,7.5-3.36,7.5-7.5v-11.5s-15,1-15,1v10.5c0,4.14,3.36,7.5,7.5,7.5Z"/>
          <path class="cls-2" d="M834.39,503.5h0c2.5,0,4.54-2.74,4.54-6.12v-9.38s-9.07.82-9.07.82v8.57c0,3.38,2.03,6.12,4.54,6.12Z"/>
        </g>
        <g>
          <path class="cls-2" d="M797.39,507h0c-4.14,0-7.5-3.36-7.5-7.5v-11.5l15,1v10.5c0,4.14-3.36,7.5-7.5,7.5Z"/>
          <path class="cls-2" d="M797.39,503.5h0c-2.5,0-4.54-2.74-4.54-6.12v-9.38l9.07.82v8.57c0,3.38-2.03,6.12-4.54,6.12Z"/>
        </g>
        <g>
          <path class="cls-2" d="M815.89,507.83c4.14,0,7.5-3.36,7.5-7.5v-11.5c-2.17.1-4.43.16-6.75.17-2.86.01-5.61-.05-8.25-.17,0,3.83,0,7.67,0,11.5,0,4.14,3.36,7.5,7.5,7.5Z"/>
          <path class="cls-2" d="M815.89,504.5c2.55,0,4.62-2.77,4.62-6.18v-9.48c-1.34.08-2.73.13-4.16.14-1.76.01-3.46-.04-5.09-.14,0,3.16,0,6.32,0,9.48,0,3.42,2.07,6.18,4.62,6.18Z"/>
        </g>
        <path class="cls-5" d="M766.63,958.5h97v9.91c0,8.33-6.76,15.09-15.09,15.09h-66.81c-8.33,0-15.09-6.76-15.09-15.09v-9.91h0Z" transform="translate(1630.25 1942) rotate(-180)"/>
        <path class="cls-5" d="M773.63,943.98h83v2.95c0,8.33-6.76,15.09-15.09,15.09h-52.81c-8.33,0-15.09-6.76-15.09-15.09v-2.95h0Z"/>
        <path class="cls-5" d="M773.63,854.98h83v2.95c0,8.33-6.76,15.09-15.09,15.09h-52.81c-8.33,0-15.09-6.76-15.09-15.09v-2.95h0Z"/>
        <path class="cls-5" d="M773.63,765.98h83v2.95c0,8.33-6.76,15.09-15.09,15.09h-52.81c-8.33,0-15.09-6.76-15.09-15.09v-2.95h0Z"/>
        <path class="cls-5" d="M773.63,676.98h83v2.95c0,8.33-6.76,15.09-15.09,15.09h-52.81c-8.33,0-15.09-6.76-15.09-15.09v-2.95h0Z"/>
        <path class="cls-5" d="M773.63,588.98h83v2.95c0,8.33-6.76,15.09-15.09,15.09h-52.81c-8.33,0-15.09-6.76-15.09-15.09v-2.95h0Z"/>
        <rect class="cls-9" x="755.63" y="977.5" width="119" height="25" transform="translate(1630.25 1980) rotate(-180)"/>
        <rect class="cls-9" x="771.63" y="605" width="87" height="83" transform="translate(1630.25 1293) rotate(-180)"/>
        <rect class="cls-9" x="771.63" y="693.5" width="87" height="83" transform="translate(1630.25 1470) rotate(-180)"/>
        <rect class="cls-9" x="771.63" y="782" width="87" height="83" transform="translate(1630.25 1647) rotate(-180)"/>
        <rect class="cls-9" x="771.63" y="870.5" width="87" height="83" transform="translate(1630.25 1824) rotate(-180)"/>
        <rect class="cls-9" x="771.63" y="518.5" width="87" height="79" transform="translate(1630.25 1116) rotate(-180)"/>
        <rect class="cls-5" x="844.08" y="526" width="8" height="67" rx="4" ry="4" transform="translate(1696.16 1119) rotate(-180)"/>
        <rect class="cls-5" x="827.83" y="526" width="8" height="67" rx="4" ry="4" transform="translate(1663.66 1119) rotate(-180)"/>
        <rect class="cls-5" x="811.58" y="526" width="8" height="67" rx="4" ry="4" transform="translate(1631.16 1119) rotate(-180)"/>
        <rect class="cls-5" x="795.33" y="526" width="8" height="67" rx="4" ry="4" transform="translate(1598.66 1119) rotate(-180)"/>
        <rect class="cls-5" x="779.08" y="526" width="8" height="67" rx="4" ry="4" transform="translate(1566.16 1119) rotate(-180)"/>
        <rect class="cls-5" x="844.08" y="612" width="8" height="67" rx="4" ry="4" transform="translate(1696.16 1291) rotate(-180)"/>
        <rect class="cls-5" x="827.83" y="612" width="8" height="67" rx="4" ry="4" transform="translate(1663.66 1291) rotate(-180)"/>
        <rect class="cls-5" x="811.58" y="612" width="8" height="67" rx="4" ry="4" transform="translate(1631.16 1291) rotate(-180)"/>
        <rect class="cls-5" x="795.33" y="612" width="8" height="67" rx="4" ry="4" transform="translate(1598.66 1291) rotate(-180)"/>
        <rect class="cls-5" x="779.08" y="612" width="8" height="67" rx="4" ry="4" transform="translate(1566.16 1291) rotate(-180)"/>
        <rect class="cls-5" x="844.08" y="702" width="8" height="67" rx="4" ry="4" transform="translate(1696.16 1471) rotate(-180)"/>
        <rect class="cls-5" x="827.83" y="702" width="8" height="67" rx="4" ry="4" transform="translate(1663.66 1471) rotate(-180)"/>
        <rect class="cls-5" x="811.58" y="702" width="8" height="67" rx="4" ry="4" transform="translate(1631.16 1471) rotate(-180)"/>
        <rect class="cls-5" x="795.33" y="702" width="8" height="67" rx="4" ry="4" transform="translate(1598.66 1471) rotate(-180)"/>
        <rect class="cls-5" x="779.08" y="702" width="8" height="67" rx="4" ry="4" transform="translate(1566.16 1471) rotate(-180)"/>
        <rect class="cls-5" x="844.08" y="790" width="8" height="67" rx="4" ry="4" transform="translate(1696.16 1647) rotate(-180)"/>
        <rect class="cls-5" x="827.83" y="790" width="8" height="67" rx="4" ry="4" transform="translate(1663.66 1647) rotate(-180)"/>
        <rect class="cls-5" x="811.58" y="790" width="8" height="67" rx="4" ry="4" transform="translate(1631.16 1647) rotate(-180)"/>
        <rect class="cls-5" x="795.33" y="790" width="8" height="67" rx="4" ry="4" transform="translate(1598.66 1647) rotate(-180)"/>
        <rect class="cls-5" x="779.08" y="790" width="8" height="67" rx="4" ry="4" transform="translate(1566.16 1647) rotate(-180)"/>
        <rect class="cls-5" x="844.08" y="878" width="8" height="67" rx="4" ry="4" transform="translate(1696.16 1823) rotate(-180)"/>
        <rect class="cls-5" x="827.83" y="878" width="8" height="67" rx="4" ry="4" transform="translate(1663.66 1823) rotate(-180)"/>
        <rect class="cls-5" x="811.58" y="878" width="8" height="67" rx="4" ry="4" transform="translate(1631.16 1823) rotate(-180)"/>
        <rect class="cls-5" x="795.33" y="878" width="8" height="67" rx="4" ry="4" transform="translate(1598.66 1823) rotate(-180)"/>
        <rect class="cls-5" x="779.08" y="878" width="8" height="67" rx="4" ry="4" transform="translate(1566.16 1823) rotate(-180)"/>
        <g>
          <rect class="cls-5" x="747.13" y="995.5" width="136" height="58" transform="translate(1630.25 2049) rotate(-180)"/>
          <g class="cls-6">
            <path class="cls-9" d="M889.58,1037.5c-20.17,2.37-47,3.47-78-1-38.84-5.59-69.53-17.8-90.22-28,1.07,36,2.15,72,3.22,108l185-31-20-48Z"/>
          </g>
        </g>
        <line class="cls-4" x1="854.58" y1="508.5" x2="776.58" y2="508.5"/>
        <g>
          <path class="cls-3" d="M818.08,489c-13.24.09-25.31-.74-35.97-2-8.76-12.71-23.72-18.61-37.03-15-10.33,2.81-23.55,12.42-22.97,27,.53,13.42,12.51,25.22,26,25,10.41-.17,23.4-7.54,23.97-20,.54-11.85-10.39-22.95-22-22-9.12.75-18.99,8.95-18,19,.76,7.7,7.72,14.86,16,15,7.7.13,16.34-5.83,16-13-.26-5.52-5.85-11.63-12-11-4.25.43-9.19,4.13-9,9,.16,4.14,3.98,8.25,8,8,2.57-.16,5.8-2.12,6-5,.11-1.61-.54-3.32-1.84-4.49-1.71-1.54-3.74-1.52-4.16-1.51"/>
          <path class="cls-3" d="M814.09,489c13.24.09,25.31-.74,35.97-2,8.76-12.71,23.72-18.61,37.03-15,10.33,2.81,23.55,12.42,22.97,27-.53,13.42-12.51,25.22-26,25-10.41-.17-23.4-7.54-23.97-20-.54-11.85,10.39-22.95,22-22,9.12.75,18.99,8.95,18,19-.76,7.7-7.72,14.86-16,15-7.7.13-16.34-5.83-16-13,.26-5.52,5.85-11.63,12-11,4.25.43,9.19,4.13,9,9-.16,4.14-3.98,8.25-8,8-2.57-.16-5.8-2.12-6-5-.11-1.61.54-3.32,1.84-4.49,1.71-1.54,3.74-1.52,4.16-1.51"/>
        </g>
      </g>
      <g>
        <rect class="cls-5" x="1188.33" y="515.5" width="87" height="3" transform="translate(2463.66 1034) rotate(-180)"/>
        <rect class="cls-5" x="1188.33" y="508.5" width="87" height="3" transform="translate(2463.66 1020) rotate(-180)"/>
        <rect class="cls-9" x="1188.33" y="511.5" width="87" height="4" transform="translate(2463.66 1027) rotate(-180)"/>
        <path class="cls-5" d="M1183.33,483.5h97v9.91c0,8.33-6.76,15.09-15.09,15.09h-66.81c-8.33,0-15.09-6.76-15.09-15.09v-9.91h0Z"/>
        <path class="cls-9" d="M1163.33,462.51h0s63-.01,63-.01h4s5,0,5,0h3s64,0,64,0h0c19.37.28,35,16.06,35,35.5,0,19.61-15.89,35.5-35.5,35.5-19.61,0-35.5-15.89-35.5-35.5,0-4.78.95-9.34,2.66-13.5-1.44.4-1.66,3-5.66,3-8.03,0-16.71,1.74-28,1.97v-.97h-5s0,.97,0,.97c-11.29-.23-19.97-1.97-28-1.97-4,0-4.23-2.6-5.66-3,1.71,4.16,2.66,8.72,2.66,13.5,0,19.61-15.89,35.5-35.5,35.5-19.61,0-35.5-15.89-35.5-35.5,0-19.44,15.63-35.22,35-35.49Z"/>
        <g>
          <path class="cls-2" d="M1251.14,507h0c4.14,0,7.5-3.36,7.5-7.5v-11.5s-15,1-15,1v10.5c0,4.14,3.36,7.5,7.5,7.5Z"/>
          <path class="cls-2" d="M1251.14,503.5h0c2.5,0,4.54-2.74,4.54-6.12v-9.38s-9.07.82-9.07.82v8.57c0,3.38,2.03,6.12,4.54,6.12Z"/>
        </g>
        <g>
          <path class="cls-2" d="M1214.14,507h0c-4.14,0-7.5-3.36-7.5-7.5v-11.5l15,1v10.5c0,4.14-3.36,7.5-7.5,7.5Z"/>
          <path class="cls-2" d="M1214.14,503.5h0c-2.5,0-4.54-2.74-4.54-6.12v-9.38l9.07.82v8.57c0,3.38-2.03,6.12-4.54,6.12Z"/>
        </g>
        <g>
          <path class="cls-2" d="M1232.64,507.83c4.14,0,7.5-3.36,7.5-7.5v-11.5c-2.17.1-4.43.16-6.75.17-2.86.01-5.61-.05-8.25-.17,0,3.83,0,7.67,0,11.5,0,4.14,3.36,7.5,7.5,7.5Z"/>
          <path class="cls-2" d="M1232.64,504.5c2.55,0,4.62-2.77,4.62-6.18v-9.48c-1.34.08-2.73.13-4.16.14-1.76.01-3.46-.04-5.09-.14,0,3.16,0,6.32,0,9.48,0,3.42,2.07,6.18,4.62,6.18Z"/>
        </g>
        <path class="cls-5" d="M1183.38,958.5h97v9.91c0,8.33-6.76,15.09-15.09,15.09h-66.81c-8.33,0-15.09-6.76-15.09-15.09v-9.91h0Z" transform="translate(2463.75 1942) rotate(-180)"/>
        <path class="cls-5" d="M1190.38,943.98h83v2.95c0,8.33-6.76,15.09-15.09,15.09h-52.81c-8.33,0-15.09-6.76-15.09-15.09v-2.95h0Z"/>
        <path class="cls-5" d="M1190.38,854.98h83v2.95c0,8.33-6.76,15.09-15.09,15.09h-52.81c-8.33,0-15.09-6.76-15.09-15.09v-2.95h0Z"/>
        <path class="cls-5" d="M1190.38,765.98h83v2.95c0,8.33-6.76,15.09-15.09,15.09h-52.81c-8.33,0-15.09-6.76-15.09-15.09v-2.95h0Z"/>
        <path class="cls-5" d="M1190.38,676.98h83v2.95c0,8.33-6.76,15.09-15.09,15.09h-52.81c-8.33,0-15.09-6.76-15.09-15.09v-2.95h0Z"/>
        <path class="cls-5" d="M1190.38,588.98h83v2.95c0,8.33-6.76,15.09-15.09,15.09h-52.81c-8.33,0-15.09-6.76-15.09-15.09v-2.95h0Z"/>
        <rect class="cls-9" x="1172.38" y="977.5" width="119" height="25" transform="translate(2463.75 1980) rotate(-180)"/>
        <rect class="cls-9" x="1188.38" y="605" width="87" height="83" transform="translate(2463.75 1293) rotate(-180)"/>
        <rect class="cls-9" x="1188.38" y="693.5" width="87" height="83" transform="translate(2463.75 1470) rotate(-180)"/>
        <rect class="cls-9" x="1188.38" y="782" width="87" height="83" transform="translate(2463.75 1647) rotate(-180)"/>
        <rect class="cls-9" x="1188.38" y="870.5" width="87" height="83" transform="translate(2463.75 1824) rotate(-180)"/>
        <rect class="cls-9" x="1188.38" y="518.5" width="87" height="79" transform="translate(2463.75 1116) rotate(-180)"/>
        <rect class="cls-5" x="1260.83" y="526" width="8" height="67" rx="4" ry="4" transform="translate(2529.66 1119) rotate(-180)"/>
        <rect class="cls-5" x="1244.58" y="526" width="8" height="67" rx="4" ry="4" transform="translate(2497.16 1119) rotate(-180)"/>
        <rect class="cls-5" x="1228.33" y="526" width="8" height="67" rx="4" ry="4" transform="translate(2464.66 1119) rotate(-180)"/>
        <rect class="cls-5" x="1212.08" y="526" width="8" height="67" rx="4" ry="4" transform="translate(2432.16 1119) rotate(-180)"/>
        <rect class="cls-5" x="1195.83" y="526" width="8" height="67" rx="4" ry="4" transform="translate(2399.66 1119) rotate(-180)"/>
        <rect class="cls-5" x="1260.83" y="612" width="8" height="67" rx="4" ry="4" transform="translate(2529.66 1291) rotate(-180)"/>
        <rect class="cls-5" x="1244.58" y="612" width="8" height="67" rx="4" ry="4" transform="translate(2497.16 1291) rotate(-180)"/>
        <rect class="cls-5" x="1228.33" y="612" width="8" height="67" rx="4" ry="4" transform="translate(2464.66 1291) rotate(-180)"/>
        <rect class="cls-5" x="1212.08" y="612" width="8" height="67" rx="4" ry="4" transform="translate(2432.16 1291) rotate(-180)"/>
        <rect class="cls-5" x="1195.83" y="612" width="8" height="67" rx="4" ry="4" transform="translate(2399.66 1291) rotate(-180)"/>
        <rect class="cls-5" x="1260.83" y="702" width="8" height="67" rx="4" ry="4" transform="translate(2529.66 1471) rotate(-180)"/>
        <rect class="cls-5" x="1244.58" y="702" width="8" height="67" rx="4" ry="4" transform="translate(2497.16 1471) rotate(-180)"/>
        <rect class="cls-5" x="1228.33" y="702" width="8" height="67" rx="4" ry="4" transform="translate(2464.66 1471) rotate(-180)"/>
        <rect class="cls-5" x="1212.08" y="702" width="8" height="67" rx="4" ry="4" transform="translate(2432.16 1471) rotate(-180)"/>
        <rect class="cls-5" x="1195.83" y="702" width="8" height="67" rx="4" ry="4" transform="translate(2399.66 1471) rotate(-180)"/>
        <rect class="cls-5" x="1260.83" y="790" width="8" height="67" rx="4" ry="4" transform="translate(2529.66 1647) rotate(-180)"/>
        <rect class="cls-5" x="1244.58" y="790" width="8" height="67" rx="4" ry="4" transform="translate(2497.16 1647) rotate(-180)"/>
        <rect class="cls-5" x="1228.33" y="790" width="8" height="67" rx="4" ry="4" transform="translate(2464.66 1647) rotate(-180)"/>
        <rect class="cls-5" x="1212.08" y="790" width="8" height="67" rx="4" ry="4" transform="translate(2432.16 1647) rotate(-180)"/>
        <rect class="cls-5" x="1195.83" y="790" width="8" height="67" rx="4" ry="4" transform="translate(2399.66 1647) rotate(-180)"/>
        <rect class="cls-5" x="1260.83" y="878" width="8" height="67" rx="4" ry="4" transform="translate(2529.66 1823) rotate(-180)"/>
        <rect class="cls-5" x="1244.58" y="878" width="8" height="67" rx="4" ry="4" transform="translate(2497.16 1823) rotate(-180)"/>
        <rect class="cls-5" x="1228.33" y="878" width="8" height="67" rx="4" ry="4" transform="translate(2464.66 1823) rotate(-180)"/>
        <rect class="cls-5" x="1212.08" y="878" width="8" height="67" rx="4" ry="4" transform="translate(2432.16 1823) rotate(-180)"/>
        <rect class="cls-5" x="1195.83" y="878" width="8" height="67" rx="4" ry="4" transform="translate(2399.66 1823) rotate(-180)"/>
        <g>
          <rect class="cls-5" x="1163.88" y="995.5" width="136" height="58" transform="translate(2463.75 2049) rotate(-180)"/>
          <g class="cls-8">
            <path class="cls-9" d="M1306.33,1037.5c-20.17,2.37-47,3.47-78-1-38.84-5.59-69.53-17.8-90.22-28,1.07,36,2.15,72,3.22,108l185-31-20-48Z"/>
          </g>
        </g>
        <line class="cls-4" x1="1271.33" y1="508.5" x2="1193.33" y2="508.5"/>
        <g>
          <path class="cls-3" d="M1234.83,489c-13.24.09-25.31-.74-35.97-2-8.76-12.71-23.72-18.61-37.03-15-10.33,2.81-23.55,12.42-22.97,27,.53,13.42,12.51,25.22,26,25,10.41-.17,23.4-7.54,23.97-20,.54-11.85-10.39-22.95-22-22-9.12.75-18.99,8.95-18,19,.76,7.7,7.72,14.86,16,15,7.7.13,16.34-5.83,16-13-.26-5.52-5.85-11.63-12-11-4.25.43-9.19,4.13-9,9,.16,4.14,3.98,8.25,8,8,2.57-.16,5.8-2.12,6-5,.11-1.61-.54-3.32-1.84-4.49-1.71-1.54-3.74-1.52-4.16-1.51"/>
          <path class="cls-3" d="M1230.84,489c13.24.09,25.31-.74,35.97-2,8.76-12.71,23.72-18.61,37.03-15,10.33,2.81,23.55,12.42,22.97,27-.53,13.42-12.51,25.22-26,25-10.41-.17-23.4-7.54-23.97-20-.54-11.85,10.39-22.95,22-22,9.12.75,18.99,8.95,18,19-.76,7.7-7.72,14.86-16,15-7.7.13-16.34-5.83-16-13,.26-5.52,5.85-11.63,12-11,4.25.43,9.19,4.13,9,9-.16,4.14-3.98,8.25-8,8-2.57-.16-5.8-2.12-6-5-.11-1.61.54-3.32,1.84-4.49,1.71-1.54,3.74-1.52,4.16-1.51"/>
        </g>
      </g>
      <g>
        <rect class="cls-5" x="1605.08" y="515.5" width="87" height="3" transform="translate(3297.16 1034) rotate(-180)"/>
        <rect class="cls-5" x="1605.08" y="508.5" width="87" height="3" transform="translate(3297.16 1020) rotate(-180)"/>
        <rect class="cls-9" x="1605.08" y="511.5" width="87" height="4" transform="translate(3297.16 1027) rotate(-180)"/>
        <path class="cls-5" d="M1600.08,483.5h97v9.91c0,8.33-6.76,15.09-15.09,15.09h-66.81c-8.33,0-15.09-6.76-15.09-15.09v-9.91h0Z"/>
        <path class="cls-9" d="M1580.08,462.51h0s63-.01,63-.01h4s5,0,5,0h3s64,0,64,0h0c19.37.28,35,16.06,35,35.5,0,19.61-15.89,35.5-35.5,35.5-19.61,0-35.5-15.89-35.5-35.5,0-4.78.95-9.34,2.66-13.5-1.44.4-1.66,3-5.66,3-8.03,0-16.71,1.74-28,1.97v-.97h-5s0,.97,0,.97c-11.29-.23-19.97-1.97-28-1.97-4,0-4.23-2.6-5.66-3,1.71,4.16,2.66,8.72,2.66,13.5,0,19.61-15.89,35.5-35.5,35.5-19.61,0-35.5-15.89-35.5-35.5,0-19.44,15.63-35.22,35-35.49Z"/>
        <g>
          <path class="cls-2" d="M1667.89,507h0c4.14,0,7.5-3.36,7.5-7.5v-11.5s-15,1-15,1v10.5c0,4.14,3.36,7.5,7.5,7.5Z"/>
          <path class="cls-2" d="M1667.89,503.5h0c2.5,0,4.54-2.74,4.54-6.12v-9.38s-9.07.82-9.07.82v8.57c0,3.38,2.03,6.12,4.54,6.12Z"/>
        </g>
        <g>
          <path class="cls-2" d="M1630.89,507h0c-4.14,0-7.5-3.36-7.5-7.5v-11.5l15,1v10.5c0,4.14-3.36,7.5-7.5,7.5Z"/>
          <path class="cls-2" d="M1630.89,503.5h0c-2.5,0-4.54-2.74-4.54-6.12v-9.38l9.07.82v8.57c0,3.38-2.03,6.12-4.54,6.12Z"/>
        </g>
        <g>
          <path class="cls-2" d="M1649.39,507.83c4.14,0,7.5-3.36,7.5-7.5v-11.5c-2.17.1-4.43.16-6.75.17-2.86.01-5.61-.05-8.25-.17,0,3.83,0,7.67,0,11.5,0,4.14,3.36,7.5,7.5,7.5Z"/>
          <path class="cls-2" d="M1649.39,504.5c2.55,0,4.62-2.77,4.62-6.18v-9.48c-1.34.08-2.73.13-4.16.14-1.76.01-3.46-.04-5.09-.14,0,3.16,0,6.32,0,9.48,0,3.42,2.07,6.18,4.62,6.18Z"/>
        </g>
        <path class="cls-5" d="M1600.13,958.5h97v9.91c0,8.33-6.76,15.09-15.09,15.09h-66.81c-8.33,0-15.09-6.76-15.09-15.09v-9.91h0Z" transform="translate(3297.25 1942) rotate(-180)"/>
        <path class="cls-5" d="M1607.13,943.98h83v2.95c0,8.33-6.76,15.09-15.09,15.09h-52.81c-8.33,0-15.09-6.76-15.09-15.09v-2.95h0Z"/>
        <path class="cls-5" d="M1607.13,854.98h83v2.95c0,8.33-6.76,15.09-15.09,15.09h-52.81c-8.33,0-15.09-6.76-15.09-15.09v-2.95h0Z"/>
        <path class="cls-5" d="M1607.13,765.98h83v2.95c0,8.33-6.76,15.09-15.09,15.09h-52.81c-8.33,0-15.09-6.76-15.09-15.09v-2.95h0Z"/>
        <path class="cls-5" d="M1607.13,676.98h83v2.95c0,8.33-6.76,15.09-15.09,15.09h-52.81c-8.33,0-15.09-6.76-15.09-15.09v-2.95h0Z"/>
        <path class="cls-5" d="M1607.13,588.98h83v2.95c0,8.33-6.76,15.09-15.09,15.09h-52.81c-8.33,0-15.09-6.76-15.09-15.09v-2.95h0Z"/>
        <rect class="cls-9" x="1589.13" y="977.5" width="119" height="25" transform="translate(3297.25 1980) rotate(-180)"/>
        <rect class="cls-9" x="1605.13" y="605" width="87" height="83" transform="translate(3297.25 1293) rotate(-180)"/>
        <rect class="cls-9" x="1605.13" y="693.5" width="87" height="83" transform="translate(3297.25 1470) rotate(-180)"/>
        <rect class="cls-9" x="1605.13" y="782" width="87" height="83" transform="translate(3297.25 1647) rotate(-180)"/>
        <rect class="cls-9" x="1605.13" y="870.5" width="87" height="83" transform="translate(3297.25 1824) rotate(-180)"/>
        <rect class="cls-9" x="1605.13" y="518.5" width="87" height="79" transform="translate(3297.25 1116) rotate(-180)"/>
        <rect class="cls-5" x="1677.58" y="526" width="8" height="67" rx="4" ry="4" transform="translate(3363.16 1119) rotate(-180)"/>
        <rect class="cls-5" x="1661.33" y="526" width="8" height="67" rx="4" ry="4" transform="translate(3330.66 1119) rotate(-180)"/>
        <rect class="cls-5" x="1645.08" y="526" width="8" height="67" rx="4" ry="4" transform="translate(3298.16 1119) rotate(-180)"/>
        <rect class="cls-5" x="1628.83" y="526" width="8" height="67" rx="4" ry="4" transform="translate(3265.66 1119) rotate(-180)"/>
        <rect class="cls-5" x="1612.58" y="526" width="8" height="67" rx="4" ry="4" transform="translate(3233.16 1119) rotate(-180)"/>
        <rect class="cls-5" x="1677.58" y="612" width="8" height="67" rx="4" ry="4" transform="translate(3363.16 1291) rotate(-180)"/>
        <rect class="cls-5" x="1661.33" y="612" width="8" height="67" rx="4" ry="4" transform="translate(3330.66 1291) rotate(-180)"/>
        <rect class="cls-5" x="1645.08" y="612" width="8" height="67" rx="4" ry="4" transform="translate(3298.16 1291) rotate(-180)"/>
        <rect class="cls-5" x="1628.83" y="612" width="8" height="67" rx="4" ry="4" transform="translate(3265.66 1291) rotate(-180)"/>
        <rect class="cls-5" x="1612.58" y="612" width="8" height="67" rx="4" ry="4" transform="translate(3233.16 1291) rotate(-180)"/>
        <rect class="cls-5" x="1677.58" y="702" width="8" height="67" rx="4" ry="4" transform="translate(3363.16 1471) rotate(-180)"/>
        <rect class="cls-5" x="1661.33" y="702" width="8" height="67" rx="4" ry="4" transform="translate(3330.66 1471) rotate(-180)"/>
        <rect class="cls-5" x="1645.08" y="702" width="8" height="67" rx="4" ry="4" transform="translate(3298.16 1471) rotate(-180)"/>
        <rect class="cls-5" x="1628.83" y="702" width="8" height="67" rx="4" ry="4" transform="translate(3265.66 1471) rotate(-180)"/>
        <rect class="cls-5" x="1612.58" y="702" width="8" height="67" rx="4" ry="4" transform="translate(3233.16 1471) rotate(-180)"/>
        <rect class="cls-5" x="1677.58" y="790" width="8" height="67" rx="4" ry="4" transform="translate(3363.16 1647) rotate(-180)"/>
        <rect class="cls-5" x="1661.33" y="790" width="8" height="67" rx="4" ry="4" transform="translate(3330.66 1647) rotate(-180)"/>
        <rect class="cls-5" x="1645.08" y="790" width="8" height="67" rx="4" ry="4" transform="translate(3298.16 1647) rotate(-180)"/>
        <rect class="cls-5" x="1628.83" y="790" width="8" height="67" rx="4" ry="4" transform="translate(3265.66 1647) rotate(-180)"/>
        <rect class="cls-5" x="1612.58" y="790" width="8" height="67" rx="4" ry="4" transform="translate(3233.16 1647) rotate(-180)"/>
        <rect class="cls-5" x="1677.58" y="878" width="8" height="67" rx="4" ry="4" transform="translate(3363.16 1823) rotate(-180)"/>
        <rect class="cls-5" x="1661.33" y="878" width="8" height="67" rx="4" ry="4" transform="translate(3330.66 1823) rotate(-180)"/>
        <rect class="cls-5" x="1645.08" y="878" width="8" height="67" rx="4" ry="4" transform="translate(3298.16 1823) rotate(-180)"/>
        <rect class="cls-5" x="1628.83" y="878" width="8" height="67" rx="4" ry="4" transform="translate(3265.66 1823) rotate(-180)"/>
        <rect class="cls-5" x="1612.58" y="878" width="8" height="67" rx="4" ry="4" transform="translate(3233.16 1823) rotate(-180)"/>
        <g>
          <rect class="cls-5" x="1580.63" y="995.5" width="136" height="58" transform="translate(3297.25 2049) rotate(-180)"/>
          <g class="cls-7">
            <path class="cls-9" d="M1723.08,1037.5c-20.17,2.37-47,3.47-78-1-38.84-5.59-69.53-17.8-90.22-28,1.07,36,2.15,72,3.22,108l185-31-20-48Z"/>
          </g>
        </g>
        <line class="cls-4" x1="1688.08" y1="508.5" x2="1610.08" y2="508.5"/>
        <g>
          <path class="cls-3" d="M1651.58,489c-13.24.09-25.31-.74-35.97-2-8.76-12.71-23.72-18.61-37.03-15-10.33,2.81-23.55,12.42-22.97,27,.53,13.42,12.51,25.22,26,25,10.41-.17,23.4-7.54,23.97-20,.54-11.85-10.39-22.95-22-22-9.12.75-18.99,8.95-18,19,.76,7.7,7.72,14.86,16,15,7.7.13,16.34-5.83,16-13-.26-5.52-5.85-11.63-12-11-4.25.43-9.19,4.13-9,9,.16,4.14,3.98,8.25,8,8,2.57-.16,5.8-2.12,6-5,.11-1.61-.54-3.32-1.84-4.49-1.71-1.54-3.74-1.52-4.16-1.51"/>
          <path class="cls-3" d="M1647.59,489c13.24.09,25.31-.74,35.97-2,8.76-12.71,23.72-18.61,37.03-15,10.33,2.81,23.55,12.42,22.97,27-.53,13.42-12.51,25.22-26,25-10.41-.17-23.4-7.54-23.97-20-.54-11.85,10.39-22.95,22-22,9.12.75,18.99,8.95,18,19-.76,7.7-7.72,14.86-16,15-7.7.13-16.34-5.83-16-13,.26-5.52,5.85-11.63,12-11,4.25.43,9.19,4.13,9,9-.16,4.14-3.98,8.25-8,8-2.57-.16-5.8-2.12-6-5-.11-1.61.54-3.32,1.84-4.49,1.71-1.54,3.74-1.52,4.16-1.51"/>
        </g>
      </g>
      <g>
        <rect class="cls-5" x="2021.83" y="515.5" width="87" height="3" transform="translate(4130.66 1034) rotate(-180)"/>
        <rect class="cls-5" x="2021.83" y="508.5" width="87" height="3" transform="translate(4130.66 1020) rotate(-180)"/>
        <rect class="cls-9" x="2021.83" y="511.5" width="87" height="4" transform="translate(4130.66 1027) rotate(-180)"/>
        <path class="cls-5" d="M2016.83,483.5h97v9.91c0,8.33-6.76,15.09-15.09,15.09h-66.81c-8.33,0-15.09-6.76-15.09-15.09v-9.91h0Z"/>
        <path class="cls-9" d="M1996.83,462.51h0s63-.01,63-.01h4s5,0,5,0h3s64,0,64,0h0c19.37.28,35,16.06,35,35.5,0,19.61-15.89,35.5-35.5,35.5-19.61,0-35.5-15.89-35.5-35.5,0-4.78.95-9.34,2.66-13.5-1.44.4-1.66,3-5.66,3-8.03,0-16.71,1.74-28,1.97v-.97h-5s0,.97,0,.97c-11.29-.23-19.97-1.97-28-1.97-4,0-4.23-2.6-5.66-3,1.71,4.16,2.66,8.72,2.66,13.5,0,19.61-15.89,35.5-35.5,35.5-19.61,0-35.5-15.89-35.5-35.5,0-19.44,15.63-35.22,35-35.49Z"/>
        <g>
          <path class="cls-2" d="M2084.64,507h0c4.14,0,7.5-3.36,7.5-7.5v-11.5s-15,1-15,1v10.5c0,4.14,3.36,7.5,7.5,7.5Z"/>
          <path class="cls-2" d="M2084.64,503.5h0c2.5,0,4.54-2.74,4.54-6.12v-9.38s-9.07.82-9.07.82v8.57c0,3.38,2.03,6.12,4.54,6.12Z"/>
        </g>
        <g>
          <path class="cls-2" d="M2047.64,507h0c-4.14,0-7.5-3.36-7.5-7.5v-11.5l15,1v10.5c0,4.14-3.36,7.5-7.5,7.5Z"/>
          <path class="cls-2" d="M2047.64,503.5h0c-2.5,0-4.54-2.74-4.54-6.12v-9.38l9.07.82v8.57c0,3.38-2.03,6.12-4.54,6.12Z"/>
        </g>
        <g>
          <path class="cls-2" d="M2066.14,507.83c4.14,0,7.5-3.36,7.5-7.5v-11.5c-2.17.1-4.43.16-6.75.17-2.86.01-5.61-.05-8.25-.17,0,3.83,0,7.67,0,11.5,0,4.14,3.36,7.5,7.5,7.5Z"/>
          <path class="cls-2" d="M2066.14,504.5c2.55,0,4.62-2.77,4.62-6.18v-9.48c-1.34.08-2.73.13-4.16.14-1.76.01-3.46-.04-5.09-.14,0,3.16,0,6.32,0,9.48,0,3.42,2.07,6.18,4.62,6.18Z"/>
        </g>
        <path class="cls-5" d="M2016.88,958.5h97v9.91c0,8.33-6.76,15.09-15.09,15.09h-66.81c-8.33,0-15.09-6.76-15.09-15.09v-9.91h0Z" transform="translate(4130.75 1942) rotate(-180)"/>
        <path class="cls-5" d="M2023.88,943.98h83v2.95c0,8.33-6.76,15.09-15.09,15.09h-52.81c-8.33,0-15.09-6.76-15.09-15.09v-2.95h0Z"/>
        <path class="cls-5" d="M2023.88,854.98h83v2.95c0,8.33-6.76,15.09-15.09,15.09h-52.81c-8.33,0-15.09-6.76-15.09-15.09v-2.95h0Z"/>
        <path class="cls-5" d="M2023.88,765.98h83v2.95c0,8.33-6.76,15.09-15.09,15.09h-52.81c-8.33,0-15.09-6.76-15.09-15.09v-2.95h0Z"/>
        <path class="cls-5" d="M2023.88,676.98h83v2.95c0,8.33-6.76,15.09-15.09,15.09h-52.81c-8.33,0-15.09-6.76-15.09-15.09v-2.95h0Z"/>
        <path class="cls-5" d="M2023.88,588.98h83v2.95c0,8.33-6.76,15.09-15.09,15.09h-52.81c-8.33,0-15.09-6.76-15.09-15.09v-2.95h0Z"/>
        <rect class="cls-9" x="2005.88" y="977.5" width="119" height="25" transform="translate(4130.75 1980) rotate(-180)"/>
        <rect class="cls-9" x="2021.88" y="605" width="87" height="83" transform="translate(4130.75 1293) rotate(-180)"/>
        <rect class="cls-9" x="2021.88" y="693.5" width="87" height="83" transform="translate(4130.75 1470) rotate(-180)"/>
        <rect class="cls-9" x="2021.88" y="782" width="87" height="83" transform="translate(4130.75 1647) rotate(-180)"/>
        <rect class="cls-9" x="2021.88" y="870.5" width="87" height="83" transform="translate(4130.75 1824) rotate(-180)"/>
        <rect class="cls-9" x="2021.88" y="518.5" width="87" height="79" transform="translate(4130.75 1116) rotate(-180)"/>
        <rect class="cls-5" x="2094.33" y="526" width="8" height="67" rx="4" ry="4" transform="translate(4196.66 1119) rotate(-180)"/>
        <rect class="cls-5" x="2078.08" y="526" width="8" height="67" rx="4" ry="4" transform="translate(4164.16 1119) rotate(-180)"/>
        <rect class="cls-5" x="2061.83" y="526" width="8" height="67" rx="4" ry="4" transform="translate(4131.66 1119) rotate(-180)"/>
        <rect class="cls-5" x="2045.58" y="526" width="8" height="67" rx="4" ry="4" transform="translate(4099.16 1119) rotate(-180)"/>
        <rect class="cls-5" x="2029.33" y="526" width="8" height="67" rx="4" ry="4" transform="translate(4066.66 1119) rotate(-180)"/>
        <rect class="cls-5" x="2094.33" y="612" width="8" height="67" rx="4" ry="4" transform="translate(4196.66 1291) rotate(-180)"/>
        <rect class="cls-5" x="2078.08" y="612" width="8" height="67" rx="4" ry="4" transform="translate(4164.16 1291) rotate(-180)"/>
        <rect class="cls-5" x="2061.83" y="612" width="8" height="67" rx="4" ry="4" transform="translate(4131.66 1291) rotate(-180)"/>
        <rect class="cls-5" x="2045.58" y="612" width="8" height="67" rx="4" ry="4" transform="translate(4099.16 1291) rotate(-180)"/>
        <rect class="cls-5" x="2029.33" y="612" width="8" height="67" rx="4" ry="4" transform="translate(4066.66 1291) rotate(-180)"/>
        <rect class="cls-5" x="2094.33" y="702" width="8" height="67" rx="4" ry="4" transform="translate(4196.66 1471) rotate(-180)"/>
        <rect class="cls-5" x="2078.08" y="702" width="8" height="67" rx="4" ry="4" transform="translate(4164.16 1471) rotate(-180)"/>
        <rect class="cls-5" x="2061.83" y="702" width="8" height="67" rx="4" ry="4" transform="translate(4131.66 1471) rotate(-180)"/>
        <rect class="cls-5" x="2045.58" y="702" width="8" height="67" rx="4" ry="4" transform="translate(4099.16 1471) rotate(-180)"/>
        <rect class="cls-5" x="2029.33" y="702" width="8" height="67" rx="4" ry="4" transform="translate(4066.66 1471) rotate(-180)"/>
        <rect class="cls-5" x="2094.33" y="790" width="8" height="67" rx="4" ry="4" transform="translate(4196.66 1647) rotate(-180)"/>
        <rect class="cls-5" x="2078.08" y="790" width="8" height="67" rx="4" ry="4" transform="translate(4164.16 1647) rotate(-180)"/>
        <rect class="cls-5" x="2061.83" y="790" width="8" height="67" rx="4" ry="4" transform="translate(4131.66 1647) rotate(-180)"/>
        <rect class="cls-5" x="2045.58" y="790" width="8" height="67" rx="4" ry="4" transform="translate(4099.16 1647) rotate(-180)"/>
        <rect class="cls-5" x="2029.33" y="790" width="8" height="67" rx="4" ry="4" transform="translate(4066.66 1647) rotate(-180)"/>
        <rect class="cls-5" x="2094.33" y="878" width="8" height="67" rx="4" ry="4" transform="translate(4196.66 1823) rotate(-180)"/>
        <rect class="cls-5" x="2078.08" y="878" width="8" height="67" rx="4" ry="4" transform="translate(4164.16 1823) rotate(-180)"/>
        <rect class="cls-5" x="2061.83" y="878" width="8" height="67" rx="4" ry="4" transform="translate(4131.66 1823) rotate(-180)"/>
        <rect class="cls-5" x="2045.58" y="878" width="8" height="67" rx="4" ry="4" transform="translate(4099.16 1823) rotate(-180)"/>
        <rect class="cls-5" x="2029.33" y="878" width="8" height="67" rx="4" ry="4" transform="translate(4066.66 1823) rotate(-180)"/>
        <g>
          <rect class="cls-5" x="1997.38" y="995.5" width="136" height="58" transform="translate(4130.75 2049) rotate(-180)"/>
          <g class="cls-1">
            <path class="cls-9" d="M2139.83,1037.5c-20.17,2.37-47,3.47-78-1-38.84-5.59-69.53-17.8-90.22-28,1.07,36,2.15,72,3.22,108l185-31-20-48Z"/>
          </g>
        </g>
        <line class="cls-4" x1="2104.83" y1="508.5" x2="2026.83" y2="508.5"/>
        <g>
          <path class="cls-3" d="M2068.33,489c-13.24.09-25.31-.74-35.97-2-8.76-12.71-23.72-18.61-37.03-15-10.33,2.81-23.55,12.42-22.97,27,.53,13.42,12.51,25.22,26,25,10.41-.17,23.4-7.54,23.97-20,.54-11.85-10.39-22.95-22-22-9.12.75-18.99,8.95-18,19,.76,7.7,7.72,14.86,16,15,7.7.13,16.34-5.83,16-13-.26-5.52-5.85-11.63-12-11-4.25.43-9.19,4.13-9,9,.16,4.14,3.98,8.25,8,8,2.57-.16,5.8-2.12,6-5,.11-1.61-.54-3.32-1.84-4.49-1.71-1.54-3.74-1.52-4.16-1.51"/>
          <path class="cls-3" d="M2064.34,489c13.24.09,25.31-.74,35.97-2,8.76-12.71,23.72-18.61,37.03-15,10.33,2.81,23.55,12.42,22.97,27-.53,13.42-12.51,25.22-26,25-10.41-.17-23.4-7.54-23.97-20-.54-11.85,10.39-22.95,22-22,9.12.75,18.99,8.95,18,19-.76,7.7-7.72,14.86-16,15-7.7.13-16.34-5.83-16-13,.26-5.52,5.85-11.63,12-11,4.25.43,9.19,4.13,9,9-.16,4.14-3.98,8.25-8,8-2.57-.16-5.8-2.12-6-5-.11-1.61.54-3.32,1.84-4.49,1.71-1.54,3.74-1.52,4.16-1.51"/>
        </g>
      </g>
    </g>
    <polygon class="cls-9" points="292.83 375.5 292.83 426.5 370.83 426.5 370.83 401.5 464.83 401.5 464.83 426.5 551.94 426.5 551.94 401.5 645.94 401.5 645.94 426.5 733.05 426.5 733.05 401.5 827.05 401.5 827.05 426.5 914.16 426.5 914.16 401.5 1008.16 401.5 1008.16 426.5 1095.27 426.5 1095.27 401.5 1189.27 401.5 1189.27 426.5 1276.39 426.5 1276.39 401.5 1370.39 401.5 1370.39 426.5 1457.5 426.5 1457.5 401.5 1551.5 401.5 1551.5 426.5 1638.61 426.5 1638.61 401.5 1732.61 401.5 1732.61 426.5 1819.72 426.5 1819.72 401.5 1913.72 401.5 1913.72 426.5 2000.83 426.5 2000.83 401.5 2094.83 401.5 2094.83 426.5 2172.83 426.5 2172.83 375.5 292.83 375.5"/>
    <path class="cls-9" d="M977.83,291.5c0-80.63,114.17-146,255-146s255,65.37,255,146c0,13.87-3.38,27.29-9.69,40h692.69L1232.83,0,294.83,331.5h692.69c-6.31-12.71-9.69-26.13-9.69-40Z"/>
    <rect class="cls-9" x="262.35" y="1090.5" width="1911" height="45"/>
    <rect class="cls-9" x="214.24" y="1173.5" width="2007.21" height="45"/>
    <rect class="cls-9" x="132.65" y="1256.5" width="2170.39" height="45"/>
    <rect class="cls-9" x="66.53" y="1339.5" width="2302.64" height="45"/>
    <rect class="cls-9" y="1422.5" width="2436.14" height="45"/>
  </g>
</svg>