<?xml version="1.0" encoding="UTF-8"?>
<svg id="Layer_2" xmlns="http://www.w3.org/2000/svg" xmlns:xlink="http://www.w3.org/1999/xlink" viewBox="0 0 115.06 116.73">
  <defs>
    <style>
      .cls-1 {
        fill: none;
        stroke: #c2b09d;
        stroke-linecap: round;
        stroke-miterlimit: 10;
        stroke-width: .34px;
      }

      .cls-2 {
        fill: #928476;
      }

      .cls-3 {
        fill: #968686;
      }

      .cls-4 {
        fill: #676059;
      }

      .cls-5 {
        fill: #f3efeb;
      }

      .cls-6 {
        fill: #fff;
      }

      .cls-7 {
        fill: #c2b09d;
      }

      .cls-8 {
        clip-path: url(#clippath-1);
      }

      .cls-9 {
        fill: #ffebd6;
      }

      .cls-10 {
        fill: #dad0c4;
      }

      .cls-11 {
        fill: #bfb9b3;
      }

      .cls-12 {
        fill: #cec0b1;
      }

      .cls-13 {
        clip-path: url(#clippath-2);
      }

      .cls-14 {
        fill: #fff7ef;
      }

      .cls-15 {
        clip-path: url(#clippath);
      }

      .cls-16 {
        fill: #c8bdbd;
      }
    </style>
    <clipPath id="clippath">
      <path class="cls-9" d="M59.59,23.68c2.87-.22,7.37-.16,12.32,1.75,1.93.74,3.57,1.63,4.92,2.49,2.05,1.13,8.95,5.16,10.2,10.2.46,1.87.57,3.12.57,3.12.28,3.25-.59,4.52.28,6.8.33.86.57.99.85,1.98.4,1.41.35,2.66.24,3.52,1.14,1.14,2.08,2.02,2.73,2.61.87.8,1.25,1.13,1.48,1.74.42,1.14-.07,2.32-.42,2.98-1.14,1.2-3.13,1.6-4.26,2.79.22,1.89,2.63,3.7,2.71,4.66.06.67-.04,1.04-.02,2.04.04,1.44.3,2.61.52,3.38-.45.52-.9,1.04-1.35,1.56,1.82,4.16,1.82,8.3-.32,10.37-1.3,1.26-3.13,1.5-4.65,1.69-3.61.44-5.16-.82-8.4-.93-1.76-.06-4.35.22-7.56,1.9,1.08,1.56,3.62,11.53,4.7,13.09h-36.82c1.96-6.29,1.96-21.66.95-24.49-.76-2.13-1.93-3.98-3.39-8.28-.88-2.6-1.43-4.8-1.76-6.3-.45-.14-3.87-1.29-5.15-4.75-1.22-3.3.16-6.88,2.43-8.7,3.46-2.78,8.39-.92,10.84,0,3.72,1.41,6.1,3.79,7.3,5.2,3.68-10.14,7.36-20.29,11.05-30.43Z"/>
    </clipPath>
    <clipPath id="clippath-1">
      <path class="cls-6" d="M74.18,50.86c.18-.11.54-.38.79-.86.24-.45.28-.87.28-1.08-2.34-.4-4.68-.79-7.02-1.19l-1.65.07,3.28,1.91c1.44.38,2.88.76,4.32,1.14Z"/>
    </clipPath>
    <clipPath id="clippath-2">
      <polygon class="cls-6" points="87 51.74 87.73 51.53 89.55 51.63 89.31 52.81 88.74 52.83 87.88 52.63 87 51.74"/>
    </clipPath>
  </defs>
  <g id="Layer_1-2" data-name="Layer_1">
    <g>
      <path class="cls-4" d="M27.78,19.54c-.07-1.47.11-7.74,3.31-11.86,2.21-2.86,4.99-4.22,6.51-4.81,3.8-1.47,5.37-.29,11.61-1.13,5.05-.68,4.42-1.51,7.65-1.7,5.36-.31,6.77,1.98,14.73,3.97,7.16,1.79,8.15.46,11.9,2.27,4.87,2.35,7.63,6.73,9.21,10.05.82,2.55,2.29,6.3,4.96,10.34,3.43,5.2,5.38,5.62,6.51,9.35,1.68,5.5-1.34,8.59.85,11.9,1.67,2.53,5.11,3.25,7.85,3.44-1.07.43-3.19,1.11-5.87.81-1.85-.21-3.29-.8-4.2-1.27-.31,1.13-.7,3.11-.33,5.52.13.85.59,3.58,2.55,5.95,3.53,4.27,9.26,4.14,10.05,4.11-1.15.37-3.49.94-6.37.42-2.43-.44-4.19-1.46-5.15-2.12-.08,1.37-.16,2.74-.24,4.11.82.24,2.13.48,3.63.14,3.91-.87,5.54-4.8,5.71-5.24-.58,3-2.46,5.38-4.96,6.09-1.3.37-2.49.2-3.27,0l2.39,4.14-4.08-4-.85-1.13.57-2.27c.07-.59.12-1.64-.28-2.83-.59-1.75-1.77-2.74-2.27-3.12-.06.86-.06,2.84,1.13,4.81.55.9,1.18,1.55,1.7,1.98l-1.13,1.98c-.24.23-.58.6-.85,1.13-1.05,2.04.07,4.07.27,6.28.13,1.44-.08,3.52-1.68,6.18.32-.9.91-3.02.26-5.52-.35-1.32-.93-2.32-1.39-2.97-.06,1.3-.05,3.17.28,5.38.45,3.01.99,6.6,3.68,9.63.82.93,2.33,2.34,4.81,3.4-1.47,0-3.78-.21-6.23-1.42-5.51-2.7-7.3-8.19-7.65-9.35.28,2.45.57,4.91.85,7.36-.79,1-1.81,2.51-2.55,4.53-1.01,2.76-1.05,5.2-.96,6.66-.18-.25-.47-.69-.74-1.27-.95-2.07-.5-3.45-1.13-5.66-.17-.59-.49-1.5-1.13-2.55-.85,1.51-1.7,3.02-2.55,4.53.38-.59,1.57-2.59,1.13-5.1-.17-.97-.53-1.73-.85-2.27-1.04.79-2.4,1.99-3.68,3.68-1.28,1.69-2.07,3.31-2.55,4.53-.7-2.55-1.95-5.79-4.25-9.06-.75-1.06-1.51-2-2.27-2.83-2.41-17.82-4.81-35.63-7.22-53.45l-37.44-11.72Z"/>
      <path class="cls-12" d="M42.37,57.64c-.27-2.21-.54-4.42-.8-6.63-2.57-.9-5.14-1.8-7.72-2.7-2.05,1.47-1.42,4.21-3.47,5.68,4.53,9.54,6.37,17.8,10.9,27.33.26,2.21.69,8.36-3.12,13.6-.76,1.05-2.19,2.97-4.81,4.25-1.07.52-4.99,2.43-8.78.57-3.1-1.53-5.01-5.04-4.96-8.92-.21.51-1.01,2.22-2.97,3.26-1.67.88-3.23.78-3.82.71.67-.28,1.88-.89,2.97-2.12,1.22-1.38,1.67-2.82,1.84-3.54-.28.27-2.61,2.38-5.81,1.84-2.1-.35-3.4-1.66-3.82-2.12.92.27,2.64.63,4.67.14.77-.19,3.27-.79,4.81-3.12.34-.5,1.28-1.96,1.13-3.97-.08-1.08-.44-1.91-.71-2.41l-.57-2.27c-.47.26-1.42.7-2.69.71-1.64.01-2.82-.7-3.26-.99.11.21,1.08,2.03,3.26,2.41,2.02.35,3.48-.82,3.68-.99l.42,1.13c-.56.29-2.1.99-4.11.71-2.02-.29-3.29-1.41-3.76-1.84-1.27-1.15-1.82-2.46-2.05-3.12-.92-.52-2.29-1.45-3.54-2.97-1.9-2.31-2.44-4.67-2.72-5.95-.26-1.18-1.02-5.35,1.02-9.91.81-1.8,1.81-3.12,2.55-3.97-1.64.71-3.54.37-4.81-.85-1.21-1.16-1.65-2.92-1.13-4.53.65,1.91,1.96,3.3,3.4,3.4.99.06,1.94-.49,2.55-.85.89-.52,1.49-1.14,1.84-1.56,1.27-2.6,2.55-5.19,3.82-7.79.21-1.1.52-2.77.85-4.81,1.08-6.61.76-6.88,1.42-8.5,2.08-5.11,7.23-7.2,7.65-7.36,2.53-.99,4.85-.98,6.23-.85l32.72,7.43-9.17,25.56-9.15,5.92Z"/>
      <g>
        <path class="cls-9" d="M59.59,23.68c2.87-.22,7.37-.16,12.32,1.75,1.93.74,3.57,1.63,4.92,2.49,2.05,1.13,8.95,5.16,10.2,10.2.46,1.87.57,3.12.57,3.12.28,3.25-.59,4.52.28,6.8.33.86.57.99.85,1.98.4,1.41.35,2.66.24,3.52,1.14,1.14,2.08,2.02,2.73,2.61.87.8,1.25,1.13,1.48,1.74.42,1.14-.07,2.32-.42,2.98-1.14,1.2-3.13,1.6-4.26,2.79.22,1.89,2.63,3.7,2.71,4.66.06.67-.04,1.04-.02,2.04.04,1.44.3,2.61.52,3.38-.45.52-.9,1.04-1.35,1.56,1.82,4.16,1.82,8.3-.32,10.37-1.3,1.26-3.13,1.5-4.65,1.69-3.61.44-5.16-.82-8.4-.93-1.76-.06-4.35.22-7.56,1.9,1.08,1.56,3.62,11.53,4.7,13.09h-36.82c1.96-6.29,1.96-21.66.95-24.49-.76-2.13-1.93-3.98-3.39-8.28-.88-2.6-1.43-4.8-1.76-6.3-.45-.14-3.87-1.29-5.15-4.75-1.22-3.3.16-6.88,2.43-8.7,3.46-2.78,8.39-.92,10.84,0,3.72,1.41,6.1,3.79,7.3,5.2,3.68-10.14,7.36-20.29,11.05-30.43Z"/>
        <g class="cls-15">
          <path class="cls-14" d="M33.12,62.36c.96-.2,2.1.52,3.44,2.15.3.46,2.28,3.34,5.78,3.66,1.46.13,2.65-.23,3.38-.52.94,1.48,2.26,3.52,3.88,5.92,3.25,4.82,4.04,5.67,5.21,6.4,1.22.77,1.96.85,6.98,1.86,3.73.75,7.04,1.45,8.23,1.72,2.67.59,6.47,1.63,11.02,3.55l-3.94,16.16s-34.05,14.06-34.29,13.44c0,0-3.93-1.41-13.15-26.02-.68-18.27.47-27.72,3.45-28.33Z"/>
          <path class="cls-2" d="M91.71,73.75c-.99-.24-1.98-.38-2.98-.42-.84-.03-1.21.02-2.04-.02-1-.04-1.99-.18-2.98-.42-.38-.46-1.06-1.15-2.11-1.67-.65-.32-1.26-.48-1.72-.56.58-.14,1.46-.4,2.44-.92.93-.49,1.31-.88,2.13-1.4.67-.42,1.7-.97,3.15-1.39.55.32,1.09.64,1.64.96l2.99-.6.88,6.87c-.47-.14-.94-.29-1.41-.43Z"/>
          <path class="cls-1" d="M85.68,62.52c-.6-.5-.67-.81-.63-1.01.18-.73,2.33-.79,3.37-.79"/>
          <path class="cls-2" d="M78.71,41.79c.68-.61,1.35-1.22,2.03-1.83-1.61-.53-3.04-.96-4.23-1.29-3.26-.91-4.18-.97-4.71-.98-1.14-.03-2.59.13-4.25.75-1.13.86-2.27,1.71-3.4,2.57,1.34-.44,3.08-.86,5.11-.98,4.22-.24,7.57.93,9.44,1.76Z"/>
          <path class="cls-2" d="M68.08,46.73c1.62-.55,3.46-.53,5.06.07-1.7-.22-3.35-.24-5.06-.07h0Z"/>
          <path class="cls-11" d="M72.29,103.83c.28-2.27-3.48-12.59-7.97-16.5-2.57-2.24-4.61-3.41-4.61-3.41-.84-.33-1.9-.81-3.06-1.52-.46-.28-1.99-1.23-3.61-2.79-3.65-3.51-5.49-7.92-5.28-8.06.19-.12,2.49,2.89,3.89,4.9,1.27,1.82,2.07,2.6,2.28,2.78,1.69,1.46,3.21,1.53,8.67,2.57,3.73.7,6.21,1.27,7.06,1.47,3.05.71,4.61,1.08,6.58,1.78,1.5.54,2.22.89,3.99,1.45,1.76.55,3.25.89,4.26,1.09-4.04,4.02-5.7,17.37-12.21,16.24Z"/>
          <path class="cls-11" d="M47.71,71.71l-1.74,1.48-5.7-4.05c-.03-.47-.06-.95-.08-1.42.57.21,1.64.52,2.98.42,1.32-.1,2.3-.55,2.83-.84,1.89,3.05,3.77,6.11,5.66,9.16l-3.95-4.74Z"/>
          <g>
            <path class="cls-6" d="M74.18,50.86c.18-.11.54-.38.79-.86.24-.45.28-.87.28-1.08-2.34-.4-4.68-.79-7.02-1.19l-1.65.07,3.28,1.91c1.44.38,2.88.76,4.32,1.14Z"/>
            <g class="cls-8">
              <circle class="cls-16" cx="73.96" cy="49.56" r="1.56"/>
              <circle class="cls-3" cx="73.96" cy="49.56" r=".57"/>
            </g>
          </g>
          <path class="cls-2" d="M74.37,50.9c-1.37-.22-2.57-.5-3.14-.65-2.34-.65-4.56-2.25-5.51-2.99,2.54-.21,4.62,0,6.09.25.39.07,2.02.35,4.08,1.05,1.01.34,1.86.7,2.51.99-1.77-.37-3.63-.71-5.58-1.02-1.86-.29-3.65-.52-5.38-.71.99.66,2.29,1.4,3.87,2.03,1.78.71,3.4,1.07,4.68,1.26-.4-.04-.96-.11-1.63-.22Z"/>
          <path class="cls-11" d="M39.72,68.45c-1.7-1-2.76-2.07-3.4-2.85-.87-1.06-1.53-2.26-2.55-2.27-.46,0-.84.23-1.07.42v-1.77l2.95,1.18,2.6,3.27,3.36,1.93-1.89.08Z"/>
          <path class="cls-2" d="M42.09,69.34c-.23-.28-.91-1.16-.92-2.44,0-.73.2-1.31.35-1.64-.03-.1-.34-.95-1.19-1.19-.88-.26-1.6.35-1.73.46-.94.79-.93,2.24-.65,3.14.11.35.46,1.51,1.63,1.98,1.26.5,2.4-.22,2.52-.29Z"/>
          <path class="cls-2" d="M36.59,65.33c-.36-.39-.76-.95-.69-1.58.07-.67.63-.96.48-1.33-.15-.39-.96-.56-1.57-.33-.76.3-.94,1.13-.98,1.3-.12.6.03,1.43.72,1.91.6.42,1.41.43,2.04.02Z"/>
          <path class="cls-1" d="M31.93,59.51c.19.32.63.94,1.42,1.42.69.41,1.33.53,1.7.57"/>
          <g>
            <polygon class="cls-6" points="87 51.74 87.73 51.53 89.55 51.63 89.31 52.81 88.74 52.83 87.88 52.63 87 51.74"/>
            <g class="cls-13">
              <circle class="cls-16" cx="88.4" cy="51.93" r=".71"/>
              <circle class="cls-3" cx="88.42" cy="52.1" r=".29"/>
            </g>
          </g>
          <path class="cls-2" d="M86.96,51.78c.28-.06.69-.1,1.17-.05.6.07,1.06.26,1.35.41.12-.16.23-.32.35-.48-.1-.09-.79-.65-1.72-.5-.62.1-1.01.47-1.15.61Z"/>
          <path class="cls-2" d="M89.2,52.54s.21.38.33-.01c.02-.06.04-.15.05-.29.01.28.02.57.03.85-.14-.18-.28-.37-.41-.55Z"/>
        </g>
      </g>
      <path class="cls-1" d="M39.72,61.07c-1.92.11-3.35-.33-4.16-.66-1.13-.46-2.49-1.02-2.8-2.21-.27-1.03.38-2,.81-2.64,1.43-2.13,3.75-2.91,4.87-3.19"/>
      <path class="cls-1" d="M36.46,56.69c.29-.13,1.41-.73,1.94-2.02.62-1.53-.1-3.04-.95-3.8-1.72-1.55-4.58-1.53-6.41-.19-.28.21-2.01,1.47-1.99,3.68.01,2.32,1.94,3.61,2.09,3.71"/>
      <path class="cls-1" d="M92.52,61.31c.12-.15,1.22-1.63.65-3.14-.18-.48-.46-.78-.62-.95-2.05-2.11-5.58-5.52-5.77-5.7-1.05-1.02-1.58-1.52-2.18-2.3-1.24-1.58-1.97-3.11-2.4-4.18"/>
      <path class="cls-1" d="M66.08,45.67c.97-.55,2.32-1.19,4.02-1.62,1.38-.35,2.6-.46,3.58-.48"/>
      <path class="cls-12" d="M49.78,55.54c-.24,8.92,1.9,12.53,3.97,14.16.83.65,2.85,1.93,4.53,4.53,1.03,1.59,1.56,3.1,1.84,4.11.38-1.19.8-3.07.42-5.24-.63-3.65-2.86-4.37-4.25-8.78-.84-2.66-.85-4.98-.85-6.51,0-2.46.34-4.54.71-6.09-2.12,1.27-4.25,2.55-6.37,3.82Z"/>
      <path class="cls-12" d="M46.09,54.69c-.19,1.09-.44,3.38.57,5.95,1.39,3.54,4.22,5.17,5.1,5.66,1.02.57,2.72,1.52,5.1,1.42,2.53-.11,4.31-1.35,4.98-1.87-.74.84-2.29,2.36-4.69,3.01-4.18,1.13-7.76-1.23-9.35-2.27-1.16-.76-3.54-2.38-4.84-5.5-.59-1.41,3.14-6.4,3.14-6.4Z"/>
      <path class="cls-10" d="M60.42,41.68c-.33,3.99-1.18,7.04-1.87,9.05-.38,1.11-.58,1.51-3.68,8.5-1.74,3.93-2.62,5.93-2.83,7.65-.36,2.95.27,5.45.85,7.08-3.47-3.69-4.04-6.58-3.97-8.5.13-3.08,1.98-4.54,3.12-9.06.75-2.98.75-5.54.66-7.16,2.57-2.52,5.15-5.04,7.72-7.55Z"/>
      <path class="cls-5" d="M55.04,49.68c-.65.75-2.78,3.43-2.71,7.28.02.99.08,4.23,2.27,6.23,1.54,1.41,4.21,2.26,4.15,2.39,0,.01-.03.01-.04.01-5.94.01-8.92-2.69-8.92-2.69-.85-.77-2.23-2.06-2.83-4.25-.42-1.53-.28-2.86-.14-3.63l8.23-5.34Z"/>
      <path class="cls-10" d="M45.24,66.31c-.15-1.03-.53-1.63-.85-1.98-.61-.67-1.1-.59-1.98-1.42-.47-.43-1.07-.99-1.13-1.7-.09-1.01.93-1.87,1.42-2.27,3.77-3.06,11.99-7.69,15.58-11.9,1.39-1.63,3.04-4.37,3.56-8.98-3.08,2.14-6.15,4.29-9.23,6.43-.87,1.84-2.28,4.3-4.53,6.8-2.55,2.83-5.19,4.6-7.08,5.66-.34.44-1,1.43-1.13,2.83-.06.6-.14,1.44.28,2.27.62,1.2,1.7,1.2,3.4,2.55.82.65,1.38,1.3,1.7,1.7Z"/>
      <path class="cls-10" d="M54.03,27.22c-3.07.13-4.09,5.4-8.5,10.2-1.19,1.3-3.33,3.32-6.23,4.81-7.07,3.64-11.19.3-16.71,4.25-1.14.82-3.59,2.62-4.14,5.71-.55,3.1,1.15,5.59,1.59,6.19,2.24,3.07,5.65,3.49,6.22,3.55-3.88-1.85-6.23-5.08-5.93-8.08.32-3.24,3.73-5.18,5.1-5.95,6.86-3.88,12.01.13,20.11-2.27,2.61-.77,6.43-2.47,10.48-6.8v-11c-.4-.27-1.12-.65-1.98-.61Z"/>
      <path class="cls-5" d="M51.48,24.95c3.54,5.7,3.79,12.47.57,17.28-2.21,3.31-5.43,4.74-7.03,5.32,1.86.04,5.48-.15,9.3-2.2,1.62-.87,6.91-3.72,8.5-9.91,1.32-5.17-.75-9.5-1.42-10.76-3.3.09-6.61.19-9.91.28Z"/>
      <path class="cls-10" d="M26.13,74.38c2.34,3.75,6.13,5.89,9.63,5.38.6-.09,3.29-.48,5.1-2.83,1-1.3,1.31-2.65,1.42-3.4-1.2,2.52-3.51,4.24-6.06,4.41-.32.02-2.5.13-4.42-1.29-.99-.73-1.49-1.56-2.18-2.69-.94-1.55-1.47-3-1.78-4.11-.57,1.51-1.13,3.02-1.7,4.53Z"/>
      <path class="cls-4" d="M51.05,23.96l9.63,3.25c.63-.61,1.51-1.35,2.69-1.98,2.04-1.1,3.95-1.36,5.1-1.42-1.56-1.09-3.12-2.17-4.67-3.26l-12.75,3.4Z"/>
      <path class="cls-7" d="M90.9,38.06c.01.58,0,3.53-2.21,5.51-.49.44-1.62,1.45-3.34,1.48-1.32.02-2.31-.55-2.72-.83,2.14-.22,3.99-1.51,4.81-3.4.95-2.15.16-4.15,0-4.53"/>
      <path class="cls-5" d="M65.21,26.51c1.77-.29,6.17-.76,10.48,1.7,7.2,4.1,7.88,12.75,7.93,13.6.15,2.48-.31,4.67-1.13,8.5-.63,2.97-1.39,5.39-1.98,7.08.58-1.56,1.53-3.92,2.97-6.66,1.84-3.5,2.64-4.11,3.4-5.66,2.65-5.4,1.11-14.33-4.67-19.4-3.21-2.82-6.87-3.68-9.06-3.97-2.64,1.6-5.29,3.21-7.93,4.81Z"/>
      <path class="cls-5" d="M88.01,39.68c3.53,4.23,8.96,6.12,13.88,4.81,5.07-1.35,7.53-5.54,8.03-6.43-.67.65-2.36,2.11-4.91,2.47-2.41.34-4.29-.48-5.1-.85-1.84-.84-3.94-2.43-8.78-11.33-3.06-5.62-3.1-6.61-5.1-8.5-1.26-1.19-4.18-3.87-8.5-3.97-2.58-.06-4.59.84-5.66,1.42.42,1.46.85,2.93,1.27,4.39"/>
    </g>
  </g>
</svg>