<?xml version="1.0" encoding="UTF-8"?>
<svg id="Layer_2" xmlns="http://www.w3.org/2000/svg" viewBox="0 0 115.45 91.84">
  <defs>
    <style>
      .cls-1 {
        fill: none;
        stroke: #fff;
        stroke-miterlimit: 10;
        stroke-width: .33px;
      }
    </style>
  </defs>
  <g id="Layer_1-2" data-name="Layer_1">
    <g>
      <path class="cls-1" d="M82.55,24.88l27.1-19.31c1.34-.95,3.21-.16,3.45,1.47l2.17,31.97-18.35,9.51"/>
      <path class="cls-1" d="M87.06,39.31c1.75-4.45,4.16-9.56,7.5-14.93,5.25-8.44,11.05-14.72,15.85-19.15"/>
      <path class="cls-1" d="M84.43,37.01c.23-2.42.35-7.08-1.82-12.23-3.39-8.07-10-11.72-11.82-12.7-12.17-6.49-24.89-.71-27.04.32-3.75,1.79-14.43,6.89-16.29,18.32-1.38,8.49,2.82,18.13,10.32,23.82-1.65,6.25-3.51,11.73-5.16,17.98,22.15-7.42,44.31-14.83,66.46-22.25-4.89-4.42-9.77-8.84-14.66-13.26Z"/>
      <path class="cls-1" d="M59.5,38.93c.32,2.96,2.63,6.05,5.51,6.71,4.83,1.11,9.96-4.94,11.63-10.19.89-2.8,1.78-8.47-.71-10.02-4.04-2.5-17.29,5.59-16.42,13.51Z"/>
      <path class="cls-1" d="M37.71,43.18c1.1,3.81,5.38,7.3,9.45,6.14,4.1-1.17,5.57-6.36,4.89-10.04-.66-3.62-3.69-7.43-7.21-7.42-4.47.02-8.61,6.2-7.14,11.32Z"/>
      <path class="cls-1" d="M72.27,17.54c-2.87,5.24-5.84,11.5-8.48,18.71-3.15,8.63-5.05,16.56-6.23,23.29"/>
      <path class="cls-1" d="M76.42,50.07c-2.78-3.14-5.87-7.13-8.79-12.01-3.81-6.37-6.17-12.35-7.68-17.17"/>
      <path class="cls-1" d="M47.05,20.88c-2.01,5.01-4.03,11.23-5.35,18.53-1.98,10.93-1.7,20.4-.93,27.38"/>
      <path class="cls-1" d="M55.2,55.17c-1.13-1.16-2.86-3-4.81-5.39-4.19-5.13-5.25-7.68-8.76-10.68-1.32-1.13-3.3-2.58-6.08-3.87"/>
      <path class="cls-1" d="M78.2,2.37c-1.65,1.68-3.74,4.21-5.45,7.68-1.04,2.12-1.7,4.1-2.12,5.77"/>
      <line class="cls-1" x1="62.82" y1=".02" x2="64.38" y2="16.84"/>
      <line class="cls-1" x1="48.71" y1="4.18" x2="49.55" y2="18.36"/>
      <line class="cls-1" x1="39.42" y1="5.71" x2="45.37" y2="18.99"/>
      <line class="cls-1" x1="24.44" y1="17.14" x2="36.04" y2="28.39"/>
      <path class="cls-1" d="M30.18,45.29c-1.52.5-3.81,1.04-6.56.87-3.37-.21-5.26-1.35-9.82-2.86-1.91-.63-4.66-1.45-8.12-2.15-.02,10.9-.04,21.79-.06,32.69,0,3.78,3.69,6.45,7.28,5.25,6.58-2.19,13.15-4.39,19.73-6.58"/>
      <path class="cls-1" d="M37.06,57.42c-1.02.16-2.54.37-4.38.52-7.19.57-11.98-.44-15.62-.78-3.99-.38-9.71-.25-17.01,2.11"/>
      <path class="cls-1" d="M95.23,51.57l2.2,9.88c-2.89.42-7.22,1.15-12.42,2.37-10.22,2.4-16.23,4.96-25.43,8.08-5.45,1.85-13.31,4.33-23.11,6.78-.62-2.27-1.24-4.55-1.85-6.82"/>
      <line class="cls-1" x1="86.98" y1="54.4" x2="89.27" y2="62.82"/>
      <line class="cls-1" x1="81.14" y1="56.33" x2="83.3" y2="64.28"/>
      <line class="cls-1" x1="72.37" y1="59.21" x2="74.41" y2="66.69"/>
      <line class="cls-1" x1="62.41" y1="62.59" x2="64.48" y2="70.23"/>
      <line class="cls-1" x1="53.02" y1="65.64" x2="55.01" y2="72.97"/>
      <line class="cls-1" x1="42.74" y1="69.1" x2="44.74" y2="76.43"/>
      <line class="cls-1" x1="37.3" y1="71.25" x2="39.12" y2="77.96"/>
      <path class="cls-1" d="M97.85,66.69l-.2,13.45-57.66,11.51-2.84-10.47c1.83-.36,4.39-.88,7.45-1.53,2.28-.48,9.69-2.06,14.98-3.4,13.1-3.32,14.48-5.51,24.7-7.72,5.71-1.23,10.49-1.67,13.57-1.84Z"/>
      <line class="cls-1" x1="83.93" y1="68.46" x2="87.66" y2="82.18"/>
      <line class="cls-1" x1="73.96" y1="71.84" x2="77.31" y2="84.16"/>
      <line class="cls-1" x1="65.67" y1="74.59" x2="68.72" y2="85.82"/>
      <line class="cls-1" x1="55.8" y1="77.11" x2="58.73" y2="87.87"/>
      <line class="cls-1" x1="46.99" y1="79.17" x2="49.83" y2="89.62"/>
      <line class="cls-1" x1="40.31" y1="80.48" x2="43.15" y2="90.93"/>
    </g>
  </g>
</svg>