<?xml version="1.0" encoding="UTF-8"?>
<svg id="Layer_2" xmlns="http://www.w3.org/2000/svg" xmlns:xlink="http://www.w3.org/1999/xlink" viewBox="0 0 26.5 20.32">
  <defs>
    <style>
      .cls-1 {
        fill: #fff;
      }

      .cls-2 {
        fill: none;
        stroke: #00a6fb;
        stroke-linecap: round;
        stroke-linejoin: round;
        stroke-width: .17px;
      }

      .cls-3 {
        clip-path: url(#clippath);
      }
    </style>
    <clipPath id="clippath">
      <path class="cls-1" d="M26.4,9.1l-3.76-.94L12.81,1.66c-.69-.46-3.26-2.04-6.67-1.58-1.46.2-2.71.56-3.61.95-.74.32-1.24,1.03-1.27,1.84-.04.93.03,2.15.32,3.35.52,2.18,1.7,3.6,2.28,4.21,2.93,2.17,5.86,4.33,8.79,6.5l1.22,2.36c.15.29.57.3.73.02l.39-.66.98.73,2.63-.7,1.42,1.55c.16.18.46.05.44-.19-.03-.86-.07-1.72-.1-2.58.46-.49.94-1.08,1.4-1.76,1.14-1.67,1.76-3.31,2.11-4.56.63-.42,1.18-.7,1.58-.88.51-.23.99-.39,1.05-.75.03-.16-.04-.31-.1-.41Z"/>
    </clipPath>
  </defs>
  <g id="Layer_1-2" data-name="Layer_1">
    <g>
      <path class="cls-1" d="M26.4,9.1l-3.76-.94L12.81,1.66c-.69-.46-3.26-2.04-6.67-1.58-1.46.2-2.71.56-3.61.95-.74.32-1.24,1.03-1.27,1.84-.04.93.03,2.15.32,3.35.52,2.18,1.7,3.6,2.28,4.21,2.93,2.17,5.86,4.33,8.79,6.5l1.22,2.36c.15.29.57.3.73.02l.39-.66.98.73,2.63-.7,1.42,1.55c.16.18.46.05.44-.19-.03-.86-.07-1.72-.1-2.58.46-.49.94-1.08,1.4-1.76,1.14-1.67,1.76-3.31,2.11-4.56.63-.42,1.18-.7,1.58-.88.51-.23.99-.39,1.05-.75.03-.16-.04-.31-.1-.41Z"/>
      <g class="cls-3">
        <path class="cls-2" d="M6.67,13.78c.74-.01,1.96-.13,3.25-.79,1.47-.75,2.27-1.81,3.16-2.98.81-1.07,1.53-2.03,1.93-3.51.47-1.76.23-3.3,0-4.21"/>
        <path class="cls-2" d="M1.25,7.38c.25-.59.51-1.18.76-1.77,2.4-.7,4.8-1.4,7.2-2.11-1.12-.27-2.55-.5-4.21-.53-1.45-.02-2.72.12-3.75.3-.39.54-.78,1.09-1.17,1.63"/>
        <path class="cls-2" d="M4.12,1.27l3.16.35c-.11.1-.71.59-1.58.53-.96-.07-1.5-.77-1.58-.88Z"/>
        <path class="cls-2" d="M5.7,2.28c.42.02.71-.21.78-.26l-1.64-.18c.04.06.34.43.86.45Z"/>
        <line class="cls-2" x1=".78" y1="3.33" x2="2.19" y2="5.44"/>
        <line class="cls-2" x1="2.72" y1="3.16" x2="2.19" y2="5.44"/>
        <line class="cls-2" x1="4.65" y1="4.74" x2="2.72" y2="3.16"/>
        <line class="cls-2" x1="5.35" y1="2.98" x2="4.65" y2="4.74"/>
        <line class="cls-2" x1="6.58" y1="4.21" x2="5.35" y2="2.98"/>
        <line class="cls-2" x1="7.46" y1="3.16" x2="6.58" y2="4.21"/>
        <line class="cls-2" x1="12.19" y1="16.67" x2="15.18" y2="18.95"/>
        <path class="cls-2" d="M17.11,17.2c-.51.33-1.28.64-1.93.7-.66.06-1.22-.06-1.58-.18"/>
        <path class="cls-2" d="M22.02,9.3c-.66,2.48-1.71,4.05-2.46,5.09-.49.68-1.14,1.49-1.76,2.11"/>
        <line class="cls-2" x1="24.04" y1="11.14" x2="20.53" y2="7.98"/>
        <line class="cls-2" x1="20.44" y1="7.9" x2="24.31" y2="8.25"/>
        <line class="cls-2" x1="16.23" y1="16.15" x2="19.04" y2="19.48"/>
        <line class="cls-2" x1="16.23" y1="16.15" x2="21.5" y2="17.73"/>
        <path class="cls-2" d="M15,18.95c.33.03.91.05,1.58-.18.58-.2.99-.5,1.23-.7"/>
        <path class="cls-2" d="M19.04,17.02c.7-.58,1.63-1.49,2.46-2.81.95-1.5,1.37-2.92,1.58-3.86"/>
      </g>
    </g>
  </g>
</svg>