<?xml version="1.0" encoding="UTF-8"?>
<svg id="Layer_2" xmlns="http://www.w3.org/2000/svg" xmlns:xlink="http://www.w3.org/1999/xlink" viewBox="0 0 93.88 160">
  <defs>
    <style>
      .cls-1, .cls-2 {
        stroke-linejoin: round;
      }

      .cls-1, .cls-2, .cls-3, .cls-4 {
        fill: none;
        stroke: #00a6fb;
        stroke-width: .17px;
      }

      .cls-5 {
        fill: #fff;
      }

      .cls-2, .cls-4 {
        stroke-linecap: round;
      }

      .cls-6 {
        fill: #fde587;
      }

      .cls-7 {
        fill: #facb0f;
      }

      .cls-3, .cls-4 {
        stroke-miterlimit: 10;
      }

      .cls-8 {
        fill: #fcdc5f;
      }

      .cls-9 {
        clip-path: url(#clippath);
      }
    </style>
    <clipPath id="clippath">
      <path class="cls-5" d="M86.12,141.66c-.83-3.47-1.65-6.94-2.48-10.41-.32-1.08-.32-1.74,0-1.98.44-.34,1.5.14,3.17,1.41-.08.27-.15.57-.2.9-.2,1.41.08,2.59.33,3.31l-.33.33c.11.33.22.66.33.99.18.02.4.03.66,0,.44-.06.78-.21.99-.33-.07-.22-.18-.57-.33-.99-.6-1.72-.99-2.42-.66-2.98.05-.09.15-.21.33-.33-.06-.58-.51-4.19-3.64-6.28-1.55-1.03-3.11-1.27-3.97-1.32-.4-2.29-1.19-5.38-2.81-8.76-1.69-3.53-3.7-6.16-5.29-7.93l-3.47-10.41c.46.2,1.04.51,1.65.99.59.46,1.02.94,1.32,1.32.1-.13.25-.35.33-.66.12-.44.05-.82,0-.99,3.86,1.76,7.71,3.53,11.57,5.29-.42-.54-1.09-1.36-1.98-2.31-1.63-1.74-2.44-2.27-3.64-3.64-.62-.71-1.47-1.79-2.31-3.31h.66c-.77-1.17-1.98-2.63-3.8-3.8-1.33-.86-2.57-1.29-3.14-1.49-.64-.22-1.21-.37-1.63-.46-.53-.12-.84-.34-1.02-.53-.29-.3-.31-.56-.66-.99-.23-.29-.47-.48-.64-.6-.12-.35-.23-.7-.35-1.05-.66-1.87-1.32-3.75-1.98-5.62.19-.03.47-.11.66-.33.47-.55,0-1.54-.33-2.98-.14-.61-.3-1.5-.33-2.64.13-.95.2-2.2,0-3.64-.12-.82-.3-1.54-.5-2.15.09-1.21.05-2.9-.5-4.79-.24-.82-.53-1.54-.83-2.15.35-1.47.45-2.5.4-3.24.22.21.54.56.76,1.09.33.81.22,1.53.17,1.82h.99c1.32,3.42,2.64,6.83,3.97,10.25-.02.41.04.8.17,1.16.2.56.46.76.66,1.32.13.36.18.75.17,1.16.2.06.54.19.83.5.71.78.35,1.92.33,1.98,0,.23.02.76.33,1.32.33.58.79.88.99.99-.09-.04-.98-.45-1.65,0-.1.07-.22.17-.33.33.57.06,1.02.21,1.32.33.56.22,1.19.48,1.32.99.07.28-.13.45,0,.66.1.17.28.18.66.33.3.12.52.25.66.33l1.65,1.65.66-.66c.28-.09.55-.17.83-.26v-5.53l-4.3-4.61v-2c-.17-.28-.33-.55-.5-.83-.53-1.92-1.01-4.14-1.32-6.61-.19-1.53-.29-2.96-.33-4.3.11-.22.22-.44.33-.66-.19-.54-.28-1-.33-1.32-.1-.68-.05-1.08-.33-1.32-.23-.2-.57-.2-.83-.17l-.99-2.64-1.65-5.62.33-.33-.33-2.31h-.66c-.05-.51-.03-.33-.08-.84.25-.05.5-.1.74-.15l-.42-1.98h-.57c-.21-.77-.47-1.98-.5-3.47-.05-2.48.59-3.12.33-4.96-.09-.61-.47-3.29-2.31-4.3-1.35-.74-2.31.06-4.96-.33-1.47-.21-2.61-.67-3.31-.99.02-.87.11-1.91.33-2.98.1-.46.23-.96.66-1.32.24-.19.49-.29.66-.33.62-.62,1.66-1.83,2.31-3.64.76-2.08.62-3.89.5-4.79l.33-1.65c-.05-.98-.18-2.16-.5-3.47-.28-1.16-.64-2.15-.99-2.98l-1.32-.99c-.09-.23-.27-.63-.66-.99-.65-.6-1.42-.65-1.65-.66-.15-1.28-.85-2.21-1.65-2.31-.17-.02-.46-.02-.83.17-.17-.29-.7-1.09-1.49-1.16-.5-.04-.99.23-1.98,1.32-.68.75-1.6,1.89-2.48,3.47-.79.8-1.92,2.18-2.48,4.13-.36,1.25-.35,2.25-.33,3.31.04,1.98.17,4.72.5,8.1-.28.46-.55.95-.83,1.49-.32.64-.6,1.25-.83,1.82-.33.49-.67,1.04-.99,1.65-.63,1.2-1.05,2.33-1.32,3.31-.52.4-1.53,1.3-2.15,2.81-.41,1-.49,1.89-.5,2.48-.48.72-1.07,1.78-1.49,3.14-.51,1.69-.55,3.16-.5,4.13-.95,1.53-1.9,3.23-2.81,5.12-.49,1.02-.93,2.01-1.32,2.98-1.87-1.54-3.75-3.09-5.62-4.63.02-.19.02-.41,0-.66-.03-.33-.1-.61-.17-.83l-2.64-1.65-1.32-5.95c-.99-2.2-1.71-3.25-2.15-3.14-.27.06-.43.56-.5,1.49l-1.65-2.31c-1.79-.53-2.72-.7-2.81-.5-.08.18.49.63,1.7,1.37.19.19.34.4.47.63.43.82.87,1.64,1.3,2.46-.57-.75-1.08-1.36-1.49-1.82-1.01-1.14-1.32-1.32-1.65-1.32-.64,0-1.13.68-1.32.99-.13.22-.43.67-.99.99-.39.22-.76.3-.99.33-.03.16.37.21.66.66.2.31.14.49.33.66.22.2.55.2.83.17.11.33.22.66.33.99.37.74.85,1.59,1.49,2.48.73,1.03,1.49,1.85,2.16,2.49.49.49,1.07.55,1.15,1.48-.36.47-1.32,1.32-1.32,1.98,0,.23.63.14,1.49-.17l.66.33,1.32.99c.7.28,1.75.69,2.45.97.07,0,.13.01.2.02,1.27,1.82,3.32,4.14,6.45,5.79.62.33,1.23.6,1.82.83-.28.51-.58,1.11-.83,1.82-.45,1.27-.61,2.42-.66,3.31-.47.45-1.15,1.2-1.65,2.31-.7,1.53-.71,2.93-.66,3.64-.5.58-1.14,1.46-1.65,2.64-.6,1.39-.78,2.64-.83,3.47-.38.39-.79.89-1.16,1.49-1.11,1.8-1.3,3.6-1.32,4.63-.46.81-1.02,2.05-1.32,3.64-.23,1.24-.23,2.33-.17,3.14-.17.82-.32,2.03-.17,3.47.15,1.33.51,2.4.83,3.14-.07.57-.1,1.45.17,2.48.36,1.39,1.07,2.33,1.49,2.81l2.31,4.3-1.65,5.62c-1.17,1.4-2.82,3.72-3.97,6.94-1.22,3.41-1.37,6.4-1.32,8.26-.85.23-2.29.76-3.64,1.98-1.4,1.27-1.99,2.65-2.48,3.8-.46,1.08-1.05,2.83-1.16,5.12.25-.71.4-.84.5-.83.27.03.33,1.24.33,1.32.02.57.06,1.29-.33,1.98-.13.23-.25.36-.33.66-.11.39-.06.75,0,.99.61.17,1.21.33,1.82.5-.09-.77-.14-1.4-.17-1.82-.1-1.5-.04-2.21-.33-3.31-.11-.43-.24-.78-.33-.99.08-.21.19-.43.33-.66.6-.96,1.48-1.44,1.98-1.65h.99c.05,3.48-.25,7.65-1.32,12.23-.39,1.66-.84,3.2-1.32,4.63-.01.85-.1,1.86-.33,2.98-.14.67-.31,1.28-.5,1.82-.45,1.46-1.1,2.36-1.49,2.81-.22.26-.52.61-.99.99-.48.39-.79.53-1.32.99-.3.26-.52.5-.66.66-.23.69-.46,1.37-.69,2.06-.1.15-.28.47-.31.92-.04.58.21,1.01.31,1.16,1.01.11,2.13.17,3.33.17,2.28-.02,4.29-.3,5.95-.66.18-.12.44-.33.66-.66.17-.25.27-.48.33-.66.42-.12.86-.23,1.32-.33.28-.06.56-.12.83-.17-.22-3.4-.39-5.9-.5-7.11-.05-.54-.1-1.01,0-1.65.12-.77.34-1.05.33-1.65-.01-.6-.25-1.11-.5-1.49.47-2.54,1.06-5.25,1.82-8.1.67-2.53,1.4-4.9,2.15-7.11l1.98,3.64c.51-1.59,1.14-4.31.66-7.6-.24-1.67-.7-3.06-1.16-4.13,1.38-4.02,2.75-8.04,4.13-12.07.61-1.6,1.21-3.2,1.82-4.79.03,1.45.25,3.74,1.32,6.28,1.42,3.36,3.58,5.44,4.79,6.45.06-.5.11-.99.17-1.49,1.49,1.18,3.25,2.43,5.29,3.64,2.75,1.63,5.35,2.79,7.6,3.64-.95-.94-1.84-1.83-2.64-2.64-2.76-2.8-3.63-3.79-4.3-5.29-.36-.8-.55-1.51-.66-1.98.16.04.54.13.99,0,.44-.12.71-.38.83-.5-.53-.38-1.31-.97-2.15-1.82-2.03-2.06-2.36-3.52-3.97-5.29-.75-.82-1.93-1.89-3.8-2.81-.07-.25-.35-1.09-1.16-1.49-.17-.08-.34-.14-.5-.17,2.2-4.74,4.41-9.48,6.61-14.21.19-.32.49-.83.83-1.49,1.22-2.41,1.43-3.92,2.31-6.28.32-.86.84-2.13,1.65-3.64.09-.25.36-.86.99-1.32.45-.33.9-.45,1.16-.5.24.3.62.73,1.16,1.16.72.58.94.55,1.32.99.5.58.35.93.83,1.82.35.66.61.8,1.16,1.49.42.53.98,1.34,1.49,2.48.75,1.56,1.57,3.16,2.48,4.79.44.79.88,1.56,1.32,2.31.28.17.55.33.83.5,2.68,5.12,5.7,10.37,9.09,15.7.82,1.29,1.65,2.56,2.48,3.8.66,2.02,1.47,4.18,2.48,6.45,1.62,3.65,3.41,6.79,5.12,9.42-.22.07-.54.21-.83.5-.48.47-.59,1.07-.66,1.65-.23,1.87,0,3.31,0,3.31.15.93.46,2.27,1.16,3.8.55-.99,1.1-1.98,1.65-2.98,1.29,2.28,2.59,4.87,3.8,7.77.85,2.02,1.55,3.96,2.15,5.79-.16.62-.3,1.48-.17,2.48.04.3.1.58.17.83.17,2.92.33,5.84.5,8.76.06.09.17.21.33.33.29.21.49.2.66.33.16.12.34.37.33.99,1.3.35,3.11.7,5.29.66,1.87-.03,3.45-.34,4.63-.66M28.43,73.39c-.63,1.69-1.17,3.32-1.65,4.89-.33.36-.66.71-.99,1.07-.22.34-.51.91-.66,1.65-.17.85-.08,1.23,0,1.65l.39.17,2.92-.83-2.64,14.21-1.98-3.64-.66-4.63c.22-2.09.44-4.19.66-6.28.49-1.14.96-2.46,1.32-3.97.14-.57.24-1.12.33-1.65.62-.54,1.57-1.51,2.31-2.98.67-1.32.9-2.19.99-2.98l.66-.66c.44-.55.88-1.1,1.32-1.65-.79,1.74-1.57,3.61-2.31,5.62ZM39.83,42.48c.25-.3.4-.6.5-.83l.33,1.32h-1.33c.15-.12.33-.28.51-.5ZM41.32,55.54c-.87,1.16-1.87,1.81-2.48,2.15l-.33-.33-2.31,1.65c-.04.06-.17.24-.17.5,0,.07,0,.29.17.5-.44.66-.88,1.32-1.32,1.98-.16-.14-.44-.35-.83-.5-.33-.12-.62-.16-.83-.17l-.33.33c-.03-.48,0-1.11.17-1.82.09-.38.21-.71.33-.99.31-.32.67-.76.99-1.32.55-.97.75-1.88.83-2.48v-1.32c.24-.29.54-.67.83-1.16.5-.83.74-1.54.83-1.82.41-1.31.41-2.5.33-3.31l1.32-2.64.66,3.31,1.16,2.48s.17.07.33-.05c.17-.12.5-2.43.5-2.43l.99,1.98.17-.17.17-1.32.33,3.47c-.12.71-.45,2.09-1.49,3.47ZM46.94,27.42l-2.98,1.35-.99.33.33-.66c.18-.52.4-1.07.66-1.65.22-.48.44-.92.66-1.32.11-.55.22-1.1.33-1.65.3-.25.65-.57.99-.99.49-.61.8-1.2.99-1.65.03.41.11.95.33,1.55.29.8.69,1.38.99,1.75l-1.32,2.95ZM58.16,62.98c-.06-.52-.19-1.34-.47-2.31-.26-.88-.5-1.39-.99-2.64-.24-.61-.59-1.51-.99-2.64-.05-.45-.07-1.01,0-1.65.11-.99.57-1.94.83-2.48.19,1.28.33,2.89.83,4.46.31.97.65,1.85.99,2.64-.11.61-.2,1.54,0,2.64.15.84.42,1.51.66,1.98h-.85ZM59.33,70.72c-.07-.84.19-1.49.34-1.79.12.53.23,1.08.33,1.65.14.81.25,1.58.33,2.31-.22-.22-.9-.99-1-2.18ZM60.5,54.55c-.1-.51.12-.99.33-1.32-.39-1.38-.77-2.75-1.16-4.13l.33-2.64h.66l1.98,10.58h-.93c-.06-.79-.29-1.24-.56-1.49-.14-.13-.56-.45-.66-.99Z"/>
    </clipPath>
  </defs>
  <g id="Layer_1-2" data-name="Layer_1">
    <g>
      <g>
        <path class="cls-5" d="M86.12,141.66c-.83-3.47-1.65-6.94-2.48-10.41-.32-1.08-.32-1.74,0-1.98.44-.34,1.5.14,3.17,1.41-.08.27-.15.57-.2.9-.2,1.41.08,2.59.33,3.31l-.33.33c.11.33.22.66.33.99.18.02.4.03.66,0,.44-.06.78-.21.99-.33-.07-.22-.18-.57-.33-.99-.6-1.72-.99-2.42-.66-2.98.05-.09.15-.21.33-.33-.06-.58-.51-4.19-3.64-6.28-1.55-1.03-3.11-1.27-3.97-1.32-.4-2.29-1.19-5.38-2.81-8.76-1.69-3.53-3.7-6.16-5.29-7.93l-3.47-10.41c.46.2,1.04.51,1.65.99.59.46,1.02.94,1.32,1.32.1-.13.25-.35.33-.66.12-.44.05-.82,0-.99,3.86,1.76,7.71,3.53,11.57,5.29-.42-.54-1.09-1.36-1.98-2.31-1.63-1.74-2.44-2.27-3.64-3.64-.62-.71-1.47-1.79-2.31-3.31h.66c-.77-1.17-1.98-2.63-3.8-3.8-1.33-.86-2.57-1.29-3.14-1.49-.64-.22-1.21-.37-1.63-.46-.53-.12-.84-.34-1.02-.53-.29-.3-.31-.56-.66-.99-.23-.29-.47-.48-.64-.6-.12-.35-.23-.7-.35-1.05-.66-1.87-1.32-3.75-1.98-5.62.19-.03.47-.11.66-.33.47-.55,0-1.54-.33-2.98-.14-.61-.3-1.5-.33-2.64.13-.95.2-2.2,0-3.64-.12-.82-.3-1.54-.5-2.15.09-1.21.05-2.9-.5-4.79-.24-.82-.53-1.54-.83-2.15.35-1.47.45-2.5.4-3.24.22.21.54.56.76,1.09.33.81.22,1.53.17,1.82h.99c1.32,3.42,2.64,6.83,3.97,10.25-.02.41.04.8.17,1.16.2.56.46.76.66,1.32.13.36.18.75.17,1.16.2.06.54.19.83.5.71.78.35,1.92.33,1.98,0,.23.02.76.33,1.32.33.58.79.88.99.99-.09-.04-.98-.45-1.65,0-.1.07-.22.17-.33.33.57.06,1.02.21,1.32.33.56.22,1.19.48,1.32.99.07.28-.13.45,0,.66.1.17.28.18.66.33.3.12.52.25.66.33l1.65,1.65.66-.66c.28-.09.55-.17.83-.26v-5.53l-4.3-4.61v-2c-.17-.28-.33-.55-.5-.83-.53-1.92-1.01-4.14-1.32-6.61-.19-1.53-.29-2.96-.33-4.3.11-.22.22-.44.33-.66-.19-.54-.28-1-.33-1.32-.1-.68-.05-1.08-.33-1.32-.23-.2-.57-.2-.83-.17l-.99-2.64-1.65-5.62.33-.33-.33-2.31h-.66c-.05-.51-.03-.33-.08-.84.25-.05.5-.1.74-.15l-.42-1.98h-.57c-.21-.77-.47-1.98-.5-3.47-.05-2.48.59-3.12.33-4.96-.09-.61-.47-3.29-2.31-4.3-1.35-.74-2.31.06-4.96-.33-1.47-.21-2.61-.67-3.31-.99.02-.87.11-1.91.33-2.98.1-.46.23-.96.66-1.32.24-.19.49-.29.66-.33.62-.62,1.66-1.83,2.31-3.64.76-2.08.62-3.89.5-4.79l.33-1.65c-.05-.98-.18-2.16-.5-3.47-.28-1.16-.64-2.15-.99-2.98l-1.32-.99c-.09-.23-.27-.63-.66-.99-.65-.6-1.42-.65-1.65-.66-.15-1.28-.85-2.21-1.65-2.31-.17-.02-.46-.02-.83.17-.17-.29-.7-1.09-1.49-1.16-.5-.04-.99.23-1.98,1.32-.68.75-1.6,1.89-2.48,3.47-.79.8-1.92,2.18-2.48,4.13-.36,1.25-.35,2.25-.33,3.31.04,1.98.17,4.72.5,8.1-.28.46-.55.95-.83,1.49-.32.64-.6,1.25-.83,1.82-.33.49-.67,1.04-.99,1.65-.63,1.2-1.05,2.33-1.32,3.31-.52.4-1.53,1.3-2.15,2.81-.41,1-.49,1.89-.5,2.48-.48.72-1.07,1.78-1.49,3.14-.51,1.69-.55,3.16-.5,4.13-.95,1.53-1.9,3.23-2.81,5.12-.49,1.02-.93,2.01-1.32,2.98-1.87-1.54-3.75-3.09-5.62-4.63.02-.19.02-.41,0-.66-.03-.33-.1-.61-.17-.83l-2.64-1.65-1.32-5.95c-.99-2.2-1.71-3.25-2.15-3.14-.27.06-.43.56-.5,1.49l-1.65-2.31c-1.79-.53-2.72-.7-2.81-.5-.08.18.49.63,1.7,1.37.19.19.34.4.47.63.43.82.87,1.64,1.3,2.46-.57-.75-1.08-1.36-1.49-1.82-1.01-1.14-1.32-1.32-1.65-1.32-.64,0-1.13.68-1.32.99-.13.22-.43.67-.99.99-.39.22-.76.3-.99.33-.03.16.37.21.66.66.2.31.14.49.33.66.22.2.55.2.83.17.11.33.22.66.33.99.37.74.85,1.59,1.49,2.48.73,1.03,1.49,1.85,2.16,2.49.49.49,1.07.55,1.15,1.48-.36.47-1.32,1.32-1.32,1.98,0,.23.63.14,1.49-.17l.66.33,1.32.99c.7.28,1.75.69,2.45.97.07,0,.13.01.2.02,1.27,1.82,3.32,4.14,6.45,5.79.62.33,1.23.6,1.82.83-.28.51-.58,1.11-.83,1.82-.45,1.27-.61,2.42-.66,3.31-.47.45-1.15,1.2-1.65,2.31-.7,1.53-.71,2.93-.66,3.64-.5.58-1.14,1.46-1.65,2.64-.6,1.39-.78,2.64-.83,3.47-.38.39-.79.89-1.16,1.49-1.11,1.8-1.3,3.6-1.32,4.63-.46.81-1.02,2.05-1.32,3.64-.23,1.24-.23,2.33-.17,3.14-.17.82-.32,2.03-.17,3.47.15,1.33.51,2.4.83,3.14-.07.57-.1,1.45.17,2.48.36,1.39,1.07,2.33,1.49,2.81l2.31,4.3-1.65,5.62c-1.17,1.4-2.82,3.72-3.97,6.94-1.22,3.41-1.37,6.4-1.32,8.26-.85.23-2.29.76-3.64,1.98-1.4,1.27-1.99,2.65-2.48,3.8-.46,1.08-1.05,2.83-1.16,5.12.25-.71.4-.84.5-.83.27.03.33,1.24.33,1.32.02.57.06,1.29-.33,1.98-.13.23-.25.36-.33.66-.11.39-.06.75,0,.99.61.17,1.21.33,1.82.5-.09-.77-.14-1.4-.17-1.82-.1-1.5-.04-2.21-.33-3.31-.11-.43-.24-.78-.33-.99.08-.21.19-.43.33-.66.6-.96,1.48-1.44,1.98-1.65h.99c.05,3.48-.25,7.65-1.32,12.23-.39,1.66-.84,3.2-1.32,4.63-.01.85-.1,1.86-.33,2.98-.14.67-.31,1.28-.5,1.82-.45,1.46-1.1,2.36-1.49,2.81-.22.26-.52.61-.99.99-.48.39-.79.53-1.32.99-.3.26-.52.5-.66.66-.23.69-.46,1.37-.69,2.06-.1.15-.28.47-.31.92-.04.58.21,1.01.31,1.16,1.01.11,2.13.17,3.33.17,2.28-.02,4.29-.3,5.95-.66.18-.12.44-.33.66-.66.17-.25.27-.48.33-.66.42-.12.86-.23,1.32-.33.28-.06.56-.12.83-.17-.22-3.4-.39-5.9-.5-7.11-.05-.54-.1-1.01,0-1.65.12-.77.34-1.05.33-1.65-.01-.6-.25-1.11-.5-1.49.47-2.54,1.06-5.25,1.82-8.1.67-2.53,1.4-4.9,2.15-7.11l1.98,3.64c.51-1.59,1.14-4.31.66-7.6-.24-1.67-.7-3.06-1.16-4.13,1.38-4.02,2.75-8.04,4.13-12.07.61-1.6,1.21-3.2,1.82-4.79.03,1.45.25,3.74,1.32,6.28,1.42,3.36,3.58,5.44,4.79,6.45.06-.5.11-.99.17-1.49,1.49,1.18,3.25,2.43,5.29,3.64,2.75,1.63,5.35,2.79,7.6,3.64-.95-.94-1.84-1.83-2.64-2.64-2.76-2.8-3.63-3.79-4.3-5.29-.36-.8-.55-1.51-.66-1.98.16.04.54.13.99,0,.44-.12.71-.38.83-.5-.53-.38-1.31-.97-2.15-1.82-2.03-2.06-2.36-3.52-3.97-5.29-.75-.82-1.93-1.89-3.8-2.81-.07-.25-.35-1.09-1.16-1.49-.17-.08-.34-.14-.5-.17,2.2-4.74,4.41-9.48,6.61-14.21.19-.32.49-.83.83-1.49,1.22-2.41,1.43-3.92,2.31-6.28.32-.86.84-2.13,1.65-3.64.09-.25.36-.86.99-1.32.45-.33.9-.45,1.16-.5.24.3.62.73,1.16,1.16.72.58.94.55,1.32.99.5.58.35.93.83,1.82.35.66.61.8,1.16,1.49.42.53.98,1.34,1.49,2.48.75,1.56,1.57,3.16,2.48,4.79.44.79.88,1.56,1.32,2.31.28.17.55.33.83.5,2.68,5.12,5.7,10.37,9.09,15.7.82,1.29,1.65,2.56,2.48,3.8.66,2.02,1.47,4.18,2.48,6.45,1.62,3.65,3.41,6.79,5.12,9.42-.22.07-.54.21-.83.5-.48.47-.59,1.07-.66,1.65-.23,1.87,0,3.31,0,3.31.15.93.46,2.27,1.16,3.8.55-.99,1.1-1.98,1.65-2.98,1.29,2.28,2.59,4.87,3.8,7.77.85,2.02,1.55,3.96,2.15,5.79-.16.62-.3,1.48-.17,2.48.04.3.1.58.17.83.17,2.92.33,5.84.5,8.76.06.09.17.21.33.33.29.21.49.2.66.33.16.12.34.37.33.99,1.3.35,3.11.7,5.29.66,1.87-.03,3.45-.34,4.63-.66M28.43,73.39c-.63,1.69-1.17,3.32-1.65,4.89-.33.36-.66.71-.99,1.07-.22.34-.51.91-.66,1.65-.17.85-.08,1.23,0,1.65l.39.17,2.92-.83-2.64,14.21-1.98-3.64-.66-4.63c.22-2.09.44-4.19.66-6.28.49-1.14.96-2.46,1.32-3.97.14-.57.24-1.12.33-1.65.62-.54,1.57-1.51,2.31-2.98.67-1.32.9-2.19.99-2.98l.66-.66c.44-.55.88-1.1,1.32-1.65-.79,1.74-1.57,3.61-2.31,5.62ZM39.83,42.48c.25-.3.4-.6.5-.83l.33,1.32h-1.33c.15-.12.33-.28.51-.5ZM41.32,55.54c-.87,1.16-1.87,1.81-2.48,2.15l-.33-.33-2.31,1.65c-.04.06-.17.24-.17.5,0,.07,0,.29.17.5-.44.66-.88,1.32-1.32,1.98-.16-.14-.44-.35-.83-.5-.33-.12-.62-.16-.83-.17l-.33.33c-.03-.48,0-1.11.17-1.82.09-.38.21-.71.33-.99.31-.32.67-.76.99-1.32.55-.97.75-1.88.83-2.48v-1.32c.24-.29.54-.67.83-1.16.5-.83.74-1.54.83-1.82.41-1.31.41-2.5.33-3.31l1.32-2.64.66,3.31,1.16,2.48s.17.07.33-.05c.17-.12.5-2.43.5-2.43l.99,1.98.17-.17.17-1.32.33,3.47c-.12.71-.45,2.09-1.49,3.47ZM46.94,27.42l-2.98,1.35-.99.33.33-.66c.18-.52.4-1.07.66-1.65.22-.48.44-.92.66-1.32.11-.55.22-1.1.33-1.65.3-.25.65-.57.99-.99.49-.61.8-1.2.99-1.65.03.41.11.95.33,1.55.29.8.69,1.38.99,1.75l-1.32,2.95ZM58.16,62.98c-.06-.52-.19-1.34-.47-2.31-.26-.88-.5-1.39-.99-2.64-.24-.61-.59-1.51-.99-2.64-.05-.45-.07-1.01,0-1.65.11-.99.57-1.94.83-2.48.19,1.28.33,2.89.83,4.46.31.97.65,1.85.99,2.64-.11.61-.2,1.54,0,2.64.15.84.42,1.51.66,1.98h-.85ZM59.33,70.72c-.07-.84.19-1.49.34-1.79.12.53.23,1.08.33,1.65.14.81.25,1.58.33,2.31-.22-.22-.9-.99-1-2.18ZM60.5,54.55c-.1-.51.12-.99.33-1.32-.39-1.38-.77-2.75-1.16-4.13l.33-2.64h.66l1.98,10.58h-.93c-.06-.79-.29-1.24-.56-1.49-.14-.13-.56-.45-.66-.99Z"/>
        <g class="cls-9">
          <path class="cls-1" d="M59.01,9.43c-.66-.88-1.32-1.76-1.98-2.64-.33.22-.66.44-.99.66v-.66c-.55.55-1.1,1.1-1.65,1.65-.44-.66-.88-1.32-1.32-1.98-.11.33-.22.66-.33.99-.22-.11-.44-.22-.66-.33-.12.54-.23,1.09-.33,1.65-.53,2.96-.7,5.74-.66,8.26-.11-1.1-.22-2.2-.33-3.31-.33.99-.66,1.98-.99,2.98.11-.88.22-1.76.33-2.64-.37.92-.73,2.03-.99,3.31-.42,2.08-.43,3.91-.33,5.29-.11-1.43-.22-2.86-.33-4.3-.87,3.09-1.11,3.74-1.16,3.73-.11-.03.9-3.01.83-6.7-.05-2.21-.46-4.02-.83-5.23-.27.97-.53,2.31-.5,3.91.03,1.29.42,2.62.33,2.64-.07.02-.2-1.06-.99-1.98-.43-.51-.93-.81-1.32-.99-.09.77-.22,1.92-.33,3.31-.43,5.39-.3,9.47-.31,9.35-.12-1.24-.24-2.49-.35-3.73-.13.8-.34,1.69-.66,2.64-.73,2.16-1.77,3.81-2.64,4.96.85-1.4,2.31-4.24,2.61-8.14.3-3.86-.68-6.87-1.29-8.39"/>
          <path class="cls-1" d="M53.06,1.82c-.55.79-1.26,2.02-1.65,3.64-.3,1.25-.25,2.07-.33,3.31-.08,1.31-.32,3.19-1.01,5.48"/>
          <path class="cls-2" d="M49.75,3.14c-.41,1.07-.89,2.66-.99,4.63-.12,2.27.3,4.12.66,5.29"/>
          <path class="cls-2" d="M49.75,1.16c-1.54,1.37-2.27,2.69-2.64,3.64-.46,1.17-.45,1.88-.99,3.64-.45,1.46-.97,2.59-1.32,3.31"/>
          <polyline class="cls-4" points="56.36 11.41 58.35 10.09 59.01 10.75"/>
          <line class="cls-4" x1="54.05" y1="11.74" x2="51.41" y2="10.42"/>
          <path class="cls-4" d="M56.2,13.89c.22-.28.7-.81,1.49-1.16.69-.3,1.31-.34,1.65-.33"/>
          <line class="cls-2" x1="45.45" y1="16.04" x2="46.28" y2="17.19"/>
          <path class="cls-4" d="M45.46,36.99c.94.09,1.93.17,2.97.21,1.4.06,2.73.05,3.97,0"/>
          <line class="cls-4" x1="46.12" y1="39.18" x2="51.41" y2="38.52"/>
          <line class="cls-4" x1="46.61" y1="40.33" x2="50.58" y2="40.33"/>
          <line class="cls-4" x1="46.91" y1="41.33" x2="50.41" y2="41.16"/>
          <path class="cls-4" d="M49.75,32.24l.66-.66,1.32,1.98s.66.99.33.99-.99-.66-.99-.66l-1.32-1.65"/>
          <path class="cls-4" d="M51.07,33.89s.1-.25.33-.33c.15-.05.28-.02.33,0"/>
          <path class="cls-4" d="M54.45,27.29c-.18.31.32.77.59,1.63.29.91.15,1.76,0,2.31.66.11,1.32.22,1.98.33.16-.19.71-.93.66-1.98-.07-1.43-1.19-2.22-1.32-2.31-1.4-.34-1.8-.18-1.92.02Z"/>
          <line class="cls-4" x1="50.74" y1="31.9" x2="54.52" y2="27.88"/>
          <path class="cls-4" d="M55.21,30.75h-.66c-.11.1-.39.37-.5.83-.14.58.1,1.05.17,1.16.22.11.44.22.66.33"/>
          <path class="cls-4" d="M55.04,31.24h-.33v1.32h.33"/>
          <path class="cls-4" d="M56.34,13.77c.36.12.81.23,1.35.28.51.05.96.04,1.32,0"/>
          <path class="cls-4" d="M57.34,12.91c.17.44.56.75,1.01.81.55.07.93-.28.99-.33"/>
          <path class="cls-4" d="M57.9,12.68c.14.35.51.5.78.39.2-.09.32-.32.31-.57"/>
          <path class="cls-2" d="M53.06,14.05c-.09-.23-.29-.62-.66-.99-.42-.41-.86-.6-1.11-.68"/>
          <line class="cls-2" x1="51.13" y1="14.05" x2="53.06" y2="14.05"/>
          <path class="cls-2" d="M51.74,12.73c-.27.27-.27.72,0,.99s.72.27.99,0"/>
          <path class="cls-2" d="M52.16,12.85c-.17.16-.19.4-.09.54.12.18.45.21.66,0"/>
          <line class="cls-4" x1="55.37" y1="16.7" x2="56.03" y2="17.03"/>
          <line class="cls-4" x1="56.36" y1="16.7" x2="56.69" y2="16.37"/>
          <path class="cls-2" d="M53.39,18.68c.36-.04.82-.13,1.32-.33.25-.1.47-.22.66-.33.22.11.44.22.66.33l.33-.33c.08.1.19.22.33.33.25.19.5.29.66.33h-3.97Z"/>
          <path class="cls-2" d="M57.36,18.68c-.25.19-.83.58-1.65.66-1.22.12-2.1-.5-2.31-.66h3.97Z"/>
          <path class="cls-4" d="M44.46,17.45c.35.54.72.78,1,.9.28.12.45.11.99.33.26.11.45.18.66.33.33.22.54.48.66.66"/>
          <path class="cls-4" d="M48.76,20.33c.5.55,1.47,1.48,2.98,1.98.62.21,1.18.3,1.65.33"/>
          <line class="cls-4" x1="48.05" y1="19.79" x2="48.67" y2="20.26"/>
          <path class="cls-4" d="M47.49,25.13c.16.3,1,1.88,2.92,2.48,2.24.7,4.07-.51,4.3-.66"/>
          <path class="cls-4" d="M46.78,26.28c.24.26,1.54,1.59,3.64,1.65,2.3.07,3.75-1.42,3.97-1.65"/>
          <path class="cls-4" d="M46.78,26.95c.25.35,1.23,1.63,2.98,1.98,1.81.36,3.73-.41,4.96-1.98"/>
          <path class="cls-4" d="M46.45,27.28c-.03.57-.02,1.76.66,2.98.08.15,1.42,2.49,2.98,2.31"/>
          <path class="cls-4" d="M32.56,43.14c.13-.06.91-.38,1.65,0,.99.51.99,1.79.99,1.98s0,1.48-.99,1.98c-.74.38-1.52.06-1.65,0,.21.47.07,1.02-.33,1.32-.39.29-.93.3-1.32,0-.22-.44-.44-.88-.66-1.32"/>
          <path class="cls-4" d="M46.78,26.95c-.42.5-.89,1.16-1.32,1.98-.52,1-.82,1.92-.99,2.64-.66.22-1.32.44-1.98.66.16-.71.37-1.49.66-2.31.21-.6.43-1.15.66-1.65"/>
          <path class="cls-4" d="M44.72,30.67l.45.15c.16.05.26.22.24.39l-.25,1.51c-.02.11-.09.21-.19.26l-.5.25"/>
          <path class="cls-4" d="M44.52,31.35l.28.22v.53c0,.09-.03.17-.1.23l-.24.24-.27.19"/>
          <path class="cls-4" d="M42.73,31.19l-.93.76c-.1.08-.16.19-.18.31l-.25,1.48c-.03.16.28.48.44.48"/>
          <path class="cls-4" d="M41.98,33.39l.14-.71c.02-.08.05-.15.11-.2l.25-.25"/>
          <path class="cls-4" d="M40.83,43.14c-.26-.55-.55-1.33-.66-2.31-.05-.42-.08-1,0-1.65.12-1,.41-1.7.66-2.31.34-.84.8-2.04,1.32-3.64.66-.22,1.32-.44,1.98-.66l1.98,6.61,1.32,3.64h-1.32v.99h-1.65v-.99h-1.98v1.32h-.33v-.99h-1.32Z"/>
          <path class="cls-4" d="M46.12,43.14c-.72-1.44-1.54-3.45-1.98-5.95-.29-1.63-.36-3.09-.33-4.3"/>
          <path class="cls-4" d="M43.14,32.9c-.19,1.3-.32,3.14,0,5.29.28,1.93.83,3.5,1.32,4.63"/>
          <path class="cls-4" d="M42.81,33.23c-.49,1.25-1.12,3.34-.99,5.95.07,1.46.36,2.69.66,3.64"/>
          <path class="cls-2" d="M47.03,4.94c-.44.55-1.05,1.39-1.57,2.5-.74,1.58-1,3.02-1.32,7.27-.11,1.45-.23,3.24-.33,5.29"/>
          <path class="cls-4" d="M51.41,7.77c.18-.73.4-1.51.66-2.31.31-.96.65-1.84.99-2.64.24.68.47,1.45.66,2.31.16.71.26,1.37.33,1.98"/>
          <path class="cls-2" d="M47.77,24.63c-.03.21-.03.32,0,.33.09.03.42-.63.99-1.98"/>
          <line class="cls-4" x1="49.09" y1="55.71" x2="49.09" y2="56.37"/>
          <path class="cls-2" d="M57.02,33.23h.33c.09-.11.26-.33.33-.66.06-.29.03-.53,0-.66-.22-.11-.44-.22-.66-.33"/>
          <path class="cls-2" d="M57.39,30.99l.96.58c.09.29.24.93,0,1.65-.09.27-.22.49-.33.66h-.66"/>
          <path class="cls-2" d="M49.75,42.81c.39-2.01,1.09-3.4,1.65-4.3.72-1.15,1.37-1.72,2.31-3.31.65-1.08,1.07-2.03,1.32-2.64.66.11,1.32.22,1.98.33.12.66.32,1.71.66,2.98.48,1.83.79,2.44.99,3.64.14.82.24,2.06,0,3.64"/>
          <path class="cls-2" d="M60,40.5c.53-.09,1.08-.2,1.65-.33,1.22-.28,2.32-.63,3.31-.99"/>
          <path class="cls-2" d="M59.73,42c.87,0,1.85-.04,2.91-.18,1.25-.16,2.36-.4,3.31-.66.11.66.22,1.32.33,1.98-.87.28-1.99.56-3.31.66-.86.07-1.64.05-2.31,0l-.33-.33h-.99c.26-.84.51-1.84.66-2.98.24-1.82.16-3.41,0-4.63.55-.77,1.1-1.54,1.65-2.31"/>
          <path class="cls-2" d="M60.33,45.13c.72.14,1.9.28,3.31,0,1.16-.23,2.06-.65,2.64-.99.22.55.44,1.1.66,1.65-.77.36-1.89.79-3.31.99-1.35.19-2.49.12-3.31,0"/>
          <path class="cls-2" d="M61.98,56.7c.68.06,1.46.08,2.31,0,2.31-.21,4.12-1,5.29-1.65"/>
          <path class="cls-2" d="M62.98,60.33c.95-.52,1.76-.82,2.31-.99,1.04-.32,1.62-.34,2.98-.66,1.01-.24,1.81-.49,2.31-.66"/>
          <path class="cls-2" d="M67.22,70.91c.68-.24,1.47-.48,2.37-.66.98-.2,1.88-.29,2.64-.33"/>
          <path class="cls-2" d="M68.26,73.56l.77.19c.35.09.73.02,1.04-.18l2.5-1.66"/>
          <path class="cls-2" d="M72.56,74.88v-1.65c.41.44.76.77.99.99.48.45.86.77.99,1.32.04.14.06.27,0,.33-.21.21-1.16-.4-1.98-.99Z"/>
          <path class="cls-2" d="M70.91,78.52l1.65,1.98c.18-.06.41-.16.66-.33.33-.23.54-.48.66-.66"/>
          <line class="cls-2" x1="75.54" y1="82.15" x2="73.22" y2="78.52"/>
          <path class="cls-2" d="M74.84,81.06c.13.06.38.14.7.1.61-.08.94-.58.99-.66"/>
          <path class="cls-2" d="M73.55,82.48c.08-.1.19-.22.33-.33.25-.19.5-.29.66-.33.25.32.5.65.75.97"/>
          <line class="cls-2" x1="72.56" y1="80.5" x2="73.55" y2="82.15"/>
          <path class="cls-2" d="M43.53,28.95c-.69.15-1.65.42-2.7.97-.54.28-1.5.78-2.31,1.65-.41.44-.86,1.05-1.65,3.31-1.21,3.42-1.09,4.58-2.31,5.95-.59.66-1.23,1.07-1.66,1.3"/>
          <path class="cls-2" d="M39.99,30.39c-.27.39-.2.81,0,.92.19.11.48-.05.5-.07.28.48.5.7.66.66.28-.06.4-.83.37-2.32"/>
          <path class="cls-2" d="M33.22,51.08c.33,0,.6-.13.66-.33.08-.29-.3-.67-.66-.66-.36,0-.59.41-.66.66-.2.69.36,1.64.99,1.65.29,0,.53-.2.66-.33"/>
          <path class="cls-2" d="M29.92,48.76c.36.26.86.68,1.32,1.32.45.63.7,1.23.83,1.65"/>
          <path class="cls-2" d="M29.92,54.38c.5.13,1.22.24,1.98,0,1.32-.41,1.93-1.57,2.98-3.31.68-1.13,1.66-2.71,2.98-4.63"/>
          <path class="cls-2" d="M32.52,51.02c-.08.02-.18.05-.29.06-.18.01-.33-.01-.44-.04"/>
          <path class="cls-2" d="M31.24,50.09s.1-.25.33-.33c.15-.05.28-.02.33,0-.12-.25-.13-.52,0-.66.18-.19.65-.18.98.21.41-.5,1.06-.72,1.66-.54.81.23,1.06,1.05,1.08,1.1"/>
          <path class="cls-2" d="M33.88,43.14c-.68.03-1.22.46-1.32.99-.06.3.01.73.33.99.35.29.89.3,1.32,0"/>
          <path class="cls-2" d="M31.9,47.44c-.29.07-.58-.09-.66-.33-.1-.29.12-.58.33-.66.3-.12.77.12.99.66"/>
          <path class="cls-2" d="M21.65,47.77c.47-.19,1.24-.58,1.98-1.32.36-.36.92-1.01,1.32-1.98"/>
          <path class="cls-2" d="M19.01,46.78c.45.01,1.17-.03,1.98-.33.53-.2,1.56-.59,2.23-1.65.64-1.02.58-2.08.54-2.48"/>
          <line class="cls-2" x1="17.69" y1="45.79" x2="17.36" y2="43.81"/>
          <path class="cls-2" d="M17.69,44.47c.51,0,1.54-.06,2.31-.33,1.68-.59,2.62-1.79,2.98-2.31"/>
          <line class="cls-2" x1="17.36" y1="43.47" x2="18.35" y2="46.45"/>
          <line class="cls-2" x1="52.9" y1="36.48" x2="56.63" y2="42.98"/>
          <line class="cls-2" x1="51.41" y1="38.52" x2="53.06" y2="42.48"/>
          <line class="cls-2" x1="54.03" y1="34.79" x2="58.68" y2="42.15"/>
          <line class="cls-2" x1="54.71" y1="33.56" x2="58.22" y2="37.8"/>
          <line class="cls-2" x1="51.07" y1="39.18" x2="57.48" y2="35.01"/>
          <line class="cls-2" x1="54.35" y1="42.98" x2="58.68" y2="39.51"/>
          <line class="cls-2" x1="53.44" y1="35.69" x2="57.02" y2="33.56"/>
          <path class="cls-2" d="M46.12,43.81l.17,4.46,4.96-.33-.17-5.12,7.12-5.18c.33.35,1.3,1.46,1.47,3.2.13,1.33-.28,2.35-.5,2.81"/>
          <line class="cls-2" x1="47.44" y1="42.81" x2="51.07" y2="42.81"/>
          <polygon class="cls-2" points="46.94 43.31 46.94 47.61 50.08 47.35 50.08 46.25 49.26 46.28 49.26 45.62 50.25 45.62 50.08 45.05 49.26 44.96 49.26 44.63 50.08 44.41 50.08 43.36 46.94 43.31"/>
          <line class="cls-3" x1="41.49" y1="49.76" x2="40.17" y2="42.81"/>
          <path class="cls-3" d="M38.84,48.1c.11-.14.43-.5.99-.66.54-.16,1-.05,1.17,0"/>
          <path class="cls-3" d="M38.51,44.8c.07-.13.26-.46.66-.66.63-.31,1.24-.04,1.32,0,.1-.09.33-.27.66-.33.5-.1.89.12.99.18"/>
          <path class="cls-3" d="M41,47.36c.18-.09.46-.2.81-.25.43-.06.78.01.99.07"/>
          <path class="cls-3" d="M42.5,44.14c.14-.11.36-.24.64-.33.6-.18,1.12-.03,1.32.05v3.99l-.33,1.92-.43.04-.76-1.53c-.15-1.34-.32-2.79-.47-4.13"/>
          <path class="cls-3" d="M42.81,47.11c.1-.08.47-.36.99-.33.31.02.54.13.66.2"/>
          <line class="cls-3" x1="54.21" y1="47.44" x2="54.77" y2="47.44"/>
          <line class="cls-3" x1="54.21" y1="44.14" x2="55.04" y2="44.14"/>
          <path class="cls-2" d="M56.36,52.07c.26.13.91.52,1.32,1.32.28.54.32,1.04.33,1.32"/>
          <path class="cls-2" d="M55.02,42.95l-.31,5.16.54,1.61c.05.15.25.17.33.04l.79-1.31.4-5.45-1.74-.03Z"/>
          <line class="cls-3" x1="56.69" y1="44.08" x2="57.33" y2="44.17"/>
          <line class="cls-3" x1="56.42" y1="47.44" x2="57.02" y2="47.44"/>
          <path class="cls-2" d="M57.02,48.1l.33-4.96,1.49.17-.33,5.29-.86,1.43c-.05.08-.17.06-.2-.03l-.44-1.89Z"/>
          <line class="cls-2" x1="52.23" y1="43.81" x2="54.21" y2="43.81"/>
          <line class="cls-2" x1="52.4" y1="47.11" x2="54.05" y2="47.11"/>
          <line class="cls-2" x1="54.71" y1="47.11" x2="56.36" y2="47.44"/>
          <line class="cls-2" x1="57.02" y1="47.44" x2="58.68" y2="47.44"/>
          <line class="cls-2" x1="58.81" y1="44.15" x2="60.33" y2="44.47"/>
          <path class="cls-2" d="M58.57,47.68c.11.09,1.43.42,1.43.42"/>
          <line class="cls-2" x1="60.33" y1="43.47" x2="60" y2="47.44"/>
          <path class="cls-2" d="M58.35,48.76l.3,1.52c.01.05.08.07.11.03l1.24-1.55"/>
          <line class="cls-2" x1="42.5" y1="49.19" x2="43.33" y2="49.09"/>
          <line class="cls-2" x1="44.31" y1="48.87" x2="53.06" y2="49.09"/>
          <line class="cls-2" x1="54.05" y1="49.09" x2="55.13" y2="49.36"/>
          <line class="cls-2" x1="56.03" y1="49.43" x2="57.36" y2="49.76"/>
          <path class="cls-2" d="M46.94,49.04c.01.11.03.41-.17.72-.11.17-.24.27-.33.33.42-.29.76-.34.99-.33.29,0,.4.11,1.32.33.28.07.48.11.66,0,.2-.13.25-.37.25-.41.04-.25-.09-.51-.32-.68"/>
          <path class="cls-2" d="M42.81,49.11c.06.03.23.12.33.31.16.31.02.62,0,.66-.03.01-.26.1-.33.32-.07.24.06.53.33.67.39-.32.74-.53.99-.66.6-.32.92-.34,1.32-.66.35-.28.55-.61.66-.84"/>
          <path class="cls-2" d="M42.38,53.39c.46.13.77.55.77.99,0,.51-.44.96-.99.99"/>
          <path class="cls-2" d="M42.99,54.88s.55.48.48,1.16c-.05.54-.45,1-1,1.16"/>
          <path class="cls-2" d="M42.69,57.19c.04.08.13.26.12.5-.02.38-.28.61-.33.66"/>
          <path class="cls-2" d="M42.62,58.19c.13.08.7.45.85,1.15.06.27.03.5,0,.66"/>
          <path class="cls-2" d="M43.5,59.84c.2.09.64.33.97.83.47.72.36,1.47.33,1.65"/>
          <path class="cls-2" d="M40.17,58.35c.32-.17.7-.18.99,0,.4.25.56.82.33,1.32"/>
          <path class="cls-2" d="M60,60.33c-.09-.91-.13-2.04,0-3.31.15-1.53.49-2.82.83-3.8"/>
          <path class="cls-2" d="M56.69,55.05c.39.2,1.06.59,1.65,1.32.63.77.88,1.55.99,1.98"/>
          <path class="cls-2" d="M61.65,59.34c-.24.42-.55,1.1-.66,1.98-.06.52-.04.97,0,1.32"/>
          <path class="cls-2" d="M32.43,57.03c.56-.44,1.17-.99,1.78-1.65,1.08-1.18,1.82-2.35,2.31-3.31"/>
          <path class="cls-2" d="M32.19,57.11c-.24-.17-.64-.52-.95-1.07-.34-.61-.41-1.19-.42-1.49"/>
          <path class="cls-2" d="M30.91,61.33c.52-.35,1.08-.78,1.65-1.32,1.34-1.27,2.15-2.62,2.64-3.64"/>
          <path class="cls-2" d="M38.18,61.66c-.72-1.33-1.5-2.13-1.98-1.98-.1.03-.22.11-.33.33"/>
          <path class="cls-2" d="M37.85,56.7c.65.63,1.32,1.29,1.98,1.98,1.4,1.46,2.64,2.9,3.74,4.3"/>
          <path class="cls-2" d="M37.52,57.03c.65.63,1.32,1.29,1.98,1.98,1.4,1.46,2.64,2.9,3.74,4.3"/>
          <path class="cls-2" d="M36.2,58.35c.99,1.1,1.98,2.2,2.98,3.31"/>
          <line class="cls-2" x1="40.17" y1="62.65" x2="41.49" y2="63.97"/>
          <line class="cls-2" x1="38.51" y1="43.47" x2="38.84" y2="47.11"/>
          <line class="cls-2" x1="20.66" y1="131.41" x2="14.38" y2="153.56"/>
          <line class="cls-2" x1="15.04" y1="134.05" x2="20" y2="133.39"/>
          <line class="cls-2" x1="15.04" y1="132.4" x2="19.67" y2="134.71"/>
          <line class="cls-2" x1="14.71" y1="136.7" x2="19.34" y2="135.71"/>
          <line class="cls-2" x1="15.04" y1="134.38" x2="19.01" y2="137.36"/>
          <line class="cls-2" x1="14.38" y1="139.01" x2="18.68" y2="138.02"/>
          <line class="cls-2" x1="14.71" y1="137.36" x2="18.02" y2="140.33"/>
          <line class="cls-2" x1="13.39" y1="141.99" x2="18.02" y2="140.33"/>
          <line class="cls-2" x1="14.05" y1="139.34" x2="17.36" y2="142.65"/>
          <line class="cls-2" x1="12.73" y1="145.29" x2="17.36" y2="142.98"/>
          <line class="cls-2" x1="13.39" y1="142.65" x2="16.36" y2="146.28"/>
          <line class="cls-2" x1="12.07" y1="148.27" x2="16.36" y2="146.28"/>
          <line class="cls-2" x1="12.4" y1="145.95" x2="15.7" y2="148.93"/>
          <line class="cls-2" x1="11.4" y1="150.91" x2="15.37" y2="149.59"/>
          <line class="cls-2" x1="12.07" y1="148.93" x2="15.04" y2="151.24"/>
          <line class="cls-2" x1="10.74" y1="152.57" x2="15.04" y2="151.57"/>
          <line class="cls-2" x1="11.4" y1="151.57" x2="14.38" y2="152.9"/>
          <path class="cls-2" d="M14.38,153.56c-.37-.22-.93-.5-1.65-.66-1-.22-1.83-.1-2.31,0"/>
          <path class="cls-2" d="M10,153.44c.42-.16,1.45-.5,2.72-.21,1.54.34,2.4,1.36,2.64,1.65.63.76.88,1.55.99,1.98"/>
          <path class="cls-2" d="M7.77,155.21c.64-.17,1.42-.31,2.31-.33,2.05-.05,3.68.55,4.63.99"/>
          <path class="cls-2" d="M6.6,157.65c.7-.11,1.81-.24,3.15-.13,3.07.24,4.4,1.45,5.62.66.84-.54.68-1.42,1.98-2.31.57-.39,1.13-.59,1.51-.69"/>
          <polyline class="cls-2" points="16.86 158.02 17.02 157.19 18.94 155.77"/>
          <line class="cls-2" x1="24.96" y1="100.66" x2="25.95" y2="95.05"/>
          <path class="cls-2" d="M21.32,76.53c.05.58.15,1.25.33,1.98.19.77.43,1.43.66,1.98"/>
          <path class="cls-2" d="M25.62,76.86c-.25.66-.73,1.67-1.65,2.64-.58.61-1.18,1.04-1.65,1.32"/>
          <path class="cls-2" d="M21.98,84.8c.33-.4.66-.84.99-1.32.72-1.05,1.25-2.07,1.65-2.98"/>
          <path class="cls-2" d="M20,83.14c-.02.54.02,1.37.33,2.31.37,1.11.94,1.88,1.32,2.31"/>
          <path class="cls-2" d="M22.31,89.43c.22-.26.45-.59.66-.99.41-.76.58-1.47.66-1.98"/>
          <path class="cls-2" d="M20.33,89.76c.3.64.63,1.3.99,1.98.44.82.88,1.59,1.32,2.31"/>
          <path class="cls-2" d="M23.64,95.05c.14-.45.27-1.01.33-1.65.11-1.26-.12-2.3-.33-2.98"/>
          <path class="cls-2" d="M25.62,51.74c.2-.63.08-1.27-.33-1.65-.23-.21-.49-.3-.66-.33-.11-.17-.32-.44-.66-.66-.55-.35-1.11-.34-1.32-.33"/>
          <path class="cls-2" d="M28.93,58.68c-.02.49.02,1.21.33,1.98.1.25.22.47.33.66"/>
          <path class="cls-2" d="M32.23,57.03c-.16.31-.48,1.05-.33,1.98.06.42.2.75.33.99"/>
          <path class="cls-2" d="M44.9,62.68c-.07-.02-.15-.02-.22,0-.16.06-.35.15-.55.29-.24.16-.41.34-.54.5-.08.1-.1.22-.05.34.14.39.32,1.02.26,1.81-.06.78-.32,1.38-.52,1.76-.08.14-.06.31.06.42l.68.68c.08.08.18.11.29.1.81-.1,1.89-.15,3.14.02.96.14,1.78.37,2.43.62.13.05.28.02.37-.08l.67-.69c.1-.1.13-.24.07-.37-.15-.36-.34-1-.24-1.78.08-.66.33-1.16.53-1.46.08-.12.08-.27,0-.39l-.43-.65c-.06-.09-.16-.15-.28-.15-.92-.03-1.97-.12-3.13-.33-.94-.17-1.79-.39-2.53-.63Z"/>
          <polyline class="cls-2" points="49.75 66.62 49.75 67.94 45.45 67.61 44.79 66.95 44.79 64.3 45.45 63.97 49.42 64.3 49.75 64.96 49.75 65.62"/>
          <polygon class="cls-2" points="50.41 65.95 48.76 65.62 48.43 66.28 50.41 66.62 50.41 65.95"/>
          <path class="cls-2" d="M49.09,65.62s-.27-.36-.66-.33c-.37.03-.61.37-.66.66-.08.43.21.96.66.99.3.02.61-.2.76-.54"/>
          <line class="cls-2" x1="44.79" y1="64.48" x2="49.75" y2="64.96"/>
          <polyline class="cls-2" points="51.01 65.33 56.2 67.77 56.86 69.43 54.55 70.42 50.62 68.74"/>
          <polyline class="cls-2" points="50.83 65.83 55.66 68.03 56.03 69.26 54.38 69.59 51 68.23"/>
          <line class="cls-2" x1="40.17" y1="63.97" x2="43.67" y2="64.32"/>
          <line class="cls-2" x1="39.17" y1="67.61" x2="43.47" y2="67.94"/>
          <line class="cls-2" x1="40" y1="64.47" x2="43.75" y2="64.82"/>
          <line class="cls-2" x1="39.17" y1="66.95" x2="43.28" y2="67.38"/>
          <path class="cls-2" d="M40.33,62.15l-1.32,5.62-1.47,1.76c-.07.08-.21.04-.22-.07l-.3-2.68,1.32-4.96c.11-.06.57-.3,1.16-.17.45.11.73.39.83.5Z"/>
          <path class="cls-2" d="M38.18,62.98c.24-.04.58-.06.99,0,.44.07.77.22.99.33"/>
          <path class="cls-2" d="M37.19,66.62c.24-.04.58-.06.99,0,.44.07.77.22.99.33"/>
          <path class="cls-2" d="M37.52,62.32l-1.65,5.62-1.12,1.68c-.07.1-.23.06-.24-.06l-.3-3.27,1.32-4.3c.24-.04.58-.06.99,0,.44.07.77.22.99.33Z"/>
          <path class="cls-2" d="M35.19,63.11c.18-.07.54-.19,1.01-.13.52.06.88.31,1.03.42"/>
          <path class="cls-2" d="M34.21,66.28c.24-.04.58-.06.99,0,.44.07.77.22.99.33"/>
          <path class="cls-2" d="M34.88,62.32l-1.65,4.96-1.71,1.99c-.1.11-.28.04-.28-.1v-2.22l1.65-5.29c.17-.05.55-.12.99,0,.56.15.89.53.99.66Z"/>
          <path class="cls-2" d="M32.56,62.65c.2-.02.42-.02.66,0,.55.04,1,.19,1.32.33"/>
          <path class="cls-2" d="M31.57,65.95c.15-.04.53-.14.99,0,.5.15.79.48.88.61l.77.06"/>
          <path class="cls-2" d="M31.24,67.28l-1.67,1.67c-.12.12-.32.03-.32-.13v-1.86l2.31-5.29c.18-.02.4-.03.66,0,.25.03.46.08.62.14"/>
          <path class="cls-2" d="M31.24,66.28c-.11-.09-.33-.26-.66-.33-.29-.06-.53-.03-.66,0"/>
          <path class="cls-2" d="M31.24,62.65c.2-.01.42-.01.66,0,.24.01.46.04.66.08"/>
          <path class="cls-2" d="M29.26,67.94l-1.01,1.01c-.1.1-.28.02-.26-.13l.28-2.54,2.31-4.63h.99"/>
          <path class="cls-2" d="M28.6,65.95c.18-.02.4-.03.66,0,.15.02.28.05.4.08"/>
          <path class="cls-2" d="M30.25,62.65h.99"/>
          <line class="cls-2" x1="36.2" y1="66.95" x2="36.86" y2="66.95"/>
          <line class="cls-2" x1="34.55" y1="62.98" x2="35.21" y2="62.98"/>
          <line class="cls-2" x1="37.19" y1="63.31" x2="37.85" y2="63.31"/>
          <line class="cls-2" x1="40.17" y1="63.31" x2="40.83" y2="63.97"/>
          <line class="cls-2" x1="51.41" y1="64.63" x2="54.38" y2="64.63"/>
          <line class="cls-2" x1="54.38" y1="63.97" x2="54.38" y2="66.95"/>
          <line class="cls-2" x1="55.7" y1="63.97" x2="55.7" y2="67.61"/>
          <line class="cls-2" x1="55.7" y1="64.63" x2="56.69" y2="64.63"/>
          <path class="cls-2" d="M56.69,63.31l.66,5.95,1.12,1.68c.08.11.25.08.28-.06l.39-1.95-.46-5.95-1.98.33Z"/>
          <path class="cls-2" d="M58.75,63.88l-1.72.09c-2.18.09-5.03,0-8.26-.66-2.65-.55-4.89-1.34-6.65-2.11"/>
          <line class="cls-2" x1="59.01" y1="67.99" x2="57.23" y2="68.12"/>
          <polyline class="cls-2" points="29.88 68.65 28.6 69.92 28.44 68.75"/>
          <path class="cls-2" d="M59.17,62.81l.65,6.21.83,1.99c.06.13.25.12.28-.02l.54-1.9-.33-6.28h-1.98Z"/>
          <line class="cls-2" x1="61.32" y1="62.98" x2="62.64" y2="62.98"/>
          <path class="cls-2" d="M61.32,69.59l.7,1.17c.11.18.38.14.44-.06l.84-3.09"/>
          <line class="cls-2" x1="59.34" y1="63.97" x2="61.32" y2="63.97"/>
          <line class="cls-2" x1="59.67" y1="67.94" x2="61.32" y2="67.94"/>
          <line class="cls-2" x1="61.32" y1="63.97" x2="62.64" y2="63.97"/>
          <line class="cls-2" x1="61.32" y1="67.94" x2="63.31" y2="67.94"/>
          <line class="cls-2" x1="56.03" y1="67.61" x2="57.02" y2="67.61"/>
          <polyline class="cls-2" points="57.69 69.92 57.69 71.57 58.68 73.89"/>
          <polyline class="cls-2" points="55.7 69.92 56.03 72.57 56.69 74.22"/>
          <path class="cls-2" d="M56.36,74.55c.28-.17.52-.27.66-.33.37-.15.94-.31,2.98-.33.29,0,.53,0,.66,0"/>
          <path class="cls-2" d="M57.36,74.88c.55-.14,1.22-.27,1.98-.33.61-.05,1.17-.04,1.65,0"/>
          <path class="cls-2" d="M60.33,72.9h0c.07.29.18.63.33.99.11.25.22.47.33.66"/>
          <line class="cls-2" x1="54.38" y1="22.65" x2="56.03" y2="22.65"/>
          <path class="cls-2" d="M50.08,69.26c.7.51,1.74,1.3,2.98,2.31,1.36,1.12,2.1,1.83,2.48,2.15,1.24,1.05,3.5,2.12,7.93,1.98"/>
          <path class="cls-2" d="M49.09,68.93c.85.67,2.12,1.69,3.64,2.98,1.5,1.27,2.05,1.8,2.48,2.15,1.4,1.14,3.84,2.29,8.43,2.15"/>
          <path class="cls-2" d="M47.77,70.58c.86.75,2.09,1.8,3.64,2.98,1.7,1.29,3.02,2.3,4.3,2.98,1.41.75,4.18,1.84,8.6,1.32"/>
          <path class="cls-2" d="M47.44,70.91c.86.75,2.09,1.8,3.64,2.98,1.37,1.05,2.93,2.23,4.3,2.98,1.49.82,4.36,2,8.93,1.65"/>
          <line class="cls-2" x1="52.73" y1="69.92" x2="52.73" y2="71.24"/>
          <line class="cls-2" x1="47.77" y1="78.52" x2="53.06" y2="75.54"/>
          <line class="cls-2" x1="50.41" y1="73.56" x2="51.5" y2="76.4"/>
          <path class="cls-2" d="M47.77,79.51c.95-.59,1.75-1.02,2.31-1.32.6-.31.96-.48,2.64-1.32.56-.28,1.02-.51,1.32-.66"/>
          <line class="cls-2" x1="51.74" y1="76.53" x2="52.07" y2="77.19"/>
          <line class="cls-2" x1="42.15" y1="74.55" x2="44.13" y2="76.2"/>
          <line class="cls-2" x1="40.83" y1="75.21" x2="43.14" y2="76.86"/>
          <path class="cls-2" d="M44.01,68.48c-2.92,2.62-5.59,3.99-7.48,4.75-2.15.86-3.6,1.07-5.95,2.31-2.3,1.22-3.94,2.64-4.96,3.64"/>
          <path class="cls-2" d="M44.79,68.6c-2.95,2.68-5.66,4.13-7.6,4.96-2.37,1.01-3.25.96-5.95,2.31-3.23,1.62-6.07,3.76-5.95,3.97"/>
          <path class="cls-2" d="M49.09,68.93c-.36.51-.91,1.22-1.65,1.98-1.96,2-3.97,3.02-5.29,3.64-5.07,2.39-6.85,2.22-10.58,3.97-1.6.75-3.97,2.05-6.61,4.3"/>
          <path class="cls-2" d="M48.76,68.27c-.36.51-.91,1.22-1.65,1.98-1.96,2-3.97,3.02-5.29,3.64-5.07,2.39-6.85,2.22-10.58,3.97-1.6.75-3.97,2.05-6.61,4.3"/>
          <line class="cls-2" x1="44.79" y1="68.93" x2="46.45" y2="70.91"/>
          <line class="cls-2" x1="45.45" y1="68.6" x2="46.78" y2="70.25"/>
          <line class="cls-2" x1="44.79" y1="68.93" x2="44.79" y2="68.93"/>
          <path class="cls-2" d="M30.91,78.88c1.62.49,3.4,1.12,5.29,1.95,1.72.75,3.27,1.54,4.63,2.31"/>
          <path class="cls-2" d="M30.25,79.21c1.63.5,3.41,1.14,5.29,1.95,1.98.85,3.75,1.76,5.29,2.64"/>
          <path class="cls-2" d="M29.92,79.54c1.63.5,3.41,1.14,5.29,1.95,1.98.85,3.75,1.76,5.29,2.64"/>
          <path class="cls-2" d="M28.26,82.15c.64.08,1.64.19,2.31.33,3.74.76,6.83,2.18,9.26,3.64"/>
          <path class="cls-2" d="M29.92,79.51c-.32.35-.66.79-.99,1.32-.53.87-.82,1.69-.99,2.31"/>
          <path class="cls-2" d="M27.93,83.14c1.25.08,2.71.26,4.3.66,2.98.75,5.32,1.95,6.94,2.98"/>
          <path class="cls-2" d="M26.28,64.63c0,.61.08,1.41.33,2.31.27.99.66,1.77.99,2.31"/>
          <path class="cls-2" d="M27.27,71.57c.2-.02.59-.07.99-.33.35-.22.56-.5.66-.66"/>
          <path class="cls-2" d="M23.97,70.58c-.05.89-.06,1.89,0,2.98.06,1.09.18,2.09.33,2.98"/>
          <path class="cls-2" d="M24.63,75.21c.31-.07.64-.18.99-.33,1.4-.62,2.23-1.68,2.64-2.31"/>
          <path class="cls-2" d="M26.94,68.6c-.24.79-.47,1.67-.66,2.64-.16.82-.26,1.6-.33,2.31"/>
          <path class="cls-2" d="M33.55,84.14c.34,1.29.67,2.62.99,3.97.64,2.73,1.19,5.37,1.65,7.93"/>
          <path class="cls-2" d="M29.59,83.47c.79,2.12,1.56,4.32,2.31,6.61.86,2.61,1.62,5.15,2.31,7.6"/>
          <path class="cls-2" d="M27.27,85.79c.9,2.57,1.89,5.22,2.98,7.93.87,2.17,1.75,4.26,2.64,6.28"/>
          <path class="cls-2" d="M26.28,91.41c1.32,2.2,2.76,5.2,3.64,8.93.33,1.41.54,2.74.66,3.97"/>
          <path class="cls-2" d="M29.59,106.62c.99-1.87,1.98-3.75,2.98-5.62"/>
          <path class="cls-2" d="M29.92,106.62c.62-.37,1.29-.81,1.98-1.32.9-.67,1.67-1.35,2.31-1.98"/>
          <path class="cls-2" d="M25.62,95.71c.68,2.13,1.34,4.33,1.98,6.61.6,2.14,1.15,4.24,1.65,6.28"/>
          <path class="cls-2" d="M24.63,101c.69,1.66,1.37,3.54,1.98,5.62.59,2.01,1.01,3.9,1.32,5.62"/>
          <line class="cls-2" x1="23.64" y1="104.3" x2="26.94" y2="116.2"/>
          <line class="cls-2" x1="22.31" y1="106.28" x2="25.29" y2="119.51"/>
          <path class="cls-2" d="M20.33,108.6c.23,1.93.63,4.17,1.32,6.61.77,2.72,1.73,5.05,2.64,6.94"/>
          <path class="cls-2" d="M19.01,113.23c.2,1.67.58,3.7,1.32,5.95.7,2.11,1.53,3.88,2.31,5.29"/>
          <path class="cls-2" d="M20.33,131.74c-.02-1.8.93-4.96,2.31-7.27.72-1.21,1.32-2.36,1.98-3.31"/>
          <path class="cls-2" d="M17.69,120.5c.21,1.25.38,3.3-.33,5.62-.28.91-.64,1.68-.99,2.31"/>
          <path class="cls-2" d="M15.7,128.1c.37.2.93.47,1.65.66,1.71.44,2.9.06,2.98.33.07.26-.91,1.01-1.98.99-1.07-.02-2.07-.79-2.64-1.98Z"/>
          <path class="cls-2" d="M20,132.4c.76-1.07,1.13-1.99,1.32-2.64.16-.52.26-1.04.66-1.65.38-.57.83-.94,1.16-1.16"/>
          <line class="cls-2" x1="10.74" y1="135.05" x2="13.39" y2="135.38"/>
          <line class="cls-2" x1="11.03" y1="131.92" x2="13.35" y2="129.94"/>
          <path class="cls-2" d="M52.56,86.28c1.01-.99,2.7-2.4,5.12-3.47,2.63-1.17,4.99-1.43,6.45-1.49"/>
          <path class="cls-2" d="M52.89,86.95c1.01-.99,2.7-2.4,5.12-3.47,2.63-1.17,4.99-1.43,6.45-1.49"/>
          <path class="cls-2" d="M53.22,87.28c-.08.07-.17.16-.17.17.04.04,2.44-2.11,4.63-3.31,1.51-.82,3.84-1.68,7.27-1.65"/>
          <path class="cls-2" d="M54.55,88.93c1.01-.99,2.7-2.4,5.12-3.47,2.63-1.17,4.99-1.43,6.45-1.49"/>
          <path class="cls-2" d="M54.88,89.26c1.01-.99,2.7-2.4,5.12-3.47,2.63-1.17,4.99-1.43,6.45-1.49"/>
          <path class="cls-2" d="M55.21,89.92c1.01-.99,2.7-2.4,5.12-3.47,2.63-1.17,4.99-1.43,6.45-1.49"/>
          <line class="cls-2" x1="65.29" y1="85.13" x2="70.25" y2="100.66"/>
          <path class="cls-2" d="M66.28,87.77c.11-.1.22-.21.33-.33.42-.45.74-.9.99-1.32"/>
          <path class="cls-2" d="M66.94,106.28c-.21.28-.21.68,0,.99l1.65,1.32.66-1.98-1.65-.66s-.43.02-.66.33Z"/>
          <path class="cls-2" d="M70.66,109.69c-.04.12-.18.18-.3.12l-1.76-.88v-.33l.57-1.72c.04-.13.2-.19.32-.11l1.62,1.08c.08.05.11.15.08.24l-.53,1.6Z"/>
          <path class="cls-2" d="M69.59,104.3c.07-.03.52-.23.99,0,.38.18.63.56.66.99,0,.9-.01,1.8-.02,2.7l-1.88-1.26.25-2.44Z"/>
          <path class="cls-2" d="M71.22,107.99l.11.07,1.89,1.19c.21.32.21.71,0,.99-.23.31-.61.33-.66.33-.73-.26-1.47-.51-2.2-.77"/>
          <path class="cls-2" d="M68.75,109.01l-.49,1.9c.04.08.21.47.66.66.48.21.92.03.99,0l.64-1.77"/>
          <path class="cls-2" d="M15.04,128.76c.13-.03.37-.06.66,0,.33.07.56.24.66.33"/>
          <line class="cls-2" x1="20" y1="129.43" x2="20.66" y2="129.76"/>
          <path class="cls-2" d="M20.99,130.75c.28-.34.69-.46.99-.33.19.08.29.24.33.33"/>
          <line class="cls-2" x1="33.22" y1="84.14" x2="26.28" y2="91.08"/>
          <line class="cls-2" x1="37.52" y1="85.79" x2="25.62" y2="95.05"/>
          <line class="cls-2" x1="25.29" y1="99.34" x2="38.51" y2="88.43"/>
          <line class="cls-2" x1="23.31" y1="103.64" x2="37.85" y2="93.06"/>
          <line class="cls-2" x1="20.33" y1="109.26" x2="34.21" y2="98.68"/>
          <line class="cls-2" x1="30.58" y1="104.3" x2="30.58" y2="104.63"/>
          <path class="cls-2" d="M19.34,111.9c1.82-.72,4.16-1.85,6.61-3.64,2.52-1.83,4.36-3.75,5.62-5.29"/>
          <path class="cls-2" d="M17.02,116.2c1.78-1.04,3.27-1.81,4.3-2.31,1.57-.77,2.22-1.02,3.31-1.65,1.66-.96,2.88-1.96,3.64-2.64"/>
          <path class="cls-2" d="M17.36,120.17c1.28-1.32,2.47-2.14,3.31-2.64,1.43-.86,2.24-1.04,3.64-1.98,1.24-.84,2.12-1.72,2.64-2.31"/>
          <path class="cls-2" d="M18.02,122.81c.35-.32.92-.8,1.65-1.32,1.25-.88,1.98-1.15,3.31-1.98.57-.36,1.38-.9,2.31-1.65"/>
          <path class="cls-2" d="M17.36,126.12c.91-.92,1.73-1.57,2.31-1.98,1.05-.76,1.7-1.05,2.98-1.98.73-.53,1.29-1.01,1.65-1.32"/>
          <path class="cls-2" d="M17.36,128.43c.69-.32,1.49-.75,2.31-1.32,1.13-.78,2-1.61,2.64-2.31"/>
          <path class="cls-2" d="M18.35,117.86c.18,1.35.48,2.92.99,4.63.58,1.96,1.3,3.62,1.98,4.96"/>
          <path class="cls-2" d="M75.87,130.09c.33.09.82.27,1.32.66.29.23.51.46.66.66.44.77.88,1.54,1.32,2.31-.33-1.21-.66-2.42-.99-3.64.66-.12,1.45-.32,2.31-.66.79-.31,1.45-.66,1.98-.99.22.99.44,1.98.66,2.98l2.64,10.91,1.98,5.62,1.98,4.63"/>
          <line class="cls-2" x1="74.88" y1="125.46" x2="78.51" y2="131.74"/>
          <path class="cls-2" d="M80.17,123.14c.37,1.05.73,2.26.99,3.64.16.82.26,1.59.33,2.31"/>
          <path class="cls-2" d="M76.22,131.89c.07-.29.18-.43.31-.48.6-.26,1.81,1.18,2.64,2.31,2.03,3.59,4.12,8.12,5.62,13.55.58,2.09,1.01,3.75,1.32,5.62"/>
          <path class="cls-2" d="M82.61,156.09c.21.05.78.23,1.19.78.18.24.28.48.33.66,1.3-.07,2.74-.09,4.3,0,1.97.11,5.4.69,6.94.99"/>
          <path class="cls-2" d="M79.17,136.37l4.96-1.65c.06.03.23.13.33.33.16.31.02.62,0,.66-1.65.44-3.31.88-4.96,1.32-.03-.01-.25-.1-.33-.33-.05-.15-.02-.28,0-.33Z"/>
          <path class="cls-2" d="M79.83,138.35l4.68-1.52c.06.02.19.08.28.2.13.18.13.44,0,.66-1.54.44-3.09.88-4.63,1.32-.03-.01-.25-.1-.33-.33-.05-.15-.02-.28,0-.33Z"/>
          <path class="cls-2" d="M81.16,140.67s-.05.18,0,.33c.08.23.3.32.33.33,1.32-.44,2.64-.88,3.97-1.32.02-.05.05-.18,0-.33-.08-.23-.3-.32-.33-.33-1.32.44-2.64.88-3.97,1.32"/>
          <path class="cls-2" d="M86.78,141.66l-4.63,1.32s-.16.35,0,.66c.1.2.27.3.33.33,1.42-.38,3.54-.94,4.96-1.32l-.66-.99Z"/>
          <path class="cls-2" d="M90.08,144.96c-1.26-.14-3-.16-4.96.33-.74.19-1.4.42-1.98.66-.02.04-.16.35,0,.66.1.2.27.3.33.33.66-.24,1.44-.48,2.31-.66,1.26-.26,2.38-.33,3.31-.33"/>
          <path class="cls-2" d="M90.08,148.27c-.9-.19-2.31-.35-3.97,0-.78.17-1.45.41-1.98.66-.03.02-.33.26-.33.66,0,.04,0,.42.33.66.5-.33,1.28-.75,2.31-.99,1.44-.34,2.65-.15,3.31,0"/>
          <path class="cls-2" d="M90.08,150.91c-.4-.23-1.5-.78-2.98-.66-1.34.11-2.27.71-2.64.99-.27.14-.4.43-.33.66.07.23.3.32.33.33.22-.23,1.29-1.29,2.98-1.32,1.14-.02,1.97.44,2.31.66"/>
          <path class="cls-2" d="M91.07,152.57c-.46-.24-1.54-.73-2.98-.66-1.49.07-2.54.7-2.98.99v.66c.48-.31,1.53-.89,2.98-.99,1.59-.11,2.79.4,3.31.66"/>
        </g>
      </g>
      <g>
        <rect class="cls-7" x="9.26" y="28.76" width="20.5" height="13.88" transform="translate(39.01 71.41) rotate(-180)"/>
        <polygon class="cls-8" points="3.64 38.02 9.26 42.65 9.26 28.76 3.64 25.38 3.64 38.02"/>
        <polyline class="cls-6" points="29.75 28.76 23.95 25.38 3.64 25.38 9.26 28.76"/>
        <polygon class="cls-8" points="23.95 25.38 25.79 15.21 4.96 15.21 3.64 25.38 23.95 25.38"/>
        <path class="cls-7" d="M3.64,25.38C1.41,24.6-.06,22.51,0,20.3c.07-2.57,2.18-4.83,4.96-5.09l-1.32,10.17Z"/>
      </g>
      <path class="cls-2" d="M58.68,39.18c.22.37.5.93.66,1.65.22,1,.1,1.83,0,2.31"/>
      <line class="cls-3" x1="46.94" y1="43.81" x2="49.92" y2="43.81"/>
      <line class="cls-3" x1="44.46" y1="47.44" x2="46.12" y2="47.44"/>
      <line class="cls-3" x1="46.78" y1="47.11" x2="49.42" y2="47.44"/>
      <line class="cls-3" x1="51.24" y1="43.81" x2="52.4" y2="43.81"/>
      <line class="cls-3" x1="51.24" y1="47.44" x2="52.4" y2="47.44"/>
      <path class="cls-3" d="M40.66,42.98c-.27-.04-.84-.09-1.49.17-.49.19-.81.48-.99.66"/>
      <path class="cls-2" d="M52.23,42.65l.33,4.96.85,1.99c.05.11.21.11.25-.01l.55-1.65v-5.36l-1.98.07Z"/>
    </g>
  </g>
</svg>