<?xml version="1.0" encoding="UTF-8"?>
<svg id="Layer_2" xmlns="http://www.w3.org/2000/svg" xmlns:xlink="http://www.w3.org/1999/xlink" viewBox="0 0 240.17 239.2">
  <defs>
    <style>
      .cls-1 {
        fill: #fff;
      }

      .cls-2 {
        fill: #65524d;
      }

      .cls-3 {
        fill: #00a6fb;
      }

      .cls-4 {
        clip-path: url(#clippath-1);
      }

      .cls-5 {
        fill: #5c4c47;
      }

      .cls-6 {
        fill: #facb0f;
      }

      .cls-7 {
        fill: #999;
      }

      .cls-8 {
        fill: #f9b9f2;
      }

      .cls-9 {
        fill: #ebebeb;
      }

      .cls-10 {
        fill: #f5f5f5;
      }

      .cls-11 {
        fill: #04071b;
      }

      .cls-12 {
        fill: #fcdc5f;
      }

      .cls-13 {
        clip-path: url(#clippath);
      }

      .cls-14 {
        fill: #710a65;
      }
    </style>
    <clipPath id="clippath">
      <path class="cls-2" d="M43.14,55.83c-10.15-13.54-6.63-29.15.94-33.29,5.92-3.23,15.97-.37,23.45,7.5-8.13,8.6-16.26,17.19-24.38,25.79Z"/>
    </clipPath>
    <clipPath id="clippath-1">
      <path class="cls-2" d="M116.97,17.47C125.48,6.06,139.22.36,151.66,3.14c16.5,3.68,28.73,21.82,25.37,41.82-7.64-9.53-16.98-12.15-20.96-9.13-3.29,2.49-2.68,8.65-2.46,10.41-12.22-9.59-24.43-19.18-36.65-28.77Z"/>
    </clipPath>
  </defs>
  <g id="Layer_1-2" data-name="Layer_1">
    <g>
      <path class="cls-2" d="M4.48,71.88c-.81-.65-1.7-1.46-2.61-2.45-.74-.82-1.36-1.61-1.88-2.34.52-.55,1.28-1.25,2.34-1.88.93-.55,1.79-.87,2.47-1.06-.27,1.01-.53,2.33-.59,3.87-.06,1.52.08,2.84.26,3.86Z"/>
      <path class="cls-9" d="M71.64,191.82c3.79,5.82,7.51,8.96,10.28,10.77,1.08.7,2.72,1.66,4.58,3.52,2.59,2.57,4.07,5.31,4.92,7.27.31-1.41.63-2.81.94-4.22.56.54,1.43,1.31,2.58,2.11,4.46,3.09,7.97,2.93,12.19,4.69,2.06.86,4.83,2.4,7.74,5.39-.16-1.09-.31-2.19-.47-3.28,1.96.88,5.13,2.22,9.14,3.52,10.72,3.47,16.09,2.68,25.79,6.1,2.43.86,6.06,2.3,10.32,4.69,8.34,2.52,16.72,1.02,21.57-4.22,2.1-2.27,3.18-4.85,3.75-7.03.09-.18.23-.39.47-.47.69-.24,1.54.89,1.68.78.26-.22-1.09-2.45-2.62-4.53-1.34-1.82-2.38-3.84-3.75-5.63-.04-.05-.14-.19-.11-.23.09-.16.9.08,1.99,1.17-1.18-3.59-1.21-7.99-.47-13.13.46-3.2,1.49-7.9,4.04-13.24-38.19,1.99-76.37,3.99-114.56,5.98Z"/>
      <g>
        <path class="cls-2" d="M43.14,55.83c-10.15-13.54-6.63-29.15.94-33.29,5.92-3.23,15.97-.37,23.45,7.5-8.13,8.6-16.26,17.19-24.38,25.79Z"/>
        <g class="cls-13">
          <ellipse class="cls-6" cx="45.05" cy="24.64" rx="10.85" ry="2.91" transform="translate(-6.16 28.47) rotate(-32.95)"/>
          <ellipse class="cls-3" cx="43.95" cy="24.14" rx="6.56" ry="1.76" transform="translate(-6.06 27.79) rotate(-32.95)"/>
          <path class="cls-6" d="M36.11,42.23c.65-1.81,1.55-3.89,2.81-6.1,1.7-2.97,3.55-5.29,5.16-7.03-1.73.79-4.23,2.21-6.56,4.69-1.24,1.32-2.15,2.63-2.81,3.75.47,1.56.94,3.13,1.41,4.69Z"/>
          <path class="cls-6" d="M35.64,47.39c.82-3.44,3.59-13.07,12.66-20.16,4.52-3.53,9.06-5.23,12.19-6.1l2.64,2.41c-6.97,1.51-11.29,4.66-13.42,6.5-3.52,3.03-5.52,6.3-7.97,10.32-2.5,4.1-4.13,7.75-5.16,10.32-.31-1.09-.63-2.19-.94-3.28Z"/>
        </g>
      </g>
      <path class="cls-9" d="M51.49,151.9c-3.24-6.77-6.43-12.35-9.05-16.59-3.29-5.32-7.91-12.73-15.47-21.1-3.44-3.81-6.57-6.79-8.91-8.91,1.02.23,2.03.47,3.05.7-3.84-7.18-7.02-12.89-9.14-16.65-4.91-8.7-7.07-12.16-7.5-17.82-.18-2.41-.71-9.33,3.28-12.19,3.64-2.61,9.19-.5,11.72.47,14.67,5.6,37.45,37.71,41.26,43.14-3.08,16.32-6.16,32.63-9.23,48.95Z"/>
      <path class="cls-2" d="M16.88,62.39c-.15,1.1-.83,2.63-1.88,2.81-1.61.28-3.49-2.76-4.22-5.16-.84-2.78-.61-6.26.47-6.56.84-.24,1.98,1.51,3.75,4.22,1.97,3.03,1.95,4.13,1.88,4.69Z"/>
      <path class="cls-2" d="M5.93,61.33c-1.76-2.45-2.43-4.8-1.71-5.51.76-.74,3.36.06,6.05,2.44-.52.07-1.39.26-2.3.84-1.18.75-1.79,1.74-2.04,2.22Z"/>
      <path class="cls-9" d="M205.38,84.43c.36-.57,8.51-13.02,18.29-11.72,10.72,1.43,14.37,17.61,15.47,22.51.65,2.87,2.88,13.48-2.34,23.45-1.22,2.33-1.88,2.78-4.22,6.1-3.22,4.57-7.42,11.44-11.12,21.05-5.36-20.46-10.71-40.92-16.07-61.38Z"/>
      <g>
        <path class="cls-2" d="M116.97,17.47C125.48,6.06,139.22.36,151.66,3.14c16.5,3.68,28.73,21.82,25.37,41.82-7.64-9.53-16.98-12.15-20.96-9.13-3.29,2.49-2.68,8.65-2.46,10.41-12.22-9.59-24.43-19.18-36.65-28.77Z"/>
        <g class="cls-4">
          <ellipse class="cls-6" cx="147.08" cy="6.35" rx="15.47" ry="6.33" transform="translate(-.13 5.07) rotate(-1.97)"/>
          <ellipse class="cls-3" cx="146.7" cy="5.54" rx="3.87" ry="11.14" transform="translate(139.44 152.17) rotate(-89.33)"/>
          <path class="cls-6" d="M126.33,7.92c3.48,4.98,7.15,10.9,10.63,17.78,3,5.94,5.32,11.56,7.14,16.64,1.25.05,2.51.1,3.76.15-1.7-5.2-4-11.11-7.17-17.39-3.95-7.82-8.25-14.27-12.17-19.39-.73.74-1.46,1.47-2.19,2.21Z"/>
          <path class="cls-6" d="M150.76,45.16c-.81-4.83-2.33-11.05-5.31-17.88-2.67-6.14-5.78-11.04-8.48-14.72,3.26,2.41,7.98,6.49,12.17,12.72,4.26,6.34,6.26,12.35,7.24,16.31-.73,2.64-1.46,5.27-2.19,7.91l-3.43-4.34Z"/>
        </g>
      </g>
      <path class="cls-5" d="M184.52,21.03c1.27-2.96,3.25-5.23,4.92-5.06,2.05.2,4.19,4.11,3.75,9.85l-8.21-.94-.47-3.85Z"/>
      <path class="cls-2" d="M201.16,22.06c1.3.89.39,5-2.72,12.32l-4.42-8.45c3.74-3.28,6.13-4.57,7.15-3.87Z"/>
      <path class="cls-9" d="M150.52,47.85l8.91-10.32v2.06c8.13-3.28,13.56-7.17,17.11-10.27,3.11-2.71,6.55-6.35,11.25-6.1,2.55.14,4.4,1.36,5.16,1.88,7.52,5.11,5.98,18.12,5.86,18.99-1.13,7.89-3.67,13.2-5.86,16.65-1.46,2.29-2.68,3.63-4.22,6.56-2.62,4.98-3.58,9.66-3.99,12.89-10.63-3.91-21.26-7.81-31.89-11.72l-2.34-20.63Z"/>
      <ellipse class="cls-8" cx="190.61" cy="37.07" rx="5.63" ry="9.14"/>
      <path class="cls-2" d="M177.67,28.33c1.47-5.84,3.69-9.75,5.2-9.55,1.46.19,2.53,4.25,2.64,9.55-.68,1.64-2.3,2.69-4.05,2.64-1.66-.05-3.15-1.09-3.8-2.64Z"/>
      <path class="cls-10" d="M206.32,81.62c-6.44-4.02-12.55-6.87-17.82-8.91l-15.03-1.19c-8.88-12.51-16.74-23.2-23.11-31.73-.29-1.07-.58-2.56-.55-4.36.03-1.54.28-2.84.55-3.81l-2.19,2.17-5.16-3.75c.63-.78,1.25-1.56,1.88-2.34-1.01-.02-2.41-.16-3.99-.7-2.26-.78-3.82-2-4.69-2.81-.47-1.72-.94-3.44-1.41-5.16-2.11.55-4.22,1.09-6.33,1.64l2.34-2.81c-.23-.7-.47-1.41-.7-2.11h-4.69c-.31-.47-.63-.94-.94-1.41-2.19.94-4.38,1.88-6.56,2.81-5.36-2-18.23-5.92-32.82-1.41-4.88,1.51-8.86,3.62-11.96,5.65v-4.48c-2.21,1.19-4.94,2.92-7.74,5.39-3.1,2.74-5.3,5.52-6.8,7.74-1.33-.39-2.66-.78-3.99-1.17-1.33,1.64-2.66,3.28-3.99,4.92-.7-.39-1.41-.78-2.11-1.17-.65,2.17-1.3,4.34-1.95,6.52-1.3-.69-2.61-1.37-3.91-2.06.26,2.63.43,8.13-2.58,13.83-1.22,2.32-2.67,4.1-3.93,5.39h2.76l-2.76,7.38c2.01,25.59,6.12,53.71,13.55,83.58,2.05,8.24,4.25,16.22,6.56,23.91l1.41-4.69,3.28,9.38c3.22,6.78,10.73,19.9,25.56,26.96,9.13,4.34,17.64,4.78,27.9,4.45,15.45-.48,38.85-2.79,67.99-11.72,23.35-14.54,30.8-29.2,33.28-38.07.39-.48.79-.99,1.19-1.55,3.4-4.79,4.51-9.49,5.16-12.66,1.56-7.64-8.74-12.03-6.8-32.59-5-5.38.58-23.15-8.91-29.07Z"/>
      <path class="cls-11" d="M45.95,52.07c.95-.92,2.65-2.34,5.16-3.28,1.86-.7,3.52-.9,4.69-.94,1.77-3.77,1.49-7.07,0-7.97-1.31-.8-3.47.32-3.75.47-1.18.61-2.11,1.58-3.28,3.75-.92,1.7-2.12,4.37-2.81,7.97Z"/>
      <path class="cls-1" d="M52.05,41.29c-.01-.05,1.61-1.13,2.81-.47.71.39,1.25,1.37.94,1.88-.2.32-.79.49-1.12.29-.41-.25-.2-.9-.76-1.43-.11-.11-.26-.2-.47-.26-.76-.24-1.39.07-1.41,0Z"/>
      <path class="cls-11" d="M91.44,38.48c.97.85,2.64-1.11,6.56-1.41,4.58-.35,6.39,2.01,7.97.94,2.5-1.7,2.06-10.37-2.34-12.19-4.11-1.7-8.93,3.71-9.38,4.22-2.56,2.94-4.06,7.34-2.81,8.44Z"/>
      <path class="cls-1" d="M101.28,27.22c-.01-.05,1.61-1.13,2.81-.47.71.39,1.25,1.37.94,1.88-.2.32-.79.49-1.12.29-.41-.25-.2-.9-.76-1.43-.11-.11-.26-.2-.47-.26-.76-.24-1.39.07-1.41,0Z"/>
      <path class="cls-8" d="M237.97,102.48c.15,5.72-2.7,13.31-7.97,14.54-6.41,1.49-13.47-7.14-15-14.54-.35-1.71-1.14-5.46.94-8.91,2.68-4.45,8.99-6.52,14.07-4.69,7.53,2.72,7.94,12.46,7.97,13.6Z"/>
      <circle class="cls-8" cx="225.54" cy="89.12" r="5.39"/>
      <path class="cls-2" d="M217.1,78.33c-.88,1.37-5.4-.22-6.1-.47-.94-3.51-1.09-6.49,0-7.03,1.33-.67,4.29,2.39,5.63,5.16.43.88.84,1.77.47,2.34Z"/>
      <path class="cls-2" d="M217.69,73.51c-.01-.34-.18-6.85,1.76-7.36,1.48-.39,4,2.77,6.1,7.88-.2.47-.52,1.15-.94,1.96-.65,1.24-.8,1.35-.94,1.41-.66.27-1.44-.45-3.28-1.88-1.13-.88-2.08-1.57-2.7-2.01Z"/>
      <path class="cls-2" d="M226.95,75.99c-.2-.58-.41-1.38-.47-2.34-.08-1.43.22-2.59.47-3.3.83.43,2.46,1.4,3.75,3.3,1.02,1.49,1.4,2.94,1.56,3.81-.02.22-.12.84-.63,1.35-.25.25-.52.39-.7.47-.39-.31-.78-.62-1.17-.94-.97-.78-1.9-1.56-2.81-2.34Z"/>
      <polygon class="cls-14" points="47.59 82.32 55.89 91.05 103.2 93.13 126.39 66.11 117.46 53.12 65.41 60.75 47.59 82.32"/>
      <path class="cls-8" d="M55.89,91.05c.81-2.14,2.34-5.23,5.3-7.79,5.76-4.97,13.65-5.07,20.63-5.16,8.46-.11,9.29,1.51,13.6,0,4.27-1.49,5.48-3.78,11.72-7.97,4.14-2.77,7.82-4.6,10.32-5.71,2.93-.03,25.3.12,36.57,16.5,1.8,2.61,6.35,9.23,5.63,18.29-1.06,13.22-12.51,20.6-14.07,21.57-4.63,2.59-15.12,7.62-29.07,7.03-3.87-.16-14.73-.75-25.32-7.5-8.21-5.24-9.09-9.62-20.16-18.76-6-4.95-11.45-8.37-15.15-10.5Z"/>
      <path class="cls-1" d="M62.83,50.67c-1.65-.56-3.22-.85-4.69-.94-16.51-1.01-29.03,22.1-30.48,24.85-.38-.88-.74-1.98-.94-3.28-.51-3.34.36-6.07.94-7.5-.6.67-4.97,5.76-3.75,12.66.79,4.49,3.73,8.46,7.5,10.32,8.62,4.24,20.78-3.06,26.73-9.38.33-.35,8.44-10.78,8.44-10.78h0c4.49,1.01,47.65,10.14,68.46-14.54,2.47-2.92,4.91-6.67,6.84-11.47l-17.63,3.97,6.1-3.28c-2.85.65-7.44,1.53-13.13,1.88-20.94,1.26-31.08-6.35-43.61-.94-2.77,1.2-6.77,3.51-10.78,8.44Z"/>
      <path class="cls-7" d="M70.34,155.23c1.75-1.73,4.08-3.73,7.03-5.63,3.12-2.01,6.05-3.33,8.44-4.22,2.1.36,45.64,7.13,71.74-24.38,14.62-17.66,15.85-37.77,15.94-45.01,3.26-.39,6.53-.79,9.79-1.18,4.2,3.98,17.84,17.9,20.21,40.1,3.47,32.33-19.97,54-22.51,56.27-11.11,4.58-25.67,9.38-43.14,12.19-14.49,2.34-27.4,2.73-37.98,2.34-4.09-1.85-9.55-4.9-15-9.85-8.23-7.47-12.45-15.66-14.54-20.63Z"/>
      <path class="cls-12" d="M76.67,157.34c8.69,2.81,21.57,5.48,36.57,3.28,7.6-1.11,16.71-2.56,25.79-9.38,7.85-5.9,12.02-13.07,14.07-17.35,4.08-.74,12.7-2.93,19.22-10.32,4.54-5.13,6.02-10.46,7.97-17.82,1.62-6.1,3.34-15.3,2.79-26.88,3.15,4.66,11.1,17.76,9.4,33.92-.34,3.2-1.19,11.29-6.1,19.69-2.89,4.95-5.24,6.67-7.5,11.72-2.86,6.4-3.09,12.57-2.81,16.88-3.28-1.02-8.45-2.17-14.54-1.41-10.4,1.31-14.02,7.03-23.91,11.25-13.67,5.83-26.84,3.47-30.48,2.81-15.46-2.77-25.79-11.7-30.48-16.41Z"/>
      <path class="cls-10" d="M90.26,135.3c.61.87,1.56,2.48,1.88,4.69.55,3.94-1.33,6.93-1.88,7.74,1.02-.97,2.26-2.02,3.75-3.05,2.15-1.48,4.21-2.48,5.91-3.17-.33.64-.87,1.95-.76,3.63.21,3.04,2.41,4.84,2.81,5.16-.06-1.19-.02-3.28.94-5.63.7-1.72,1.64-2.96,2.34-3.75"/>
      <path class="cls-10" d="M139.21,131.73c.31-.06,1.61-.27,2.87.53,1.49.95,1.44,3.21,1.81,3.17.25-.03.29-1.01.53-2.7.31-2.18.48-3.27.94-3.75.37-.39,1.04-.76,4.69-.47,1.32.11,3.19.31,5.42.75-.53-.22-2.03-.93-3.07-2.63-1.12-1.82-1-3.61-.94-4.17"/>
      <path class="cls-8" d="M11.25,82.08c.75,0,1.46-.42,1.88-.94,1.29-1.6-.54-3.62-.94-7.97-.36-3.88.83-5.2-.47-7.5-.14-.25-1.45-2.53-2.81-2.34-1.9.26-3.18,5.24-2.81,9.38.37,4.25,2.63,9.35,5.16,9.38Z"/>
      <path class="cls-2" d="M160.64,233.56c3.39,3.95,5,4.58,5.82,4.2.77-.36.88-1.61,1.64-5.39h0c-.21-.18-1.77-1.51-3.99-1.17-2.25.35-3.34,2.13-3.47,2.36Z"/>
      <path class="cls-2" d="M168.34,233.07c.57-.23,1.21-.53,1.88-.94,1.25-.77,2.18-1.63,2.81-2.34.68.26,2.04.67,3.75.47,2.08-.24,3.5-1.25,4.07-1.71-.13,5.89-1.79,10.22-4.07,10.62-1.22.21-2.57-.72-4.22-1.88-2.11-1.47-3.46-3.13-4.22-4.22Z"/>
      <path class="cls-2" d="M186.62,229.32c-.32.24-1.34.65-4.78-1.88.1-1.12.42-2.87,1.49-4.68.45-.77.95-1.39,1.41-1.88.64,1.36,3.39,7.31,1.88,8.44Z"/>
    </g>
  </g>
</svg>